<?xml version="1.0" standalone="no"?>
 <!DOCTYPE svg PUBLIC "-//W3C//DTD SVG 1.1//EN" 
 "http://www.w3.org/Graphics/SVG/1.1/DTD/svg11.dtd"> 
<svg
  xmlns:svg="http://www.w3.org/2000/svg"
  xmlns="http://www.w3.org/2000/svg"
  xmlns:xlink="http://www.w3.org/1999/xlink"
  version="1.1"
  width="297.0022mm" height="210.0072mm" viewBox="0.0000 0.0000 297.0022 210.0072">
<title>SVG Image created as flwr_v02-F_Paste.svg date 2026/01/10 12:26:10 </title>
  <desc>Image generated by PCBNEW </desc>
<g style="fill:#000000; fill-opacity:1.0000;stroke:#000000; stroke-opacity:1.0000;
stroke-linecap:round; stroke-linejoin:round;"
 transform="translate(0 0) scale(1 1)">
<path style="fill:#000000; fill-opacity:1.0000; stroke:none;fill-rule:evenodd;"
d="M 47.6500,141.7000
47.5543,141.6810
47.4732,141.6268
47.4190,141.5457
47.4000,141.4500
47.4000,140.8000
47.4190,140.7043
47.4732,140.6232
47.5543,140.5690
47.6500,140.5500
48.9500,140.5500
49.0457,140.5690
49.1268,140.6232
49.1810,140.7043
49.2000,140.8000
49.2000,141.4500
49.1810,141.5457
49.1268,141.6268
49.0457,141.6810
48.9500,141.7000
Z" /> 
<path style="fill:#000000; fill-opacity:1.0000; stroke:none;fill-rule:evenodd;"
d="M 47.6500,138.7500
47.5543,138.7310
47.4732,138.6768
47.4190,138.5957
47.4000,138.5000
47.4000,137.8500
47.4190,137.7543
47.4732,137.6732
47.5543,137.6190
47.6500,137.6000
48.9500,137.6000
49.0457,137.6190
49.1268,137.6732
49.1810,137.7543
49.2000,137.8500
49.2000,138.5000
49.1810,138.5957
49.1268,138.6768
49.0457,138.7310
48.9500,138.7500
Z" /> 
<path style="fill:#000000; fill-opacity:1.0000; stroke:none;fill-rule:evenodd;"
d="M 39.3593,130.7701
39.3082,130.7111
39.2836,130.6371
39.2892,130.5593
39.3241,130.4895
39.5696,130.1737
39.6286,130.1226
39.7026,130.0980
39.7805,130.1036
39.8502,130.1385
40.2845,130.4760
40.3356,130.5350
40.3602,130.6091
40.3546,130.6869
40.3197,130.7567
40.0742,131.0725
40.0152,131.1236
39.9411,131.1482
39.8633,131.1426
39.7935,131.1077
Z" /> 
<path style="fill:#000000; fill-opacity:1.0000; stroke:none;fill-rule:evenodd;"
d="M 40.3719,129.4674
40.3208,129.4084
40.2962,129.3344
40.3018,129.2565
40.3367,129.1867
40.5822,128.8709
40.6412,128.8198
40.7152,128.7952
40.7931,128.8008
40.8628,128.8358
41.2971,129.1733
41.3482,129.2323
41.3728,129.3063
41.3672,129.3842
41.3323,129.4539
41.0868,129.7698
41.0278,129.8208
40.9537,129.8455
40.8759,129.8399
40.8061,129.8049
Z" /> 
<path style="fill:#000000; fill-opacity:1.0000; stroke:none;fill-rule:evenodd;"
d="M 45.8689,123.6564
45.8831,123.5797
45.9257,123.5142
45.9900,123.4701
46.0663,123.4539
46.4663,123.4489
46.5430,123.4632
46.6085,123.5057
46.6526,123.5701
46.6688,123.6464
46.6756,124.1964
46.6614,124.2731
46.6188,124.3385
46.5545,124.3827
46.4782,124.3988
46.0782,124.4038
46.0015,124.3896
45.9360,124.3470
45.8919,124.2827
45.8757,124.2063
Z" /> 
<path style="fill:#000000; fill-opacity:1.0000; stroke:none;fill-rule:evenodd;"
d="M 47.5187,123.6358
47.5330,123.5591
47.5755,123.4937
47.6399,123.4495
47.7162,123.4333
48.1162,123.4283
48.1929,123.4426
48.2583,123.4852
48.3025,123.5495
48.3187,123.6258
48.3255,124.1758
48.3112,124.2525
48.2687,124.3179
48.2044,124.3621
48.1280,124.3783
47.7281,124.3833
47.6513,124.3690
47.5859,124.3265
47.5418,124.2621
47.5256,124.1858
Z" /> 
<path style="fill:#000000; fill-opacity:1.0000; stroke:none;fill-rule:evenodd;"
d="M 58.1978,141.4734
58.2182,141.5487
58.2083,141.6261
58.1694,141.6938
58.1077,141.7415
57.7495,141.9196
57.6742,141.9400
57.5968,141.9300
57.5291,141.8912
57.4814,141.8295
57.2366,141.3370
57.2161,141.2616
57.2261,141.1842
57.2649,141.1165
57.3267,141.0688
57.6849,140.8908
57.7602,140.8704
57.8376,140.8803
57.9053,140.9191
57.9530,140.9809
Z" /> 
<path style="fill:#000000; fill-opacity:1.0000; stroke:none;fill-rule:evenodd;"
d="M 56.7202,142.2078
56.7406,142.2831
56.7307,142.3605
56.6919,142.4282
56.6301,142.4759
56.2719,142.6539
56.1966,142.6744
56.1192,142.6644
56.0515,142.6256
56.0038,142.5639
55.7590,142.0713
55.7386,141.9960
55.7485,141.9186
55.7873,141.8509
55.8491,141.8032
56.2073,141.6252
56.2826,141.6048
56.3600,141.6147
56.4277,141.6535
56.4754,141.7153
Z" /> 
<path style="fill:#000000; fill-opacity:1.0000; stroke:none;fill-rule:evenodd;"
d="M 40.8624,140.2949
40.7844,140.2980
40.7112,140.2711
40.6538,140.2182
40.6210,140.1474
40.5272,139.7586
40.5240,139.6806
40.5509,139.6073
40.6038,139.5500
40.6747,139.5172
41.2093,139.3882
41.2873,139.3850
41.3605,139.4119
41.4179,139.4648
41.4507,139.5356
41.5445,139.9245
41.5477,140.0024
41.5208,140.0757
41.4679,140.1331
41.3970,140.1658
Z" /> 
<path style="fill:#000000; fill-opacity:1.0000; stroke:none;fill-rule:evenodd;"
d="M 40.4752,138.6910
40.3972,138.6941
40.3240,138.6672
40.2666,138.6143
40.2339,138.5435
40.1400,138.1546
40.1368,138.0767
40.1638,138.0034
40.2167,137.9460
40.2875,137.9133
40.8221,137.7842
40.9001,137.7811
40.9733,137.8080
41.0307,137.8609
41.0635,137.9317
41.1573,138.3205
41.1605,138.3985
41.1336,138.4718
41.0807,138.5291
41.0098,138.5619
Z" /> 
<path style="fill:#000000; fill-opacity:1.0000; stroke:none;fill-rule:evenodd;"
d="M 60.6026,140.8604
60.6577,140.9256
60.6836,141.0069
60.6764,141.0920
60.6373,141.1678
60.3645,141.5098
60.2993,141.5649
60.2179,141.5908
60.1329,141.5836
60.0571,141.5445
59.6564,141.2249
59.6013,141.1597
59.5754,141.0784
59.5826,140.9933
59.6217,140.9175
59.8945,140.5755
59.9597,140.5204
60.0411,140.4945
60.1261,140.5017
60.2019,140.5408
Z" /> 
<path style="fill:#000000; fill-opacity:1.0000; stroke:none;fill-rule:evenodd;"
d="M 59.6206,142.0918
59.6757,142.1570
59.7016,142.2383
59.6944,142.3233
59.6553,142.3992
59.3825,142.7412
59.3173,142.7963
59.2360,142.8222
59.1509,142.8150
59.0751,142.7759
58.6744,142.4563
58.6193,142.3911
58.5934,142.3098
58.6006,142.2247
58.6397,142.1489
58.9125,141.8068
58.9777,141.7518
59.0591,141.7259
59.1441,141.7330
59.2199,141.7722
Z" /> 
<path style="fill:#000000; fill-opacity:1.0000; stroke:none;fill-rule:evenodd;"
d="M 43.9420,124.6320
44.0070,124.6751
44.0506,124.7398
44.0662,124.8163
44.0512,124.8929
43.8995,125.2630
43.8564,125.3281
43.7917,125.3717
43.7152,125.3872
43.6386,125.3722
43.1297,125.1637
43.0647,125.1205
43.0211,125.0558
43.0055,124.9793
43.0205,124.9028
43.1722,124.5326
43.2153,124.4676
43.2800,124.4240
43.3565,124.4085
43.4331,124.4234
Z" /> 
<path style="fill:#000000; fill-opacity:1.0000; stroke:none;fill-rule:evenodd;"
d="M 43.3163,126.1587
43.3813,126.2019
43.4249,126.2666
43.4404,126.3431
43.4255,126.4196
43.2738,126.7898
43.2307,126.8548
43.1660,126.8984
43.0895,126.9139
43.0129,126.8990
42.5040,126.6904
42.4389,126.6473
42.3953,126.5826
42.3798,126.5061
42.3948,126.4295
42.5465,126.0594
42.5896,125.9943
42.6543,125.9507
42.7308,125.9352
42.8074,125.9502
Z" /> 
<path style="fill:#000000; fill-opacity:1.0000; stroke:none;fill-rule:evenodd;"
d="M 46.2804,141.1354
46.2578,141.1894
46.2163,141.2306
46.1622,141.2528
46.1037,141.2527
44.9520,141.0198
44.8979,140.9973
44.8567,140.9558
44.8345,140.9016
44.8346,140.8431
44.8941,140.5490
44.9167,140.4950
44.9582,140.4538
45.0123,140.4315
45.0708,140.4317
46.2225,140.6646
46.2765,140.6871
46.3178,140.7286
46.3400,140.7828
46.3398,140.8413
Z" /> 
<path style="fill:#000000; fill-opacity:1.0000; stroke:none;fill-rule:evenodd;"
d="M 46.6569,139.2730
46.6343,139.3270
46.5928,139.3683
46.5387,139.3905
46.4801,139.3903
45.3284,139.1575
45.2744,139.1349
45.2332,139.0934
45.2109,139.0393
45.2111,138.9808
45.2706,138.6867
45.2931,138.6327
45.3346,138.5915
45.3888,138.5692
45.4473,138.5694
46.5990,138.8022
46.6530,138.8248
46.6943,138.8663
46.7165,138.9204
46.7163,138.9790
Z" /> 
<path style="fill:#000000; fill-opacity:1.0000; stroke:none;fill-rule:evenodd;"
d="M 44.6308,139.8327
44.6082,139.8867
44.5667,139.9279
44.5126,139.9502
44.4541,139.9500
43.3024,139.7171
43.2484,139.6946
43.2071,139.6531
43.1849,139.5989
43.1851,139.5404
43.2445,139.2463
43.2671,139.1923
43.3086,139.1511
43.3627,139.1289
43.4213,139.1290
44.5730,139.3619
44.6270,139.3844
44.6682,139.4259
44.6904,139.4801
44.6903,139.5386
Z" /> 
<path style="fill:#000000; fill-opacity:1.0000; stroke:none;fill-rule:evenodd;"
d="M 53.5251,123.4122
53.5320,123.4900
53.5086,123.5644
53.4584,123.6242
53.3892,123.6603
53.0053,123.7725
52.9276,123.7793
52.8531,123.7559
52.7933,123.7058
52.7572,123.6366
52.6030,123.1086
52.5961,123.0309
52.6196,122.9565
52.6697,122.8966
52.7389,122.8606
53.1228,122.7484
53.2006,122.7416
53.2750,122.7650
53.3348,122.8151
53.3709,122.8843
Z" /> 
<path style="fill:#000000; fill-opacity:1.0000; stroke:none;fill-rule:evenodd;"
d="M 51.9413,123.8749
51.9482,123.9527
51.9248,124.0271
51.8746,124.0869
51.8054,124.1230
51.4215,124.2352
51.3438,124.2420
51.2693,124.2186
51.2095,124.1685
51.1734,124.0993
51.0192,123.5713
51.0123,123.4936
51.0358,123.4192
51.0859,123.3594
51.1551,123.3233
51.5390,123.2111
51.6168,123.2043
51.6912,123.2277
51.7510,123.2778
51.7871,123.3470
Z" /> 
<path style="fill:#000000; fill-opacity:1.0000; stroke:none;fill-rule:evenodd;"
d="M 48.7642,125.9895
48.8586,125.9651
48.9552,125.9788
49.0392,126.0283
49.0979,126.1063
49.3799,126.6919
49.4043,126.7863
49.3906,126.8829
49.3411,126.9669
49.2631,127.0256
48.0919,127.5896
47.9974,127.6140
47.9008,127.6004
47.8168,127.5508
47.7582,127.4729
47.4761,126.8872
47.4518,126.7928
47.4654,126.6962
47.5150,126.6122
47.5929,126.5535
Z" /> 
<path style="fill:#000000; fill-opacity:1.0000; stroke:none;fill-rule:evenodd;"
d="M 50.0441,128.6473
50.1386,128.6230
50.2352,128.6366
50.3192,128.6862
50.3778,128.7641
50.6599,129.3497
50.6842,129.4442
50.6706,129.5408
50.6210,129.6248
50.5431,129.6835
49.3718,130.2475
49.2774,130.2719
49.1808,130.2582
49.0968,130.2087
49.0381,130.1307
48.7561,129.5451
48.7317,129.4506
48.7454,129.3541
48.7949,129.2700
48.8729,129.2114
Z" /> 
<path style="fill:#000000; fill-opacity:1.0000; stroke:none;fill-rule:evenodd;"
d="M 54.5769,140.6276
54.5023,140.6905
54.4094,140.7201
54.3122,140.7119
54.2255,140.6672
53.7174,140.2619
53.6544,140.1874
53.6248,140.0944
53.6330,139.9972
53.6778,139.9106
54.4883,138.8942
54.5628,138.8313
54.6558,138.8016
54.7530,138.8098
54.8396,138.8546
55.3478,139.2599
55.4108,139.3344
55.4404,139.4273
55.4322,139.5245
55.3874,139.6112
Z" /> 
<path style="fill:#000000; fill-opacity:1.0000; stroke:none;fill-rule:evenodd;"
d="M 52.2705,138.7883
52.1959,138.8512
52.1030,138.8809
52.0058,138.8727
51.9191,138.8279
51.4110,138.4226
51.3480,138.3481
51.3184,138.2551
51.3266,138.1579
51.3714,138.0713
52.1819,137.0549
52.2564,136.9920
52.3494,136.9623
52.4466,136.9705
52.5332,137.0153
53.0414,137.4206
53.1044,137.4951
53.1340,137.5881
53.1258,137.6853
53.0810,137.7719
Z" /> 
<path style="fill:#000000; fill-opacity:1.0000; stroke:none;fill-rule:evenodd;"
d="M 42.4927,136.9530
42.4479,136.8663
42.4398,136.7691
42.4694,136.6762
42.5323,136.6017
43.0405,136.1964
43.1272,136.1516
43.2244,136.1434
43.3173,136.1730
43.3918,136.2360
44.2024,137.2524
44.2471,137.3390
44.2553,137.4362
44.2257,137.5292
44.1628,137.6037
43.6546,138.0090
43.5679,138.0537
43.4707,138.0619
43.3778,138.0323
43.3033,137.9694
Z" /> 
<path style="fill:#000000; fill-opacity:1.0000; stroke:none;fill-rule:evenodd;"
d="M 44.7991,135.1137
44.7544,135.0270
44.7462,134.9298
44.7758,134.8369
44.8387,134.7624
45.3469,134.3571
45.4336,134.3123
45.5308,134.3041
45.6237,134.3337
45.6982,134.3967
46.5088,135.4131
46.5535,135.4997
46.5617,135.5969
46.5321,135.6899
46.4692,135.7644
45.9610,136.1697
45.8743,136.2144
45.7771,136.2226
45.6842,136.1930
45.6097,136.1301
Z" /> 
<path style="fill:#000000; fill-opacity:1.0000; stroke:none;fill-rule:evenodd;"
d="M 43.8438,128.7515
43.7962,128.7175
43.7652,128.6679
43.7556,128.6101
43.7688,128.5531
44.2521,127.4821
44.2861,127.4345
44.3357,127.4035
44.3935,127.3939
44.4505,127.4071
44.7239,127.5304
44.7716,127.5645
44.8025,127.6141
44.8122,127.6718
44.7990,127.7289
44.3157,128.7999
44.2817,128.8475
44.2320,128.8785
44.1743,128.8881
44.1173,128.8749
Z" /> 
<path style="fill:#000000; fill-opacity:1.0000; stroke:none;fill-rule:evenodd;"
d="M 45.5757,129.5330
45.5281,129.4990
45.4971,129.4493
45.4875,129.3916
45.5007,129.3346
45.9839,128.2635
46.0179,128.2159
46.0676,128.1849
46.1253,128.1753
46.1823,128.1885
46.4558,128.3119
46.5034,128.3459
46.5344,128.3956
46.5440,128.4533
46.5308,128.5103
46.0476,129.5813
46.0135,129.6290
45.9639,129.6599
45.9062,129.6696
45.8491,129.6564
Z" /> 
<path style="fill:#000000; fill-opacity:1.0000; stroke:none;fill-rule:evenodd;"
d="M 45.4809,127.4332
45.4333,127.3992
45.4023,127.3495
45.3927,127.2918
45.4059,127.2348
45.8892,126.1637
45.9232,126.1161
45.9728,126.0851
46.0306,126.0755
46.0876,126.0887
46.3610,126.2121
46.4087,126.2461
46.4396,126.2958
46.4493,126.3535
46.4361,126.4105
45.9528,127.4815
45.9188,127.5292
45.8691,127.5601
45.8114,127.5698
45.7544,127.5566
Z" /> 
<path style="fill:#000000; fill-opacity:1.0000; stroke:none;fill-rule:evenodd;"
d="M 56.4594,129.1317
56.5031,129.0928
56.5584,129.0737
56.6168,129.0772
56.6695,129.1027
57.6061,129.8122
57.6450,129.8559
57.6641,129.9112
57.6607,129.9697
57.6351,130.0223
57.4540,130.2615
57.4102,130.3003
57.3549,130.3195
57.2965,130.3160
57.2438,130.2905
56.3072,129.5810
56.2683,129.5372
56.2492,129.4819
56.2527,129.4235
56.2782,129.3708
Z" /> 
<path style="fill:#000000; fill-opacity:1.0000; stroke:none;fill-rule:evenodd;"
d="M 55.3121,130.6463
55.3559,130.6074
55.4112,130.5882
55.4696,130.5917
55.5223,130.6173
56.4589,131.3267
56.4978,131.3705
56.5169,131.4258
56.5135,131.4842
56.4879,131.5369
56.3068,131.7760
56.2630,131.8149
56.2077,131.8340
56.1493,131.8306
56.0966,131.8050
55.1600,131.0955
55.1211,131.0518
55.1020,130.9965
55.1054,130.9381
55.1310,130.8854
Z" /> 
<path style="fill:#000000; fill-opacity:1.0000; stroke:none;fill-rule:evenodd;"
d="M 57.3804,131.0211
57.4241,130.9823
57.4794,130.9631
57.5378,130.9666
57.5905,130.9921
58.5271,131.7016
58.5660,131.7454
58.5852,131.8007
58.5817,131.8591
58.5561,131.9117
58.3750,132.1509
58.3312,132.1897
58.2759,132.2089
58.2175,132.2054
58.1648,132.1799
57.2282,131.4704
57.1894,131.4266
57.1702,131.3713
57.1737,131.3129
57.1992,131.2603
Z" /> 
<path style="fill:#000000; fill-opacity:1.0000; stroke:none;fill-rule:evenodd;"
d="M 55.4893,124.3104
55.5581,124.2737
55.6358,124.2662
55.7105,124.2890
55.7707,124.3386
56.0240,124.6482
56.0607,124.7171
56.0682,124.7947
56.0454,124.8694
55.9958,124.9296
55.5701,125.2779
55.5012,125.3145
55.4236,125.3221
55.3489,125.2993
55.2887,125.2497
55.0354,124.9401
54.9987,124.8712
54.9912,124.7936
55.0140,124.7189
55.0636,124.6587
Z" /> 
<path style="fill:#000000; fill-opacity:1.0000; stroke:none;fill-rule:evenodd;"
d="M 56.5340,125.5875
56.6029,125.5508
56.6806,125.5433
56.7552,125.5661
56.8155,125.6157
57.0687,125.9253
57.1054,125.9942
57.1129,126.0718
57.0902,126.1465
57.0406,126.2067
56.6149,126.5550
56.5460,126.5916
56.4683,126.5992
56.3937,126.5764
56.3334,126.5268
56.0802,126.2172
56.0435,126.1483
56.0360,126.0707
56.0587,125.9960
56.1083,125.9358
Z" /> 
<path style="fill:#000000; fill-opacity:1.0000; stroke:none;fill-rule:evenodd;"
d="M 54.3565,122.1023
54.4078,122.0341
54.4813,121.9907
54.5658,121.9788
54.6485,122.0001
55.0426,122.1899
55.1108,122.2412
55.1542,122.3148
55.1661,122.3993
55.1448,122.4819
54.9224,122.9437
54.8711,123.0119
54.7976,123.0552
54.7131,123.0672
54.6304,123.0458
54.2363,122.8560
54.1681,122.8047
54.1247,122.7312
54.1128,122.6467
54.1341,122.5640
Z" /> 
<path style="fill:#000000; fill-opacity:1.0000; stroke:none;fill-rule:evenodd;"
d="M 55.7755,122.7856
55.8268,122.7174
55.9003,122.6741
55.9848,122.6621
56.0675,122.6835
56.4617,122.8733
56.5299,122.9246
56.5732,122.9981
56.5852,123.0826
56.5638,123.1653
56.3415,123.6270
56.2901,123.6952
56.2166,123.7386
56.1321,123.7505
56.0495,123.7292
55.6553,123.5394
55.5871,123.4881
55.5437,123.4145
55.5318,123.3300
55.5531,123.2474
Z" /> 
<path style="fill:#000000; fill-opacity:1.0000; stroke:none;fill-rule:evenodd;"
d="M 51.2250,146.5563
51.2083,146.6400
51.1609,146.7109
51.0900,146.7583
51.0062,146.7750
50.5687,146.7750
50.4850,146.7583
50.4141,146.7109
50.3667,146.6400
50.3500,146.5563
50.3500,146.0437
50.3667,145.9600
50.4141,145.8891
50.4850,145.8417
50.5687,145.8250
51.0062,145.8250
51.0900,145.8417
51.1609,145.8891
51.2083,145.9600
51.2250,146.0437
Z" /> 
<path style="fill:#000000; fill-opacity:1.0000; stroke:none;fill-rule:evenodd;"
d="M 49.6500,146.5563
49.6333,146.6400
49.5859,146.7109
49.5150,146.7583
49.4312,146.7750
48.9937,146.7750
48.9100,146.7583
48.8391,146.7109
48.7917,146.6400
48.7750,146.5563
48.7750,146.0437
48.7917,145.9600
48.8391,145.8891
48.9100,145.8417
48.9937,145.8250
49.4312,145.8250
49.5150,145.8417
49.5859,145.8891
49.6333,145.9600
49.6500,146.0437
Z" /> 
<path style="fill:#000000; fill-opacity:1.0000; stroke:none;fill-rule:evenodd;"
d="M 43.4362,123.1653
43.4148,123.0826
43.4268,122.9981
43.4701,122.9246
43.5383,122.8733
43.9325,122.6835
44.0152,122.6621
44.0997,122.6741
44.1732,122.7174
44.2245,122.7856
44.4469,123.2474
44.4682,123.3300
44.4563,123.4145
44.4129,123.4881
44.3447,123.5394
43.9505,123.7292
43.8679,123.7505
43.7834,123.7386
43.7099,123.6952
43.6585,123.6270
Z" /> 
<path style="fill:#000000; fill-opacity:1.0000; stroke:none;fill-rule:evenodd;"
d="M 44.8552,122.4819
44.8339,122.3993
44.8458,122.3148
44.8892,122.2412
44.9574,122.1899
45.3515,122.0001
45.4342,121.9788
45.5187,121.9907
45.5922,122.0341
45.6435,122.1023
45.8659,122.5640
45.8872,122.6467
45.8753,122.7312
45.8319,122.8047
45.7637,122.8560
45.3696,123.0458
45.2869,123.0672
45.2024,123.0552
45.1289,123.0119
45.0776,122.9437
Z" /> 
<path style="fill:#000000; fill-opacity:1.0000; stroke:none;fill-rule:evenodd;"
d="M 55.4704,128.0287
55.5483,128.0874
55.5979,128.1714
55.6115,128.2680
55.5871,128.3624
55.3051,128.9481
55.2465,129.0260
55.1625,129.0756
55.0659,129.0892
54.9714,129.0648
53.8002,128.5008
53.7222,128.4421
53.6727,128.3581
53.6590,128.2615
53.6834,128.1671
53.9654,127.5815
54.0241,127.5035
54.1081,127.4540
54.2047,127.4403
54.2991,127.4647
Z" /> 
<path style="fill:#000000; fill-opacity:1.0000; stroke:none;fill-rule:evenodd;"
d="M 54.1904,130.6866
54.2684,130.7452
54.3179,130.8293
54.3316,130.9259
54.3072,131.0203
54.0252,131.6059
53.9665,131.6839
53.8825,131.7334
53.7859,131.7471
53.6915,131.7227
52.5202,131.1587
52.4423,131.1000
52.3927,131.0160
52.3791,130.9194
52.4034,130.8249
52.6854,130.2393
52.7441,130.1614
52.8281,130.1118
52.9247,130.0982
53.0192,130.1225
Z" /> 
<path style="fill:#000000; fill-opacity:1.0000; stroke:none;fill-rule:evenodd;"
d="M 49.2463,145.0583
49.2002,145.1212
49.1334,145.1617
49.0563,145.1736
48.9805,145.1550
48.6180,144.9860
48.5551,144.9398
48.5146,144.8731
48.5027,144.7960
48.5213,144.7202
48.7537,144.2217
48.7998,144.1588
48.8666,144.1183
48.9437,144.1064
49.0195,144.1250
49.3820,144.2940
49.4449,144.3402
49.4854,144.4069
49.4973,144.4840
49.4787,144.5598
Z" /> 
<path style="fill:#000000; fill-opacity:1.0000; stroke:none;fill-rule:evenodd;"
d="M 47.7509,144.3610
47.7048,144.4239
47.6380,144.4644
47.5609,144.4762
47.4851,144.4577
47.1226,144.2887
47.0597,144.2425
47.0192,144.1758
47.0073,144.0987
47.0259,144.0229
47.2583,143.5244
47.3044,143.4615
47.3711,143.4210
47.4483,143.4091
47.5241,143.4277
47.8866,143.5967
47.9495,143.6429
47.9900,143.7096
48.0019,143.7867
47.9833,143.8625
Z" /> 
<path style="fill:#000000; fill-opacity:1.0000; stroke:none;fill-rule:evenodd;"
d="M 60.4538,130.1441
60.3973,130.1979
60.3245,130.2260
60.2464,130.2241
60.1751,130.1925
59.8480,129.9623
59.7942,129.9058
59.7661,129.8330
59.7680,129.7550
59.7996,129.6836
60.1162,129.2339
60.1727,129.1800
60.2455,129.1519
60.3235,129.1538
60.3948,129.1854
60.7219,129.4157
60.7758,129.4722
60.8039,129.5450
60.8020,129.6230
60.7704,129.6944
Z" /> 
<path style="fill:#000000; fill-opacity:1.0000; stroke:none;fill-rule:evenodd;"
d="M 59.1045,129.1943
59.0480,129.2482
58.9752,129.2763
58.8972,129.2744
58.8259,129.2428
58.4988,129.0125
58.4449,128.9560
58.4168,128.8832
58.4187,128.8052
58.4504,128.7338
58.7669,128.2841
58.8234,128.2303
58.8962,128.2022
58.9743,128.2041
59.0456,128.2357
59.3727,128.4659
59.4265,128.5224
59.4546,128.5952
59.4527,128.6732
59.4211,128.7446
Z" /> 
<path style="fill:#000000; fill-opacity:1.0000; stroke:none;fill-rule:evenodd;"
d="M 38.9207,132.8849
38.9949,132.8609
39.0727,132.8672
39.1422,132.9027
39.1927,132.9622
39.3875,133.3115
39.4115,133.3858
39.4053,133.4636
39.3697,133.5331
39.3103,133.5836
38.8299,133.8515
38.7556,133.8754
38.6778,133.8692
38.6084,133.8336
38.5578,133.7742
38.3630,133.4248
38.3390,133.3506
38.3453,133.2728
38.3809,133.2033
38.4403,133.1527
Z" /> 
<path style="fill:#000000; fill-opacity:1.0000; stroke:none;fill-rule:evenodd;"
d="M 39.7242,134.3260
39.7985,134.3020
39.8762,134.3083
39.9457,134.3439
39.9963,134.4033
40.1911,134.7527
40.2151,134.8269
40.2088,134.9047
40.1732,134.9742
40.1138,135.0247
39.6334,135.2926
39.5592,135.3166
39.4814,135.3103
39.4119,135.2747
39.3613,135.2153
39.1665,134.8659
39.1426,134.7917
39.1488,134.7139
39.1844,134.6444
39.2438,134.5939
Z" /> 
<path style="fill:#000000; fill-opacity:1.0000; stroke:none;fill-rule:evenodd;"
d="M 51.4056,145.0153
51.3657,144.9483
51.3545,144.8710
51.3737,144.7954
51.4204,144.7329
51.7177,144.4652
51.7848,144.4253
51.8620,144.4141
51.9376,144.4333
52.0002,144.4800
52.3682,144.8887
52.4081,144.9558
52.4193,145.0330
52.4001,145.1087
52.3534,145.1712
52.0561,145.4389
51.9890,145.4788
51.9118,145.4899
51.8362,145.4707
51.7737,145.4240
Z" /> 
<path style="fill:#000000; fill-opacity:1.0000; stroke:none;fill-rule:evenodd;"
d="M 52.6318,143.9113
52.5919,143.8442
52.5807,143.7670
52.5999,143.6913
52.6466,143.6288
52.9439,143.3611
53.0110,143.3212
53.0882,143.3101
53.1638,143.3293
53.2263,143.3760
53.5944,143.7847
53.6343,143.8517
53.6455,143.9290
53.6263,144.0046
53.5796,144.0671
53.2823,144.3348
53.2152,144.3747
53.1380,144.3859
53.0624,144.3667
52.9998,144.3200
Z" /> 
<path style="fill:#000000; fill-opacity:1.0000; stroke:none;fill-rule:evenodd;"
d="M 58.0573,134.5433
58.0600,134.6408
58.0252,134.7319
57.9582,134.8028
57.8692,134.8427
57.2355,134.9873
57.1380,134.9900
57.0468,134.9553
56.9759,134.8882
56.9361,134.7992
56.6468,133.5318
56.6441,133.4343
56.6789,133.3432
56.7459,133.2723
56.8349,133.2324
57.4686,133.0878
57.5661,133.0851
57.6573,133.1198
57.7282,133.1869
57.7680,133.2759
Z" /> 
<path style="fill:#000000; fill-opacity:1.0000; stroke:none;fill-rule:evenodd;"
d="M 55.1812,135.1997
55.1840,135.2972
55.1492,135.3884
55.0822,135.4593
54.9931,135.4991
54.3594,135.6437
54.2619,135.6465
54.1708,135.6117
54.0999,135.5447
54.0601,135.4556
53.7708,134.1882
53.7681,134.0907
53.8028,133.9996
53.8699,133.9287
53.9589,133.8889
54.5926,133.7442
54.6901,133.7415
54.7812,133.7763
54.8521,133.8433
54.8920,133.9323
Z" /> 
<path style="fill:#000000; fill-opacity:1.0000; stroke:none;fill-rule:evenodd;"
d="M 53.2815,141.3463
53.3096,141.3976
53.3160,141.4558
53.2996,141.5120
53.2630,141.5577
52.3629,142.3129
52.3116,142.3411
52.2534,142.3475
52.1972,142.3311
52.1516,142.2944
51.9587,142.0646
51.9306,142.0133
51.9242,141.9551
51.9406,141.8990
51.9772,141.8533
52.8773,141.0980
52.9286,141.0699
52.9868,141.0635
53.0430,141.0799
53.0887,141.1165
Z" /> 
<path style="fill:#000000; fill-opacity:1.0000; stroke:none;fill-rule:evenodd;"
d="M 52.0602,139.8909
52.0883,139.9422
52.0947,140.0003
52.0783,140.0565
52.0417,140.1022
51.1416,140.8575
51.0903,140.8856
51.0321,140.8920
50.9759,140.8756
50.9303,140.8390
50.7374,140.6091
50.7093,140.5578
50.7029,140.4997
50.7193,140.4435
50.7559,140.3978
51.6560,139.6425
51.7073,139.6144
51.7655,139.6080
51.8217,139.6244
51.8674,139.6610
Z" /> 
<path style="fill:#000000; fill-opacity:1.0000; stroke:none;fill-rule:evenodd;"
d="M 51.2345,141.8238
51.2627,141.8751
51.2690,141.9333
51.2527,141.9895
51.2160,142.0351
50.3159,142.7904
50.2646,142.8186
50.2064,142.8249
50.1502,142.8086
50.1046,142.7719
49.9118,142.5421
49.8836,142.4908
49.8772,142.4326
49.8936,142.3764
49.9302,142.3308
50.8303,141.5755
50.8817,141.5474
50.9398,141.5410
50.9960,141.5574
51.0417,141.5940
Z" /> 
<path style="fill:#000000; fill-opacity:1.0000; stroke:none;fill-rule:evenodd;"
d="M 42.9886,129.9611
43.0284,129.8721
43.0993,129.8051
43.1904,129.7703
43.2879,129.7730
43.9216,129.9177
44.0107,129.9575
44.0777,130.0284
44.1125,130.1195
44.1097,130.2170
43.8205,131.4845
43.7806,131.5735
43.7097,131.6405
43.6186,131.6753
43.5211,131.6726
42.8874,131.5279
42.7984,131.4881
42.7313,131.4172
42.6966,131.3261
42.6993,131.2286
Z" /> 
<path style="fill:#000000; fill-opacity:1.0000; stroke:none;fill-rule:evenodd;"
d="M 45.8646,130.6176
45.9045,130.5285
45.9753,130.4615
46.0665,130.4267
46.1640,130.4295
46.7977,130.5741
46.8867,130.6140
46.9537,130.6848
46.9885,130.7760
46.9858,130.8735
46.6965,132.1409
46.6567,132.2299
46.5858,132.2969
46.4946,132.3317
46.3971,132.3290
45.7634,132.1844
45.6744,132.1445
45.6074,132.0736
45.5726,131.9825
45.5753,131.8850
Z" /> 
<path style="fill:#000000; fill-opacity:1.0000; stroke:none;fill-rule:evenodd;"
d="M 60.9761,132.2397
61.0478,132.2707
61.1021,132.3268
61.1308,132.3993
61.1296,132.4773
61.0455,132.8684
61.0145,132.9400
60.9584,132.9943
60.8859,133.0231
60.8079,133.0218
60.2702,132.9061
60.1985,132.8752
60.1442,132.8191
60.1155,132.7466
60.1167,132.6685
60.2009,132.2775
60.2318,132.2059
60.2879,132.1516
60.3604,132.1228
60.4384,132.1240
Z" /> 
<path style="fill:#000000; fill-opacity:1.0000; stroke:none;fill-rule:evenodd;"
d="M 60.6291,133.8528
60.7007,133.8838
60.7550,133.9398
60.7837,134.0124
60.7825,134.0904
60.6984,134.4815
60.6674,134.5531
60.6114,134.6074
60.5388,134.6361
60.4608,134.6349
59.9231,134.5192
59.8515,134.4882
59.7972,134.4322
59.7684,134.3597
59.7696,134.2816
59.8538,133.8906
59.8848,133.8190
59.9408,133.7646
60.0133,133.7359
60.0914,133.7371
Z" /> 
<path style="fill:#000000; fill-opacity:1.0000; stroke:none;fill-rule:evenodd;"
d="M 61.9963,129.9773
62.0816,129.9749
62.1613,130.0054
62.2233,130.0640
62.2582,130.1419
62.3555,130.5684
62.3579,130.6538
62.3275,130.7335
62.2689,130.7955
62.1910,130.8304
61.6913,130.9444
61.6060,130.9468
61.5262,130.9164
61.4642,130.8577
61.4294,130.7798
61.3320,130.3533
61.3296,130.2680
61.3601,130.1882
61.4187,130.1262
61.4966,130.0914
Z" /> 
<path style="fill:#000000; fill-opacity:1.0000; stroke:none;fill-rule:evenodd;"
d="M 62.3467,131.5128
62.4320,131.5104
62.5118,131.5409
62.5738,131.5995
62.6087,131.6774
62.7060,132.1040
62.7084,132.1893
62.6780,132.2690
62.6193,132.3310
62.5414,132.3659
62.0418,132.4799
61.9565,132.4823
61.8767,132.4519
61.8147,132.3933
61.7798,132.3153
61.6825,131.8888
61.6801,131.8035
61.7105,131.7238
61.7692,131.6617
61.8471,131.6269
Z" /> 
<path style="fill:#000000; fill-opacity:1.0000; stroke:none;fill-rule:evenodd;"
d="M 50.2431,125.9040
50.2400,125.8455
50.2595,125.7903
50.2987,125.7468
50.3515,125.7216
51.4901,125.4316
51.5486,125.4285
51.6038,125.4481
51.6473,125.4872
51.6725,125.5400
51.7465,125.8307
51.7496,125.8892
51.7301,125.9443
51.6910,125.9879
51.6382,126.0131
50.4995,126.3030
50.4411,126.3061
50.3859,126.2866
50.3424,126.2475
50.3172,126.1947
Z" /> 
<path style="fill:#000000; fill-opacity:1.0000; stroke:none;fill-rule:evenodd;"
d="M 50.7120,127.7452
50.7089,127.6868
50.7284,127.6316
50.7675,127.5881
50.8203,127.5628
51.9590,127.2729
52.0174,127.2698
52.0726,127.2893
52.1161,127.3284
52.1414,127.3812
52.2154,127.6720
52.2185,127.7304
52.1990,127.7856
52.1598,127.8291
52.1070,127.8543
50.9684,128.1443
50.9099,128.1474
50.8547,128.1279
50.8112,128.0887
50.7860,128.0359
Z" /> 
<path style="fill:#000000; fill-opacity:1.0000; stroke:none;fill-rule:evenodd;"
d="M 52.2946,126.3619
52.2915,126.3035
52.3110,126.2483
52.3501,126.2048
52.4029,126.1795
53.5416,125.8896
53.6000,125.8865
53.6552,125.9060
53.6987,125.9451
53.7240,125.9979
53.7980,126.2887
53.8011,126.3471
53.7816,126.4023
53.7425,126.4458
53.6896,126.4710
52.5510,126.7610
52.4925,126.7641
52.4373,126.7446
52.3938,126.7055
52.3686,126.6526
Z" /> 
<path style="fill:#000000; fill-opacity:1.0000; stroke:none;fill-rule:evenodd;"
d="M 42.0802,135.5301
42.0240,135.5462
41.9658,135.5394
41.9147,135.5110
41.8783,135.4651
41.3423,134.4195
41.3263,134.3632
41.3330,134.3051
41.3615,134.2539
41.4073,134.2176
41.6743,134.0807
41.7306,134.0647
41.7887,134.0714
41.8399,134.0999
41.8762,134.1458
42.4123,135.1914
42.4283,135.2477
42.4216,135.3058
42.3931,135.3569
42.3472,135.3933
Z" /> 
<path style="fill:#000000; fill-opacity:1.0000; stroke:none;fill-rule:evenodd;"
d="M 43.7710,134.6633
43.7147,134.6794
43.6566,134.6726
43.6054,134.6442
43.5691,134.5983
43.0330,133.5527
43.0170,133.4964
43.0238,133.4383
43.0522,133.3871
43.0981,133.3508
43.3651,133.2139
43.4213,133.1979
43.4795,133.2046
43.5306,133.2331
43.5670,133.2790
44.1030,134.3246
44.1190,134.3809
44.1123,134.4390
44.0838,134.4901
44.0380,134.5265
Z" /> 
<path style="fill:#000000; fill-opacity:1.0000; stroke:none;fill-rule:evenodd;"
d="M 42.0702,133.4282
42.0139,133.4443
41.9558,133.4375
41.9047,133.4091
41.8683,133.3632
41.3323,132.3176
41.3162,132.2613
41.3230,132.2032
41.3515,132.1520
41.3973,132.1157
41.6643,131.9788
41.7206,131.9628
41.7787,131.9695
41.8298,131.9980
41.8662,132.0439
42.4022,133.0895
42.4183,133.1457
42.4115,133.2039
42.3831,133.2550
42.3372,133.2914
Z" /> 
<path style="fill:#000000; fill-opacity:1.0000; stroke:none;fill-rule:evenodd;"
d="M 37.4586,132.3659
37.3807,132.3310
37.3220,132.2690
37.2916,132.1893
37.2940,132.1040
37.3913,131.6774
37.4262,131.5995
37.4882,131.5409
37.5680,131.5104
37.6533,131.5128
38.1529,131.6269
38.2308,131.6617
38.2895,131.7238
38.3199,131.8035
38.3175,131.8888
38.2202,132.3153
38.1853,132.3933
38.1233,132.4519
38.0435,132.4823
37.9582,132.4799
Z" /> 
<path style="fill:#000000; fill-opacity:1.0000; stroke:none;fill-rule:evenodd;"
d="M 37.8090,130.8304
37.7311,130.7955
37.6725,130.7335
37.6421,130.6538
37.6445,130.5684
37.7418,130.1419
37.7767,130.0640
37.8387,130.0054
37.9184,129.9749
38.0037,129.9773
38.5034,130.0914
38.5813,130.1262
38.6399,130.1882
38.6704,130.2680
38.6680,130.3533
38.5706,130.7798
38.5358,130.8577
38.4737,130.9164
38.3940,130.9468
38.3087,130.9444
Z" /> 
<path style="fill:#000000; fill-opacity:1.0000; stroke:none;fill-rule:evenodd;"
d="M 57.8115,136.0042
57.8692,136.0142
57.9187,136.0455
57.9524,136.0933
57.9652,136.1504
57.9945,137.3251
57.9845,137.3827
57.9533,137.4322
57.9054,137.4659
57.8483,137.4788
57.5484,137.4862
57.4907,137.4762
57.4413,137.4450
57.4076,137.3971
57.3947,137.3400
57.3654,136.1654
57.3754,136.1077
57.4067,136.0583
57.4545,136.0245
57.5116,136.0117
Z" /> 
<path style="fill:#000000; fill-opacity:1.0000; stroke:none;fill-rule:evenodd;"
d="M 55.9121,136.0516
55.9698,136.0616
56.0193,136.0929
56.0530,136.1407
56.0658,136.1978
56.0951,137.3724
56.0851,137.4301
56.0538,137.4796
56.0060,137.5133
55.9489,137.5261
55.6490,137.5336
55.5913,137.5236
55.5419,137.4923
55.5082,137.4445
55.4953,137.3874
55.4660,136.2128
55.4760,136.1551
55.5073,136.1056
55.5551,136.0719
55.6122,136.0591
Z" /> 
<path style="fill:#000000; fill-opacity:1.0000; stroke:none;fill-rule:evenodd;"
d="M 56.9086,137.9023
56.9663,137.9123
57.0157,137.9436
57.0494,137.9914
57.0623,138.0485
57.0916,139.2232
57.0816,139.2808
57.0503,139.3303
57.0025,139.3640
56.9454,139.3769
56.6454,139.3843
56.5878,139.3743
56.5383,139.3431
56.5046,139.2952
56.4918,139.2381
56.4625,138.0635
56.4724,138.0058
56.5037,137.9564
56.5516,137.9226
56.6087,137.9098
Z" /> 
<path style="fill:#000000; fill-opacity:1.0000; stroke:none;fill-rule:evenodd;"
d="M 40.9249,142.7759
40.8491,142.8150
40.7640,142.8222
40.6827,142.7963
40.6175,142.7412
40.3447,142.3992
40.3056,142.3233
40.2984,142.2383
40.3243,142.1570
40.3794,142.0918
40.7801,141.7722
40.8559,141.7330
40.9409,141.7259
41.0223,141.7518
41.0875,141.8069
41.3603,142.1489
41.3994,142.2247
41.4066,142.3098
41.3807,142.3911
41.3256,142.4563
Z" /> 
<path style="fill:#000000; fill-opacity:1.0000; stroke:none;fill-rule:evenodd;"
d="M 39.9429,141.5445
39.8671,141.5836
39.7821,141.5908
39.7007,141.5649
39.6355,141.5098
39.3627,141.1678
39.3236,141.0920
39.3164,141.0069
39.3423,140.9256
39.3974,140.8604
39.7981,140.5408
39.8739,140.5017
39.9589,140.4945
40.0403,140.5204
40.1055,140.5755
40.3783,140.9175
40.4174,140.9933
40.4246,141.0784
40.3987,141.1597
40.3436,141.2249
Z" /> 
<path style="fill:#000000; fill-opacity:1.0000; stroke:none;fill-rule:evenodd;"
d="M 59.5105,139.7584
59.4332,139.7478
59.3658,139.7084
59.3187,139.6462
59.2989,139.5707
59.2750,139.1714
59.2856,139.0941
59.3250,139.0267
59.3872,138.9796
59.4627,138.9598
60.0117,138.9269
60.0890,138.9375
60.1563,138.9769
60.2035,139.0391
60.2233,139.1146
60.2472,139.5139
60.2366,139.5912
60.1972,139.6586
60.1350,139.7057
60.0595,139.7255
Z" /> 
<path style="fill:#000000; fill-opacity:1.0000; stroke:none;fill-rule:evenodd;"
d="M 59.4118,138.1113
59.3345,138.1007
59.2671,138.0613
59.2200,137.9991
59.2002,137.9237
59.1763,137.5244
59.1869,137.4471
59.2263,137.3797
59.2885,137.3325
59.3640,137.3128
59.9130,137.2799
59.9903,137.2905
60.0577,137.3299
60.1048,137.3921
60.1246,137.4676
60.1485,137.8668
60.1379,137.9442
60.0985,138.0115
60.0363,138.0587
59.9608,138.0784
Z" /> 
<path style="fill:#000000; fill-opacity:1.0000; stroke:none;fill-rule:evenodd;"
d="M 42.2423,141.9563
42.2699,141.8833
42.3233,141.8264
42.3944,141.7943
42.4724,141.7918
42.8670,141.8573
42.9400,141.8849
42.9969,141.9383
43.0290,142.0094
43.0315,142.0874
42.9414,142.6300
42.9138,142.7030
42.8604,142.7599
42.7893,142.7920
42.7113,142.7945
42.3167,142.7290
42.2437,142.7014
42.1868,142.6480
42.1547,142.5769
42.1522,142.4989
Z" /> 
<path style="fill:#000000; fill-opacity:1.0000; stroke:none;fill-rule:evenodd;"
d="M 43.8700,142.2266
43.8976,142.1536
43.9510,142.0967
44.0221,142.0646
44.1001,142.0621
44.4947,142.1276
44.5677,142.1552
44.6246,142.2086
44.6567,142.2797
44.6592,142.3577
44.5691,142.9003
44.5415,142.9733
44.4881,143.0302
44.4170,143.0623
44.3390,143.0648
43.9444,142.9993
43.8714,142.9717
43.8145,142.9183
43.7824,142.8472
43.7799,142.7692
Z" /> 
</g> 
</svg>
