999
"DXF R12 Output" (www.mydxf.blogspot.com)
 0 
SECTION
 2 
HEADER
 9 
$ACADVER
 1 
AC1009
 9 
$EXTMIN
 10 
 0 
 20 
 0 
 9 
$EXTMAX
 10 
 8.5 
 20 
 11 
 0 
ENDSEC
 0 
SECTION
 2 
ENTITIES
0
POLYLINE
8
Layer 1
62
7
70
1
10
0.000000
20
0.000000
66
1
0
VERTEX
8
Layer 1
10
47.650000
20
68.307000
70
0
0
VERTEX
8
Layer 1
10
47.554300
20
68.326000
70
0
0
VERTEX
8
Layer 1
10
47.473200
20
68.380200
70
0
0
VERTEX
8
Layer 1
10
47.419000
20
68.461300
70
0
0
VERTEX
8
Layer 1
10
47.400000
20
68.557000
70
0
0
VERTEX
8
Layer 1
10
47.400000
20
69.207000
70
0
0
VERTEX
8
Layer 1
10
47.419000
20
69.302700
70
0
0
VERTEX
8
Layer 1
10
47.473200
20
69.383800
70
0
0
VERTEX
8
Layer 1
10
47.554300
20
69.438000
70
0
0
VERTEX
8
Layer 1
10
47.650000
20
69.457000
70
0
0
VERTEX
8
Layer 1
10
48.950000
20
69.457000
70
0
0
VERTEX
8
Layer 1
10
49.045700
20
69.438000
70
0
0
VERTEX
8
Layer 1
10
49.126800
20
69.383800
70
0
0
VERTEX
8
Layer 1
10
49.181000
20
69.302700
70
0
0
VERTEX
8
Layer 1
10
49.200000
20
69.207000
70
0
0
VERTEX
8
Layer 1
10
49.200000
20
68.557000
70
0
0
VERTEX
8
Layer 1
10
49.181000
20
68.461300
70
0
0
VERTEX
8
Layer 1
10
49.126800
20
68.380200
70
0
0
VERTEX
8
Layer 1
10
49.045700
20
68.326000
70
0
0
VERTEX
8
Layer 1
10
48.950000
20
68.307000
70
0
0
VERTEX
8
Layer 1
10
47.650000
20
68.307000
70
0
0
SEQEND
8
Layer 1
0
POLYLINE
8
Layer 1
62
7
70
1
10
0.000000
20
0.000000
66
1
0
VERTEX
8
Layer 1
10
47.650000
20
71.257000
70
0
0
VERTEX
8
Layer 1
10
47.554300
20
71.276000
70
0
0
VERTEX
8
Layer 1
10
47.473200
20
71.330200
70
0
0
VERTEX
8
Layer 1
10
47.419000
20
71.411300
70
0
0
VERTEX
8
Layer 1
10
47.400000
20
71.507000
70
0
0
VERTEX
8
Layer 1
10
47.400000
20
72.157000
70
0
0
VERTEX
8
Layer 1
10
47.419000
20
72.252700
70
0
0
VERTEX
8
Layer 1
10
47.473200
20
72.333800
70
0
0
VERTEX
8
Layer 1
10
47.554300
20
72.388000
70
0
0
VERTEX
8
Layer 1
10
47.650000
20
72.407000
70
0
0
VERTEX
8
Layer 1
10
48.950000
20
72.407000
70
0
0
VERTEX
8
Layer 1
10
49.045700
20
72.388000
70
0
0
VERTEX
8
Layer 1
10
49.126800
20
72.333800
70
0
0
VERTEX
8
Layer 1
10
49.181000
20
72.252700
70
0
0
VERTEX
8
Layer 1
10
49.200000
20
72.157000
70
0
0
VERTEX
8
Layer 1
10
49.200000
20
71.507000
70
0
0
VERTEX
8
Layer 1
10
49.181000
20
71.411300
70
0
0
VERTEX
8
Layer 1
10
49.126800
20
71.330200
70
0
0
VERTEX
8
Layer 1
10
49.045700
20
71.276000
70
0
0
VERTEX
8
Layer 1
10
48.950000
20
71.257000
70
0
0
VERTEX
8
Layer 1
10
47.650000
20
71.257000
70
0
0
SEQEND
8
Layer 1
0
POLYLINE
8
Layer 1
62
7
70
1
10
0.000000
20
0.000000
66
1
0
VERTEX
8
Layer 1
10
39.359300
20
79.236900
70
0
0
VERTEX
8
Layer 1
10
39.308200
20
79.295900
70
0
0
VERTEX
8
Layer 1
10
39.283600
20
79.369900
70
0
0
VERTEX
8
Layer 1
10
39.289200
20
79.447700
70
0
0
VERTEX
8
Layer 1
10
39.324100
20
79.517500
70
0
0
VERTEX
8
Layer 1
10
39.569600
20
79.833300
70
0
0
VERTEX
8
Layer 1
10
39.628600
20
79.884400
70
0
0
VERTEX
8
Layer 1
10
39.702600
20
79.909000
70
0
0
VERTEX
8
Layer 1
10
39.780500
20
79.903400
70
0
0
VERTEX
8
Layer 1
10
39.850200
20
79.868500
70
0
0
VERTEX
8
Layer 1
10
40.284500
20
79.531000
70
0
0
VERTEX
8
Layer 1
10
40.335600
20
79.472000
70
0
0
VERTEX
8
Layer 1
10
40.360200
20
79.397900
70
0
0
VERTEX
8
Layer 1
10
40.354600
20
79.320100
70
0
0
VERTEX
8
Layer 1
10
40.319700
20
79.250300
70
0
0
VERTEX
8
Layer 1
10
40.074200
20
78.934500
70
0
0
VERTEX
8
Layer 1
10
40.015200
20
78.883400
70
0
0
VERTEX
8
Layer 1
10
39.941100
20
78.858800
70
0
0
VERTEX
8
Layer 1
10
39.863300
20
78.864400
70
0
0
VERTEX
8
Layer 1
10
39.793500
20
78.899300
70
0
0
VERTEX
8
Layer 1
10
39.359300
20
79.236900
70
0
0
SEQEND
8
Layer 1
0
POLYLINE
8
Layer 1
62
7
70
1
10
0.000000
20
0.000000
66
1
0
VERTEX
8
Layer 1
10
40.371900
20
80.539600
70
0
0
VERTEX
8
Layer 1
10
40.320800
20
80.598600
70
0
0
VERTEX
8
Layer 1
10
40.296200
20
80.672600
70
0
0
VERTEX
8
Layer 1
10
40.301800
20
80.750500
70
0
0
VERTEX
8
Layer 1
10
40.336700
20
80.820300
70
0
0
VERTEX
8
Layer 1
10
40.582200
20
81.136100
70
0
0
VERTEX
8
Layer 1
10
40.641200
20
81.187200
70
0
0
VERTEX
8
Layer 1
10
40.715200
20
81.211800
70
0
0
VERTEX
8
Layer 1
10
40.793100
20
81.206200
70
0
0
VERTEX
8
Layer 1
10
40.862800
20
81.171200
70
0
0
VERTEX
8
Layer 1
10
41.297100
20
80.833700
70
0
0
VERTEX
8
Layer 1
10
41.348200
20
80.774700
70
0
0
VERTEX
8
Layer 1
10
41.372800
20
80.700700
70
0
0
VERTEX
8
Layer 1
10
41.367200
20
80.622800
70
0
0
VERTEX
8
Layer 1
10
41.332300
20
80.553100
70
0
0
VERTEX
8
Layer 1
10
41.086800
20
80.237200
70
0
0
VERTEX
8
Layer 1
10
41.027800
20
80.186200
70
0
0
VERTEX
8
Layer 1
10
40.953700
20
80.161500
70
0
0
VERTEX
8
Layer 1
10
40.875900
20
80.167100
70
0
0
VERTEX
8
Layer 1
10
40.806100
20
80.202100
70
0
0
VERTEX
8
Layer 1
10
40.371900
20
80.539600
70
0
0
SEQEND
8
Layer 1
0
POLYLINE
8
Layer 1
62
7
70
1
10
0.000000
20
0.000000
66
1
0
VERTEX
8
Layer 1
10
45.868900
20
86.350600
70
0
0
VERTEX
8
Layer 1
10
45.883100
20
86.427300
70
0
0
VERTEX
8
Layer 1
10
45.925700
20
86.492800
70
0
0
VERTEX
8
Layer 1
10
45.990000
20
86.536900
70
0
0
VERTEX
8
Layer 1
10
46.066300
20
86.553100
70
0
0
VERTEX
8
Layer 1
10
46.466300
20
86.558100
70
0
0
VERTEX
8
Layer 1
10
46.543000
20
86.543800
70
0
0
VERTEX
8
Layer 1
10
46.608500
20
86.501300
70
0
0
VERTEX
8
Layer 1
10
46.652600
20
86.436900
70
0
0
VERTEX
8
Layer 1
10
46.668800
20
86.360600
70
0
0
VERTEX
8
Layer 1
10
46.675600
20
85.810600
70
0
0
VERTEX
8
Layer 1
10
46.661400
20
85.733900
70
0
0
VERTEX
8
Layer 1
10
46.618800
20
85.668500
70
0
0
VERTEX
8
Layer 1
10
46.554500
20
85.624300
70
0
0
VERTEX
8
Layer 1
10
46.478200
20
85.608200
70
0
0
VERTEX
8
Layer 1
10
46.078200
20
85.603200
70
0
0
VERTEX
8
Layer 1
10
46.001500
20
85.617400
70
0
0
VERTEX
8
Layer 1
10
45.936000
20
85.660000
70
0
0
VERTEX
8
Layer 1
10
45.891900
20
85.724300
70
0
0
VERTEX
8
Layer 1
10
45.875700
20
85.800700
70
0
0
VERTEX
8
Layer 1
10
45.868900
20
86.350600
70
0
0
SEQEND
8
Layer 1
0
POLYLINE
8
Layer 1
62
7
70
1
10
0.000000
20
0.000000
66
1
0
VERTEX
8
Layer 1
10
47.518700
20
86.371200
70
0
0
VERTEX
8
Layer 1
10
47.533000
20
86.447900
70
0
0
VERTEX
8
Layer 1
10
47.575500
20
86.513300
70
0
0
VERTEX
8
Layer 1
10
47.639900
20
86.557500
70
0
0
VERTEX
8
Layer 1
10
47.716200
20
86.573700
70
0
0
VERTEX
8
Layer 1
10
48.116200
20
86.578700
70
0
0
VERTEX
8
Layer 1
10
48.192900
20
86.564400
70
0
0
VERTEX
8
Layer 1
10
48.258300
20
86.521800
70
0
0
VERTEX
8
Layer 1
10
48.302500
20
86.457500
70
0
0
VERTEX
8
Layer 1
10
48.318700
20
86.381200
70
0
0
VERTEX
8
Layer 1
10
48.325500
20
85.831200
70
0
0
VERTEX
8
Layer 1
10
48.311200
20
85.754500
70
0
0
VERTEX
8
Layer 1
10
48.268700
20
85.689100
70
0
0
VERTEX
8
Layer 1
10
48.204400
20
85.644900
70
0
0
VERTEX
8
Layer 1
10
48.128000
20
85.628700
70
0
0
VERTEX
8
Layer 1
10
47.728100
20
85.623700
70
0
0
VERTEX
8
Layer 1
10
47.651300
20
85.638000
70
0
0
VERTEX
8
Layer 1
10
47.585900
20
85.680500
70
0
0
VERTEX
8
Layer 1
10
47.541800
20
85.744900
70
0
0
VERTEX
8
Layer 1
10
47.525600
20
85.821200
70
0
0
VERTEX
8
Layer 1
10
47.518700
20
86.371200
70
0
0
SEQEND
8
Layer 1
0
POLYLINE
8
Layer 1
62
7
70
1
10
0.000000
20
0.000000
66
1
0
VERTEX
8
Layer 1
10
58.197800
20
68.533600
70
0
0
VERTEX
8
Layer 1
10
58.218200
20
68.458300
70
0
0
VERTEX
8
Layer 1
10
58.208300
20
68.380900
70
0
0
VERTEX
8
Layer 1
10
58.169400
20
68.313200
70
0
0
VERTEX
8
Layer 1
10
58.107700
20
68.265500
70
0
0
VERTEX
8
Layer 1
10
57.749500
20
68.087400
70
0
0
VERTEX
8
Layer 1
10
57.674200
20
68.067000
70
0
0
VERTEX
8
Layer 1
10
57.596800
20
68.077000
70
0
0
VERTEX
8
Layer 1
10
57.529100
20
68.115800
70
0
0
VERTEX
8
Layer 1
10
57.481400
20
68.177500
70
0
0
VERTEX
8
Layer 1
10
57.236600
20
68.670000
70
0
0
VERTEX
8
Layer 1
10
57.216100
20
68.745400
70
0
0
VERTEX
8
Layer 1
10
57.226100
20
68.822800
70
0
0
VERTEX
8
Layer 1
10
57.264900
20
68.890500
70
0
0
VERTEX
8
Layer 1
10
57.326700
20
68.938200
70
0
0
VERTEX
8
Layer 1
10
57.684900
20
69.116200
70
0
0
VERTEX
8
Layer 1
10
57.760200
20
69.136600
70
0
0
VERTEX
8
Layer 1
10
57.837600
20
69.126700
70
0
0
VERTEX
8
Layer 1
10
57.905300
20
69.087900
70
0
0
VERTEX
8
Layer 1
10
57.953000
20
69.026100
70
0
0
VERTEX
8
Layer 1
10
58.197800
20
68.533600
70
0
0
SEQEND
8
Layer 1
0
POLYLINE
8
Layer 1
62
7
70
1
10
0.000000
20
0.000000
66
1
0
VERTEX
8
Layer 1
10
56.720200
20
67.799200
70
0
0
VERTEX
8
Layer 1
10
56.740600
20
67.723900
70
0
0
VERTEX
8
Layer 1
10
56.730700
20
67.646500
70
0
0
VERTEX
8
Layer 1
10
56.691900
20
67.578800
70
0
0
VERTEX
8
Layer 1
10
56.630100
20
67.531100
70
0
0
VERTEX
8
Layer 1
10
56.271900
20
67.353100
70
0
0
VERTEX
8
Layer 1
10
56.196600
20
67.332600
70
0
0
VERTEX
8
Layer 1
10
56.119200
20
67.342600
70
0
0
VERTEX
8
Layer 1
10
56.051500
20
67.381400
70
0
0
VERTEX
8
Layer 1
10
56.003800
20
67.443100
70
0
0
VERTEX
8
Layer 1
10
55.759000
20
67.935700
70
0
0
VERTEX
8
Layer 1
10
55.738600
20
68.011000
70
0
0
VERTEX
8
Layer 1
10
55.748500
20
68.088400
70
0
0
VERTEX
8
Layer 1
10
55.787300
20
68.156100
70
0
0
VERTEX
8
Layer 1
10
55.849100
20
68.203800
70
0
0
VERTEX
8
Layer 1
10
56.207300
20
68.381800
70
0
0
VERTEX
8
Layer 1
10
56.282600
20
68.402200
70
0
0
VERTEX
8
Layer 1
10
56.360000
20
68.392300
70
0
0
VERTEX
8
Layer 1
10
56.427700
20
68.353500
70
0
0
VERTEX
8
Layer 1
10
56.475400
20
68.291700
70
0
0
VERTEX
8
Layer 1
10
56.720200
20
67.799200
70
0
0
SEQEND
8
Layer 1
0
POLYLINE
8
Layer 1
62
7
70
1
10
0.000000
20
0.000000
66
1
0
VERTEX
8
Layer 1
10
40.862400
20
69.712100
70
0
0
VERTEX
8
Layer 1
10
40.784400
20
69.709000
70
0
0
VERTEX
8
Layer 1
10
40.711200
20
69.735900
70
0
0
VERTEX
8
Layer 1
10
40.653800
20
69.788800
70
0
0
VERTEX
8
Layer 1
10
40.621000
20
69.859600
70
0
0
VERTEX
8
Layer 1
10
40.527200
20
70.248400
70
0
0
VERTEX
8
Layer 1
10
40.524000
20
70.326400
70
0
0
VERTEX
8
Layer 1
10
40.550900
20
70.399700
70
0
0
VERTEX
8
Layer 1
10
40.603800
20
70.457000
70
0
0
VERTEX
8
Layer 1
10
40.674700
20
70.489800
70
0
0
VERTEX
8
Layer 1
10
41.209300
20
70.618800
70
0
0
VERTEX
8
Layer 1
10
41.287300
20
70.622000
70
0
0
VERTEX
8
Layer 1
10
41.360500
20
70.595100
70
0
0
VERTEX
8
Layer 1
10
41.417900
20
70.542200
70
0
0
VERTEX
8
Layer 1
10
41.450700
20
70.471400
70
0
0
VERTEX
8
Layer 1
10
41.544500
20
70.082500
70
0
0
VERTEX
8
Layer 1
10
41.547700
20
70.004600
70
0
0
VERTEX
8
Layer 1
10
41.520800
20
69.931300
70
0
0
VERTEX
8
Layer 1
10
41.467900
20
69.873900
70
0
0
VERTEX
8
Layer 1
10
41.397000
20
69.841200
70
0
0
VERTEX
8
Layer 1
10
40.862400
20
69.712100
70
0
0
SEQEND
8
Layer 1
0
POLYLINE
8
Layer 1
62
7
70
1
10
0.000000
20
0.000000
66
1
0
VERTEX
8
Layer 1
10
40.475200
20
71.316000
70
0
0
VERTEX
8
Layer 1
10
40.397200
20
71.312900
70
0
0
VERTEX
8
Layer 1
10
40.324000
20
71.339800
70
0
0
VERTEX
8
Layer 1
10
40.266600
20
71.392700
70
0
0
VERTEX
8
Layer 1
10
40.233900
20
71.463500
70
0
0
VERTEX
8
Layer 1
10
40.140000
20
71.852400
70
0
0
VERTEX
8
Layer 1
10
40.136800
20
71.930300
70
0
0
VERTEX
8
Layer 1
10
40.163800
20
72.003600
70
0
0
VERTEX
8
Layer 1
10
40.216700
20
72.061000
70
0
0
VERTEX
8
Layer 1
10
40.287500
20
72.093700
70
0
0
VERTEX
8
Layer 1
10
40.822100
20
72.222800
70
0
0
VERTEX
8
Layer 1
10
40.900100
20
72.225900
70
0
0
VERTEX
8
Layer 1
10
40.973300
20
72.199000
70
0
0
VERTEX
8
Layer 1
10
41.030700
20
72.146100
70
0
0
VERTEX
8
Layer 1
10
41.063500
20
72.075300
70
0
0
VERTEX
8
Layer 1
10
41.157300
20
71.686500
70
0
0
VERTEX
8
Layer 1
10
41.160500
20
71.608500
70
0
0
VERTEX
8
Layer 1
10
41.133600
20
71.535200
70
0
0
VERTEX
8
Layer 1
10
41.080700
20
71.477900
70
0
0
VERTEX
8
Layer 1
10
41.009800
20
71.445100
70
0
0
VERTEX
8
Layer 1
10
40.475200
20
71.316000
70
0
0
SEQEND
8
Layer 1
0
POLYLINE
8
Layer 1
62
7
70
1
10
0.000000
20
0.000000
66
1
0
VERTEX
8
Layer 1
10
60.602600
20
69.146600
70
0
0
VERTEX
8
Layer 1
10
60.657700
20
69.081400
70
0
0
VERTEX
8
Layer 1
10
60.683600
20
69.000100
70
0
0
VERTEX
8
Layer 1
10
60.676400
20
68.915000
70
0
0
VERTEX
8
Layer 1
10
60.637300
20
68.839200
70
0
0
VERTEX
8
Layer 1
10
60.364500
20
68.497200
70
0
0
VERTEX
8
Layer 1
10
60.299300
20
68.442100
70
0
0
VERTEX
8
Layer 1
10
60.217900
20
68.416200
70
0
0
VERTEX
8
Layer 1
10
60.132900
20
68.423400
70
0
0
VERTEX
8
Layer 1
10
60.057100
20
68.462500
70
0
0
VERTEX
8
Layer 1
10
59.656400
20
68.782100
70
0
0
VERTEX
8
Layer 1
10
59.601300
20
68.847300
70
0
0
VERTEX
8
Layer 1
10
59.575400
20
68.928600
70
0
0
VERTEX
8
Layer 1
10
59.582600
20
69.013700
70
0
0
VERTEX
8
Layer 1
10
59.621700
20
69.089500
70
0
0
VERTEX
8
Layer 1
10
59.894500
20
69.431500
70
0
0
VERTEX
8
Layer 1
10
59.959700
20
69.486600
70
0
0
VERTEX
8
Layer 1
10
60.041100
20
69.512500
70
0
0
VERTEX
8
Layer 1
10
60.126100
20
69.505300
70
0
0
VERTEX
8
Layer 1
10
60.201900
20
69.466200
70
0
0
VERTEX
8
Layer 1
10
60.602600
20
69.146600
70
0
0
SEQEND
8
Layer 1
0
POLYLINE
8
Layer 1
62
7
70
1
10
0.000000
20
0.000000
66
1
0
VERTEX
8
Layer 1
10
59.620600
20
67.915200
70
0
0
VERTEX
8
Layer 1
10
59.675700
20
67.850000
70
0
0
VERTEX
8
Layer 1
10
59.701600
20
67.768700
70
0
0
VERTEX
8
Layer 1
10
59.694400
20
67.683700
70
0
0
VERTEX
8
Layer 1
10
59.655300
20
67.607800
70
0
0
VERTEX
8
Layer 1
10
59.382500
20
67.265800
70
0
0
VERTEX
8
Layer 1
10
59.317300
20
67.210700
70
0
0
VERTEX
8
Layer 1
10
59.236000
20
67.184800
70
0
0
VERTEX
8
Layer 1
10
59.150900
20
67.192000
70
0
0
VERTEX
8
Layer 1
10
59.075100
20
67.231100
70
0
0
VERTEX
8
Layer 1
10
58.674400
20
67.550700
70
0
0
VERTEX
8
Layer 1
10
58.619300
20
67.615900
70
0
0
VERTEX
8
Layer 1
10
58.593400
20
67.697200
70
0
0
VERTEX
8
Layer 1
10
58.600600
20
67.782300
70
0
0
VERTEX
8
Layer 1
10
58.639700
20
67.858100
70
0
0
VERTEX
8
Layer 1
10
58.912500
20
68.200200
70
0
0
VERTEX
8
Layer 1
10
58.977700
20
68.255200
70
0
0
VERTEX
8
Layer 1
10
59.059100
20
68.281100
70
0
0
VERTEX
8
Layer 1
10
59.144100
20
68.274000
70
0
0
VERTEX
8
Layer 1
10
59.219900
20
68.234800
70
0
0
VERTEX
8
Layer 1
10
59.620600
20
67.915200
70
0
0
SEQEND
8
Layer 1
0
POLYLINE
8
Layer 1
62
7
70
1
10
0.000000
20
0.000000
66
1
0
VERTEX
8
Layer 1
10
43.942000
20
85.375000
70
0
0
VERTEX
8
Layer 1
10
44.007000
20
85.331900
70
0
0
VERTEX
8
Layer 1
10
44.050600
20
85.267200
70
0
0
VERTEX
8
Layer 1
10
44.066200
20
85.190700
70
0
0
VERTEX
8
Layer 1
10
44.051200
20
85.114100
70
0
0
VERTEX
8
Layer 1
10
43.899500
20
84.744000
70
0
0
VERTEX
8
Layer 1
10
43.856400
20
84.678900
70
0
0
VERTEX
8
Layer 1
10
43.791700
20
84.635300
70
0
0
VERTEX
8
Layer 1
10
43.715200
20
84.619800
70
0
0
VERTEX
8
Layer 1
10
43.638600
20
84.634800
70
0
0
VERTEX
8
Layer 1
10
43.129700
20
84.843300
70
0
0
VERTEX
8
Layer 1
10
43.064700
20
84.886500
70
0
0
VERTEX
8
Layer 1
10
43.021100
20
84.951200
70
0
0
VERTEX
8
Layer 1
10
43.005500
20
85.027700
70
0
0
VERTEX
8
Layer 1
10
43.020500
20
85.104200
70
0
0
VERTEX
8
Layer 1
10
43.172200
20
85.474400
70
0
0
VERTEX
8
Layer 1
10
43.215300
20
85.539400
70
0
0
VERTEX
8
Layer 1
10
43.280000
20
85.583000
70
0
0
VERTEX
8
Layer 1
10
43.356500
20
85.598500
70
0
0
VERTEX
8
Layer 1
10
43.433100
20
85.583600
70
0
0
VERTEX
8
Layer 1
10
43.942000
20
85.375000
70
0
0
SEQEND
8
Layer 1
0
POLYLINE
8
Layer 1
62
7
70
1
10
0.000000
20
0.000000
66
1
0
VERTEX
8
Layer 1
10
43.316300
20
83.848300
70
0
0
VERTEX
8
Layer 1
10
43.381300
20
83.805100
70
0
0
VERTEX
8
Layer 1
10
43.424900
20
83.740400
70
0
0
VERTEX
8
Layer 1
10
43.440400
20
83.663900
70
0
0
VERTEX
8
Layer 1
10
43.425500
20
83.587400
70
0
0
VERTEX
8
Layer 1
10
43.273800
20
83.217200
70
0
0
VERTEX
8
Layer 1
10
43.230700
20
83.152200
70
0
0
VERTEX
8
Layer 1
10
43.166000
20
83.108600
70
0
0
VERTEX
8
Layer 1
10
43.089500
20
83.093100
70
0
0
VERTEX
8
Layer 1
10
43.012900
20
83.108000
70
0
0
VERTEX
8
Layer 1
10
42.504000
20
83.316600
70
0
0
VERTEX
8
Layer 1
10
42.438900
20
83.359700
70
0
0
VERTEX
8
Layer 1
10
42.395300
20
83.424400
70
0
0
VERTEX
8
Layer 1
10
42.379800
20
83.500900
70
0
0
VERTEX
8
Layer 1
10
42.394800
20
83.577500
70
0
0
VERTEX
8
Layer 1
10
42.546500
20
83.947600
70
0
0
VERTEX
8
Layer 1
10
42.589600
20
84.012700
70
0
0
VERTEX
8
Layer 1
10
42.654300
20
84.056300
70
0
0
VERTEX
8
Layer 1
10
42.730800
20
84.071800
70
0
0
VERTEX
8
Layer 1
10
42.807400
20
84.056800
70
0
0
VERTEX
8
Layer 1
10
43.316300
20
83.848300
70
0
0
SEQEND
8
Layer 1
0
POLYLINE
8
Layer 1
62
7
70
1
10
0.000000
20
0.000000
66
1
0
VERTEX
8
Layer 1
10
46.280400
20
68.871600
70
0
0
VERTEX
8
Layer 1
10
46.257800
20
68.817600
70
0
0
VERTEX
8
Layer 1
10
46.216300
20
68.776400
70
0
0
VERTEX
8
Layer 1
10
46.162200
20
68.754200
70
0
0
VERTEX
8
Layer 1
10
46.103700
20
68.754300
70
0
0
VERTEX
8
Layer 1
10
44.952000
20
68.987200
70
0
0
VERTEX
8
Layer 1
10
44.897900
20
69.009700
70
0
0
VERTEX
8
Layer 1
10
44.856700
20
69.051200
70
0
0
VERTEX
8
Layer 1
10
44.834500
20
69.105400
70
0
0
VERTEX
8
Layer 1
10
44.834600
20
69.163900
70
0
0
VERTEX
8
Layer 1
10
44.894100
20
69.458000
70
0
0
VERTEX
8
Layer 1
10
44.916700
20
69.512000
70
0
0
VERTEX
8
Layer 1
10
44.958200
20
69.553200
70
0
0
VERTEX
8
Layer 1
10
45.012300
20
69.575500
70
0
0
VERTEX
8
Layer 1
10
45.070800
20
69.575300
70
0
0
VERTEX
8
Layer 1
10
46.222500
20
69.342400
70
0
0
VERTEX
8
Layer 1
10
46.276500
20
69.319900
70
0
0
VERTEX
8
Layer 1
10
46.317800
20
69.278400
70
0
0
VERTEX
8
Layer 1
10
46.340000
20
69.224200
70
0
0
VERTEX
8
Layer 1
10
46.339800
20
69.165700
70
0
0
VERTEX
8
Layer 1
10
46.280400
20
68.871600
70
0
0
SEQEND
8
Layer 1
0
POLYLINE
8
Layer 1
62
7
70
1
10
0.000000
20
0.000000
66
1
0
VERTEX
8
Layer 1
10
46.656900
20
70.734000
70
0
0
VERTEX
8
Layer 1
10
46.634300
20
70.680000
70
0
0
VERTEX
8
Layer 1
10
46.592800
20
70.638700
70
0
0
VERTEX
8
Layer 1
10
46.538700
20
70.616500
70
0
0
VERTEX
8
Layer 1
10
46.480100
20
70.616700
70
0
0
VERTEX
8
Layer 1
10
45.328400
20
70.849500
70
0
0
VERTEX
8
Layer 1
10
45.274400
20
70.872100
70
0
0
VERTEX
8
Layer 1
10
45.233200
20
70.913600
70
0
0
VERTEX
8
Layer 1
10
45.210900
20
70.967700
70
0
0
VERTEX
8
Layer 1
10
45.211100
20
71.026200
70
0
0
VERTEX
8
Layer 1
10
45.270600
20
71.320300
70
0
0
VERTEX
8
Layer 1
10
45.293100
20
71.374300
70
0
0
VERTEX
8
Layer 1
10
45.334600
20
71.415500
70
0
0
VERTEX
8
Layer 1
10
45.388800
20
71.437800
70
0
0
VERTEX
8
Layer 1
10
45.447300
20
71.437600
70
0
0
VERTEX
8
Layer 1
10
46.599000
20
71.204800
70
0
0
VERTEX
8
Layer 1
10
46.653000
20
71.182200
70
0
0
VERTEX
8
Layer 1
10
46.694300
20
71.140700
70
0
0
VERTEX
8
Layer 1
10
46.716500
20
71.086600
70
0
0
VERTEX
8
Layer 1
10
46.716300
20
71.028000
70
0
0
VERTEX
8
Layer 1
10
46.656900
20
70.734000
70
0
0
SEQEND
8
Layer 1
0
POLYLINE
8
Layer 1
62
7
70
1
10
0.000000
20
0.000000
66
1
0
VERTEX
8
Layer 1
10
44.630800
20
70.174300
70
0
0
VERTEX
8
Layer 1
10
44.608200
20
70.120300
70
0
0
VERTEX
8
Layer 1
10
44.566700
20
70.079100
70
0
0
VERTEX
8
Layer 1
10
44.512600
20
70.056800
70
0
0
VERTEX
8
Layer 1
10
44.454100
20
70.057000
70
0
0
VERTEX
8
Layer 1
10
43.302400
20
70.289900
70
0
0
VERTEX
8
Layer 1
10
43.248400
20
70.312400
70
0
0
VERTEX
8
Layer 1
10
43.207100
20
70.353900
70
0
0
VERTEX
8
Layer 1
10
43.184900
20
70.408100
70
0
0
VERTEX
8
Layer 1
10
43.185100
20
70.466600
70
0
0
VERTEX
8
Layer 1
10
43.244500
20
70.760700
70
0
0
VERTEX
8
Layer 1
10
43.267100
20
70.814700
70
0
0
VERTEX
8
Layer 1
10
43.308600
20
70.855900
70
0
0
VERTEX
8
Layer 1
10
43.362700
20
70.878100
70
0
0
VERTEX
8
Layer 1
10
43.421300
20
70.878000
70
0
0
VERTEX
8
Layer 1
10
44.573000
20
70.645100
70
0
0
VERTEX
8
Layer 1
10
44.627000
20
70.622600
70
0
0
VERTEX
8
Layer 1
10
44.668200
20
70.581100
70
0
0
VERTEX
8
Layer 1
10
44.690400
20
70.526900
70
0
0
VERTEX
8
Layer 1
10
44.690300
20
70.468400
70
0
0
VERTEX
8
Layer 1
10
44.630800
20
70.174300
70
0
0
SEQEND
8
Layer 1
0
POLYLINE
8
Layer 1
62
7
70
1
10
0.000000
20
0.000000
66
1
0
VERTEX
8
Layer 1
10
53.525100
20
86.594800
70
0
0
VERTEX
8
Layer 1
10
53.532000
20
86.517000
70
0
0
VERTEX
8
Layer 1
10
53.508600
20
86.442600
70
0
0
VERTEX
8
Layer 1
10
53.458400
20
86.382800
70
0
0
VERTEX
8
Layer 1
10
53.389200
20
86.346700
70
0
0
VERTEX
8
Layer 1
10
53.005300
20
86.234500
70
0
0
VERTEX
8
Layer 1
10
52.927600
20
86.227700
70
0
0
VERTEX
8
Layer 1
10
52.853100
20
86.251100
70
0
0
VERTEX
8
Layer 1
10
52.793300
20
86.301200
70
0
0
VERTEX
8
Layer 1
10
52.757200
20
86.370400
70
0
0
VERTEX
8
Layer 1
10
52.603000
20
86.898400
70
0
0
VERTEX
8
Layer 1
10
52.596100
20
86.976100
70
0
0
VERTEX
8
Layer 1
10
52.619600
20
87.050500
70
0
0
VERTEX
8
Layer 1
10
52.669700
20
87.110400
70
0
0
VERTEX
8
Layer 1
10
52.738900
20
87.146400
70
0
0
VERTEX
8
Layer 1
10
53.122800
20
87.258600
70
0
0
VERTEX
8
Layer 1
10
53.200600
20
87.265400
70
0
0
VERTEX
8
Layer 1
10
53.275000
20
87.242000
70
0
0
VERTEX
8
Layer 1
10
53.334800
20
87.191900
70
0
0
VERTEX
8
Layer 1
10
53.370900
20
87.122700
70
0
0
VERTEX
8
Layer 1
10
53.525100
20
86.594800
70
0
0
SEQEND
8
Layer 1
0
POLYLINE
8
Layer 1
62
7
70
1
10
0.000000
20
0.000000
66
1
0
VERTEX
8
Layer 1
10
51.941300
20
86.132100
70
0
0
VERTEX
8
Layer 1
10
51.948200
20
86.054300
70
0
0
VERTEX
8
Layer 1
10
51.924800
20
85.979900
70
0
0
VERTEX
8
Layer 1
10
51.874600
20
85.920100
70
0
0
VERTEX
8
Layer 1
10
51.805400
20
85.884000
70
0
0
VERTEX
8
Layer 1
10
51.421500
20
85.771800
70
0
0
VERTEX
8
Layer 1
10
51.343800
20
85.765000
70
0
0
VERTEX
8
Layer 1
10
51.269300
20
85.788400
70
0
0
VERTEX
8
Layer 1
10
51.209500
20
85.838500
70
0
0
VERTEX
8
Layer 1
10
51.173400
20
85.907700
70
0
0
VERTEX
8
Layer 1
10
51.019200
20
86.435700
70
0
0
VERTEX
8
Layer 1
10
51.012300
20
86.513400
70
0
0
VERTEX
8
Layer 1
10
51.035800
20
86.587800
70
0
0
VERTEX
8
Layer 1
10
51.085900
20
86.647600
70
0
0
VERTEX
8
Layer 1
10
51.155100
20
86.683700
70
0
0
VERTEX
8
Layer 1
10
51.539000
20
86.795900
70
0
0
VERTEX
8
Layer 1
10
51.616800
20
86.802700
70
0
0
VERTEX
8
Layer 1
10
51.691200
20
86.779300
70
0
0
VERTEX
8
Layer 1
10
51.751000
20
86.729200
70
0
0
VERTEX
8
Layer 1
10
51.787100
20
86.660000
70
0
0
VERTEX
8
Layer 1
10
51.941300
20
86.132100
70
0
0
SEQEND
8
Layer 1
0
POLYLINE
8
Layer 1
62
7
70
1
10
0.000000
20
0.000000
66
1
0
VERTEX
8
Layer 1
10
48.764200
20
84.017500
70
0
0
VERTEX
8
Layer 1
10
48.858600
20
84.041900
70
0
0
VERTEX
8
Layer 1
10
48.955200
20
84.028200
70
0
0
VERTEX
8
Layer 1
10
49.039200
20
83.978700
70
0
0
VERTEX
8
Layer 1
10
49.097900
20
83.900700
70
0
0
VERTEX
8
Layer 1
10
49.379900
20
83.315100
70
0
0
VERTEX
8
Layer 1
10
49.404300
20
83.220700
70
0
0
VERTEX
8
Layer 1
10
49.390600
20
83.124100
70
0
0
VERTEX
8
Layer 1
10
49.341100
20
83.040100
70
0
0
VERTEX
8
Layer 1
10
49.263100
20
82.981400
70
0
0
VERTEX
8
Layer 1
10
48.091900
20
82.417400
70
0
0
VERTEX
8
Layer 1
10
47.997400
20
82.393000
70
0
0
VERTEX
8
Layer 1
10
47.900800
20
82.406600
70
0
0
VERTEX
8
Layer 1
10
47.816800
20
82.456200
70
0
0
VERTEX
8
Layer 1
10
47.758200
20
82.534100
70
0
0
VERTEX
8
Layer 1
10
47.476100
20
83.119800
70
0
0
VERTEX
8
Layer 1
10
47.451800
20
83.214200
70
0
0
VERTEX
8
Layer 1
10
47.465400
20
83.310800
70
0
0
VERTEX
8
Layer 1
10
47.515000
20
83.394800
70
0
0
VERTEX
8
Layer 1
10
47.592900
20
83.453500
70
0
0
VERTEX
8
Layer 1
10
48.764200
20
84.017500
70
0
0
SEQEND
8
Layer 1
0
POLYLINE
8
Layer 1
62
7
70
1
10
0.000000
20
0.000000
66
1
0
VERTEX
8
Layer 1
10
50.044100
20
81.359700
70
0
0
VERTEX
8
Layer 1
10
50.138600
20
81.384000
70
0
0
VERTEX
8
Layer 1
10
50.235200
20
81.370400
70
0
0
VERTEX
8
Layer 1
10
50.319200
20
81.320800
70
0
0
VERTEX
8
Layer 1
10
50.377800
20
81.242900
70
0
0
VERTEX
8
Layer 1
10
50.659900
20
80.657300
70
0
0
VERTEX
8
Layer 1
10
50.684200
20
80.562800
70
0
0
VERTEX
8
Layer 1
10
50.670600
20
80.466200
70
0
0
VERTEX
8
Layer 1
10
50.621000
20
80.382200
70
0
0
VERTEX
8
Layer 1
10
50.543100
20
80.323500
70
0
0
VERTEX
8
Layer 1
10
49.371800
20
79.759500
70
0
0
VERTEX
8
Layer 1
10
49.277400
20
79.735100
70
0
0
VERTEX
8
Layer 1
10
49.180800
20
79.748800
70
0
0
VERTEX
8
Layer 1
10
49.096800
20
79.798300
70
0
0
VERTEX
8
Layer 1
10
49.038100
20
79.876300
70
0
0
VERTEX
8
Layer 1
10
48.756100
20
80.461900
70
0
0
VERTEX
8
Layer 1
10
48.731700
20
80.556400
70
0
0
VERTEX
8
Layer 1
10
48.745400
20
80.652900
70
0
0
VERTEX
8
Layer 1
10
48.794900
20
80.737000
70
0
0
VERTEX
8
Layer 1
10
48.872900
20
80.795600
70
0
0
VERTEX
8
Layer 1
10
50.044100
20
81.359700
70
0
0
SEQEND
8
Layer 1
0
POLYLINE
8
Layer 1
62
7
70
1
10
0.000000
20
0.000000
66
1
0
VERTEX
8
Layer 1
10
54.576900
20
69.379400
70
0
0
VERTEX
8
Layer 1
10
54.502300
20
69.316500
70
0
0
VERTEX
8
Layer 1
10
54.409400
20
69.286900
70
0
0
VERTEX
8
Layer 1
10
54.312200
20
69.295100
70
0
0
VERTEX
8
Layer 1
10
54.225500
20
69.339800
70
0
0
VERTEX
8
Layer 1
10
53.717400
20
69.745100
70
0
0
VERTEX
8
Layer 1
10
53.654400
20
69.819600
70
0
0
VERTEX
8
Layer 1
10
53.624800
20
69.912600
70
0
0
VERTEX
8
Layer 1
10
53.633000
20
70.009800
70
0
0
VERTEX
8
Layer 1
10
53.677800
20
70.096400
70
0
0
VERTEX
8
Layer 1
10
54.488300
20
71.112800
70
0
0
VERTEX
8
Layer 1
10
54.562800
20
71.175700
70
0
0
VERTEX
8
Layer 1
10
54.655800
20
71.205400
70
0
0
VERTEX
8
Layer 1
10
54.753000
20
71.197200
70
0
0
VERTEX
8
Layer 1
10
54.839600
20
71.152400
70
0
0
VERTEX
8
Layer 1
10
55.347800
20
70.747100
70
0
0
VERTEX
8
Layer 1
10
55.410800
20
70.672600
70
0
0
VERTEX
8
Layer 1
10
55.440400
20
70.579700
70
0
0
VERTEX
8
Layer 1
10
55.432200
20
70.482500
70
0
0
VERTEX
8
Layer 1
10
55.387400
20
70.395800
70
0
0
VERTEX
8
Layer 1
10
54.576900
20
69.379400
70
0
0
SEQEND
8
Layer 1
0
POLYLINE
8
Layer 1
62
7
70
1
10
0.000000
20
0.000000
66
1
0
VERTEX
8
Layer 1
10
52.270500
20
71.218700
70
0
0
VERTEX
8
Layer 1
10
52.195900
20
71.155800
70
0
0
VERTEX
8
Layer 1
10
52.103000
20
71.126100
70
0
0
VERTEX
8
Layer 1
10
52.005800
20
71.134300
70
0
0
VERTEX
8
Layer 1
10
51.919100
20
71.179100
70
0
0
VERTEX
8
Layer 1
10
51.411000
20
71.584400
70
0
0
VERTEX
8
Layer 1
10
51.348000
20
71.658900
70
0
0
VERTEX
8
Layer 1
10
51.318400
20
71.751900
70
0
0
VERTEX
8
Layer 1
10
51.326600
20
71.849100
70
0
0
VERTEX
8
Layer 1
10
51.371400
20
71.935700
70
0
0
VERTEX
8
Layer 1
10
52.181900
20
72.952100
70
0
0
VERTEX
8
Layer 1
10
52.256400
20
73.015000
70
0
0
VERTEX
8
Layer 1
10
52.349400
20
73.044700
70
0
0
VERTEX
8
Layer 1
10
52.446600
20
73.036500
70
0
0
VERTEX
8
Layer 1
10
52.533200
20
72.991700
70
0
0
VERTEX
8
Layer 1
10
53.041400
20
72.586400
70
0
0
VERTEX
8
Layer 1
10
53.104400
20
72.511900
70
0
0
VERTEX
8
Layer 1
10
53.134000
20
72.418900
70
0
0
VERTEX
8
Layer 1
10
53.125800
20
72.321700
70
0
0
VERTEX
8
Layer 1
10
53.081000
20
72.235100
70
0
0
VERTEX
8
Layer 1
10
52.270500
20
71.218700
70
0
0
SEQEND
8
Layer 1
0
POLYLINE
8
Layer 1
62
7
70
1
10
0.000000
20
0.000000
66
1
0
VERTEX
8
Layer 1
10
42.492700
20
73.054000
70
0
0
VERTEX
8
Layer 1
10
42.447900
20
73.140700
70
0
0
VERTEX
8
Layer 1
10
42.439800
20
73.237900
70
0
0
VERTEX
8
Layer 1
10
42.469400
20
73.330800
70
0
0
VERTEX
8
Layer 1
10
42.532300
20
73.405300
70
0
0
VERTEX
8
Layer 1
10
43.040500
20
73.810600
70
0
0
VERTEX
8
Layer 1
10
43.127200
20
73.855400
70
0
0
VERTEX
8
Layer 1
10
43.224400
20
73.863600
70
0
0
VERTEX
8
Layer 1
10
43.317300
20
73.834000
70
0
0
VERTEX
8
Layer 1
10
43.391800
20
73.771000
70
0
0
VERTEX
8
Layer 1
10
44.202400
20
72.754600
70
0
0
VERTEX
8
Layer 1
10
44.247100
20
72.668000
70
0
0
VERTEX
8
Layer 1
10
44.255300
20
72.570800
70
0
0
VERTEX
8
Layer 1
10
44.225700
20
72.477800
70
0
0
VERTEX
8
Layer 1
10
44.162800
20
72.403300
70
0
0
VERTEX
8
Layer 1
10
43.654600
20
71.998000
70
0
0
VERTEX
8
Layer 1
10
43.567900
20
71.953300
70
0
0
VERTEX
8
Layer 1
10
43.470700
20
71.945100
70
0
0
VERTEX
8
Layer 1
10
43.377800
20
71.974700
70
0
0
VERTEX
8
Layer 1
10
43.303300
20
72.037600
70
0
0
VERTEX
8
Layer 1
10
42.492700
20
73.054000
70
0
0
SEQEND
8
Layer 1
0
POLYLINE
8
Layer 1
62
7
70
1
10
0.000000
20
0.000000
66
1
0
VERTEX
8
Layer 1
10
44.799100
20
74.893300
70
0
0
VERTEX
8
Layer 1
10
44.754400
20
74.980000
70
0
0
VERTEX
8
Layer 1
10
44.746200
20
75.077200
70
0
0
VERTEX
8
Layer 1
10
44.775800
20
75.170100
70
0
0
VERTEX
8
Layer 1
10
44.838700
20
75.244600
70
0
0
VERTEX
8
Layer 1
10
45.346900
20
75.649900
70
0
0
VERTEX
8
Layer 1
10
45.433600
20
75.694700
70
0
0
VERTEX
8
Layer 1
10
45.530800
20
75.702900
70
0
0
VERTEX
8
Layer 1
10
45.623700
20
75.673300
70
0
0
VERTEX
8
Layer 1
10
45.698200
20
75.610300
70
0
0
VERTEX
8
Layer 1
10
46.508800
20
74.593900
70
0
0
VERTEX
8
Layer 1
10
46.553500
20
74.507300
70
0
0
VERTEX
8
Layer 1
10
46.561700
20
74.410100
70
0
0
VERTEX
8
Layer 1
10
46.532100
20
74.317100
70
0
0
VERTEX
8
Layer 1
10
46.469200
20
74.242600
70
0
0
VERTEX
8
Layer 1
10
45.961000
20
73.837300
70
0
0
VERTEX
8
Layer 1
10
45.874300
20
73.792600
70
0
0
VERTEX
8
Layer 1
10
45.777100
20
73.784400
70
0
0
VERTEX
8
Layer 1
10
45.684200
20
73.814000
70
0
0
VERTEX
8
Layer 1
10
45.609700
20
73.876900
70
0
0
VERTEX
8
Layer 1
10
44.799100
20
74.893300
70
0
0
SEQEND
8
Layer 1
0
POLYLINE
8
Layer 1
62
7
70
1
10
0.000000
20
0.000000
66
1
0
VERTEX
8
Layer 1
10
43.843800
20
81.255500
70
0
0
VERTEX
8
Layer 1
10
43.796200
20
81.289500
70
0
0
VERTEX
8
Layer 1
10
43.765200
20
81.339100
70
0
0
VERTEX
8
Layer 1
10
43.755600
20
81.396900
70
0
0
VERTEX
8
Layer 1
10
43.768800
20
81.453900
70
0
0
VERTEX
8
Layer 1
10
44.252100
20
82.524900
70
0
0
VERTEX
8
Layer 1
10
44.286100
20
82.572500
70
0
0
VERTEX
8
Layer 1
10
44.335700
20
82.603500
70
0
0
VERTEX
8
Layer 1
10
44.393500
20
82.613100
70
0
0
VERTEX
8
Layer 1
10
44.450500
20
82.599900
70
0
0
VERTEX
8
Layer 1
10
44.723900
20
82.476600
70
0
0
VERTEX
8
Layer 1
10
44.771600
20
82.442500
70
0
0
VERTEX
8
Layer 1
10
44.802500
20
82.392900
70
0
0
VERTEX
8
Layer 1
10
44.812200
20
82.335200
70
0
0
VERTEX
8
Layer 1
10
44.799000
20
82.278100
70
0
0
VERTEX
8
Layer 1
10
44.315700
20
81.207100
70
0
0
VERTEX
8
Layer 1
10
44.281700
20
81.159500
70
0
0
VERTEX
8
Layer 1
10
44.232000
20
81.128500
70
0
0
VERTEX
8
Layer 1
10
44.174300
20
81.118900
70
0
0
VERTEX
8
Layer 1
10
44.117300
20
81.132100
70
0
0
VERTEX
8
Layer 1
10
43.843800
20
81.255500
70
0
0
SEQEND
8
Layer 1
0
POLYLINE
8
Layer 1
62
7
70
1
10
0.000000
20
0.000000
66
1
0
VERTEX
8
Layer 1
10
45.575700
20
80.474000
70
0
0
VERTEX
8
Layer 1
10
45.528100
20
80.508000
70
0
0
VERTEX
8
Layer 1
10
45.497100
20
80.557700
70
0
0
VERTEX
8
Layer 1
10
45.487500
20
80.615400
70
0
0
VERTEX
8
Layer 1
10
45.500700
20
80.672400
70
0
0
VERTEX
8
Layer 1
10
45.983900
20
81.743500
70
0
0
VERTEX
8
Layer 1
10
46.017900
20
81.791100
70
0
0
VERTEX
8
Layer 1
10
46.067600
20
81.822100
70
0
0
VERTEX
8
Layer 1
10
46.125300
20
81.831700
70
0
0
VERTEX
8
Layer 1
10
46.182300
20
81.818500
70
0
0
VERTEX
8
Layer 1
10
46.455800
20
81.695100
70
0
0
VERTEX
8
Layer 1
10
46.503400
20
81.661100
70
0
0
VERTEX
8
Layer 1
10
46.534400
20
81.611400
70
0
0
VERTEX
8
Layer 1
10
46.544000
20
81.553700
70
0
0
VERTEX
8
Layer 1
10
46.530800
20
81.496700
70
0
0
VERTEX
8
Layer 1
10
46.047600
20
80.425700
70
0
0
VERTEX
8
Layer 1
10
46.013500
20
80.378000
70
0
0
VERTEX
8
Layer 1
10
45.963900
20
80.347100
70
0
0
VERTEX
8
Layer 1
10
45.906200
20
80.337400
70
0
0
VERTEX
8
Layer 1
10
45.849100
20
80.350600
70
0
0
VERTEX
8
Layer 1
10
45.575700
20
80.474000
70
0
0
SEQEND
8
Layer 1
0
POLYLINE
8
Layer 1
62
7
70
1
10
0.000000
20
0.000000
66
1
0
VERTEX
8
Layer 1
10
45.480900
20
82.573800
70
0
0
VERTEX
8
Layer 1
10
45.433300
20
82.607800
70
0
0
VERTEX
8
Layer 1
10
45.402300
20
82.657500
70
0
0
VERTEX
8
Layer 1
10
45.392700
20
82.715200
70
0
0
VERTEX
8
Layer 1
10
45.405900
20
82.772200
70
0
0
VERTEX
8
Layer 1
10
45.889200
20
83.843300
70
0
0
VERTEX
8
Layer 1
10
45.923200
20
83.890900
70
0
0
VERTEX
8
Layer 1
10
45.972800
20
83.921900
70
0
0
VERTEX
8
Layer 1
10
46.030600
20
83.931500
70
0
0
VERTEX
8
Layer 1
10
46.087600
20
83.918300
70
0
0
VERTEX
8
Layer 1
10
46.361000
20
83.794900
70
0
0
VERTEX
8
Layer 1
10
46.408700
20
83.760900
70
0
0
VERTEX
8
Layer 1
10
46.439600
20
83.711200
70
0
0
VERTEX
8
Layer 1
10
46.449300
20
83.653500
70
0
0
VERTEX
8
Layer 1
10
46.436100
20
83.596500
70
0
0
VERTEX
8
Layer 1
10
45.952800
20
82.525500
70
0
0
VERTEX
8
Layer 1
10
45.918800
20
82.477800
70
0
0
VERTEX
8
Layer 1
10
45.869100
20
82.446900
70
0
0
VERTEX
8
Layer 1
10
45.811400
20
82.437200
70
0
0
VERTEX
8
Layer 1
10
45.754400
20
82.450400
70
0
0
VERTEX
8
Layer 1
10
45.480900
20
82.573800
70
0
0
SEQEND
8
Layer 1
0
POLYLINE
8
Layer 1
62
7
70
1
10
0.000000
20
0.000000
66
1
0
VERTEX
8
Layer 1
10
56.459400
20
80.875300
70
0
0
VERTEX
8
Layer 1
10
56.503100
20
80.914200
70
0
0
VERTEX
8
Layer 1
10
56.558400
20
80.933300
70
0
0
VERTEX
8
Layer 1
10
56.616800
20
80.929800
70
0
0
VERTEX
8
Layer 1
10
56.669500
20
80.904300
70
0
0
VERTEX
8
Layer 1
10
57.606100
20
80.194800
70
0
0
VERTEX
8
Layer 1
10
57.645000
20
80.151100
70
0
0
VERTEX
8
Layer 1
10
57.664100
20
80.095800
70
0
0
VERTEX
8
Layer 1
10
57.660700
20
80.037300
70
0
0
VERTEX
8
Layer 1
10
57.635100
20
79.984700
70
0
0
VERTEX
8
Layer 1
10
57.454000
20
79.745500
70
0
0
VERTEX
8
Layer 1
10
57.410200
20
79.706700
70
0
0
VERTEX
8
Layer 1
10
57.354900
20
79.687500
70
0
0
VERTEX
8
Layer 1
10
57.296500
20
79.691000
70
0
0
VERTEX
8
Layer 1
10
57.243800
20
79.716500
70
0
0
VERTEX
8
Layer 1
10
56.307200
20
80.426000
70
0
0
VERTEX
8
Layer 1
10
56.268300
20
80.469800
70
0
0
VERTEX
8
Layer 1
10
56.249200
20
80.525100
70
0
0
VERTEX
8
Layer 1
10
56.252700
20
80.583500
70
0
0
VERTEX
8
Layer 1
10
56.278200
20
80.636200
70
0
0
VERTEX
8
Layer 1
10
56.459400
20
80.875300
70
0
0
SEQEND
8
Layer 1
0
POLYLINE
8
Layer 1
62
7
70
1
10
0.000000
20
0.000000
66
1
0
VERTEX
8
Layer 1
10
55.312100
20
79.360700
70
0
0
VERTEX
8
Layer 1
10
55.355900
20
79.399600
70
0
0
VERTEX
8
Layer 1
10
55.411200
20
79.418800
70
0
0
VERTEX
8
Layer 1
10
55.469600
20
79.415300
70
0
0
VERTEX
8
Layer 1
10
55.522300
20
79.389700
70
0
0
VERTEX
8
Layer 1
10
56.458900
20
78.680300
70
0
0
VERTEX
8
Layer 1
10
56.497800
20
78.636500
70
0
0
VERTEX
8
Layer 1
10
56.516900
20
78.581200
70
0
0
VERTEX
8
Layer 1
10
56.513500
20
78.522800
70
0
0
VERTEX
8
Layer 1
10
56.487900
20
78.470100
70
0
0
VERTEX
8
Layer 1
10
56.306800
20
78.231000
70
0
0
VERTEX
8
Layer 1
10
56.263000
20
78.192100
70
0
0
VERTEX
8
Layer 1
10
56.207700
20
78.173000
70
0
0
VERTEX
8
Layer 1
10
56.149300
20
78.176400
70
0
0
VERTEX
8
Layer 1
10
56.096600
20
78.202000
70
0
0
VERTEX
8
Layer 1
10
55.160000
20
78.911500
70
0
0
VERTEX
8
Layer 1
10
55.121100
20
78.955200
70
0
0
VERTEX
8
Layer 1
10
55.102000
20
79.010500
70
0
0
VERTEX
8
Layer 1
10
55.105400
20
79.068900
70
0
0
VERTEX
8
Layer 1
10
55.131000
20
79.121600
70
0
0
VERTEX
8
Layer 1
10
55.312100
20
79.360700
70
0
0
SEQEND
8
Layer 1
0
POLYLINE
8
Layer 1
62
7
70
1
10
0.000000
20
0.000000
66
1
0
VERTEX
8
Layer 1
10
57.380400
20
78.985900
70
0
0
VERTEX
8
Layer 1
10
57.424100
20
79.024700
70
0
0
VERTEX
8
Layer 1
10
57.479400
20
79.043900
70
0
0
VERTEX
8
Layer 1
10
57.537800
20
79.040400
70
0
0
VERTEX
8
Layer 1
10
57.590500
20
79.014900
70
0
0
VERTEX
8
Layer 1
10
58.527100
20
78.305400
70
0
0
VERTEX
8
Layer 1
10
58.566000
20
78.261600
70
0
0
VERTEX
8
Layer 1
10
58.585200
20
78.206300
70
0
0
VERTEX
8
Layer 1
10
58.581700
20
78.147900
70
0
0
VERTEX
8
Layer 1
10
58.556100
20
78.095300
70
0
0
VERTEX
8
Layer 1
10
58.375000
20
77.856100
70
0
0
VERTEX
8
Layer 1
10
58.331200
20
77.817300
70
0
0
VERTEX
8
Layer 1
10
58.275900
20
77.798100
70
0
0
VERTEX
8
Layer 1
10
58.217500
20
77.801600
70
0
0
VERTEX
8
Layer 1
10
58.164800
20
77.827100
70
0
0
VERTEX
8
Layer 1
10
57.228200
20
78.536600
70
0
0
VERTEX
8
Layer 1
10
57.189400
20
78.580400
70
0
0
VERTEX
8
Layer 1
10
57.170200
20
78.635700
70
0
0
VERTEX
8
Layer 1
10
57.173700
20
78.694100
70
0
0
VERTEX
8
Layer 1
10
57.199200
20
78.746700
70
0
0
VERTEX
8
Layer 1
10
57.380400
20
78.985900
70
0
0
SEQEND
8
Layer 1
0
POLYLINE
8
Layer 1
62
7
70
1
10
0.000000
20
0.000000
66
1
0
VERTEX
8
Layer 1
10
55.489300
20
85.696600
70
0
0
VERTEX
8
Layer 1
10
55.558100
20
85.733300
70
0
0
VERTEX
8
Layer 1
10
55.635800
20
85.740800
70
0
0
VERTEX
8
Layer 1
10
55.710500
20
85.718000
70
0
0
VERTEX
8
Layer 1
10
55.770700
20
85.668400
70
0
0
VERTEX
8
Layer 1
10
56.024000
20
85.358800
70
0
0
VERTEX
8
Layer 1
10
56.060700
20
85.289900
70
0
0
VERTEX
8
Layer 1
10
56.068200
20
85.212300
70
0
0
VERTEX
8
Layer 1
10
56.045400
20
85.137600
70
0
0
VERTEX
8
Layer 1
10
55.995800
20
85.077400
70
0
0
VERTEX
8
Layer 1
10
55.570100
20
84.729100
70
0
0
VERTEX
8
Layer 1
10
55.501200
20
84.692500
70
0
0
VERTEX
8
Layer 1
10
55.423600
20
84.684900
70
0
0
VERTEX
8
Layer 1
10
55.348900
20
84.707700
70
0
0
VERTEX
8
Layer 1
10
55.288700
20
84.757300
70
0
0
VERTEX
8
Layer 1
10
55.035400
20
85.066900
70
0
0
VERTEX
8
Layer 1
10
54.998700
20
85.135800
70
0
0
VERTEX
8
Layer 1
10
54.991200
20
85.213400
70
0
0
VERTEX
8
Layer 1
10
55.014000
20
85.288100
70
0
0
VERTEX
8
Layer 1
10
55.063600
20
85.348300
70
0
0
VERTEX
8
Layer 1
10
55.489300
20
85.696600
70
0
0
SEQEND
8
Layer 1
0
POLYLINE
8
Layer 1
62
7
70
1
10
0.000000
20
0.000000
66
1
0
VERTEX
8
Layer 1
10
56.534000
20
84.419500
70
0
0
VERTEX
8
Layer 1
10
56.602900
20
84.456200
70
0
0
VERTEX
8
Layer 1
10
56.680600
20
84.463700
70
0
0
VERTEX
8
Layer 1
10
56.755200
20
84.440900
70
0
0
VERTEX
8
Layer 1
10
56.815500
20
84.391300
70
0
0
VERTEX
8
Layer 1
10
57.068700
20
84.081700
70
0
0
VERTEX
8
Layer 1
10
57.105400
20
84.012800
70
0
0
VERTEX
8
Layer 1
10
57.112900
20
83.935200
70
0
0
VERTEX
8
Layer 1
10
57.090200
20
83.860500
70
0
0
VERTEX
8
Layer 1
10
57.040600
20
83.800300
70
0
0
VERTEX
8
Layer 1
10
56.614900
20
83.452000
70
0
0
VERTEX
8
Layer 1
10
56.546000
20
83.415400
70
0
0
VERTEX
8
Layer 1
10
56.468300
20
83.407800
70
0
0
VERTEX
8
Layer 1
10
56.393700
20
83.430600
70
0
0
VERTEX
8
Layer 1
10
56.333400
20
83.480200
70
0
0
VERTEX
8
Layer 1
10
56.080200
20
83.789800
70
0
0
VERTEX
8
Layer 1
10
56.043500
20
83.858700
70
0
0
VERTEX
8
Layer 1
10
56.036000
20
83.936300
70
0
0
VERTEX
8
Layer 1
10
56.058700
20
84.011000
70
0
0
VERTEX
8
Layer 1
10
56.108300
20
84.071200
70
0
0
VERTEX
8
Layer 1
10
56.534000
20
84.419500
70
0
0
SEQEND
8
Layer 1
0
POLYLINE
8
Layer 1
62
7
70
1
10
0.000000
20
0.000000
66
1
0
VERTEX
8
Layer 1
10
54.356500
20
87.904700
70
0
0
VERTEX
8
Layer 1
10
54.407800
20
87.972900
70
0
0
VERTEX
8
Layer 1
10
54.481300
20
88.016300
70
0
0
VERTEX
8
Layer 1
10
54.565800
20
88.028200
70
0
0
VERTEX
8
Layer 1
10
54.648500
20
88.006900
70
0
0
VERTEX
8
Layer 1
10
55.042600
20
87.817100
70
0
0
VERTEX
8
Layer 1
10
55.110800
20
87.765800
70
0
0
VERTEX
8
Layer 1
10
55.154200
20
87.692200
70
0
0
VERTEX
8
Layer 1
10
55.166100
20
87.607700
70
0
0
VERTEX
8
Layer 1
10
55.144800
20
87.525100
70
0
0
VERTEX
8
Layer 1
10
54.922400
20
87.063300
70
0
0
VERTEX
8
Layer 1
10
54.871100
20
86.995100
70
0
0
VERTEX
8
Layer 1
10
54.797600
20
86.951800
70
0
0
VERTEX
8
Layer 1
10
54.713100
20
86.939800
70
0
0
VERTEX
8
Layer 1
10
54.630400
20
86.961200
70
0
0
VERTEX
8
Layer 1
10
54.236300
20
87.151000
70
0
0
VERTEX
8
Layer 1
10
54.168100
20
87.202300
70
0
0
VERTEX
8
Layer 1
10
54.124700
20
87.275800
70
0
0
VERTEX
8
Layer 1
10
54.112800
20
87.360300
70
0
0
VERTEX
8
Layer 1
10
54.134100
20
87.443000
70
0
0
VERTEX
8
Layer 1
10
54.356500
20
87.904700
70
0
0
SEQEND
8
Layer 1
0
POLYLINE
8
Layer 1
62
7
70
1
10
0.000000
20
0.000000
66
1
0
VERTEX
8
Layer 1
10
55.775500
20
87.221400
70
0
0
VERTEX
8
Layer 1
10
55.826800
20
87.289600
70
0
0
VERTEX
8
Layer 1
10
55.900300
20
87.332900
70
0
0
VERTEX
8
Layer 1
10
55.984800
20
87.344900
70
0
0
VERTEX
8
Layer 1
10
56.067500
20
87.323500
70
0
0
VERTEX
8
Layer 1
10
56.461700
20
87.133700
70
0
0
VERTEX
8
Layer 1
10
56.529900
20
87.082400
70
0
0
VERTEX
8
Layer 1
10
56.573200
20
87.008900
70
0
0
VERTEX
8
Layer 1
10
56.585200
20
86.924400
70
0
0
VERTEX
8
Layer 1
10
56.563800
20
86.841700
70
0
0
VERTEX
8
Layer 1
10
56.341500
20
86.380000
70
0
0
VERTEX
8
Layer 1
10
56.290100
20
86.311800
70
0
0
VERTEX
8
Layer 1
10
56.216600
20
86.268400
70
0
0
VERTEX
8
Layer 1
10
56.132100
20
86.256500
70
0
0
VERTEX
8
Layer 1
10
56.049500
20
86.277800
70
0
0
VERTEX
8
Layer 1
10
55.655300
20
86.467600
70
0
0
VERTEX
8
Layer 1
10
55.587100
20
86.518900
70
0
0
VERTEX
8
Layer 1
10
55.543700
20
86.592500
70
0
0
VERTEX
8
Layer 1
10
55.531800
20
86.677000
70
0
0
VERTEX
8
Layer 1
10
55.553100
20
86.759600
70
0
0
VERTEX
8
Layer 1
10
55.775500
20
87.221400
70
0
0
SEQEND
8
Layer 1
0
POLYLINE
8
Layer 1
62
7
70
1
10
0.000000
20
0.000000
66
1
0
VERTEX
8
Layer 1
10
51.225000
20
63.450700
70
0
0
VERTEX
8
Layer 1
10
51.208300
20
63.367000
70
0
0
VERTEX
8
Layer 1
10
51.160900
20
63.296100
70
0
0
VERTEX
8
Layer 1
10
51.090000
20
63.248700
70
0
0
VERTEX
8
Layer 1
10
51.006200
20
63.232000
70
0
0
VERTEX
8
Layer 1
10
50.568700
20
63.232000
70
0
0
VERTEX
8
Layer 1
10
50.485000
20
63.248700
70
0
0
VERTEX
8
Layer 1
10
50.414100
20
63.296100
70
0
0
VERTEX
8
Layer 1
10
50.366700
20
63.367000
70
0
0
VERTEX
8
Layer 1
10
50.350000
20
63.450700
70
0
0
VERTEX
8
Layer 1
10
50.350000
20
63.963300
70
0
0
VERTEX
8
Layer 1
10
50.366700
20
64.047000
70
0
0
VERTEX
8
Layer 1
10
50.414100
20
64.117900
70
0
0
VERTEX
8
Layer 1
10
50.485000
20
64.165300
70
0
0
VERTEX
8
Layer 1
10
50.568700
20
64.182000
70
0
0
VERTEX
8
Layer 1
10
51.006200
20
64.182000
70
0
0
VERTEX
8
Layer 1
10
51.090000
20
64.165300
70
0
0
VERTEX
8
Layer 1
10
51.160900
20
64.117900
70
0
0
VERTEX
8
Layer 1
10
51.208300
20
64.047000
70
0
0
VERTEX
8
Layer 1
10
51.225000
20
63.963300
70
0
0
VERTEX
8
Layer 1
10
51.225000
20
63.450700
70
0
0
SEQEND
8
Layer 1
0
POLYLINE
8
Layer 1
62
7
70
1
10
0.000000
20
0.000000
66
1
0
VERTEX
8
Layer 1
10
49.650000
20
63.450700
70
0
0
VERTEX
8
Layer 1
10
49.633300
20
63.367000
70
0
0
VERTEX
8
Layer 1
10
49.585900
20
63.296100
70
0
0
VERTEX
8
Layer 1
10
49.515000
20
63.248700
70
0
0
VERTEX
8
Layer 1
10
49.431200
20
63.232000
70
0
0
VERTEX
8
Layer 1
10
48.993700
20
63.232000
70
0
0
VERTEX
8
Layer 1
10
48.910000
20
63.248700
70
0
0
VERTEX
8
Layer 1
10
48.839100
20
63.296100
70
0
0
VERTEX
8
Layer 1
10
48.791700
20
63.367000
70
0
0
VERTEX
8
Layer 1
10
48.775000
20
63.450700
70
0
0
VERTEX
8
Layer 1
10
48.775000
20
63.963300
70
0
0
VERTEX
8
Layer 1
10
48.791700
20
64.047000
70
0
0
VERTEX
8
Layer 1
10
48.839100
20
64.117900
70
0
0
VERTEX
8
Layer 1
10
48.910000
20
64.165300
70
0
0
VERTEX
8
Layer 1
10
48.993700
20
64.182000
70
0
0
VERTEX
8
Layer 1
10
49.431200
20
64.182000
70
0
0
VERTEX
8
Layer 1
10
49.515000
20
64.165300
70
0
0
VERTEX
8
Layer 1
10
49.585900
20
64.117900
70
0
0
VERTEX
8
Layer 1
10
49.633300
20
64.047000
70
0
0
VERTEX
8
Layer 1
10
49.650000
20
63.963300
70
0
0
VERTEX
8
Layer 1
10
49.650000
20
63.450700
70
0
0
SEQEND
8
Layer 1
0
POLYLINE
8
Layer 1
62
7
70
1
10
0.000000
20
0.000000
66
1
0
VERTEX
8
Layer 1
10
43.436200
20
86.841700
70
0
0
VERTEX
8
Layer 1
10
43.414800
20
86.924400
70
0
0
VERTEX
8
Layer 1
10
43.426800
20
87.008900
70
0
0
VERTEX
8
Layer 1
10
43.470100
20
87.082400
70
0
0
VERTEX
8
Layer 1
10
43.538300
20
87.133700
70
0
0
VERTEX
8
Layer 1
10
43.932500
20
87.323500
70
0
0
VERTEX
8
Layer 1
10
44.015200
20
87.344900
70
0
0
VERTEX
8
Layer 1
10
44.099700
20
87.332900
70
0
0
VERTEX
8
Layer 1
10
44.173200
20
87.289600
70
0
0
VERTEX
8
Layer 1
10
44.224500
20
87.221400
70
0
0
VERTEX
8
Layer 1
10
44.446900
20
86.759600
70
0
0
VERTEX
8
Layer 1
10
44.468200
20
86.677000
70
0
0
VERTEX
8
Layer 1
10
44.456300
20
86.592500
70
0
0
VERTEX
8
Layer 1
10
44.412900
20
86.518900
70
0
0
VERTEX
8
Layer 1
10
44.344700
20
86.467600
70
0
0
VERTEX
8
Layer 1
10
43.950500
20
86.277800
70
0
0
VERTEX
8
Layer 1
10
43.867900
20
86.256500
70
0
0
VERTEX
8
Layer 1
10
43.783400
20
86.268400
70
0
0
VERTEX
8
Layer 1
10
43.709900
20
86.311800
70
0
0
VERTEX
8
Layer 1
10
43.658500
20
86.380000
70
0
0
VERTEX
8
Layer 1
10
43.436200
20
86.841700
70
0
0
SEQEND
8
Layer 1
0
POLYLINE
8
Layer 1
62
7
70
1
10
0.000000
20
0.000000
66
1
0
VERTEX
8
Layer 1
10
44.855200
20
87.525100
70
0
0
VERTEX
8
Layer 1
10
44.833900
20
87.607700
70
0
0
VERTEX
8
Layer 1
10
44.845800
20
87.692200
70
0
0
VERTEX
8
Layer 1
10
44.889200
20
87.765800
70
0
0
VERTEX
8
Layer 1
10
44.957400
20
87.817100
70
0
0
VERTEX
8
Layer 1
10
45.351500
20
88.006900
70
0
0
VERTEX
8
Layer 1
10
45.434200
20
88.028200
70
0
0
VERTEX
8
Layer 1
10
45.518700
20
88.016300
70
0
0
VERTEX
8
Layer 1
10
45.592200
20
87.972900
70
0
0
VERTEX
8
Layer 1
10
45.643500
20
87.904700
70
0
0
VERTEX
8
Layer 1
10
45.865900
20
87.443000
70
0
0
VERTEX
8
Layer 1
10
45.887200
20
87.360300
70
0
0
VERTEX
8
Layer 1
10
45.875300
20
87.275800
70
0
0
VERTEX
8
Layer 1
10
45.831900
20
87.202300
70
0
0
VERTEX
8
Layer 1
10
45.763700
20
87.151000
70
0
0
VERTEX
8
Layer 1
10
45.369600
20
86.961200
70
0
0
VERTEX
8
Layer 1
10
45.286900
20
86.939800
70
0
0
VERTEX
8
Layer 1
10
45.202400
20
86.951800
70
0
0
VERTEX
8
Layer 1
10
45.128900
20
86.995100
70
0
0
VERTEX
8
Layer 1
10
45.077600
20
87.063300
70
0
0
VERTEX
8
Layer 1
10
44.855200
20
87.525100
70
0
0
SEQEND
8
Layer 1
0
POLYLINE
8
Layer 1
62
7
70
1
10
0.000000
20
0.000000
66
1
0
VERTEX
8
Layer 1
10
55.470400
20
81.978300
70
0
0
VERTEX
8
Layer 1
10
55.548300
20
81.919600
70
0
0
VERTEX
8
Layer 1
10
55.597900
20
81.835600
70
0
0
VERTEX
8
Layer 1
10
55.611500
20
81.739000
70
0
0
VERTEX
8
Layer 1
10
55.587100
20
81.644600
70
0
0
VERTEX
8
Layer 1
10
55.305100
20
81.058900
70
0
0
VERTEX
8
Layer 1
10
55.246500
20
80.981000
70
0
0
VERTEX
8
Layer 1
10
55.162500
20
80.931400
70
0
0
VERTEX
8
Layer 1
10
55.065900
20
80.917800
70
0
0
VERTEX
8
Layer 1
10
54.971400
20
80.942200
70
0
0
VERTEX
8
Layer 1
10
53.800200
20
81.506200
70
0
0
VERTEX
8
Layer 1
10
53.722200
20
81.564900
70
0
0
VERTEX
8
Layer 1
10
53.672700
20
81.648900
70
0
0
VERTEX
8
Layer 1
10
53.659000
20
81.745500
70
0
0
VERTEX
8
Layer 1
10
53.683400
20
81.839900
70
0
0
VERTEX
8
Layer 1
10
53.965400
20
82.425500
70
0
0
VERTEX
8
Layer 1
10
54.024100
20
82.503500
70
0
0
VERTEX
8
Layer 1
10
54.108100
20
82.553000
70
0
0
VERTEX
8
Layer 1
10
54.204700
20
82.566700
70
0
0
VERTEX
8
Layer 1
10
54.299100
20
82.542300
70
0
0
VERTEX
8
Layer 1
10
55.470400
20
81.978300
70
0
0
SEQEND
8
Layer 1
0
POLYLINE
8
Layer 1
62
7
70
1
10
0.000000
20
0.000000
66
1
0
VERTEX
8
Layer 1
10
54.190400
20
79.320400
70
0
0
VERTEX
8
Layer 1
10
54.268400
20
79.261800
70
0
0
VERTEX
8
Layer 1
10
54.317900
20
79.177700
70
0
0
VERTEX
8
Layer 1
10
54.331600
20
79.081100
70
0
0
VERTEX
8
Layer 1
10
54.307200
20
78.986700
70
0
0
VERTEX
8
Layer 1
10
54.025200
20
78.401100
70
0
0
VERTEX
8
Layer 1
10
53.966500
20
78.323100
70
0
0
VERTEX
8
Layer 1
10
53.882500
20
78.273600
70
0
0
VERTEX
8
Layer 1
10
53.785900
20
78.259900
70
0
0
VERTEX
8
Layer 1
10
53.691500
20
78.284300
70
0
0
VERTEX
8
Layer 1
10
52.520200
20
78.848300
70
0
0
VERTEX
8
Layer 1
10
52.442300
20
78.907000
70
0
0
VERTEX
8
Layer 1
10
52.392700
20
78.991000
70
0
0
VERTEX
8
Layer 1
10
52.379100
20
79.087600
70
0
0
VERTEX
8
Layer 1
10
52.403400
20
79.182100
70
0
0
VERTEX
8
Layer 1
10
52.685400
20
79.767700
70
0
0
VERTEX
8
Layer 1
10
52.744100
20
79.845600
70
0
0
VERTEX
8
Layer 1
10
52.828100
20
79.895200
70
0
0
VERTEX
8
Layer 1
10
52.924700
20
79.908800
70
0
0
VERTEX
8
Layer 1
10
53.019200
20
79.884500
70
0
0
VERTEX
8
Layer 1
10
54.190400
20
79.320400
70
0
0
SEQEND
8
Layer 1
0
POLYLINE
8
Layer 1
62
7
70
1
10
0.000000
20
0.000000
66
1
0
VERTEX
8
Layer 1
10
49.246300
20
64.948700
70
0
0
VERTEX
8
Layer 1
10
49.200200
20
64.885800
70
0
0
VERTEX
8
Layer 1
10
49.133400
20
64.845300
70
0
0
VERTEX
8
Layer 1
10
49.056300
20
64.833400
70
0
0
VERTEX
8
Layer 1
10
48.980500
20
64.852000
70
0
0
VERTEX
8
Layer 1
10
48.618000
20
65.021000
70
0
0
VERTEX
8
Layer 1
10
48.555100
20
65.067200
70
0
0
VERTEX
8
Layer 1
10
48.514600
20
65.133900
70
0
0
VERTEX
8
Layer 1
10
48.502700
20
65.211000
70
0
0
VERTEX
8
Layer 1
10
48.521300
20
65.286800
70
0
0
VERTEX
8
Layer 1
10
48.753700
20
65.785300
70
0
0
VERTEX
8
Layer 1
10
48.799800
20
65.848200
70
0
0
VERTEX
8
Layer 1
10
48.866600
20
65.888700
70
0
0
VERTEX
8
Layer 1
10
48.943700
20
65.900600
70
0
0
VERTEX
8
Layer 1
10
49.019500
20
65.882000
70
0
0
VERTEX
8
Layer 1
10
49.382000
20
65.713000
70
0
0
VERTEX
8
Layer 1
10
49.444900
20
65.666800
70
0
0
VERTEX
8
Layer 1
10
49.485400
20
65.600100
70
0
0
VERTEX
8
Layer 1
10
49.497300
20
65.523000
70
0
0
VERTEX
8
Layer 1
10
49.478700
20
65.447200
70
0
0
VERTEX
8
Layer 1
10
49.246300
20
64.948700
70
0
0
SEQEND
8
Layer 1
0
POLYLINE
8
Layer 1
62
7
70
1
10
0.000000
20
0.000000
66
1
0
VERTEX
8
Layer 1
10
47.750900
20
65.646000
70
0
0
VERTEX
8
Layer 1
10
47.704800
20
65.583100
70
0
0
VERTEX
8
Layer 1
10
47.638000
20
65.542600
70
0
0
VERTEX
8
Layer 1
10
47.560900
20
65.530800
70
0
0
VERTEX
8
Layer 1
10
47.485100
20
65.549300
70
0
0
VERTEX
8
Layer 1
10
47.122600
20
65.718300
70
0
0
VERTEX
8
Layer 1
10
47.059700
20
65.764500
70
0
0
VERTEX
8
Layer 1
10
47.019200
20
65.831200
70
0
0
VERTEX
8
Layer 1
10
47.007300
20
65.908300
70
0
0
VERTEX
8
Layer 1
10
47.025900
20
65.984100
70
0
0
VERTEX
8
Layer 1
10
47.258300
20
66.482600
70
0
0
VERTEX
8
Layer 1
10
47.304400
20
66.545500
70
0
0
VERTEX
8
Layer 1
10
47.371100
20
66.586000
70
0
0
VERTEX
8
Layer 1
10
47.448300
20
66.597900
70
0
0
VERTEX
8
Layer 1
10
47.524100
20
66.579300
70
0
0
VERTEX
8
Layer 1
10
47.886600
20
66.410300
70
0
0
VERTEX
8
Layer 1
10
47.949500
20
66.364100
70
0
0
VERTEX
8
Layer 1
10
47.990000
20
66.297400
70
0
0
VERTEX
8
Layer 1
10
48.001900
20
66.220300
70
0
0
VERTEX
8
Layer 1
10
47.983300
20
66.144500
70
0
0
VERTEX
8
Layer 1
10
47.750900
20
65.646000
70
0
0
SEQEND
8
Layer 1
0
POLYLINE
8
Layer 1
62
7
70
1
10
0.000000
20
0.000000
66
1
0
VERTEX
8
Layer 1
10
60.453800
20
79.862900
70
0
0
VERTEX
8
Layer 1
10
60.397300
20
79.809100
70
0
0
VERTEX
8
Layer 1
10
60.324500
20
79.781000
70
0
0
VERTEX
8
Layer 1
10
60.246400
20
79.782900
70
0
0
VERTEX
8
Layer 1
10
60.175100
20
79.814500
70
0
0
VERTEX
8
Layer 1
10
59.848000
20
80.044700
70
0
0
VERTEX
8
Layer 1
10
59.794200
20
80.101200
70
0
0
VERTEX
8
Layer 1
10
59.766100
20
80.174000
70
0
0
VERTEX
8
Layer 1
10
59.768000
20
80.252000
70
0
0
VERTEX
8
Layer 1
10
59.799600
20
80.323400
70
0
0
VERTEX
8
Layer 1
10
60.116200
20
80.773100
70
0
0
VERTEX
8
Layer 1
10
60.172700
20
80.827000
70
0
0
VERTEX
8
Layer 1
10
60.245500
20
80.855100
70
0
0
VERTEX
8
Layer 1
10
60.323500
20
80.853200
70
0
0
VERTEX
8
Layer 1
10
60.394800
20
80.821600
70
0
0
VERTEX
8
Layer 1
10
60.721900
20
80.591300
70
0
0
VERTEX
8
Layer 1
10
60.775800
20
80.534800
70
0
0
VERTEX
8
Layer 1
10
60.803900
20
80.462000
70
0
0
VERTEX
8
Layer 1
10
60.802000
20
80.384000
70
0
0
VERTEX
8
Layer 1
10
60.770400
20
80.312600
70
0
0
VERTEX
8
Layer 1
10
60.453800
20
79.862900
70
0
0
SEQEND
8
Layer 1
0
POLYLINE
8
Layer 1
62
7
70
1
10
0.000000
20
0.000000
66
1
0
VERTEX
8
Layer 1
10
59.104500
20
80.812700
70
0
0
VERTEX
8
Layer 1
10
59.048000
20
80.758800
70
0
0
VERTEX
8
Layer 1
10
58.975200
20
80.730700
70
0
0
VERTEX
8
Layer 1
10
58.897200
20
80.732600
70
0
0
VERTEX
8
Layer 1
10
58.825900
20
80.764200
70
0
0
VERTEX
8
Layer 1
10
58.498800
20
80.994500
70
0
0
VERTEX
8
Layer 1
10
58.444900
20
81.051000
70
0
0
VERTEX
8
Layer 1
10
58.416800
20
81.123800
70
0
0
VERTEX
8
Layer 1
10
58.418700
20
81.201800
70
0
0
VERTEX
8
Layer 1
10
58.450400
20
81.273200
70
0
0
VERTEX
8
Layer 1
10
58.766900
20
81.722900
70
0
0
VERTEX
8
Layer 1
10
58.823400
20
81.776700
70
0
0
VERTEX
8
Layer 1
10
58.896200
20
81.804800
70
0
0
VERTEX
8
Layer 1
10
58.974300
20
81.802900
70
0
0
VERTEX
8
Layer 1
10
59.045600
20
81.771300
70
0
0
VERTEX
8
Layer 1
10
59.372700
20
81.541100
70
0
0
VERTEX
8
Layer 1
10
59.426500
20
81.484600
70
0
0
VERTEX
8
Layer 1
10
59.454600
20
81.411800
70
0
0
VERTEX
8
Layer 1
10
59.452700
20
81.333800
70
0
0
VERTEX
8
Layer 1
10
59.421100
20
81.262400
70
0
0
VERTEX
8
Layer 1
10
59.104500
20
80.812700
70
0
0
SEQEND
8
Layer 1
0
POLYLINE
8
Layer 1
62
7
70
1
10
0.000000
20
0.000000
66
1
0
VERTEX
8
Layer 1
10
38.920700
20
77.122100
70
0
0
VERTEX
8
Layer 1
10
38.994900
20
77.146100
70
0
0
VERTEX
8
Layer 1
10
39.072700
20
77.139800
70
0
0
VERTEX
8
Layer 1
10
39.142200
20
77.104300
70
0
0
VERTEX
8
Layer 1
10
39.192700
20
77.044800
70
0
0
VERTEX
8
Layer 1
10
39.387500
20
76.695500
70
0
0
VERTEX
8
Layer 1
10
39.411500
20
76.621200
70
0
0
VERTEX
8
Layer 1
10
39.405300
20
76.543400
70
0
0
VERTEX
8
Layer 1
10
39.369700
20
76.473900
70
0
0
VERTEX
8
Layer 1
10
39.310300
20
76.423400
70
0
0
VERTEX
8
Layer 1
10
38.829900
20
76.155500
70
0
0
VERTEX
8
Layer 1
10
38.755600
20
76.131600
70
0
0
VERTEX
8
Layer 1
10
38.677800
20
76.137800
70
0
0
VERTEX
8
Layer 1
10
38.608400
20
76.173400
70
0
0
VERTEX
8
Layer 1
10
38.557800
20
76.232800
70
0
0
VERTEX
8
Layer 1
10
38.363000
20
76.582200
70
0
0
VERTEX
8
Layer 1
10
38.339000
20
76.656400
70
0
0
VERTEX
8
Layer 1
10
38.345300
20
76.734200
70
0
0
VERTEX
8
Layer 1
10
38.380900
20
76.803700
70
0
0
VERTEX
8
Layer 1
10
38.440300
20
76.854300
70
0
0
VERTEX
8
Layer 1
10
38.920700
20
77.122100
70
0
0
SEQEND
8
Layer 1
0
POLYLINE
8
Layer 1
62
7
70
1
10
0.000000
20
0.000000
66
1
0
VERTEX
8
Layer 1
10
39.724200
20
75.681000
70
0
0
VERTEX
8
Layer 1
10
39.798500
20
75.705000
70
0
0
VERTEX
8
Layer 1
10
39.876200
20
75.698700
70
0
0
VERTEX
8
Layer 1
10
39.945700
20
75.663100
70
0
0
VERTEX
8
Layer 1
10
39.996300
20
75.603700
70
0
0
VERTEX
8
Layer 1
10
40.191100
20
75.254300
70
0
0
VERTEX
8
Layer 1
10
40.215100
20
75.180100
70
0
0
VERTEX
8
Layer 1
10
40.208800
20
75.102300
70
0
0
VERTEX
8
Layer 1
10
40.173200
20
75.032800
70
0
0
VERTEX
8
Layer 1
10
40.113800
20
74.982300
70
0
0
VERTEX
8
Layer 1
10
39.633400
20
74.714400
70
0
0
VERTEX
8
Layer 1
10
39.559200
20
74.690400
70
0
0
VERTEX
8
Layer 1
10
39.481400
20
74.696700
70
0
0
VERTEX
8
Layer 1
10
39.411900
20
74.732300
70
0
0
VERTEX
8
Layer 1
10
39.361300
20
74.791700
70
0
0
VERTEX
8
Layer 1
10
39.166500
20
75.141100
70
0
0
VERTEX
8
Layer 1
10
39.142600
20
75.215300
70
0
0
VERTEX
8
Layer 1
10
39.148800
20
75.293100
70
0
0
VERTEX
8
Layer 1
10
39.184400
20
75.362600
70
0
0
VERTEX
8
Layer 1
10
39.243800
20
75.413100
70
0
0
VERTEX
8
Layer 1
10
39.724200
20
75.681000
70
0
0
SEQEND
8
Layer 1
0
POLYLINE
8
Layer 1
62
7
70
1
10
0.000000
20
0.000000
66
1
0
VERTEX
8
Layer 1
10
51.405600
20
64.991700
70
0
0
VERTEX
8
Layer 1
10
51.365700
20
65.058700
70
0
0
VERTEX
8
Layer 1
10
51.354500
20
65.136000
70
0
0
VERTEX
8
Layer 1
10
51.373700
20
65.211600
70
0
0
VERTEX
8
Layer 1
10
51.420400
20
65.274100
70
0
0
VERTEX
8
Layer 1
10
51.717700
20
65.541800
70
0
0
VERTEX
8
Layer 1
10
51.784800
20
65.581700
70
0
0
VERTEX
8
Layer 1
10
51.862000
20
65.592900
70
0
0
VERTEX
8
Layer 1
10
51.937600
20
65.573700
70
0
0
VERTEX
8
Layer 1
10
52.000200
20
65.527000
70
0
0
VERTEX
8
Layer 1
10
52.368200
20
65.118300
70
0
0
VERTEX
8
Layer 1
10
52.408100
20
65.051200
70
0
0
VERTEX
8
Layer 1
10
52.419300
20
64.974000
70
0
0
VERTEX
8
Layer 1
10
52.400100
20
64.898300
70
0
0
VERTEX
8
Layer 1
10
52.353400
20
64.835800
70
0
0
VERTEX
8
Layer 1
10
52.056100
20
64.568100
70
0
0
VERTEX
8
Layer 1
10
51.989000
20
64.528200
70
0
0
VERTEX
8
Layer 1
10
51.911800
20
64.517100
70
0
0
VERTEX
8
Layer 1
10
51.836200
20
64.536300
70
0
0
VERTEX
8
Layer 1
10
51.773700
20
64.583000
70
0
0
VERTEX
8
Layer 1
10
51.405600
20
64.991700
70
0
0
SEQEND
8
Layer 1
0
POLYLINE
8
Layer 1
62
7
70
1
10
0.000000
20
0.000000
66
1
0
VERTEX
8
Layer 1
10
52.631800
20
66.095700
70
0
0
VERTEX
8
Layer 1
10
52.591900
20
66.162800
70
0
0
VERTEX
8
Layer 1
10
52.580700
20
66.240000
70
0
0
VERTEX
8
Layer 1
10
52.599900
20
66.315700
70
0
0
VERTEX
8
Layer 1
10
52.646600
20
66.378200
70
0
0
VERTEX
8
Layer 1
10
52.943900
20
66.645900
70
0
0
VERTEX
8
Layer 1
10
53.011000
20
66.685800
70
0
0
VERTEX
8
Layer 1
10
53.088200
20
66.696900
70
0
0
VERTEX
8
Layer 1
10
53.163800
20
66.677700
70
0
0
VERTEX
8
Layer 1
10
53.226300
20
66.631000
70
0
0
VERTEX
8
Layer 1
10
53.594400
20
66.222300
70
0
0
VERTEX
8
Layer 1
10
53.634300
20
66.155300
70
0
0
VERTEX
8
Layer 1
10
53.645500
20
66.078000
70
0
0
VERTEX
8
Layer 1
10
53.626300
20
66.002400
70
0
0
VERTEX
8
Layer 1
10
53.579600
20
65.939900
70
0
0
VERTEX
8
Layer 1
10
53.282300
20
65.672200
70
0
0
VERTEX
8
Layer 1
10
53.215200
20
65.632300
70
0
0
VERTEX
8
Layer 1
10
53.138000
20
65.621100
70
0
0
VERTEX
8
Layer 1
10
53.062400
20
65.640300
70
0
0
VERTEX
8
Layer 1
10
52.999800
20
65.687000
70
0
0
VERTEX
8
Layer 1
10
52.631800
20
66.095700
70
0
0
SEQEND
8
Layer 1
0
POLYLINE
8
Layer 1
62
7
70
1
10
0.000000
20
0.000000
66
1
0
VERTEX
8
Layer 1
10
58.057300
20
75.463700
70
0
0
VERTEX
8
Layer 1
10
58.060000
20
75.366200
70
0
0
VERTEX
8
Layer 1
10
58.025200
20
75.275100
70
0
0
VERTEX
8
Layer 1
10
57.958200
20
75.204200
70
0
0
VERTEX
8
Layer 1
10
57.869200
20
75.164300
70
0
0
VERTEX
8
Layer 1
10
57.235500
20
75.019700
70
0
0
VERTEX
8
Layer 1
10
57.138000
20
75.017000
70
0
0
VERTEX
8
Layer 1
10
57.046800
20
75.051700
70
0
0
VERTEX
8
Layer 1
10
56.975900
20
75.118800
70
0
0
VERTEX
8
Layer 1
10
56.936100
20
75.207800
70
0
0
VERTEX
8
Layer 1
10
56.646800
20
76.475200
70
0
0
VERTEX
8
Layer 1
10
56.644100
20
76.572700
70
0
0
VERTEX
8
Layer 1
10
56.678900
20
76.663800
70
0
0
VERTEX
8
Layer 1
10
56.745900
20
76.734700
70
0
0
VERTEX
8
Layer 1
10
56.834900
20
76.774600
70
0
0
VERTEX
8
Layer 1
10
57.468600
20
76.919200
70
0
0
VERTEX
8
Layer 1
10
57.566100
20
76.921900
70
0
0
VERTEX
8
Layer 1
10
57.657300
20
76.887200
70
0
0
VERTEX
8
Layer 1
10
57.728200
20
76.820100
70
0
0
VERTEX
8
Layer 1
10
57.768000
20
76.731100
70
0
0
VERTEX
8
Layer 1
10
58.057300
20
75.463700
70
0
0
SEQEND
8
Layer 1
0
POLYLINE
8
Layer 1
62
7
70
1
10
0.000000
20
0.000000
66
1
0
VERTEX
8
Layer 1
10
55.181200
20
74.807300
70
0
0
VERTEX
8
Layer 1
10
55.184000
20
74.709800
70
0
0
VERTEX
8
Layer 1
10
55.149200
20
74.618600
70
0
0
VERTEX
8
Layer 1
10
55.082200
20
74.547700
70
0
0
VERTEX
8
Layer 1
10
54.993100
20
74.507900
70
0
0
VERTEX
8
Layer 1
10
54.359400
20
74.363300
70
0
0
VERTEX
8
Layer 1
10
54.261900
20
74.360500
70
0
0
VERTEX
8
Layer 1
10
54.170800
20
74.395300
70
0
0
VERTEX
8
Layer 1
10
54.099900
20
74.462300
70
0
0
VERTEX
8
Layer 1
10
54.060100
20
74.551400
70
0
0
VERTEX
8
Layer 1
10
53.770800
20
75.818800
70
0
0
VERTEX
8
Layer 1
10
53.768100
20
75.916300
70
0
0
VERTEX
8
Layer 1
10
53.802800
20
76.007400
70
0
0
VERTEX
8
Layer 1
10
53.869900
20
76.078300
70
0
0
VERTEX
8
Layer 1
10
53.958900
20
76.118100
70
0
0
VERTEX
8
Layer 1
10
54.592600
20
76.262800
70
0
0
VERTEX
8
Layer 1
10
54.690100
20
76.265500
70
0
0
VERTEX
8
Layer 1
10
54.781200
20
76.230700
70
0
0
VERTEX
8
Layer 1
10
54.852100
20
76.163700
70
0
0
VERTEX
8
Layer 1
10
54.892000
20
76.074700
70
0
0
VERTEX
8
Layer 1
10
55.181200
20
74.807300
70
0
0
SEQEND
8
Layer 1
0
POLYLINE
8
Layer 1
62
7
70
1
10
0.000000
20
0.000000
66
1
0
VERTEX
8
Layer 1
10
53.281500
20
68.660700
70
0
0
VERTEX
8
Layer 1
10
53.309600
20
68.609400
70
0
0
VERTEX
8
Layer 1
10
53.316000
20
68.551200
70
0
0
VERTEX
8
Layer 1
10
53.299600
20
68.495000
70
0
0
VERTEX
8
Layer 1
10
53.263000
20
68.449300
70
0
0
VERTEX
8
Layer 1
10
52.362900
20
67.694100
70
0
0
VERTEX
8
Layer 1
10
52.311600
20
67.665900
70
0
0
VERTEX
8
Layer 1
10
52.253400
20
67.659500
70
0
0
VERTEX
8
Layer 1
10
52.197200
20
67.675900
70
0
0
VERTEX
8
Layer 1
10
52.151600
20
67.712600
70
0
0
VERTEX
8
Layer 1
10
51.958700
20
67.942400
70
0
0
VERTEX
8
Layer 1
10
51.930600
20
67.993700
70
0
0
VERTEX
8
Layer 1
10
51.924200
20
68.051900
70
0
0
VERTEX
8
Layer 1
10
51.940600
20
68.108000
70
0
0
VERTEX
8
Layer 1
10
51.977200
20
68.153700
70
0
0
VERTEX
8
Layer 1
10
52.877300
20
68.909000
70
0
0
VERTEX
8
Layer 1
10
52.928600
20
68.937100
70
0
0
VERTEX
8
Layer 1
10
52.986800
20
68.943500
70
0
0
VERTEX
8
Layer 1
10
53.043000
20
68.927100
70
0
0
VERTEX
8
Layer 1
10
53.088700
20
68.890500
70
0
0
VERTEX
8
Layer 1
10
53.281500
20
68.660700
70
0
0
SEQEND
8
Layer 1
0
POLYLINE
8
Layer 1
62
7
70
1
10
0.000000
20
0.000000
66
1
0
VERTEX
8
Layer 1
10
52.060200
20
70.116100
70
0
0
VERTEX
8
Layer 1
10
52.088300
20
70.064800
70
0
0
VERTEX
8
Layer 1
10
52.094700
20
70.006700
70
0
0
VERTEX
8
Layer 1
10
52.078300
20
69.950500
70
0
0
VERTEX
8
Layer 1
10
52.041700
20
69.904800
70
0
0
VERTEX
8
Layer 1
10
51.141600
20
69.149500
70
0
0
VERTEX
8
Layer 1
10
51.090300
20
69.121400
70
0
0
VERTEX
8
Layer 1
10
51.032100
20
69.115000
70
0
0
VERTEX
8
Layer 1
10
50.975900
20
69.131400
70
0
0
VERTEX
8
Layer 1
10
50.930300
20
69.168000
70
0
0
VERTEX
8
Layer 1
10
50.737400
20
69.397900
70
0
0
VERTEX
8
Layer 1
10
50.709300
20
69.449200
70
0
0
VERTEX
8
Layer 1
10
50.702900
20
69.507300
70
0
0
VERTEX
8
Layer 1
10
50.719300
20
69.563500
70
0
0
VERTEX
8
Layer 1
10
50.755900
20
69.609200
70
0
0
VERTEX
8
Layer 1
10
51.656000
20
70.364500
70
0
0
VERTEX
8
Layer 1
10
51.707300
20
70.392600
70
0
0
VERTEX
8
Layer 1
10
51.765500
20
70.399000
70
0
0
VERTEX
8
Layer 1
10
51.821700
20
70.382600
70
0
0
VERTEX
8
Layer 1
10
51.867400
20
70.346000
70
0
0
VERTEX
8
Layer 1
10
52.060200
20
70.116100
70
0
0
SEQEND
8
Layer 1
0
POLYLINE
8
Layer 1
62
7
70
1
10
0.000000
20
0.000000
66
1
0
VERTEX
8
Layer 1
10
51.234500
20
68.183200
70
0
0
VERTEX
8
Layer 1
10
51.262700
20
68.131900
70
0
0
VERTEX
8
Layer 1
10
51.269000
20
68.073700
70
0
0
VERTEX
8
Layer 1
10
51.252700
20
68.017500
70
0
0
VERTEX
8
Layer 1
10
51.216000
20
67.971900
70
0
0
VERTEX
8
Layer 1
10
50.315900
20
67.216600
70
0
0
VERTEX
8
Layer 1
10
50.264600
20
67.188400
70
0
0
VERTEX
8
Layer 1
10
50.206400
20
67.182100
70
0
0
VERTEX
8
Layer 1
10
50.150200
20
67.198400
70
0
0
VERTEX
8
Layer 1
10
50.104600
20
67.235100
70
0
0
VERTEX
8
Layer 1
10
49.911800
20
67.464900
70
0
0
VERTEX
8
Layer 1
10
49.883600
20
67.516200
70
0
0
VERTEX
8
Layer 1
10
49.877200
20
67.574400
70
0
0
VERTEX
8
Layer 1
10
49.893600
20
67.630600
70
0
0
VERTEX
8
Layer 1
10
49.930200
20
67.676200
70
0
0
VERTEX
8
Layer 1
10
50.830300
20
68.431500
70
0
0
VERTEX
8
Layer 1
10
50.881700
20
68.459600
70
0
0
VERTEX
8
Layer 1
10
50.939800
20
68.466000
70
0
0
VERTEX
8
Layer 1
10
50.996000
20
68.449600
70
0
0
VERTEX
8
Layer 1
10
51.041700
20
68.413000
70
0
0
VERTEX
8
Layer 1
10
51.234500
20
68.183200
70
0
0
SEQEND
8
Layer 1
0
POLYLINE
8
Layer 1
62
7
70
1
10
0.000000
20
0.000000
66
1
0
VERTEX
8
Layer 1
10
42.988600
20
80.045900
70
0
0
VERTEX
8
Layer 1
10
43.028400
20
80.134900
70
0
0
VERTEX
8
Layer 1
10
43.099300
20
80.201900
70
0
0
VERTEX
8
Layer 1
10
43.190400
20
80.236700
70
0
0
VERTEX
8
Layer 1
10
43.287900
20
80.234000
70
0
0
VERTEX
8
Layer 1
10
43.921600
20
80.089300
70
0
0
VERTEX
8
Layer 1
10
44.010700
20
80.049500
70
0
0
VERTEX
8
Layer 1
10
44.077700
20
79.978600
70
0
0
VERTEX
8
Layer 1
10
44.112500
20
79.887500
70
0
0
VERTEX
8
Layer 1
10
44.109700
20
79.790000
70
0
0
VERTEX
8
Layer 1
10
43.820500
20
78.522500
70
0
0
VERTEX
8
Layer 1
10
43.780600
20
78.433500
70
0
0
VERTEX
8
Layer 1
10
43.709700
20
78.366500
70
0
0
VERTEX
8
Layer 1
10
43.618600
20
78.331700
70
0
0
VERTEX
8
Layer 1
10
43.521100
20
78.334400
70
0
0
VERTEX
8
Layer 1
10
42.887400
20
78.479100
70
0
0
VERTEX
8
Layer 1
10
42.798400
20
78.518900
70
0
0
VERTEX
8
Layer 1
10
42.731300
20
78.589800
70
0
0
VERTEX
8
Layer 1
10
42.696600
20
78.680900
70
0
0
VERTEX
8
Layer 1
10
42.699300
20
78.778400
70
0
0
VERTEX
8
Layer 1
10
42.988600
20
80.045900
70
0
0
SEQEND
8
Layer 1
0
POLYLINE
8
Layer 1
62
7
70
1
10
0.000000
20
0.000000
66
1
0
VERTEX
8
Layer 1
10
45.864600
20
79.389400
70
0
0
VERTEX
8
Layer 1
10
45.904500
20
79.478500
70
0
0
VERTEX
8
Layer 1
10
45.975300
20
79.545500
70
0
0
VERTEX
8
Layer 1
10
46.066500
20
79.580300
70
0
0
VERTEX
8
Layer 1
10
46.164000
20
79.577500
70
0
0
VERTEX
8
Layer 1
10
46.797700
20
79.432900
70
0
0
VERTEX
8
Layer 1
10
46.886700
20
79.393000
70
0
0
VERTEX
8
Layer 1
10
46.953700
20
79.322200
70
0
0
VERTEX
8
Layer 1
10
46.988500
20
79.231000
70
0
0
VERTEX
8
Layer 1
10
46.985800
20
79.133500
70
0
0
VERTEX
8
Layer 1
10
46.696500
20
77.866100
70
0
0
VERTEX
8
Layer 1
10
46.656700
20
77.777100
70
0
0
VERTEX
8
Layer 1
10
46.585800
20
77.710100
70
0
0
VERTEX
8
Layer 1
10
46.494600
20
77.675300
70
0
0
VERTEX
8
Layer 1
10
46.397100
20
77.678000
70
0
0
VERTEX
8
Layer 1
10
45.763400
20
77.822600
70
0
0
VERTEX
8
Layer 1
10
45.674400
20
77.862500
70
0
0
VERTEX
8
Layer 1
10
45.607400
20
77.933400
70
0
0
VERTEX
8
Layer 1
10
45.572600
20
78.024500
70
0
0
VERTEX
8
Layer 1
10
45.575300
20
78.122000
70
0
0
VERTEX
8
Layer 1
10
45.864600
20
79.389400
70
0
0
SEQEND
8
Layer 1
0
POLYLINE
8
Layer 1
62
7
70
1
10
0.000000
20
0.000000
66
1
0
VERTEX
8
Layer 1
10
60.976100
20
77.767300
70
0
0
VERTEX
8
Layer 1
10
61.047800
20
77.736300
70
0
0
VERTEX
8
Layer 1
10
61.102100
20
77.680200
70
0
0
VERTEX
8
Layer 1
10
61.130800
20
77.607700
70
0
0
VERTEX
8
Layer 1
10
61.129600
20
77.529700
70
0
0
VERTEX
8
Layer 1
10
61.045500
20
77.138600
70
0
0
VERTEX
8
Layer 1
10
61.014500
20
77.067000
70
0
0
VERTEX
8
Layer 1
10
60.958400
20
77.012700
70
0
0
VERTEX
8
Layer 1
10
60.885900
20
76.983900
70
0
0
VERTEX
8
Layer 1
10
60.807900
20
76.985200
70
0
0
VERTEX
8
Layer 1
10
60.270200
20
77.100900
70
0
0
VERTEX
8
Layer 1
10
60.198500
20
77.131800
70
0
0
VERTEX
8
Layer 1
10
60.144200
20
77.187900
70
0
0
VERTEX
8
Layer 1
10
60.115500
20
77.260400
70
0
0
VERTEX
8
Layer 1
10
60.116700
20
77.338500
70
0
0
VERTEX
8
Layer 1
10
60.200900
20
77.729500
70
0
0
VERTEX
8
Layer 1
10
60.231800
20
77.801100
70
0
0
VERTEX
8
Layer 1
10
60.287900
20
77.855400
70
0
0
VERTEX
8
Layer 1
10
60.360400
20
77.884200
70
0
0
VERTEX
8
Layer 1
10
60.438400
20
77.883000
70
0
0
VERTEX
8
Layer 1
10
60.976100
20
77.767300
70
0
0
SEQEND
8
Layer 1
0
POLYLINE
8
Layer 1
62
7
70
1
10
0.000000
20
0.000000
66
1
0
VERTEX
8
Layer 1
10
60.629100
20
76.154200
70
0
0
VERTEX
8
Layer 1
10
60.700700
20
76.123200
70
0
0
VERTEX
8
Layer 1
10
60.755000
20
76.067200
70
0
0
VERTEX
8
Layer 1
10
60.783700
20
75.994600
70
0
0
VERTEX
8
Layer 1
10
60.782500
20
75.916600
70
0
0
VERTEX
8
Layer 1
10
60.698400
20
75.525500
70
0
0
VERTEX
8
Layer 1
10
60.667400
20
75.453900
70
0
0
VERTEX
8
Layer 1
10
60.611400
20
75.399600
70
0
0
VERTEX
8
Layer 1
10
60.538800
20
75.370900
70
0
0
VERTEX
8
Layer 1
10
60.460800
20
75.372100
70
0
0
VERTEX
8
Layer 1
10
59.923100
20
75.487800
70
0
0
VERTEX
8
Layer 1
10
59.851500
20
75.518800
70
0
0
VERTEX
8
Layer 1
10
59.797200
20
75.574800
70
0
0
VERTEX
8
Layer 1
10
59.768400
20
75.647300
70
0
0
VERTEX
8
Layer 1
10
59.769600
20
75.725400
70
0
0
VERTEX
8
Layer 1
10
59.853800
20
76.116400
70
0
0
VERTEX
8
Layer 1
10
59.884800
20
76.188000
70
0
0
VERTEX
8
Layer 1
10
59.940800
20
76.242400
70
0
0
VERTEX
8
Layer 1
10
60.013300
20
76.271100
70
0
0
VERTEX
8
Layer 1
10
60.091400
20
76.269900
70
0
0
VERTEX
8
Layer 1
10
60.629100
20
76.154200
70
0
0
SEQEND
8
Layer 1
0
POLYLINE
8
Layer 1
62
7
70
1
10
0.000000
20
0.000000
66
1
0
VERTEX
8
Layer 1
10
61.996300
20
80.029700
70
0
0
VERTEX
8
Layer 1
10
62.081600
20
80.032100
70
0
0
VERTEX
8
Layer 1
10
62.161300
20
80.001600
70
0
0
VERTEX
8
Layer 1
10
62.223300
20
79.943000
70
0
0
VERTEX
8
Layer 1
10
62.258200
20
79.865100
70
0
0
VERTEX
8
Layer 1
10
62.355500
20
79.438600
70
0
0
VERTEX
8
Layer 1
10
62.357900
20
79.353200
70
0
0
VERTEX
8
Layer 1
10
62.327500
20
79.273500
70
0
0
VERTEX
8
Layer 1
10
62.268900
20
79.211500
70
0
0
VERTEX
8
Layer 1
10
62.191000
20
79.176600
70
0
0
VERTEX
8
Layer 1
10
61.691300
20
79.062600
70
0
0
VERTEX
8
Layer 1
10
61.606000
20
79.060200
70
0
0
VERTEX
8
Layer 1
10
61.526200
20
79.090600
70
0
0
VERTEX
8
Layer 1
10
61.464200
20
79.149300
70
0
0
VERTEX
8
Layer 1
10
61.429400
20
79.227200
70
0
0
VERTEX
8
Layer 1
10
61.332000
20
79.653700
70
0
0
VERTEX
8
Layer 1
10
61.329600
20
79.739000
70
0
0
VERTEX
8
Layer 1
10
61.360100
20
79.818800
70
0
0
VERTEX
8
Layer 1
10
61.418700
20
79.880800
70
0
0
VERTEX
8
Layer 1
10
61.496600
20
79.915600
70
0
0
VERTEX
8
Layer 1
10
61.996300
20
80.029700
70
0
0
SEQEND
8
Layer 1
0
POLYLINE
8
Layer 1
62
7
70
1
10
0.000000
20
0.000000
66
1
0
VERTEX
8
Layer 1
10
62.346700
20
78.494200
70
0
0
VERTEX
8
Layer 1
10
62.432000
20
78.496600
70
0
0
VERTEX
8
Layer 1
10
62.511800
20
78.466100
70
0
0
VERTEX
8
Layer 1
10
62.573800
20
78.407500
70
0
0
VERTEX
8
Layer 1
10
62.608700
20
78.329600
70
0
0
VERTEX
8
Layer 1
10
62.706000
20
77.903000
70
0
0
VERTEX
8
Layer 1
10
62.708400
20
77.817700
70
0
0
VERTEX
8
Layer 1
10
62.678000
20
77.738000
70
0
0
VERTEX
8
Layer 1
10
62.619300
20
77.676000
70
0
0
VERTEX
8
Layer 1
10
62.541400
20
77.641100
70
0
0
VERTEX
8
Layer 1
10
62.041800
20
77.527100
70
0
0
VERTEX
8
Layer 1
10
61.956500
20
77.524700
70
0
0
VERTEX
8
Layer 1
10
61.876700
20
77.555100
70
0
0
VERTEX
8
Layer 1
10
61.814700
20
77.613700
70
0
0
VERTEX
8
Layer 1
10
61.779800
20
77.691700
70
0
0
VERTEX
8
Layer 1
10
61.682500
20
78.118200
70
0
0
VERTEX
8
Layer 1
10
61.680100
20
78.203500
70
0
0
VERTEX
8
Layer 1
10
61.710500
20
78.283200
70
0
0
VERTEX
8
Layer 1
10
61.769200
20
78.345300
70
0
0
VERTEX
8
Layer 1
10
61.847100
20
78.380100
70
0
0
VERTEX
8
Layer 1
10
62.346700
20
78.494200
70
0
0
SEQEND
8
Layer 1
0
POLYLINE
8
Layer 1
62
7
70
1
10
0.000000
20
0.000000
66
1
0
VERTEX
8
Layer 1
10
50.243100
20
84.103000
70
0
0
VERTEX
8
Layer 1
10
50.240000
20
84.161500
70
0
0
VERTEX
8
Layer 1
10
50.259500
20
84.216700
70
0
0
VERTEX
8
Layer 1
10
50.298700
20
84.260200
70
0
0
VERTEX
8
Layer 1
10
50.351500
20
84.285400
70
0
0
VERTEX
8
Layer 1
10
51.490100
20
84.575400
70
0
0
VERTEX
8
Layer 1
10
51.548600
20
84.578500
70
0
0
VERTEX
8
Layer 1
10
51.603800
20
84.558900
70
0
0
VERTEX
8
Layer 1
10
51.647300
20
84.519800
70
0
0
VERTEX
8
Layer 1
10
51.672500
20
84.467000
70
0
0
VERTEX
8
Layer 1
10
51.746500
20
84.176300
70
0
0
VERTEX
8
Layer 1
10
51.749600
20
84.117800
70
0
0
VERTEX
8
Layer 1
10
51.730100
20
84.062700
70
0
0
VERTEX
8
Layer 1
10
51.691000
20
84.019100
70
0
0
VERTEX
8
Layer 1
10
51.638200
20
83.993900
70
0
0
VERTEX
8
Layer 1
10
50.499500
20
83.704000
70
0
0
VERTEX
8
Layer 1
10
50.441100
20
83.700900
70
0
0
VERTEX
8
Layer 1
10
50.385900
20
83.720400
70
0
0
VERTEX
8
Layer 1
10
50.342400
20
83.759500
70
0
0
VERTEX
8
Layer 1
10
50.317200
20
83.812300
70
0
0
VERTEX
8
Layer 1
10
50.243100
20
84.103000
70
0
0
SEQEND
8
Layer 1
0
POLYLINE
8
Layer 1
62
7
70
1
10
0.000000
20
0.000000
66
1
0
VERTEX
8
Layer 1
10
50.712000
20
82.261800
70
0
0
VERTEX
8
Layer 1
10
50.708900
20
82.320200
70
0
0
VERTEX
8
Layer 1
10
50.728400
20
82.375400
70
0
0
VERTEX
8
Layer 1
10
50.767500
20
82.418900
70
0
0
VERTEX
8
Layer 1
10
50.820300
20
82.444200
70
0
0
VERTEX
8
Layer 1
10
51.959000
20
82.734100
70
0
0
VERTEX
8
Layer 1
10
52.017400
20
82.737200
70
0
0
VERTEX
8
Layer 1
10
52.072600
20
82.717700
70
0
0
VERTEX
8
Layer 1
10
52.116100
20
82.678600
70
0
0
VERTEX
8
Layer 1
10
52.141400
20
82.625800
70
0
0
VERTEX
8
Layer 1
10
52.215400
20
82.335000
70
0
0
VERTEX
8
Layer 1
10
52.218500
20
82.276600
70
0
0
VERTEX
8
Layer 1
10
52.199000
20
82.221400
70
0
0
VERTEX
8
Layer 1
10
52.159800
20
82.177900
70
0
0
VERTEX
8
Layer 1
10
52.107000
20
82.152700
70
0
0
VERTEX
8
Layer 1
10
50.968400
20
81.862700
70
0
0
VERTEX
8
Layer 1
10
50.909900
20
81.859600
70
0
0
VERTEX
8
Layer 1
10
50.854700
20
81.879100
70
0
0
VERTEX
8
Layer 1
10
50.811200
20
81.918300
70
0
0
VERTEX
8
Layer 1
10
50.786000
20
81.971100
70
0
0
VERTEX
8
Layer 1
10
50.712000
20
82.261800
70
0
0
SEQEND
8
Layer 1
0
POLYLINE
8
Layer 1
62
7
70
1
10
0.000000
20
0.000000
66
1
0
VERTEX
8
Layer 1
10
52.294600
20
83.645100
70
0
0
VERTEX
8
Layer 1
10
52.291500
20
83.703500
70
0
0
VERTEX
8
Layer 1
10
52.311000
20
83.758700
70
0
0
VERTEX
8
Layer 1
10
52.350100
20
83.802200
70
0
0
VERTEX
8
Layer 1
10
52.402900
20
83.827500
70
0
0
VERTEX
8
Layer 1
10
53.541600
20
84.117400
70
0
0
VERTEX
8
Layer 1
10
53.600000
20
84.120500
70
0
0
VERTEX
8
Layer 1
10
53.655200
20
84.101000
70
0
0
VERTEX
8
Layer 1
10
53.698700
20
84.061900
70
0
0
VERTEX
8
Layer 1
10
53.724000
20
84.009100
70
0
0
VERTEX
8
Layer 1
10
53.798000
20
83.718300
70
0
0
VERTEX
8
Layer 1
10
53.801100
20
83.659900
70
0
0
VERTEX
8
Layer 1
10
53.781600
20
83.604700
70
0
0
VERTEX
8
Layer 1
10
53.742500
20
83.561200
70
0
0
VERTEX
8
Layer 1
10
53.689600
20
83.536000
70
0
0
VERTEX
8
Layer 1
10
52.551000
20
83.246000
70
0
0
VERTEX
8
Layer 1
10
52.492500
20
83.242900
70
0
0
VERTEX
8
Layer 1
10
52.437300
20
83.262400
70
0
0
VERTEX
8
Layer 1
10
52.393800
20
83.301500
70
0
0
VERTEX
8
Layer 1
10
52.368600
20
83.354400
70
0
0
VERTEX
8
Layer 1
10
52.294600
20
83.645100
70
0
0
SEQEND
8
Layer 1
0
POLYLINE
8
Layer 1
62
7
70
1
10
0.000000
20
0.000000
66
1
0
VERTEX
8
Layer 1
10
42.080200
20
74.476900
70
0
0
VERTEX
8
Layer 1
10
42.024000
20
74.460800
70
0
0
VERTEX
8
Layer 1
10
41.965800
20
74.467600
70
0
0
VERTEX
8
Layer 1
10
41.914700
20
74.496000
70
0
0
VERTEX
8
Layer 1
10
41.878300
20
74.541900
70
0
0
VERTEX
8
Layer 1
10
41.342300
20
75.587500
70
0
0
VERTEX
8
Layer 1
10
41.326300
20
75.643800
70
0
0
VERTEX
8
Layer 1
10
41.333000
20
75.701900
70
0
0
VERTEX
8
Layer 1
10
41.361500
20
75.753100
70
0
0
VERTEX
8
Layer 1
10
41.407300
20
75.789400
70
0
0
VERTEX
8
Layer 1
10
41.674300
20
75.926300
70
0
0
VERTEX
8
Layer 1
10
41.730600
20
75.942300
70
0
0
VERTEX
8
Layer 1
10
41.788700
20
75.935600
70
0
0
VERTEX
8
Layer 1
10
41.839900
20
75.907100
70
0
0
VERTEX
8
Layer 1
10
41.876200
20
75.861200
70
0
0
VERTEX
8
Layer 1
10
42.412300
20
74.815600
70
0
0
VERTEX
8
Layer 1
10
42.428300
20
74.759300
70
0
0
VERTEX
8
Layer 1
10
42.421600
20
74.701200
70
0
0
VERTEX
8
Layer 1
10
42.393100
20
74.650100
70
0
0
VERTEX
8
Layer 1
10
42.347200
20
74.613700
70
0
0
VERTEX
8
Layer 1
10
42.080200
20
74.476900
70
0
0
SEQEND
8
Layer 1
0
POLYLINE
8
Layer 1
62
7
70
1
10
0.000000
20
0.000000
66
1
0
VERTEX
8
Layer 1
10
43.771000
20
75.343700
70
0
0
VERTEX
8
Layer 1
10
43.714700
20
75.327600
70
0
0
VERTEX
8
Layer 1
10
43.656600
20
75.334400
70
0
0
VERTEX
8
Layer 1
10
43.605400
20
75.362800
70
0
0
VERTEX
8
Layer 1
10
43.569100
20
75.408700
70
0
0
VERTEX
8
Layer 1
10
43.033000
20
76.454300
70
0
0
VERTEX
8
Layer 1
10
43.017000
20
76.510600
70
0
0
VERTEX
8
Layer 1
10
43.023800
20
76.568700
70
0
0
VERTEX
8
Layer 1
10
43.052200
20
76.619900
70
0
0
VERTEX
8
Layer 1
10
43.098100
20
76.656200
70
0
0
VERTEX
8
Layer 1
10
43.365100
20
76.793100
70
0
0
VERTEX
8
Layer 1
10
43.421300
20
76.809100
70
0
0
VERTEX
8
Layer 1
10
43.479500
20
76.802400
70
0
0
VERTEX
8
Layer 1
10
43.530600
20
76.773900
70
0
0
VERTEX
8
Layer 1
10
43.567000
20
76.728000
70
0
0
VERTEX
8
Layer 1
10
44.103000
20
75.682400
70
0
0
VERTEX
8
Layer 1
10
44.119000
20
75.626100
70
0
0
VERTEX
8
Layer 1
10
44.112300
20
75.568000
70
0
0
VERTEX
8
Layer 1
10
44.083800
20
75.516900
70
0
0
VERTEX
8
Layer 1
10
44.038000
20
75.480500
70
0
0
VERTEX
8
Layer 1
10
43.771000
20
75.343700
70
0
0
SEQEND
8
Layer 1
0
POLYLINE
8
Layer 1
62
7
70
1
10
0.000000
20
0.000000
66
1
0
VERTEX
8
Layer 1
10
42.070200
20
76.578800
70
0
0
VERTEX
8
Layer 1
10
42.013900
20
76.562700
70
0
0
VERTEX
8
Layer 1
10
41.955800
20
76.569500
70
0
0
VERTEX
8
Layer 1
10
41.904700
20
76.597900
70
0
0
VERTEX
8
Layer 1
10
41.868300
20
76.643800
70
0
0
VERTEX
8
Layer 1
10
41.332300
20
77.689400
70
0
0
VERTEX
8
Layer 1
10
41.316200
20
77.745700
70
0
0
VERTEX
8
Layer 1
10
41.323000
20
77.803800
70
0
0
VERTEX
8
Layer 1
10
41.351500
20
77.855000
70
0
0
VERTEX
8
Layer 1
10
41.397300
20
77.891300
70
0
0
VERTEX
8
Layer 1
10
41.664300
20
78.028200
70
0
0
VERTEX
8
Layer 1
10
41.720600
20
78.044200
70
0
0
VERTEX
8
Layer 1
10
41.778700
20
78.037500
70
0
0
VERTEX
8
Layer 1
10
41.829800
20
78.009000
70
0
0
VERTEX
8
Layer 1
10
41.866200
20
77.963100
70
0
0
VERTEX
8
Layer 1
10
42.402200
20
76.917500
70
0
0
VERTEX
8
Layer 1
10
42.418300
20
76.861300
70
0
0
VERTEX
8
Layer 1
10
42.411500
20
76.803100
70
0
0
VERTEX
8
Layer 1
10
42.383100
20
76.752000
70
0
0
VERTEX
8
Layer 1
10
42.337200
20
76.715600
70
0
0
VERTEX
8
Layer 1
10
42.070200
20
76.578800
70
0
0
SEQEND
8
Layer 1
0
POLYLINE
8
Layer 1
62
7
70
1
10
0.000000
20
0.000000
66
1
0
VERTEX
8
Layer 1
10
37.458600
20
77.641100
70
0
0
VERTEX
8
Layer 1
10
37.380700
20
77.676000
70
0
0
VERTEX
8
Layer 1
10
37.322000
20
77.738000
70
0
0
VERTEX
8
Layer 1
10
37.291600
20
77.817700
70
0
0
VERTEX
8
Layer 1
10
37.294000
20
77.903000
70
0
0
VERTEX
8
Layer 1
10
37.391300
20
78.329600
70
0
0
VERTEX
8
Layer 1
10
37.426200
20
78.407500
70
0
0
VERTEX
8
Layer 1
10
37.488200
20
78.466100
70
0
0
VERTEX
8
Layer 1
10
37.568000
20
78.496600
70
0
0
VERTEX
8
Layer 1
10
37.653300
20
78.494200
70
0
0
VERTEX
8
Layer 1
10
38.152900
20
78.380100
70
0
0
VERTEX
8
Layer 1
10
38.230800
20
78.345300
70
0
0
VERTEX
8
Layer 1
10
38.289500
20
78.283200
70
0
0
VERTEX
8
Layer 1
10
38.319900
20
78.203500
70
0
0
VERTEX
8
Layer 1
10
38.317500
20
78.118200
70
0
0
VERTEX
8
Layer 1
10
38.220200
20
77.691700
70
0
0
VERTEX
8
Layer 1
10
38.185300
20
77.613700
70
0
0
VERTEX
8
Layer 1
10
38.123300
20
77.555100
70
0
0
VERTEX
8
Layer 1
10
38.043500
20
77.524700
70
0
0
VERTEX
8
Layer 1
10
37.958200
20
77.527100
70
0
0
VERTEX
8
Layer 1
10
37.458600
20
77.641100
70
0
0
SEQEND
8
Layer 1
0
POLYLINE
8
Layer 1
62
7
70
1
10
0.000000
20
0.000000
66
1
0
VERTEX
8
Layer 1
10
37.809000
20
79.176600
70
0
0
VERTEX
8
Layer 1
10
37.731100
20
79.211500
70
0
0
VERTEX
8
Layer 1
10
37.672500
20
79.273500
70
0
0
VERTEX
8
Layer 1
10
37.642100
20
79.353200
70
0
0
VERTEX
8
Layer 1
10
37.644500
20
79.438600
70
0
0
VERTEX
8
Layer 1
10
37.741800
20
79.865100
70
0
0
VERTEX
8
Layer 1
10
37.776700
20
79.943000
70
0
0
VERTEX
8
Layer 1
10
37.838700
20
80.001600
70
0
0
VERTEX
8
Layer 1
10
37.918400
20
80.032100
70
0
0
VERTEX
8
Layer 1
10
38.003700
20
80.029700
70
0
0
VERTEX
8
Layer 1
10
38.503400
20
79.915600
70
0
0
VERTEX
8
Layer 1
10
38.581300
20
79.880800
70
0
0
VERTEX
8
Layer 1
10
38.639900
20
79.818800
70
0
0
VERTEX
8
Layer 1
10
38.670400
20
79.739000
70
0
0
VERTEX
8
Layer 1
10
38.668000
20
79.653700
70
0
0
VERTEX
8
Layer 1
10
38.570600
20
79.227200
70
0
0
VERTEX
8
Layer 1
10
38.535800
20
79.149300
70
0
0
VERTEX
8
Layer 1
10
38.473700
20
79.090600
70
0
0
VERTEX
8
Layer 1
10
38.394000
20
79.060200
70
0
0
VERTEX
8
Layer 1
10
38.308700
20
79.062600
70
0
0
VERTEX
8
Layer 1
10
37.809000
20
79.176600
70
0
0
SEQEND
8
Layer 1
0
POLYLINE
8
Layer 1
62
7
70
1
10
0.000000
20
0.000000
66
1
0
VERTEX
8
Layer 1
10
57.811500
20
74.002800
70
0
0
VERTEX
8
Layer 1
10
57.869200
20
73.992800
70
0
0
VERTEX
8
Layer 1
10
57.918700
20
73.961500
70
0
0
VERTEX
8
Layer 1
10
57.952400
20
73.913700
70
0
0
VERTEX
8
Layer 1
10
57.965200
20
73.856600
70
0
0
VERTEX
8
Layer 1
10
57.994500
20
72.681900
70
0
0
VERTEX
8
Layer 1
10
57.984500
20
72.624300
70
0
0
VERTEX
8
Layer 1
10
57.953300
20
72.574800
70
0
0
VERTEX
8
Layer 1
10
57.905400
20
72.541100
70
0
0
VERTEX
8
Layer 1
10
57.848300
20
72.528200
70
0
0
VERTEX
8
Layer 1
10
57.548400
20
72.520800
70
0
0
VERTEX
8
Layer 1
10
57.490700
20
72.530800
70
0
0
VERTEX
8
Layer 1
10
57.441300
20
72.562000
70
0
0
VERTEX
8
Layer 1
10
57.407600
20
72.609900
70
0
0
VERTEX
8
Layer 1
10
57.394700
20
72.667000
70
0
0
VERTEX
8
Layer 1
10
57.365400
20
73.841600
70
0
0
VERTEX
8
Layer 1
10
57.375400
20
73.899300
70
0
0
VERTEX
8
Layer 1
10
57.406700
20
73.948700
70
0
0
VERTEX
8
Layer 1
10
57.454500
20
73.982500
70
0
0
VERTEX
8
Layer 1
10
57.511600
20
73.995300
70
0
0
VERTEX
8
Layer 1
10
57.811500
20
74.002800
70
0
0
SEQEND
8
Layer 1
0
POLYLINE
8
Layer 1
62
7
70
1
10
0.000000
20
0.000000
66
1
0
VERTEX
8
Layer 1
10
55.912100
20
73.955400
70
0
0
VERTEX
8
Layer 1
10
55.969800
20
73.945400
70
0
0
VERTEX
8
Layer 1
10
56.019300
20
73.914100
70
0
0
VERTEX
8
Layer 1
10
56.053000
20
73.866300
70
0
0
VERTEX
8
Layer 1
10
56.065800
20
73.809200
70
0
0
VERTEX
8
Layer 1
10
56.095100
20
72.634600
70
0
0
VERTEX
8
Layer 1
10
56.085100
20
72.576900
70
0
0
VERTEX
8
Layer 1
10
56.053800
20
72.527400
70
0
0
VERTEX
8
Layer 1
10
56.006000
20
72.493700
70
0
0
VERTEX
8
Layer 1
10
55.948900
20
72.480900
70
0
0
VERTEX
8
Layer 1
10
55.649000
20
72.473400
70
0
0
VERTEX
8
Layer 1
10
55.591300
20
72.483400
70
0
0
VERTEX
8
Layer 1
10
55.541900
20
72.514700
70
0
0
VERTEX
8
Layer 1
10
55.508200
20
72.562500
70
0
0
VERTEX
8
Layer 1
10
55.495300
20
72.619600
70
0
0
VERTEX
8
Layer 1
10
55.466000
20
73.794200
70
0
0
VERTEX
8
Layer 1
10
55.476000
20
73.851900
70
0
0
VERTEX
8
Layer 1
10
55.507300
20
73.901400
70
0
0
VERTEX
8
Layer 1
10
55.555100
20
73.935100
70
0
0
VERTEX
8
Layer 1
10
55.612200
20
73.947900
70
0
0
VERTEX
8
Layer 1
10
55.912100
20
73.955400
70
0
0
SEQEND
8
Layer 1
0
POLYLINE
8
Layer 1
62
7
70
1
10
0.000000
20
0.000000
66
1
0
VERTEX
8
Layer 1
10
56.908600
20
72.104700
70
0
0
VERTEX
8
Layer 1
10
56.966300
20
72.094700
70
0
0
VERTEX
8
Layer 1
10
57.015700
20
72.063400
70
0
0
VERTEX
8
Layer 1
10
57.049400
20
72.015600
70
0
0
VERTEX
8
Layer 1
10
57.062300
20
71.958500
70
0
0
VERTEX
8
Layer 1
10
57.091600
20
70.783800
70
0
0
VERTEX
8
Layer 1
10
57.081600
20
70.726200
70
0
0
VERTEX
8
Layer 1
10
57.050300
20
70.676700
70
0
0
VERTEX
8
Layer 1
10
57.002500
20
70.643000
70
0
0
VERTEX
8
Layer 1
10
56.945400
20
70.630100
70
0
0
VERTEX
8
Layer 1
10
56.645400
20
70.622700
70
0
0
VERTEX
8
Layer 1
10
56.587800
20
70.632700
70
0
0
VERTEX
8
Layer 1
10
56.538300
20
70.663900
70
0
0
VERTEX
8
Layer 1
10
56.504600
20
70.711800
70
0
0
VERTEX
8
Layer 1
10
56.491800
20
70.768900
70
0
0
VERTEX
8
Layer 1
10
56.462500
20
71.943500
70
0
0
VERTEX
8
Layer 1
10
56.472400
20
72.001200
70
0
0
VERTEX
8
Layer 1
10
56.503700
20
72.050600
70
0
0
VERTEX
8
Layer 1
10
56.551600
20
72.084400
70
0
0
VERTEX
8
Layer 1
10
56.608700
20
72.097200
70
0
0
VERTEX
8
Layer 1
10
56.908600
20
72.104700
70
0
0
SEQEND
8
Layer 1
0
POLYLINE
8
Layer 1
62
7
70
1
10
0.000000
20
0.000000
66
1
0
VERTEX
8
Layer 1
10
40.924900
20
67.231100
70
0
0
VERTEX
8
Layer 1
10
40.849100
20
67.192000
70
0
0
VERTEX
8
Layer 1
10
40.764000
20
67.184800
70
0
0
VERTEX
8
Layer 1
10
40.682700
20
67.210700
70
0
0
VERTEX
8
Layer 1
10
40.617500
20
67.265800
70
0
0
VERTEX
8
Layer 1
10
40.344700
20
67.607800
70
0
0
VERTEX
8
Layer 1
10
40.305600
20
67.683700
70
0
0
VERTEX
8
Layer 1
10
40.298400
20
67.768700
70
0
0
VERTEX
8
Layer 1
10
40.324300
20
67.850000
70
0
0
VERTEX
8
Layer 1
10
40.379400
20
67.915200
70
0
0
VERTEX
8
Layer 1
10
40.780100
20
68.234800
70
0
0
VERTEX
8
Layer 1
10
40.855900
20
68.274000
70
0
0
VERTEX
8
Layer 1
10
40.940900
20
68.281100
70
0
0
VERTEX
8
Layer 1
10
41.022300
20
68.255200
70
0
0
VERTEX
8
Layer 1
10
41.087500
20
68.200100
70
0
0
VERTEX
8
Layer 1
10
41.360300
20
67.858100
70
0
0
VERTEX
8
Layer 1
10
41.399400
20
67.782300
70
0
0
VERTEX
8
Layer 1
10
41.406600
20
67.697200
70
0
0
VERTEX
8
Layer 1
10
41.380700
20
67.615900
70
0
0
VERTEX
8
Layer 1
10
41.325600
20
67.550700
70
0
0
VERTEX
8
Layer 1
10
40.924900
20
67.231100
70
0
0
SEQEND
8
Layer 1
0
POLYLINE
8
Layer 1
62
7
70
1
10
0.000000
20
0.000000
66
1
0
VERTEX
8
Layer 1
10
39.942900
20
68.462500
70
0
0
VERTEX
8
Layer 1
10
39.867100
20
68.423400
70
0
0
VERTEX
8
Layer 1
10
39.782100
20
68.416200
70
0
0
VERTEX
8
Layer 1
10
39.700700
20
68.442100
70
0
0
VERTEX
8
Layer 1
10
39.635500
20
68.497200
70
0
0
VERTEX
8
Layer 1
10
39.362700
20
68.839200
70
0
0
VERTEX
8
Layer 1
10
39.323600
20
68.915000
70
0
0
VERTEX
8
Layer 1
10
39.316400
20
69.000100
70
0
0
VERTEX
8
Layer 1
10
39.342300
20
69.081400
70
0
0
VERTEX
8
Layer 1
10
39.397400
20
69.146600
70
0
0
VERTEX
8
Layer 1
10
39.798100
20
69.466200
70
0
0
VERTEX
8
Layer 1
10
39.873900
20
69.505300
70
0
0
VERTEX
8
Layer 1
10
39.958900
20
69.512500
70
0
0
VERTEX
8
Layer 1
10
40.040300
20
69.486600
70
0
0
VERTEX
8
Layer 1
10
40.105500
20
69.431500
70
0
0
VERTEX
8
Layer 1
10
40.378300
20
69.089500
70
0
0
VERTEX
8
Layer 1
10
40.417400
20
69.013700
70
0
0
VERTEX
8
Layer 1
10
40.424600
20
68.928600
70
0
0
VERTEX
8
Layer 1
10
40.398700
20
68.847300
70
0
0
VERTEX
8
Layer 1
10
40.343600
20
68.782100
70
0
0
VERTEX
8
Layer 1
10
39.942900
20
68.462500
70
0
0
SEQEND
8
Layer 1
0
POLYLINE
8
Layer 1
62
7
70
1
10
0.000000
20
0.000000
66
1
0
VERTEX
8
Layer 1
10
59.510500
20
70.248600
70
0
0
VERTEX
8
Layer 1
10
59.433200
20
70.259200
70
0
0
VERTEX
8
Layer 1
10
59.365800
20
70.298600
70
0
0
VERTEX
8
Layer 1
10
59.318700
20
70.360800
70
0
0
VERTEX
8
Layer 1
10
59.298900
20
70.436300
70
0
0
VERTEX
8
Layer 1
10
59.275000
20
70.835600
70
0
0
VERTEX
8
Layer 1
10
59.285600
20
70.912900
70
0
0
VERTEX
8
Layer 1
10
59.325000
20
70.980300
70
0
0
VERTEX
8
Layer 1
10
59.387200
20
71.027400
70
0
0
VERTEX
8
Layer 1
10
59.462700
20
71.047200
70
0
0
VERTEX
8
Layer 1
10
60.011700
20
71.080100
70
0
0
VERTEX
8
Layer 1
10
60.089000
20
71.069500
70
0
0
VERTEX
8
Layer 1
10
60.156300
20
71.030100
70
0
0
VERTEX
8
Layer 1
10
60.203500
20
70.967900
70
0
0
VERTEX
8
Layer 1
10
60.223300
20
70.892400
70
0
0
VERTEX
8
Layer 1
10
60.247200
20
70.493100
70
0
0
VERTEX
8
Layer 1
10
60.236600
20
70.415800
70
0
0
VERTEX
8
Layer 1
10
60.197200
20
70.348400
70
0
0
VERTEX
8
Layer 1
10
60.135000
20
70.301300
70
0
0
VERTEX
8
Layer 1
10
60.059500
20
70.281500
70
0
0
VERTEX
8
Layer 1
10
59.510500
20
70.248600
70
0
0
SEQEND
8
Layer 1
0
POLYLINE
8
Layer 1
62
7
70
1
10
0.000000
20
0.000000
66
1
0
VERTEX
8
Layer 1
10
59.411800
20
71.895700
70
0
0
VERTEX
8
Layer 1
10
59.334500
20
71.906300
70
0
0
VERTEX
8
Layer 1
10
59.267100
20
71.945700
70
0
0
VERTEX
8
Layer 1
10
59.220000
20
72.007900
70
0
0
VERTEX
8
Layer 1
10
59.200200
20
72.083300
70
0
0
VERTEX
8
Layer 1
10
59.176300
20
72.482600
70
0
0
VERTEX
8
Layer 1
10
59.186900
20
72.559900
70
0
0
VERTEX
8
Layer 1
10
59.226300
20
72.627300
70
0
0
VERTEX
8
Layer 1
10
59.288500
20
72.674500
70
0
0
VERTEX
8
Layer 1
10
59.364000
20
72.694200
70
0
0
VERTEX
8
Layer 1
10
59.913000
20
72.727100
70
0
0
VERTEX
8
Layer 1
10
59.990300
20
72.716500
70
0
0
VERTEX
8
Layer 1
10
60.057700
20
72.677100
70
0
0
VERTEX
8
Layer 1
10
60.104800
20
72.614900
70
0
0
VERTEX
8
Layer 1
10
60.124600
20
72.539400
70
0
0
VERTEX
8
Layer 1
10
60.148500
20
72.140200
70
0
0
VERTEX
8
Layer 1
10
60.137900
20
72.062800
70
0
0
VERTEX
8
Layer 1
10
60.098500
20
71.995500
70
0
0
VERTEX
8
Layer 1
10
60.036300
20
71.948300
70
0
0
VERTEX
8
Layer 1
10
59.960800
20
71.928600
70
0
0
VERTEX
8
Layer 1
10
59.411800
20
71.895700
70
0
0
SEQEND
8
Layer 1
0
POLYLINE
8
Layer 1
62
7
70
1
10
0.000000
20
0.000000
66
1
0
VERTEX
8
Layer 1
10
42.242300
20
68.050700
70
0
0
VERTEX
8
Layer 1
10
42.269900
20
68.123700
70
0
0
VERTEX
8
Layer 1
10
42.323300
20
68.180600
70
0
0
VERTEX
8
Layer 1
10
42.394400
20
68.212700
70
0
0
VERTEX
8
Layer 1
10
42.472400
20
68.215200
70
0
0
VERTEX
8
Layer 1
10
42.867000
20
68.149700
70
0
0
VERTEX
8
Layer 1
10
42.940000
20
68.122100
70
0
0
VERTEX
8
Layer 1
10
42.996900
20
68.068700
70
0
0
VERTEX
8
Layer 1
10
43.029000
20
67.997600
70
0
0
VERTEX
8
Layer 1
10
43.031500
20
67.919600
70
0
0
VERTEX
8
Layer 1
10
42.941400
20
67.377000
70
0
0
VERTEX
8
Layer 1
10
42.913800
20
67.304000
70
0
0
VERTEX
8
Layer 1
10
42.860400
20
67.247100
70
0
0
VERTEX
8
Layer 1
10
42.789300
20
67.215000
70
0
0
VERTEX
8
Layer 1
10
42.711300
20
67.212500
70
0
0
VERTEX
8
Layer 1
10
42.316700
20
67.278000
70
0
0
VERTEX
8
Layer 1
10
42.243700
20
67.305600
70
0
0
VERTEX
8
Layer 1
10
42.186800
20
67.359000
70
0
0
VERTEX
8
Layer 1
10
42.154700
20
67.430100
70
0
0
VERTEX
8
Layer 1
10
42.152200
20
67.508100
70
0
0
VERTEX
8
Layer 1
10
42.242300
20
68.050700
70
0
0
SEQEND
8
Layer 1
0
POLYLINE
8
Layer 1
62
7
70
1
10
0.000000
20
0.000000
66
1
0
VERTEX
8
Layer 1
10
43.870000
20
67.780400
70
0
0
VERTEX
8
Layer 1
10
43.897600
20
67.853400
70
0
0
VERTEX
8
Layer 1
10
43.951000
20
67.910300
70
0
0
VERTEX
8
Layer 1
10
44.022100
20
67.942400
70
0
0
VERTEX
8
Layer 1
10
44.100100
20
67.944900
70
0
0
VERTEX
8
Layer 1
10
44.494700
20
67.879400
70
0
0
VERTEX
8
Layer 1
10
44.567700
20
67.851800
70
0
0
VERTEX
8
Layer 1
10
44.624600
20
67.798400
70
0
0
VERTEX
8
Layer 1
10
44.656700
20
67.727300
70
0
0
VERTEX
8
Layer 1
10
44.659200
20
67.649300
70
0
0
VERTEX
8
Layer 1
10
44.569100
20
67.106700
70
0
0
VERTEX
8
Layer 1
10
44.541500
20
67.033700
70
0
0
VERTEX
8
Layer 1
10
44.488100
20
66.976800
70
0
0
VERTEX
8
Layer 1
10
44.417000
20
66.944700
70
0
0
VERTEX
8
Layer 1
10
44.339000
20
66.942200
70
0
0
VERTEX
8
Layer 1
10
43.944400
20
67.007700
70
0
0
VERTEX
8
Layer 1
10
43.871400
20
67.035300
70
0
0
VERTEX
8
Layer 1
10
43.814500
20
67.088700
70
0
0
VERTEX
8
Layer 1
10
43.782400
20
67.159800
70
0
0
VERTEX
8
Layer 1
10
43.779900
20
67.237800
70
0
0
VERTEX
8
Layer 1
10
43.870000
20
67.780400
70
0
0
SEQEND
8
Layer 1
 0 
ENDSEC
 0 
EOF