  0
SECTION
  2
HEADER
  9
$ANGBASE
  50
0.0
  9
$ANGDIR
  70
1
  9
$MEASUREMENT
  70
0
  0
ENDSEC
  0
SECTION
  2
TABLES
  0
TABLE
  2
LTYPE
  70
4
  0
LTYPE
  5
40F
  2
CONTINUOUS
  70
0
  3
Solid line
  72
65
  73
0
  40
0.0
  0
LTYPE
  5
410
  2
DASHDOT
 70
0
  3
Dash Dot ____ _ ____ _
 72
65
 73
4
 40
2.0
 49
1.25
 49
-0.25
 49
0.25
 49
-0.25
  0
LTYPE
  5
411
  2
DASHED
 70
0
  3
Dashed __ __ __ __ __
 72
65
 73
2
 40
0.75
 49
0.5
 49
-0.25
  0
LTYPE
  5
43B
  2
DOTTED
 70
0
  3
Dotted .  .  .  .
 72
65
 73
2
 40
0.2
 49
0.0
 49
-0.2
  0
ENDTAB
  0
TABLE
  2
STYLE
  70
4
  0
STYLE
  2
KICAD
  70
0
  40
0
  41
1
  42
1
  50
0
  71
0
  3
isocp.shx
  0
STYLE
  2
KICADB
  70
0
  40
0
  41
1
  42
1
  50
0
  71
0
  3
isocp.shx
  0
STYLE
  2
KICADI
  70
0
  40
0
  41
1
  42
1
  50
15
  71
0
  3
isocp.shx
  0
STYLE
  2
KICADBI
  70
0
  40
0
  41
1
  42
1
  50
15
  71
0
  3
isocp.shx
  0
ENDTAB
  0
TABLE
  2
LAYER
  70
1
  0
LAYER
  2
BLACK
  70
0
  62
7
  6
CONTINUOUS
  0
ENDTAB
  0
ENDSEC
  0
SECTION
  2
ENTITIES
0
LINE
8
BLACK
6
CONTINUOUS
10
1.9494079527559054
20
-5.7417972834645665
11
1.9522019685039369
21
-5.7436641732283462
0
LINE
8
BLACK
6
CONTINUOUS
10
1.9522019685039369
20
-5.7436641732283462
11
1.9540688582677166
21
-5.7464581889763782
0
LINE
8
BLACK
6
CONTINUOUS
10
1.9540688582677166
20
-5.7464581889763782
11
1.9547244094488188
21
-5.7497539370078741
0
LINE
8
BLACK
6
CONTINUOUS
10
1.9547244094488188
20
-5.7497539370078741
11
1.9547244094488188
21
-5.7699311023622046
0
LINE
8
BLACK
6
CONTINUOUS
10
1.9547244094488188
20
-5.7699311023622046
11
1.9540688582677166
21
-5.7732268503937005
0
LINE
8
BLACK
6
CONTINUOUS
10
1.9540688582677166
20
-5.7732268503937005
11
1.9522019685039369
21
-5.7760208661417325
0
LINE
8
BLACK
6
CONTINUOUS
10
1.9522019685039369
20
-5.7760208661417325
11
1.9494079527559054
21
-5.7778877559055113
0
LINE
8
BLACK
6
CONTINUOUS
10
1.9494079527559054
20
-5.7778877559055113
11
1.9461122047244095
21
-5.7785433070866139
0
LINE
8
BLACK
6
CONTINUOUS
10
1.9461122047244095
20
-5.7785433070866139
11
1.9288877952755905
21
-5.7785433070866139
0
LINE
8
BLACK
6
CONTINUOUS
10
1.9288877952755905
20
-5.7785433070866139
11
1.9255920472440944
21
-5.7778877559055113
0
LINE
8
BLACK
6
CONTINUOUS
10
1.9255920472440944
20
-5.7778877559055113
11
1.9227980314960629
21
-5.7760208661417325
0
LINE
8
BLACK
6
CONTINUOUS
10
1.9227980314960629
20
-5.7760208661417325
11
1.9209311417322834
21
-5.7732268503937005
0
LINE
8
BLACK
6
CONTINUOUS
10
1.9209311417322834
20
-5.7732268503937005
11
1.920275590551181
21
-5.7699311023622046
0
LINE
8
BLACK
6
CONTINUOUS
10
1.920275590551181
20
-5.7699311023622046
11
1.920275590551181
21
-5.7497539370078741
0
LINE
8
BLACK
6
CONTINUOUS
10
1.920275590551181
20
-5.7497539370078741
11
1.9209311417322834
21
-5.7464581889763782
0
LINE
8
BLACK
6
CONTINUOUS
10
1.9209311417322834
20
-5.7464581889763782
11
1.9227980314960629
21
-5.7436641732283462
0
LINE
8
BLACK
6
CONTINUOUS
10
1.9227980314960629
20
-5.7436641732283462
11
1.9255920472440944
21
-5.7417972834645665
0
LINE
8
BLACK
6
CONTINUOUS
10
1.9255920472440944
20
-5.7417972834645665
11
1.9288877952755905
21
-5.7411417322834648
0
LINE
8
BLACK
6
CONTINUOUS
10
1.9288877952755905
20
-5.7411417322834648
11
1.9461122047244095
21
-5.7411417322834648
0
LINE
8
BLACK
6
CONTINUOUS
10
1.9461122047244095
20
-5.7411417322834648
11
1.9494079527559054
21
-5.7417972834645665
0
LINE
8
BLACK
6
CONTINUOUS
10
2.0114158267716533
20
-5.7417972834645665
11
2.0142098425196848
21
-5.7436641732283462
0
LINE
8
BLACK
6
CONTINUOUS
10
2.0142098425196848
20
-5.7436641732283462
11
2.0160767322834645
21
-5.7464581889763782
0
LINE
8
BLACK
6
CONTINUOUS
10
2.0160767322834645
20
-5.7464581889763782
11
2.0167322834645667
21
-5.7497539370078741
0
LINE
8
BLACK
6
CONTINUOUS
10
2.0167322834645667
20
-5.7497539370078741
11
2.0167322834645667
21
-5.7699311023622046
0
LINE
8
BLACK
6
CONTINUOUS
10
2.0167322834645667
20
-5.7699311023622046
11
2.0160767322834645
21
-5.7732268503937005
0
LINE
8
BLACK
6
CONTINUOUS
10
2.0160767322834645
20
-5.7732268503937005
11
2.0142098425196848
21
-5.7760208661417325
0
LINE
8
BLACK
6
CONTINUOUS
10
2.0142098425196848
20
-5.7760208661417325
11
2.0114158267716533
21
-5.7778877559055113
0
LINE
8
BLACK
6
CONTINUOUS
10
2.0114158267716533
20
-5.7778877559055113
11
2.0081200787401574
21
-5.7785433070866139
0
LINE
8
BLACK
6
CONTINUOUS
10
2.0081200787401574
20
-5.7785433070866139
11
1.9908956692913384
21
-5.7785433070866139
0
LINE
8
BLACK
6
CONTINUOUS
10
1.9908956692913384
20
-5.7785433070866139
11
1.9875999212598425
21
-5.7778877559055113
0
LINE
8
BLACK
6
CONTINUOUS
10
1.9875999212598425
20
-5.7778877559055113
11
1.984805905511811
21
-5.7760208661417325
0
LINE
8
BLACK
6
CONTINUOUS
10
1.984805905511811
20
-5.7760208661417325
11
1.9829390157480316
21
-5.7732268503937005
0
LINE
8
BLACK
6
CONTINUOUS
10
1.9829390157480316
20
-5.7732268503937005
11
1.9822834645669292
21
-5.7699311023622046
0
LINE
8
BLACK
6
CONTINUOUS
10
1.9822834645669292
20
-5.7699311023622046
11
1.9822834645669292
21
-5.7497539370078741
0
LINE
8
BLACK
6
CONTINUOUS
10
1.9822834645669292
20
-5.7497539370078741
11
1.9829390157480316
21
-5.7464581889763782
0
LINE
8
BLACK
6
CONTINUOUS
10
1.9829390157480316
20
-5.7464581889763782
11
1.984805905511811
21
-5.7436641732283462
0
LINE
8
BLACK
6
CONTINUOUS
10
1.984805905511811
20
-5.7436641732283462
11
1.9875999212598425
21
-5.7417972834645665
0
LINE
8
BLACK
6
CONTINUOUS
10
1.9875999212598425
20
-5.7417972834645665
11
1.9908956692913384
21
-5.7411417322834648
0
LINE
8
BLACK
6
CONTINUOUS
10
1.9908956692913384
20
-5.7411417322834648
11
2.0081200787401574
21
-5.7411417322834648
0
LINE
8
BLACK
6
CONTINUOUS
10
2.0081200787401574
20
-5.7411417322834648
11
2.0114158267716533
21
-5.7417972834645665
0
LINE
8
BLACK
6
CONTINUOUS
10
2.0447883858267715
20
-5.6863513385826767
11
2.0472500787401575
21
-5.6881895669291334
0
LINE
8
BLACK
6
CONTINUOUS
10
2.0472500787401575
20
-5.6881895669291334
11
2.0617391338582678
21
-5.7042812992125986
0
LINE
8
BLACK
6
CONTINUOUS
10
2.0617391338582678
20
-5.7042812992125986
11
2.0633099606299212
21
-5.7069216535433069
0
LINE
8
BLACK
6
CONTINUOUS
10
2.0633099606299212
20
-5.7069216535433069
11
2.0637507874015748
21
-5.7099621259842515
0
LINE
8
BLACK
6
CONTINUOUS
10
2.0637507874015748
20
-5.7099621259842515
11
2.0629945669291336
21
-5.7129398818897634
0
LINE
8
BLACK
6
CONTINUOUS
10
2.0629945669291336
20
-5.7129398818897634
11
2.061156338582677
21
-5.7154015748031499
0
LINE
8
BLACK
6
CONTINUOUS
10
2.061156338582677
20
-5.7154015748031499
11
2.0494532677165354
21
-5.7259390551181104
0
LINE
8
BLACK
6
CONTINUOUS
10
2.0494532677165354
20
-5.7259390551181104
11
2.0468129133858266
21
-5.7275099212598422
0
LINE
8
BLACK
6
CONTINUOUS
10
2.0468129133858266
20
-5.7275099212598422
11
2.0437724409448816
21
-5.7279507086614174
0
LINE
8
BLACK
6
CONTINUOUS
10
2.0437724409448816
20
-5.7279507086614174
11
2.0407946850393701
21
-5.7271944881889763
0
LINE
8
BLACK
6
CONTINUOUS
10
2.0407946850393701
20
-5.7271944881889763
11
2.0383329921259841
21
-5.7253562598425196
0
LINE
8
BLACK
6
CONTINUOUS
10
2.0383329921259841
20
-5.7253562598425196
11
2.0238439370078738
21
-5.7092645275590552
0
LINE
8
BLACK
6
CONTINUOUS
10
2.0238439370078738
20
-5.7092645275590552
11
2.0222731102362204
21
-5.706624173228346
0
LINE
8
BLACK
6
CONTINUOUS
10
2.0222731102362204
20
-5.706624173228346
11
2.0218322834645668
21
-5.7035837007874015
0
LINE
8
BLACK
6
CONTINUOUS
10
2.0218322834645668
20
-5.7035837007874015
11
2.022588503937008
21
-5.7006059448818895
0
LINE
8
BLACK
6
CONTINUOUS
10
2.022588503937008
20
-5.7006059448818895
11
2.0244267322834646
21
-5.6981442519685039
0
LINE
8
BLACK
6
CONTINUOUS
10
2.0244267322834646
20
-5.6981442519685039
11
2.0361298031496062
21
-5.6876067716535434
0
LINE
8
BLACK
6
CONTINUOUS
10
2.0361298031496062
20
-5.6876067716535434
11
2.038770157480315
21
-5.6860359055118108
0
LINE
8
BLACK
6
CONTINUOUS
10
2.038770157480315
20
-5.6860359055118108
11
2.0418106299212599
21
-5.6855951181102364
0
LINE
8
BLACK
6
CONTINUOUS
10
2.0418106299212599
20
-5.6855951181102364
11
2.0447883858267715
21
-5.6863513385826767
0
LINE
8
BLACK
6
CONTINUOUS
10
1.9299008661417323
20
-5.6742118110236222
11
1.9441734251968503
21
-5.6808672047244091
0
LINE
8
BLACK
6
CONTINUOUS
10
1.9441734251968503
20
-5.6808672047244091
11
1.9466510629921259
21
-5.6826838976377951
0
LINE
8
BLACK
6
CONTINUOUS
10
1.9466510629921259
20
-5.6826838976377951
11
1.9482448818897637
21
-5.6853104330708657
0
LINE
8
BLACK
6
CONTINUOUS
10
1.9482448818897637
20
-5.6853104330708657
11
1.9487122440944882
21
-5.6883469685039367
0
LINE
8
BLACK
6
CONTINUOUS
10
1.9487122440944882
20
-5.6883469685039367
11
1.9479820078740158
21
-5.6913312204724411
0
LINE
8
BLACK
6
CONTINUOUS
10
1.9479820078740158
20
-5.6913312204724411
11
1.9388308267716534
21
-5.7109559842519682
0
LINE
8
BLACK
6
CONTINUOUS
10
1.9388308267716534
20
-5.7109559842519682
11
1.9370141732283463
21
-5.7134336220472441
0
LINE
8
BLACK
6
CONTINUOUS
10
1.9370141732283463
20
-5.7134336220472441
11
1.9343875984251968
21
-5.7150274015748028
0
LINE
8
BLACK
6
CONTINUOUS
10
1.9343875984251968
20
-5.7150274015748028
11
1.9313511023622048
21
-5.715494803149606
0
LINE
8
BLACK
6
CONTINUOUS
10
1.9313511023622048
20
-5.715494803149606
11
1.9283668503937008
21
-5.7147645669291336
0
LINE
8
BLACK
6
CONTINUOUS
10
1.9283668503937008
20
-5.7147645669291336
11
1.9140942913385826
21
-5.7081091732283467
0
LINE
8
BLACK
6
CONTINUOUS
10
1.9140942913385826
20
-5.7081091732283467
11
1.911616653543307
21
-5.7062924803149606
0
LINE
8
BLACK
6
CONTINUOUS
10
1.911616653543307
20
-5.7062924803149606
11
1.9100228346456694
21
-5.70366594488189
0
LINE
8
BLACK
6
CONTINUOUS
10
1.9100228346456694
20
-5.70366594488189
11
1.9095554724409449
21
-5.700629409448819
0
LINE
8
BLACK
6
CONTINUOUS
10
1.9095554724409449
20
-5.700629409448819
11
1.9102857086614173
21
-5.6976451574803146
0
LINE
8
BLACK
6
CONTINUOUS
10
1.9102857086614173
20
-5.6976451574803146
11
1.9194368897637795
21
-5.6780203937007876
0
LINE
8
BLACK
6
CONTINUOUS
10
1.9194368897637795
20
-5.6780203937007876
11
1.9212535433070865
21
-5.6755427559055116
0
LINE
8
BLACK
6
CONTINUOUS
10
1.9212535433070865
20
-5.6755427559055116
11
1.9238801181102361
21
-5.6739489763779529
0
LINE
8
BLACK
6
CONTINUOUS
10
1.9238801181102361
20
-5.6739489763779529
11
1.9269166141732283
21
-5.6734815748031497
0
LINE
8
BLACK
6
CONTINUOUS
10
1.9269166141732283
20
-5.6734815748031497
11
1.9299008661417323
21
-5.6742118110236222
0
LINE
8
BLACK
6
CONTINUOUS
10
1.8710266141732284
20
-5.6467582677165353
11
1.8852991732283464
21
-5.6534136614173223
0
LINE
8
BLACK
6
CONTINUOUS
10
1.8852991732283464
20
-5.6534136614173223
11
1.8877768110236219
21
-5.6552303543307083
0
LINE
8
BLACK
6
CONTINUOUS
10
1.8877768110236219
20
-5.6552303543307083
11
1.8893706299212598
21
-5.6578568897637798
0
LINE
8
BLACK
6
CONTINUOUS
10
1.8893706299212598
20
-5.6578568897637798
11
1.8898379921259842
21
-5.6608934251968499
0
LINE
8
BLACK
6
CONTINUOUS
10
1.8898379921259842
20
-5.6608934251968499
11
1.8891077559055118
21
-5.6638776771653543
0
LINE
8
BLACK
6
CONTINUOUS
10
1.8891077559055118
20
-5.6638776771653543
11
1.8799565748031495
21
-5.6835024409448813
0
LINE
8
BLACK
6
CONTINUOUS
10
1.8799565748031495
20
-5.6835024409448813
11
1.8781399212598424
21
-5.6859800787401573
0
LINE
8
BLACK
6
CONTINUOUS
10
1.8781399212598424
20
-5.6859800787401573
11
1.8755133464566929
21
-5.687573858267716
0
LINE
8
BLACK
6
CONTINUOUS
10
1.8755133464566929
20
-5.687573858267716
11
1.8724768503937008
21
-5.6880412598425192
0
LINE
8
BLACK
6
CONTINUOUS
10
1.8724768503937008
20
-5.6880412598425192
11
1.8694925984251969
21
-5.6873110236220468
0
LINE
8
BLACK
6
CONTINUOUS
10
1.8694925984251969
20
-5.6873110236220468
11
1.8552200393700786
21
-5.6806556299212598
0
LINE
8
BLACK
6
CONTINUOUS
10
1.8552200393700786
20
-5.6806556299212598
11
1.8527424015748031
21
-5.6788389370078738
0
LINE
8
BLACK
6
CONTINUOUS
10
1.8527424015748031
20
-5.6788389370078738
11
1.8511485826771654
21
-5.6762124015748032
0
LINE
8
BLACK
6
CONTINUOUS
10
1.8511485826771654
20
-5.6762124015748032
11
1.850681220472441
21
-5.6731758661417322
0
LINE
8
BLACK
6
CONTINUOUS
10
1.850681220472441
20
-5.6731758661417322
11
1.8514114566929134
21
-5.6701916141732278
0
LINE
8
BLACK
6
CONTINUOUS
10
1.8514114566929134
20
-5.6701916141732278
11
1.8605626377952755
21
-5.6505668503937008
0
LINE
8
BLACK
6
CONTINUOUS
10
1.8605626377952755
20
-5.6505668503937008
11
1.8623792913385826
21
-5.6480892125984248
0
LINE
8
BLACK
6
CONTINUOUS
10
1.8623792913385826
20
-5.6480892125984248
11
1.8650058661417321
21
-5.6464954330708661
0
LINE
8
BLACK
6
CONTINUOUS
10
1.8650058661417321
20
-5.6464954330708661
11
1.8680423622047244
21
-5.6460280314960629
0
LINE
8
BLACK
6
CONTINUOUS
10
1.8680423622047244
20
-5.6460280314960629
11
1.8710266141732284
21
-5.6467582677165353
0
LINE
8
BLACK
6
CONTINUOUS
10
2.0930635826771655
20
-5.6428842519685034
11
2.0955252755905511
21
-5.6447224803149609
0
LINE
8
BLACK
6
CONTINUOUS
10
2.0955252755905511
20
-5.6447224803149609
11
2.1100143307086614
21
-5.6608142125984253
0
LINE
8
BLACK
6
CONTINUOUS
10
2.1100143307086614
20
-5.6608142125984253
11
2.1115851574803148
21
-5.6634545669291336
0
LINE
8
BLACK
6
CONTINUOUS
10
2.1115851574803148
20
-5.6634545669291336
11
2.1120259842519684
21
-5.666495039370079
0
LINE
8
BLACK
6
CONTINUOUS
10
2.1120259842519684
20
-5.666495039370079
11
2.1112697637795277
21
-5.6694727952755901
0
LINE
8
BLACK
6
CONTINUOUS
10
2.1112697637795277
20
-5.6694727952755901
11
2.1094315354330706
21
-5.6719344881889766
0
LINE
8
BLACK
6
CONTINUOUS
10
2.1094315354330706
20
-5.6719344881889766
11
2.097728464566929
21
-5.6824719685039371
0
LINE
8
BLACK
6
CONTINUOUS
10
2.097728464566929
20
-5.6824719685039371
11
2.0950881102362202
21
-5.6840428346456688
0
LINE
8
BLACK
6
CONTINUOUS
10
2.0950881102362202
20
-5.6840428346456688
11
2.0920476377952757
21
-5.6844836220472441
0
LINE
8
BLACK
6
CONTINUOUS
10
2.0920476377952757
20
-5.6844836220472441
11
2.0890698818897637
21
-5.6837274015748029
0
LINE
8
BLACK
6
CONTINUOUS
10
2.0890698818897637
20
-5.6837274015748029
11
2.0866081889763781
21
-5.6818891732283463
0
LINE
8
BLACK
6
CONTINUOUS
10
2.0866081889763781
20
-5.6818891732283463
11
2.0721191338582678
21
-5.6657974409448819
0
LINE
8
BLACK
6
CONTINUOUS
10
2.0721191338582678
20
-5.6657974409448819
11
2.070548307086614
21
-5.6631570866141727
0
LINE
8
BLACK
6
CONTINUOUS
10
2.070548307086614
20
-5.6631570866141727
11
2.0701074803149604
21
-5.6601166141732282
0
LINE
8
BLACK
6
CONTINUOUS
10
2.0701074803149604
20
-5.6601166141732282
11
2.0708637007874016
21
-5.6571388582677162
0
LINE
8
BLACK
6
CONTINUOUS
10
2.0708637007874016
20
-5.6571388582677162
11
2.0727019291338582
21
-5.6546771653543306
0
LINE
8
BLACK
6
CONTINUOUS
10
2.0727019291338582
20
-5.6546771653543306
11
2.0844049999999998
21
-5.6441396850393701
0
LINE
8
BLACK
6
CONTINUOUS
10
2.0844049999999998
20
-5.6441396850393701
11
2.0870453543307086
21
-5.6425688188976375
0
LINE
8
BLACK
6
CONTINUOUS
10
2.0870453543307086
20
-5.6425688188976375
11
2.0900858267716536
21
-5.6421280314960631
0
LINE
8
BLACK
6
CONTINUOUS
10
2.0900858267716536
20
-5.6421280314960631
11
2.0930635826771655
21
-5.6428842519685034
0
LINE
8
BLACK
6
CONTINUOUS
10
1.7517586220472441
20
-5.5955755905511806
11
1.7546329921259842
21
-5.596660472440945
0
LINE
8
BLACK
6
CONTINUOUS
10
1.7546329921259842
20
-5.596660472440945
11
1.7568733464566928
21
-5.5987627559055113
0
LINE
8
BLACK
6
CONTINUOUS
10
1.7568733464566928
20
-5.5987627559055113
11
1.7581387007874016
21
-5.6015623622047244
0
LINE
8
BLACK
6
CONTINUOUS
10
1.7581387007874016
20
-5.6015623622047244
11
1.7582363385826771
21
-5.6046331102362199
0
LINE
8
BLACK
6
CONTINUOUS
10
1.7582363385826771
20
-5.6046331102362199
11
1.754689094488189
21
-5.625994133858268
0
LINE
8
BLACK
6
CONTINUOUS
10
1.754689094488189
20
-5.625994133858268
11
1.7536042125984252
21
-5.6288685039370074
0
LINE
8
BLACK
6
CONTINUOUS
10
1.7536042125984252
20
-5.6288685039370074
11
1.7515018897637795
21
-5.6311088582677167
0
LINE
8
BLACK
6
CONTINUOUS
10
1.7515018897637795
20
-5.6311088582677167
11
1.7487023228346457
21
-5.6323742125984246
0
LINE
8
BLACK
6
CONTINUOUS
10
1.7487023228346457
20
-5.6323742125984246
11
1.7456315748031497
21
-5.6324718897637798
0
LINE
8
BLACK
6
CONTINUOUS
10
1.7456315748031497
20
-5.6324718897637798
11
1.7300962598425196
21
-5.6298920472440948
0
LINE
8
BLACK
6
CONTINUOUS
10
1.7300962598425196
20
-5.6298920472440948
11
1.7272218897637794
21
-5.6288071653543303
0
LINE
8
BLACK
6
CONTINUOUS
10
1.7272218897637794
20
-5.6288071653543303
11
1.7249815354330709
21
-5.626704881889764
0
LINE
8
BLACK
6
CONTINUOUS
10
1.7249815354330709
20
-5.626704881889764
11
1.7237161811023622
21
-5.623905275590551
0
LINE
8
BLACK
6
CONTINUOUS
10
1.7237161811023622
20
-5.623905275590551
11
1.7236185433070865
21
-5.6208345275590545
0
LINE
8
BLACK
6
CONTINUOUS
10
1.7236185433070865
20
-5.6208345275590545
11
1.7271657874015747
21
-5.5994735039370074
0
LINE
8
BLACK
6
CONTINUOUS
10
1.7271657874015747
20
-5.5994735039370074
11
1.7282506692913386
21
-5.5965991338582679
0
LINE
8
BLACK
6
CONTINUOUS
10
1.7282506692913386
20
-5.5965991338582679
11
1.7303529921259841
21
-5.5943587795275587
0
LINE
8
BLACK
6
CONTINUOUS
10
1.7303529921259841
20
-5.5943587795275587
11
1.733152559055118
21
-5.5930934251968507
0
LINE
8
BLACK
6
CONTINUOUS
10
1.733152559055118
20
-5.5930934251968507
11
1.7362233070866142
21
-5.5929957480314956
0
LINE
8
BLACK
6
CONTINUOUS
10
1.7362233070866142
20
-5.5929957480314956
11
1.7517586220472441
21
-5.5955755905511806
0
LINE
8
BLACK
6
CONTINUOUS
10
2.0077175196850394
20
-5.5731249212598426
11
2.0095145669291337
21
-5.5745671653543303
0
LINE
8
BLACK
6
CONTINUOUS
10
2.0095145669291337
20
-5.5745671653543303
11
2.0171065354330708
21
-5.5836149606299212
0
LINE
8
BLACK
6
CONTINUOUS
10
2.0171065354330708
20
-5.5836149606299212
11
2.0182148425196851
21
-5.5856351181102362
0
LINE
8
BLACK
6
CONTINUOUS
10
2.0182148425196851
20
-5.5856351181102362
11
2.0184656692913387
21
-5.5879256299212594
0
LINE
8
BLACK
6
CONTINUOUS
10
2.0184656692913387
20
-5.5879256299212594
11
2.0178209055118108
21
-5.5901377952755906
0
LINE
8
BLACK
6
CONTINUOUS
10
2.0178209055118108
20
-5.5901377952755906
11
2.0163786220472439
21
-5.5919348425196853
0
LINE
8
BLACK
6
CONTINUOUS
10
2.0163786220472439
20
-5.5919348425196853
11
1.9809415354330708
21
-5.6216700787401575
0
LINE
8
BLACK
6
CONTINUOUS
10
1.9809415354330708
20
-5.6216700787401575
11
1.9789213779527559
21
-5.6227783858267717
0
LINE
8
BLACK
6
CONTINUOUS
10
1.9789213779527559
20
-5.6227783858267717
11
1.9766308661417322
21
-5.6230292519685037
0
LINE
8
BLACK
6
CONTINUOUS
10
1.9766308661417322
20
-5.6230292519685037
11
1.9744187007874014
21
-5.6223844488188979
0
LINE
8
BLACK
6
CONTINUOUS
10
1.9744187007874014
20
-5.6223844488188979
11
1.972621653543307
21
-5.6209422047244093
0
LINE
8
BLACK
6
CONTINUOUS
10
1.972621653543307
20
-5.6209422047244093
11
1.96502968503937
21
-5.6118944094488183
0
LINE
8
BLACK
6
CONTINUOUS
10
1.96502968503937
20
-5.6118944094488183
11
1.9639213779527558
21
-5.6098742519685034
0
LINE
8
BLACK
6
CONTINUOUS
10
1.9639213779527558
20
-5.6098742519685034
11
1.9636705511811023
21
-5.6075837401574802
0
LINE
8
BLACK
6
CONTINUOUS
10
1.9636705511811023
20
-5.6075837401574802
11
1.9643153149606298
21
-5.6053715748031498
0
LINE
8
BLACK
6
CONTINUOUS
10
1.9643153149606298
20
-5.6053715748031498
11
1.9657575984251967
21
-5.6035745275590552
0
LINE
8
BLACK
6
CONTINUOUS
10
1.9657575984251967
20
-5.6035745275590552
11
2.00119468503937
21
-5.5738392913385821
0
LINE
8
BLACK
6
CONTINUOUS
10
2.00119468503937
20
-5.5738392913385821
11
2.003214842519685
21
-5.5727309842519688
0
LINE
8
BLACK
6
CONTINUOUS
10
2.003214842519685
20
-5.5727309842519688
11
2.0055053543307086
21
-5.5724801181102359
0
LINE
8
BLACK
6
CONTINUOUS
10
2.0055053543307086
20
-5.5724801181102359
11
2.0077175196850394
21
-5.5731249212598426
0
LINE
8
BLACK
6
CONTINUOUS
10
1.6150498425196851
20
-5.5807788976377948
11
1.6176172440944883
21
-5.5829468897637797
0
LINE
8
BLACK
6
CONTINUOUS
10
1.6176172440944883
20
-5.5829468897637797
11
1.6283564566929134
21
-5.596413464566929
0
LINE
8
BLACK
6
CONTINUOUS
10
1.6283564566929134
20
-5.596413464566929
11
1.6298988188976378
21
-5.5993988976377951
0
LINE
8
BLACK
6
CONTINUOUS
10
1.6298988188976378
20
-5.5993988976377951
11
1.6301812598425196
21
-5.6027473622047239
0
LINE
8
BLACK
6
CONTINUOUS
10
1.6301812598425196
20
-5.6027473622047239
11
1.6291607874015748
21
-5.6059489763779524
0
LINE
8
BLACK
6
CONTINUOUS
10
1.6291607874015748
20
-5.6059489763779524
11
1.6269927952755905
21
-5.608516377952756
0
LINE
8
BLACK
6
CONTINUOUS
10
1.6269927952755905
20
-5.608516377952756
11
1.6112176377952756
21
-5.6210966535433071
0
LINE
8
BLACK
6
CONTINUOUS
10
1.6112176377952756
20
-5.6210966535433071
11
1.6082322047244093
21
-5.622638976377953
0
LINE
8
BLACK
6
CONTINUOUS
10
1.6082322047244093
20
-5.622638976377953
11
1.604883779527559
21
-5.6229214173228348
0
LINE
8
BLACK
6
CONTINUOUS
10
1.604883779527559
20
-5.6229214173228348
11
1.601682125984252
21
-5.6219009448818893
0
LINE
8
BLACK
6
CONTINUOUS
10
1.601682125984252
20
-5.6219009448818893
11
1.5991147244094488
21
-5.6197329527559052
0
LINE
8
BLACK
6
CONTINUOUS
10
1.5991147244094488
20
-5.6197329527559052
11
1.5883755118110237
21
-5.606266377952756
0
LINE
8
BLACK
6
CONTINUOUS
10
1.5883755118110237
20
-5.606266377952756
11
1.5868331496062993
21
-5.6032809448818899
0
LINE
8
BLACK
6
CONTINUOUS
10
1.5868331496062993
20
-5.6032809448818899
11
1.5865507086614172
21
-5.5999324803149602
0
LINE
8
BLACK
6
CONTINUOUS
10
1.5865507086614172
20
-5.5999324803149602
11
1.5875711811023621
21
-5.5967308661417325
0
LINE
8
BLACK
6
CONTINUOUS
10
1.5875711811023621
20
-5.5967308661417325
11
1.5897391732283463
21
-5.5941634645669289
0
LINE
8
BLACK
6
CONTINUOUS
10
1.5897391732283463
20
-5.5941634645669289
11
1.6055143307086615
21
-5.5815831889763778
0
LINE
8
BLACK
6
CONTINUOUS
10
1.6055143307086615
20
-5.5815831889763778
11
1.6084997637795275
21
-5.580040866141732
0
LINE
8
BLACK
6
CONTINUOUS
10
1.6084997637795275
20
-5.580040866141732
11
1.6118481889763778
21
-5.5797584251968502
0
LINE
8
BLACK
6
CONTINUOUS
10
1.6118481889763778
20
-5.5797584251968502
11
1.6150498425196851
21
-5.5807788976377948
0
LINE
8
BLACK
6
CONTINUOUS
10
2.3285081102362204
20
-5.5800408267716533
11
2.3314935433070865
21
-5.5815831496062991
0
LINE
8
BLACK
6
CONTINUOUS
10
2.3314935433070865
20
-5.5815831496062991
11
2.3472687007874016
21
-5.5941634251968502
0
LINE
8
BLACK
6
CONTINUOUS
10
2.3472687007874016
20
-5.5941634251968502
11
2.3494366929133856
21
-5.5967308267716538
0
LINE
8
BLACK
6
CONTINUOUS
10
2.3494366929133856
20
-5.5967308267716538
11
2.3504571653543307
21
-5.5999324409448814
0
LINE
8
BLACK
6
CONTINUOUS
10
2.3504571653543307
20
-5.5999324409448814
11
2.3501747244094489
21
-5.6032809055118111
0
LINE
8
BLACK
6
CONTINUOUS
10
2.3501747244094489
20
-5.6032809055118111
11
2.3486323622047243
21
-5.6062663385826772
0
LINE
8
BLACK
6
CONTINUOUS
10
2.3486323622047243
20
-5.6062663385826772
11
2.3378931496062991
21
-5.6197329133858265
0
LINE
8
BLACK
6
CONTINUOUS
10
2.3378931496062991
20
-5.6197329133858265
11
2.335325748031496
21
-5.6219009055118105
0
LINE
8
BLACK
6
CONTINUOUS
10
2.335325748031496
20
-5.6219009055118105
11
2.3321240944881891
21
-5.622921377952756
0
LINE
8
BLACK
6
CONTINUOUS
10
2.3321240944881891
20
-5.622921377952756
11
2.3287756692913386
21
-5.6226389370078742
0
LINE
8
BLACK
6
CONTINUOUS
10
2.3287756692913386
20
-5.6226389370078742
11
2.3257902362204725
21
-5.6210966141732284
0
LINE
8
BLACK
6
CONTINUOUS
10
2.3257902362204725
20
-5.6210966141732284
11
2.3100150787401574
21
-5.6085163385826773
0
LINE
8
BLACK
6
CONTINUOUS
10
2.3100150787401574
20
-5.6085163385826773
11
2.3078470866141734
21
-5.6059489370078737
0
LINE
8
BLACK
6
CONTINUOUS
10
2.3078470866141734
20
-5.6059489370078737
11
2.3068266141732283
21
-5.6027473228346452
0
LINE
8
BLACK
6
CONTINUOUS
10
2.3068266141732283
20
-5.6027473228346452
11
2.3071090551181102
21
-5.5993988582677163
0
LINE
8
BLACK
6
CONTINUOUS
10
2.3071090551181102
20
-5.5993988582677163
11
2.3086514173228347
21
-5.5964134251968503
0
LINE
8
BLACK
6
CONTINUOUS
10
2.3086514173228347
20
-5.5964134251968503
11
2.3193906299212599
21
-5.582946850393701
0
LINE
8
BLACK
6
CONTINUOUS
10
2.3193906299212599
20
-5.582946850393701
11
2.3219580314960631
21
-5.580778858267716
0
LINE
8
BLACK
6
CONTINUOUS
10
2.3219580314960631
20
-5.580778858267716
11
2.3251596850393699
21
-5.5797583858267714
0
LINE
8
BLACK
6
CONTINUOUS
10
2.3251596850393699
20
-5.5797583858267714
11
2.3285081102362204
21
-5.5800408267716533
0
LINE
8
BLACK
6
CONTINUOUS
10
1.6876755511811024
20
-5.5849339370078743
11
1.6905499212598425
21
-5.5860188188976378
0
LINE
8
BLACK
6
CONTINUOUS
10
1.6905499212598425
20
-5.5860188188976378
11
1.6927902755905511
21
-5.5881211023622042
0
LINE
8
BLACK
6
CONTINUOUS
10
1.6927902755905511
20
-5.5881211023622042
11
1.6940556299212599
21
-5.5909207086614172
0
LINE
8
BLACK
6
CONTINUOUS
10
1.6940556299212599
20
-5.5909207086614172
11
1.6941532677165354
21
-5.5939914566929136
0
LINE
8
BLACK
6
CONTINUOUS
10
1.6941532677165354
20
-5.5939914566929136
11
1.6906060236220473
21
-5.6153524803149608
0
LINE
8
BLACK
6
CONTINUOUS
10
1.6906060236220473
20
-5.6153524803149608
11
1.6895211417322835
21
-5.6182268503937003
0
LINE
8
BLACK
6
CONTINUOUS
10
1.6895211417322835
20
-5.6182268503937003
11
1.6874188188976378
21
-5.6204672047244095
0
LINE
8
BLACK
6
CONTINUOUS
10
1.6874188188976378
20
-5.6204672047244095
11
1.6846192519685039
21
-5.6217325590551184
0
LINE
8
BLACK
6
CONTINUOUS
10
1.6846192519685039
20
-5.6217325590551184
11
1.6815485039370079
21
-5.6218302362204726
0
LINE
8
BLACK
6
CONTINUOUS
10
1.6815485039370079
20
-5.6218302362204726
11
1.6660131889763778
21
-5.6192503937007876
0
LINE
8
BLACK
6
CONTINUOUS
10
1.6660131889763778
20
-5.6192503937007876
11
1.6631388188976377
21
-5.6181655118110232
0
LINE
8
BLACK
6
CONTINUOUS
10
1.6631388188976377
20
-5.6181655118110232
11
1.6608984645669291
21
-5.6160632283464569
0
LINE
8
BLACK
6
CONTINUOUS
10
1.6608984645669291
20
-5.6160632283464569
11
1.6596331102362205
21
-5.6132636220472438
0
LINE
8
BLACK
6
CONTINUOUS
10
1.6596331102362205
20
-5.6132636220472438
11
1.6595354724409448
21
-5.6101928740157483
0
LINE
8
BLACK
6
CONTINUOUS
10
1.6595354724409448
20
-5.6101928740157483
11
1.6630827165354329
21
-5.5888318503937002
0
LINE
8
BLACK
6
CONTINUOUS
10
1.6630827165354329
20
-5.5888318503937002
11
1.6641675984251969
21
-5.5859574803149608
0
LINE
8
BLACK
6
CONTINUOUS
10
1.6641675984251969
20
-5.5859574803149608
11
1.6662699212598424
21
-5.5837171259842515
0
LINE
8
BLACK
6
CONTINUOUS
10
1.6662699212598424
20
-5.5837171259842515
11
1.6690694881889763
21
-5.5824517716535436
0
LINE
8
BLACK
6
CONTINUOUS
10
1.6690694881889763
20
-5.5824517716535436
11
1.6721402362204725
21
-5.5823540944881884
0
LINE
8
BLACK
6
CONTINUOUS
10
1.6721402362204725
20
-5.5823540944881884
11
1.6876755511811024
21
-5.5849339370078743
0
LINE
8
BLACK
6
CONTINUOUS
10
2.2188981496062992
20
-5.5753820078740155
11
2.2215635826771654
21
-5.576909803149606
0
LINE
8
BLACK
6
CONTINUOUS
10
2.2215635826771654
20
-5.576909803149606
11
2.2234414566929135
21
-5.5793414173228344
0
LINE
8
BLACK
6
CONTINUOUS
10
2.2234414566929135
20
-5.5793414173228344
11
2.2330790551181101
21
-5.5987319291338578
0
LINE
8
BLACK
6
CONTINUOUS
10
2.2330790551181101
20
-5.5987319291338578
11
2.2338835039370077
21
-5.6016970472440946
0
LINE
8
BLACK
6
CONTINUOUS
10
2.2338835039370077
20
-5.6016970472440946
11
2.2334919291338582
21
-5.6047442913385828
0
LINE
8
BLACK
6
CONTINUOUS
10
2.2334919291338582
20
-5.6047442913385828
11
2.2319641338582676
21
-5.6074097244094485
0
LINE
8
BLACK
6
CONTINUOUS
10
2.2319641338582676
20
-5.6074097244094485
11
2.229532559055118
21
-5.6092875984251966
0
LINE
8
BLACK
6
CONTINUOUS
10
2.229532559055118
20
-5.6092875984251966
11
2.2154303543307088
21
-5.616296771653543
0
LINE
8
BLACK
6
CONTINUOUS
10
2.2154303543307088
20
-5.616296771653543
11
2.2124652362204724
21
-5.6171011811023623
0
LINE
8
BLACK
6
CONTINUOUS
10
2.2124652362204724
20
-5.6171011811023623
11
2.2094179921259842
21
-5.6167096456692915
0
LINE
8
BLACK
6
CONTINUOUS
10
2.2094179921259842
20
-5.6167096456692915
11
2.206752559055118
21
-5.615181850393701
0
LINE
8
BLACK
6
CONTINUOUS
10
2.206752559055118
20
-5.615181850393701
11
2.2048746850393699
21
-5.6127502362204726
0
LINE
8
BLACK
6
CONTINUOUS
10
2.2048746850393699
20
-5.6127502362204726
11
2.1952370866141733
21
-5.5933597244094484
0
LINE
8
BLACK
6
CONTINUOUS
10
2.1952370866141733
20
-5.5933597244094484
11
2.1944326377952756
21
-5.5903946062992125
0
LINE
8
BLACK
6
CONTINUOUS
10
2.1944326377952756
20
-5.5903946062992125
11
2.1948242125984252
21
-5.5873473622047243
0
LINE
8
BLACK
6
CONTINUOUS
10
2.1948242125984252
20
-5.5873473622047243
11
2.1963520078740157
21
-5.5846819291338585
0
LINE
8
BLACK
6
CONTINUOUS
10
2.1963520078740157
20
-5.5846819291338585
11
2.1987835826771653
21
-5.5828040551181104
0
LINE
8
BLACK
6
CONTINUOUS
10
2.1987835826771653
20
-5.5828040551181104
11
2.2128857874015746
21
-5.575794881889764
0
LINE
8
BLACK
6
CONTINUOUS
10
2.2128857874015746
20
-5.575794881889764
11
2.215850905511811
21
-5.5749904724409447
0
LINE
8
BLACK
6
CONTINUOUS
10
2.215850905511811
20
-5.5749904724409447
11
2.2188981496062992
21
-5.5753820078740155
0
LINE
8
BLACK
6
CONTINUOUS
10
2.0883073228346456
20
-5.5543263385826771
11
2.0901043700787403
21
-5.5557685826771657
0
LINE
8
BLACK
6
CONTINUOUS
10
2.0901043700787403
20
-5.5557685826771657
11
2.097696338582677
21
-5.5648163779527557
0
LINE
8
BLACK
6
CONTINUOUS
10
2.097696338582677
20
-5.5648163779527557
11
2.0988046456692913
21
-5.5668365354330707
0
LINE
8
BLACK
6
CONTINUOUS
10
2.0988046456692913
20
-5.5668365354330707
11
2.0990554724409449
21
-5.5691270472440948
0
LINE
8
BLACK
6
CONTINUOUS
10
2.0990554724409449
20
-5.5691270472440948
11
2.0984107086614174
21
-5.5713392125984251
0
LINE
8
BLACK
6
CONTINUOUS
10
2.0984107086614174
20
-5.5713392125984251
11
2.0969684251968506
21
-5.5731362598425198
0
LINE
8
BLACK
6
CONTINUOUS
10
2.0969684251968506
20
-5.5731362598425198
11
2.061531338582677
21
-5.602871496062992
0
LINE
8
BLACK
6
CONTINUOUS
10
2.061531338582677
20
-5.602871496062992
11
2.0595111811023621
21
-5.6039798031496062
0
LINE
8
BLACK
6
CONTINUOUS
10
2.0595111811023621
20
-5.6039798031496062
11
2.0572206692913384
21
-5.6042306692913382
0
LINE
8
BLACK
6
CONTINUOUS
10
2.0572206692913384
20
-5.6042306692913382
11
2.0550085039370076
21
-5.6035858661417324
0
LINE
8
BLACK
6
CONTINUOUS
10
2.0550085039370076
20
-5.6035858661417324
11
2.0532114566929134
21
-5.6021436220472438
0
LINE
8
BLACK
6
CONTINUOUS
10
2.0532114566929134
20
-5.6021436220472438
11
2.0456194881889762
21
-5.5930958267716537
0
LINE
8
BLACK
6
CONTINUOUS
10
2.0456194881889762
20
-5.5930958267716537
11
2.044511181102362
21
-5.5910756692913388
0
LINE
8
BLACK
6
CONTINUOUS
10
2.044511181102362
20
-5.5910756692913388
11
2.0442603543307087
21
-5.5887851574803147
0
LINE
8
BLACK
6
CONTINUOUS
10
2.0442603543307087
20
-5.5887851574803147
11
2.0449051181102362
21
-5.5865729921259843
0
LINE
8
BLACK
6
CONTINUOUS
10
2.0449051181102362
20
-5.5865729921259843
11
2.0463474015748031
21
-5.5847759448818897
0
LINE
8
BLACK
6
CONTINUOUS
10
2.0463474015748031
20
-5.5847759448818897
11
2.0817844881889762
21
-5.5550407086614175
0
LINE
8
BLACK
6
CONTINUOUS
10
2.0817844881889762
20
-5.5550407086614175
11
2.0838046456692911
21
-5.5539324015748033
0
LINE
8
BLACK
6
CONTINUOUS
10
2.0838046456692911
20
-5.5539324015748033
11
2.0860951574803148
21
-5.5536815354330704
0
LINE
8
BLACK
6
CONTINUOUS
10
2.0860951574803148
20
-5.5536815354330704
11
2.0883073228346456
21
-5.5543263385826771
0
LINE
8
BLACK
6
CONTINUOUS
10
2.2770697244094489
20
-5.5464691732283464
11
2.2797351574803151
21
-5.547996968503937
0
LINE
8
BLACK
6
CONTINUOUS
10
2.2797351574803151
20
-5.547996968503937
11
2.2816130314960628
21
-5.5504285826771653
0
LINE
8
BLACK
6
CONTINUOUS
10
2.2816130314960628
20
-5.5504285826771653
11
2.2912506299212598
21
-5.5698190944881887
0
LINE
8
BLACK
6
CONTINUOUS
10
2.2912506299212598
20
-5.5698190944881887
11
2.2920550787401575
21
-5.5727842125984255
0
LINE
8
BLACK
6
CONTINUOUS
10
2.2920550787401575
20
-5.5727842125984255
11
2.2916635039370079
21
-5.5758314566929137
0
LINE
8
BLACK
6
CONTINUOUS
10
2.2916635039370079
20
-5.5758314566929137
11
2.2901357086614174
21
-5.5784968897637794
0
LINE
8
BLACK
6
CONTINUOUS
10
2.2901357086614174
20
-5.5784968897637794
11
2.2877041338582678
21
-5.5803747637795276
0
LINE
8
BLACK
6
CONTINUOUS
10
2.2877041338582678
20
-5.5803747637795276
11
2.2736019291338581
21
-5.5873839370078739
0
LINE
8
BLACK
6
CONTINUOUS
10
2.2736019291338581
20
-5.5873839370078739
11
2.2706368110236221
21
-5.5881883464566924
0
LINE
8
BLACK
6
CONTINUOUS
10
2.2706368110236221
20
-5.5881883464566924
11
2.2675895669291339
21
-5.5877968110236216
0
LINE
8
BLACK
6
CONTINUOUS
10
2.2675895669291339
20
-5.5877968110236216
11
2.2649241338582677
21
-5.586269015748031
0
LINE
8
BLACK
6
CONTINUOUS
10
2.2649241338582677
20
-5.586269015748031
11
2.2630462598425196
21
-5.5838374015748027
0
LINE
8
BLACK
6
CONTINUOUS
10
2.2630462598425196
20
-5.5838374015748027
11
2.253408661417323
21
-5.5644468897637793
0
LINE
8
BLACK
6
CONTINUOUS
10
2.253408661417323
20
-5.5644468897637793
11
2.2526042125984254
21
-5.5614817716535434
0
LINE
8
BLACK
6
CONTINUOUS
10
2.2526042125984254
20
-5.5614817716535434
11
2.2529957874015749
21
-5.5584345275590552
0
LINE
8
BLACK
6
CONTINUOUS
10
2.2529957874015749
20
-5.5584345275590552
11
2.2545235826771655
21
-5.5557690944881886
0
LINE
8
BLACK
6
CONTINUOUS
10
2.2545235826771655
20
-5.5557690944881886
11
2.2569551574803151
21
-5.5538912204724404
0
LINE
8
BLACK
6
CONTINUOUS
10
2.2569551574803151
20
-5.5538912204724404
11
2.2710573622047243
21
-5.5468820472440941
0
LINE
8
BLACK
6
CONTINUOUS
10
2.2710573622047243
20
-5.5468820472440941
11
2.2740224803149607
21
-5.5460776377952756
0
LINE
8
BLACK
6
CONTINUOUS
10
2.2740224803149607
20
-5.5460776377952756
11
2.2770697244094489
21
-5.5464691732283464
0
LINE
8
BLACK
6
CONTINUOUS
10
1.9309319291338582
20
-5.5342137795275592
11
1.9341250787401574
21
-5.5363473622047241
0
LINE
8
BLACK
6
CONTINUOUS
10
1.9341250787401574
20
-5.5363473622047241
11
1.9362586614173227
21
-5.5395405118110235
0
LINE
8
BLACK
6
CONTINUOUS
10
1.9362586614173227
20
-5.5395405118110235
11
1.9370078740157479
21
-5.5433070866141732
0
LINE
8
BLACK
6
CONTINUOUS
10
1.9370078740157479
20
-5.5433070866141732
11
1.9370078740157479
21
-5.568897637795275
0
LINE
8
BLACK
6
CONTINUOUS
10
1.9370078740157479
20
-5.568897637795275
11
1.9362586614173227
21
-5.5726642125984247
0
LINE
8
BLACK
6
CONTINUOUS
10
1.9362586614173227
20
-5.5726642125984247
11
1.9341250787401574
21
-5.5758573622047241
0
LINE
8
BLACK
6
CONTINUOUS
10
1.9341250787401574
20
-5.5758573622047241
11
1.9309319291338582
21
-5.5779909448818898
0
LINE
8
BLACK
6
CONTINUOUS
10
1.9309319291338582
20
-5.5779909448818898
11
1.9271653543307086
21
-5.5787401574803148
0
LINE
8
BLACK
6
CONTINUOUS
10
1.9271653543307086
20
-5.5787401574803148
11
1.8759842519685039
21
-5.5787401574803148
0
LINE
8
BLACK
6
CONTINUOUS
10
1.8759842519685039
20
-5.5787401574803148
11
1.8722176771653543
21
-5.5779909448818898
0
LINE
8
BLACK
6
CONTINUOUS
10
1.8722176771653543
20
-5.5779909448818898
11
1.8690245275590551
21
-5.5758573622047241
0
LINE
8
BLACK
6
CONTINUOUS
10
1.8690245275590551
20
-5.5758573622047241
11
1.8668909448818898
21
-5.5726642125984247
0
LINE
8
BLACK
6
CONTINUOUS
10
1.8668909448818898
20
-5.5726642125984247
11
1.8661417322834646
21
-5.568897637795275
0
LINE
8
BLACK
6
CONTINUOUS
10
1.8661417322834646
20
-5.568897637795275
11
1.8661417322834646
21
-5.5433070866141732
0
LINE
8
BLACK
6
CONTINUOUS
10
1.8661417322834646
20
-5.5433070866141732
11
1.8668909448818898
21
-5.5395405118110235
0
LINE
8
BLACK
6
CONTINUOUS
10
1.8668909448818898
20
-5.5395405118110235
11
1.8690245275590551
21
-5.5363473622047241
0
LINE
8
BLACK
6
CONTINUOUS
10
1.8690245275590551
20
-5.5363473622047241
11
1.8722176771653543
21
-5.5342137795275592
0
LINE
8
BLACK
6
CONTINUOUS
10
1.8722176771653543
20
-5.5342137795275592
11
1.8759842519685039
21
-5.5334645669291334
0
LINE
8
BLACK
6
CONTINUOUS
10
1.8759842519685039
20
-5.5334645669291334
11
1.9271653543307086
21
-5.5334645669291334
0
LINE
8
BLACK
6
CONTINUOUS
10
1.9271653543307086
20
-5.5334645669291334
11
1.9309319291338582
21
-5.5342137795275592
0
LINE
8
BLACK
6
CONTINUOUS
10
1.5763885826771653
20
-5.5322992125984252
11
1.5789559842519685
21
-5.5344672047244092
0
LINE
8
BLACK
6
CONTINUOUS
10
1.5789559842519685
20
-5.5344672047244092
11
1.5896951968503936
21
-5.5479337795275585
0
LINE
8
BLACK
6
CONTINUOUS
10
1.5896951968503936
20
-5.5479337795275585
11
1.591237559055118
21
-5.5509192125984255
0
LINE
8
BLACK
6
CONTINUOUS
10
1.591237559055118
20
-5.5509192125984255
11
1.59152
21
-5.5542676771653543
0
LINE
8
BLACK
6
CONTINUOUS
10
1.59152
20
-5.5542676771653543
11
1.590499527559055
21
-5.5574692913385828
0
LINE
8
BLACK
6
CONTINUOUS
10
1.590499527559055
20
-5.5574692913385828
11
1.5883315354330709
21
-5.5600366929133855
0
LINE
8
BLACK
6
CONTINUOUS
10
1.5883315354330709
20
-5.5600366929133855
11
1.5725563779527558
21
-5.5726169685039366
0
LINE
8
BLACK
6
CONTINUOUS
10
1.5725563779527558
20
-5.5726169685039366
11
1.5695709448818898
21
-5.5741592913385825
0
LINE
8
BLACK
6
CONTINUOUS
10
1.5695709448818898
20
-5.5741592913385825
11
1.5662225196850392
21
-5.5744417322834643
0
LINE
8
BLACK
6
CONTINUOUS
10
1.5662225196850392
20
-5.5744417322834643
11
1.5630208661417322
21
-5.5734212598425197
0
LINE
8
BLACK
6
CONTINUOUS
10
1.5630208661417322
20
-5.5734212598425197
11
1.560453464566929
21
-5.5712532677165356
0
LINE
8
BLACK
6
CONTINUOUS
10
1.560453464566929
20
-5.5712532677165356
11
1.5497142519685039
21
-5.5577866929133855
0
LINE
8
BLACK
6
CONTINUOUS
10
1.5497142519685039
20
-5.5577866929133855
11
1.5481718897637795
21
-5.5548012598425194
0
LINE
8
BLACK
6
CONTINUOUS
10
1.5481718897637795
20
-5.5548012598425194
11
1.5478894488188977
21
-5.5514527952755905
0
LINE
8
BLACK
6
CONTINUOUS
10
1.5478894488188977
20
-5.5514527952755905
11
1.5489099212598425
21
-5.548251181102362
0
LINE
8
BLACK
6
CONTINUOUS
10
1.5489099212598425
20
-5.548251181102362
11
1.5510779133858268
21
-5.5456837795275593
0
LINE
8
BLACK
6
CONTINUOUS
10
1.5510779133858268
20
-5.5456837795275593
11
1.5668530708661417
21
-5.5331035039370073
0
LINE
8
BLACK
6
CONTINUOUS
10
1.5668530708661417
20
-5.5331035039370073
11
1.5698385039370077
21
-5.5315611811023624
0
LINE
8
BLACK
6
CONTINUOUS
10
1.5698385039370077
20
-5.5315611811023624
11
1.5731869291338583
21
-5.5312787401574806
0
LINE
8
BLACK
6
CONTINUOUS
10
1.5731869291338583
20
-5.5312787401574806
11
1.5763885826771653
21
-5.5322992125984252
0
LINE
8
BLACK
6
CONTINUOUS
10
2.3671693700787402
20
-5.5315611417322836
11
2.3701548031496062
21
-5.5331034645669286
0
LINE
8
BLACK
6
CONTINUOUS
10
2.3701548031496062
20
-5.5331034645669286
11
2.3859299606299214
21
-5.5456837401574806
0
LINE
8
BLACK
6
CONTINUOUS
10
2.3859299606299214
20
-5.5456837401574806
11
2.3880979527559054
21
-5.5482511417322833
0
LINE
8
BLACK
6
CONTINUOUS
10
2.3880979527559054
20
-5.5482511417322833
11
2.3891184251968505
21
-5.5514527559055118
0
LINE
8
BLACK
6
CONTINUOUS
10
2.3891184251968505
20
-5.5514527559055118
11
2.3888359842519686
21
-5.5548012204724406
0
LINE
8
BLACK
6
CONTINUOUS
10
2.3888359842519686
20
-5.5548012204724406
11
2.387293622047244
21
-5.5577866535433067
0
LINE
8
BLACK
6
CONTINUOUS
10
2.387293622047244
20
-5.5577866535433067
11
2.3765544094488189
21
-5.5712532283464569
0
LINE
8
BLACK
6
CONTINUOUS
10
2.3765544094488189
20
-5.5712532283464569
11
2.3739870078740157
21
-5.5734212204724409
0
LINE
8
BLACK
6
CONTINUOUS
10
2.3739870078740157
20
-5.5734212204724409
11
2.3707853543307085
21
-5.5744416929133855
0
LINE
8
BLACK
6
CONTINUOUS
10
2.3707853543307085
20
-5.5744416929133855
11
2.3674369291338584
21
-5.5741592519685037
0
LINE
8
BLACK
6
CONTINUOUS
10
2.3674369291338584
20
-5.5741592519685037
11
2.3644514960629919
21
-5.5726169291338579
0
LINE
8
BLACK
6
CONTINUOUS
10
2.3644514960629919
20
-5.5726169291338579
11
2.3486763385826772
21
-5.5600366535433068
0
LINE
8
BLACK
6
CONTINUOUS
10
2.3486763385826772
20
-5.5600366535433068
11
2.3465083464566927
21
-5.5574692519685041
0
LINE
8
BLACK
6
CONTINUOUS
10
2.3465083464566927
20
-5.5574692519685041
11
2.3454878740157481
21
-5.5542676377952755
0
LINE
8
BLACK
6
CONTINUOUS
10
2.3454878740157481
20
-5.5542676377952755
11
2.3457703149606299
21
-5.5509191732283467
0
LINE
8
BLACK
6
CONTINUOUS
10
2.3457703149606299
20
-5.5509191732283467
11
2.3473126771653541
21
-5.5479337401574798
0
LINE
8
BLACK
6
CONTINUOUS
10
2.3473126771653541
20
-5.5479337401574798
11
2.3580518897637797
21
-5.5344671653543305
0
LINE
8
BLACK
6
CONTINUOUS
10
2.3580518897637797
20
-5.5344671653543305
11
2.3606192913385828
21
-5.5322991732283464
0
LINE
8
BLACK
6
CONTINUOUS
10
2.3606192913385828
20
-5.5322991732283464
11
2.3638209448818897
21
-5.5312787007874018
0
LINE
8
BLACK
6
CONTINUOUS
10
2.3638209448818897
20
-5.5312787007874018
11
2.3671693700787402
21
-5.5315611417322836
0
LINE
8
BLACK
6
CONTINUOUS
10
1.7744425196850393
20
-5.5288083464566924
11
1.8197851181102362
21
-5.537974566929134
0
LINE
8
BLACK
6
CONTINUOUS
10
1.8197851181102362
20
-5.537974566929134
11
1.8219112204724408
21
-5.538862992125984
0
LINE
8
BLACK
6
CONTINUOUS
10
1.8219112204724408
20
-5.538862992125984
11
1.8235354330708662
21
-5.540497401574803
0
LINE
8
BLACK
6
CONTINUOUS
10
1.8235354330708662
20
-5.540497401574803
11
1.8244105905511812
21
-5.5426289370078736
0
LINE
8
BLACK
6
CONTINUOUS
10
1.8244105905511812
20
-5.5426289370078736
11
1.8244033858267716
21
-5.5449331496062992
0
LINE
8
BLACK
6
CONTINUOUS
10
1.8244033858267716
20
-5.5449331496062992
11
1.8220630708661416
21
-5.5565100000000003
0
LINE
8
BLACK
6
CONTINUOUS
10
1.8220630708661416
20
-5.5565100000000003
11
1.8211746456692912
21
-5.5586360629921261
0
LINE
8
BLACK
6
CONTINUOUS
10
1.8211746456692912
20
-5.5586360629921261
11
1.8195402755905512
21
-5.5602602755905508
0
LINE
8
BLACK
6
CONTINUOUS
10
1.8195402755905512
20
-5.5602602755905508
11
1.8174087401574803
21
-5.5611354330708664
0
LINE
8
BLACK
6
CONTINUOUS
10
1.8174087401574803
20
-5.5611354330708664
11
1.8151044881889764
21
-5.5611282677165352
0
LINE
8
BLACK
6
CONTINUOUS
10
1.8151044881889764
20
-5.5611282677165352
11
1.7697618897637795
21
-5.5519620472440945
0
LINE
8
BLACK
6
CONTINUOUS
10
1.7697618897637795
20
-5.5519620472440945
11
1.7676357874015747
21
-5.5510736220472436
0
LINE
8
BLACK
6
CONTINUOUS
10
1.7676357874015747
20
-5.5510736220472436
11
1.7660115748031495
21
-5.5494392125984247
0
LINE
8
BLACK
6
CONTINUOUS
10
1.7660115748031495
20
-5.5494392125984247
11
1.7651364173228345
21
-5.547307677165354
0
LINE
8
BLACK
6
CONTINUOUS
10
1.7651364173228345
20
-5.547307677165354
11
1.7651436220472441
21
-5.5450034645669293
0
LINE
8
BLACK
6
CONTINUOUS
10
1.7651436220472441
20
-5.5450034645669293
11
1.7674839370078739
21
-5.5334266141732282
0
LINE
8
BLACK
6
CONTINUOUS
10
1.7674839370078739
20
-5.5334266141732282
11
1.7683723622047243
21
-5.5313005511811024
0
LINE
8
BLACK
6
CONTINUOUS
10
1.7683723622047243
20
-5.5313005511811024
11
1.7700067322834645
21
-5.5296763385826768
0
LINE
8
BLACK
6
CONTINUOUS
10
1.7700067322834645
20
-5.5296763385826768
11
1.7721382677165354
21
-5.5288011811023621
0
LINE
8
BLACK
6
CONTINUOUS
10
1.7721382677165354
20
-5.5288011811023621
11
1.7744425196850393
21
-5.5288083464566924
0
LINE
8
BLACK
6
CONTINUOUS
10
2.0402248425196849
20
-5.4970237795275585
11
2.0420218897637796
21
-5.4984660236220471
0
LINE
8
BLACK
6
CONTINUOUS
10
2.0420218897637796
20
-5.4984660236220471
11
2.0496138582677164
21
-5.507513818897638
0
LINE
8
BLACK
6
CONTINUOUS
10
2.0496138582677164
20
-5.507513818897638
11
2.0507221653543306
21
-5.5095339763779529
0
LINE
8
BLACK
6
CONTINUOUS
10
2.0507221653543306
20
-5.5095339763779529
11
2.0509729921259843
21
-5.5118244881889762
0
LINE
8
BLACK
6
CONTINUOUS
10
2.0509729921259843
20
-5.5118244881889762
11
2.0503282283464568
21
-5.5140366535433065
0
LINE
8
BLACK
6
CONTINUOUS
10
2.0503282283464568
20
-5.5140366535433065
11
2.0488859448818899
21
-5.5158337007874012
0
LINE
8
BLACK
6
CONTINUOUS
10
2.0488859448818899
20
-5.5158337007874012
11
2.0134488582677164
21
-5.5455689370078742
0
LINE
8
BLACK
6
CONTINUOUS
10
2.0134488582677164
20
-5.5455689370078742
11
2.0114287007874014
21
-5.5466772440944885
0
LINE
8
BLACK
6
CONTINUOUS
10
2.0114287007874014
20
-5.5466772440944885
11
2.0091381889763777
21
-5.5469281102362205
0
LINE
8
BLACK
6
CONTINUOUS
10
2.0091381889763777
20
-5.5469281102362205
11
2.0069260236220474
21
-5.5462833070866138
0
LINE
8
BLACK
6
CONTINUOUS
10
2.0069260236220474
20
-5.5462833070866138
11
2.0051289763779527
21
-5.5448410629921261
0
LINE
8
BLACK
6
CONTINUOUS
10
2.0051289763779527
20
-5.5448410629921261
11
1.9975370078740158
21
-5.5357932677165351
0
LINE
8
BLACK
6
CONTINUOUS
10
1.9975370078740158
20
-5.5357932677165351
11
1.9964287007874015
21
-5.5337731102362202
0
LINE
8
BLACK
6
CONTINUOUS
10
1.9964287007874015
20
-5.5337731102362202
11
1.9961778740157481
21
-5.531482598425197
0
LINE
8
BLACK
6
CONTINUOUS
10
1.9961778740157481
20
-5.531482598425197
11
1.9968226377952756
21
-5.5292704330708657
0
LINE
8
BLACK
6
CONTINUOUS
10
1.9968226377952756
20
-5.5292704330708657
11
1.9982649212598425
21
-5.5274733858267719
0
LINE
8
BLACK
6
CONTINUOUS
10
1.9982649212598425
20
-5.5274733858267719
11
2.0337020078740156
21
-5.4977381496062989
0
LINE
8
BLACK
6
CONTINUOUS
10
2.0337020078740156
20
-5.4977381496062989
11
2.0357221653543305
21
-5.4966298425196847
0
LINE
8
BLACK
6
CONTINUOUS
10
2.0357221653543305
20
-5.4966298425196847
11
2.0380126771653542
21
-5.4963789763779527
0
LINE
8
BLACK
6
CONTINUOUS
10
2.0380126771653542
20
-5.4963789763779527
11
2.0402248425196849
21
-5.4970237795275585
0
LINE
8
BLACK
6
CONTINUOUS
10
2.1556288582677166
20
-5.4649543700787397
11
2.1590408267716534
21
-5.4667170078740153
0
LINE
8
BLACK
6
CONTINUOUS
10
2.1590408267716534
20
-5.4667170078740153
11
2.1790483070866142
21
-5.4826724803149602
0
LINE
8
BLACK
6
CONTINUOUS
10
2.1790483070866142
20
-5.4826724803149602
11
2.1815260236220473
21
-5.4856066535433072
0
LINE
8
BLACK
6
CONTINUOUS
10
2.1815260236220473
20
-5.4856066535433072
11
2.182692244094488
21
-5.4892656692913384
0
LINE
8
BLACK
6
CONTINUOUS
10
2.182692244094488
20
-5.4892656692913384
11
2.1823694488188976
21
-5.4930924409448814
0
LINE
8
BLACK
6
CONTINUOUS
10
2.1823694488188976
20
-5.4930924409448814
11
2.1806067716535433
21
-5.4965043700787399
0
LINE
8
BLACK
6
CONTINUOUS
10
2.1806067716535433
20
-5.4965043700787399
11
2.1486959055118109
21
-5.5365193700787403
0
LINE
8
BLACK
6
CONTINUOUS
10
2.1486959055118109
20
-5.5365193700787403
11
2.1457617322834643
21
-5.5389970866141729
0
LINE
8
BLACK
6
CONTINUOUS
10
2.1457617322834643
20
-5.5389970866141729
11
2.1421027165354332
21
-5.5401633070866136
0
LINE
8
BLACK
6
CONTINUOUS
10
2.1421027165354332
20
-5.5401633070866136
11
2.1382759448818898
21
-5.5398405118110237
0
LINE
8
BLACK
6
CONTINUOUS
10
2.1382759448818898
20
-5.5398405118110237
11
2.1348639763779529
21
-5.5380778740157481
0
LINE
8
BLACK
6
CONTINUOUS
10
2.1348639763779529
20
-5.5380778740157481
11
2.1148564960629921
21
-5.5221224015748032
0
LINE
8
BLACK
6
CONTINUOUS
10
2.1148564960629921
20
-5.5221224015748032
11
2.112378779527559
21
-5.5191882283464562
0
LINE
8
BLACK
6
CONTINUOUS
10
2.112378779527559
20
-5.5191882283464562
11
2.1112125590551178
21
-5.515529212598425
0
LINE
8
BLACK
6
CONTINUOUS
10
2.1112125590551178
20
-5.515529212598425
11
2.1115353543307087
21
-5.511702440944882
0
LINE
8
BLACK
6
CONTINUOUS
10
2.1115353543307087
20
-5.511702440944882
11
2.113298031496063
21
-5.5082905118110235
0
LINE
8
BLACK
6
CONTINUOUS
10
2.113298031496063
20
-5.5082905118110235
11
2.1452088976377954
21
-5.4682755118110231
0
LINE
8
BLACK
6
CONTINUOUS
10
2.1452088976377954
20
-5.4682755118110231
11
2.1481430708661415
21
-5.4657977952755905
0
LINE
8
BLACK
6
CONTINUOUS
10
2.1481430708661415
20
-5.4657977952755905
11
2.1518020866141732
21
-5.4646315748031498
0
LINE
8
BLACK
6
CONTINUOUS
10
2.1518020866141732
20
-5.4646315748031498
11
2.1556288582677166
21
-5.4649543700787397
0
LINE
8
BLACK
6
CONTINUOUS
10
1.628367125984252
20
-5.4886579921259839
11
1.6306257874015748
21
-5.4907406299212598
0
LINE
8
BLACK
6
CONTINUOUS
10
1.6306257874015748
20
-5.4907406299212598
11
1.6319155118110236
21
-5.4935290944881885
0
LINE
8
BLACK
6
CONTINUOUS
10
1.6319155118110236
20
-5.4935290944881885
11
1.6356109055118111
21
-5.5088374015748034
0
LINE
8
BLACK
6
CONTINUOUS
10
1.6356109055118111
20
-5.5088374015748034
11
1.6357353543307087
21
-5.5119072047244098
0
LINE
8
BLACK
6
CONTINUOUS
10
1.6357353543307087
20
-5.5119072047244098
11
1.6346755511811024
21
-5.5147909055118109
0
LINE
8
BLACK
6
CONTINUOUS
10
1.6346755511811024
20
-5.5147909055118109
11
1.6325929133858268
21
-5.517049566929134
0
LINE
8
BLACK
6
CONTINUOUS
10
1.6325929133858268
20
-5.517049566929134
11
1.6298044094488189
21
-5.5183392519685039
0
LINE
8
BLACK
6
CONTINUOUS
10
1.6298044094488189
20
-5.5183392519685039
11
1.6087554724409447
21
-5.5234204330708661
0
LINE
8
BLACK
6
CONTINUOUS
10
1.6087554724409447
20
-5.5234204330708661
11
1.6056857086614174
21
-5.5235448818897632
0
LINE
8
BLACK
6
CONTINUOUS
10
1.6056857086614174
20
-5.5235448818897632
11
1.6028020078740157
21
-5.5224850787401571
0
LINE
8
BLACK
6
CONTINUOUS
10
1.6028020078740157
20
-5.5224850787401571
11
1.6005433464566929
21
-5.5204024409448822
0
LINE
8
BLACK
6
CONTINUOUS
10
1.6005433464566929
20
-5.5204024409448822
11
1.599253622047244
21
-5.5176139763779526
0
LINE
8
BLACK
6
CONTINUOUS
10
1.599253622047244
20
-5.5176139763779526
11
1.5955582283464567
21
-5.5023056692913386
0
LINE
8
BLACK
6
CONTINUOUS
10
1.5955582283464567
20
-5.5023056692913386
11
1.595433779527559
21
-5.4992358661417322
0
LINE
8
BLACK
6
CONTINUOUS
10
1.595433779527559
20
-5.4992358661417322
11
1.5964935826771653
21
-5.496352165354331
0
LINE
8
BLACK
6
CONTINUOUS
10
1.5964935826771653
20
-5.496352165354331
11
1.598576220472441
21
-5.494093503937008
0
LINE
8
BLACK
6
CONTINUOUS
10
1.598576220472441
20
-5.494093503937008
11
1.6013647244094489
21
-5.492803818897638
0
LINE
8
BLACK
6
CONTINUOUS
10
1.6013647244094489
20
-5.492803818897638
11
1.6224136614173228
21
-5.487722637795275
0
LINE
8
BLACK
6
CONTINUOUS
10
1.6224136614173228
20
-5.487722637795275
11
1.6254834251968504
21
-5.4875981889763779
0
LINE
8
BLACK
6
CONTINUOUS
10
1.6254834251968504
20
-5.4875981889763779
11
1.628367125984252
21
-5.4886579921259839
0
LINE
8
BLACK
6
CONTINUOUS
10
1.7094981889763778
20
-5.4775214173228344
11
1.7548407874015748
21
-5.4866876377952751
0
LINE
8
BLACK
6
CONTINUOUS
10
1.7548407874015748
20
-5.4866876377952751
11
1.7569668897637796
21
-5.487576062992126
0
LINE
8
BLACK
6
CONTINUOUS
10
1.7569668897637796
20
-5.487576062992126
11
1.7585911023622047
21
-5.489210472440945
0
LINE
8
BLACK
6
CONTINUOUS
10
1.7585911023622047
20
-5.489210472440945
11
1.7594662598425197
21
-5.4913420078740156
0
LINE
8
BLACK
6
CONTINUOUS
10
1.7594662598425197
20
-5.4913420078740156
11
1.7594590551181102
21
-5.4936462204724412
0
LINE
8
BLACK
6
CONTINUOUS
10
1.7594590551181102
20
-5.4936462204724412
11
1.7571187401574804
21
-5.5052230708661414
0
LINE
8
BLACK
6
CONTINUOUS
10
1.7571187401574804
20
-5.5052230708661414
11
1.75623031496063
21
-5.5073491338582672
0
LINE
8
BLACK
6
CONTINUOUS
10
1.75623031496063
20
-5.5073491338582672
11
1.7545959448818897
21
-5.5089733464566928
0
LINE
8
BLACK
6
CONTINUOUS
10
1.7545959448818897
20
-5.5089733464566928
11
1.7524644094488189
21
-5.5098485039370075
0
LINE
8
BLACK
6
CONTINUOUS
10
1.7524644094488189
20
-5.5098485039370075
11
1.7501601574803149
21
-5.5098413385826772
0
LINE
8
BLACK
6
CONTINUOUS
10
1.7501601574803149
20
-5.5098413385826772
11
1.704817559055118
21
-5.5006751181102365
0
LINE
8
BLACK
6
CONTINUOUS
10
1.704817559055118
20
-5.5006751181102365
11
1.7026914566929134
21
-5.4997866929133856
0
LINE
8
BLACK
6
CONTINUOUS
10
1.7026914566929134
20
-5.4997866929133856
11
1.7010672440944881
21
-5.4981522834645666
0
LINE
8
BLACK
6
CONTINUOUS
10
1.7010672440944881
20
-5.4981522834645666
11
1.7001920866141731
21
-5.496020748031496
0
LINE
8
BLACK
6
CONTINUOUS
10
1.7001920866141731
20
-5.496020748031496
11
1.7001992913385826
21
-5.4937165354330704
0
LINE
8
BLACK
6
CONTINUOUS
10
1.7001992913385826
20
-5.4937165354330704
11
1.7025396062992126
21
-5.4821396850393702
0
LINE
8
BLACK
6
CONTINUOUS
10
1.7025396062992126
20
-5.4821396850393702
11
1.703428031496063
21
-5.4800136220472444
0
LINE
8
BLACK
6
CONTINUOUS
10
1.703428031496063
20
-5.4800136220472444
11
1.705062401574803
21
-5.4783894094488188
0
LINE
8
BLACK
6
CONTINUOUS
10
1.705062401574803
20
-5.4783894094488188
11
1.7071939370078739
21
-5.4775142519685041
0
LINE
8
BLACK
6
CONTINUOUS
10
1.7071939370078739
20
-5.4775142519685041
11
1.7094981889763778
21
-5.4775214173228344
0
LINE
8
BLACK
6
CONTINUOUS
10
2.3657079527559053
20
-5.4699820472440948
11
2.3683599212598425
21
-5.4715331102362201
0
LINE
8
BLACK
6
CONTINUOUS
10
2.3683599212598425
20
-5.4715331102362201
11
2.3702165354330709
21
-5.4739809448818892
0
LINE
8
BLACK
6
CONTINUOUS
10
2.3702165354330709
20
-5.4739809448818892
11
2.3709950393700785
21
-5.4769529921259839
0
LINE
8
BLACK
6
CONTINUOUS
10
2.3709950393700785
20
-5.4769529921259839
11
2.3719368503937006
21
-5.4926728346456688
0
LINE
8
BLACK
6
CONTINUOUS
10
2.3719368503937006
20
-5.4926728346456688
11
2.3715187401574802
21
-5.4957165748031498
0
LINE
8
BLACK
6
CONTINUOUS
10
2.3715187401574802
20
-5.4957165748031498
11
2.3699676771653544
21
-5.4983685433070866
0
LINE
8
BLACK
6
CONTINUOUS
10
2.3699676771653544
20
-5.4983685433070866
11
2.3675198425196848
21
-5.5002251574803145
0
LINE
8
BLACK
6
CONTINUOUS
10
2.3675198425196848
20
-5.5002251574803145
11
2.3645477952755907
21
-5.5010036614173226
0
LINE
8
BLACK
6
CONTINUOUS
10
2.3645477952755907
20
-5.5010036614173226
11
2.342933031496063
21
-5.5022986220472436
0
LINE
8
BLACK
6
CONTINUOUS
10
2.342933031496063
20
-5.5022986220472436
11
2.3398892913385825
21
-5.5018805511811024
0
LINE
8
BLACK
6
CONTINUOUS
10
2.3398892913385825
20
-5.5018805511811024
11
2.3372373228346457
21
-5.5003294881889762
0
LINE
8
BLACK
6
CONTINUOUS
10
2.3372373228346457
20
-5.5003294881889762
11
2.3353807086614173
21
-5.497881653543307
0
LINE
8
BLACK
6
CONTINUOUS
10
2.3353807086614173
20
-5.497881653543307
11
2.3346022047244093
21
-5.4949096062992124
0
LINE
8
BLACK
6
CONTINUOUS
10
2.3346022047244093
20
-5.4949096062992124
11
2.3336603937007872
21
-5.4791897637795275
0
LINE
8
BLACK
6
CONTINUOUS
10
2.3336603937007872
20
-5.4791897637795275
11
2.334078503937008
21
-5.4761460236220474
0
LINE
8
BLACK
6
CONTINUOUS
10
2.334078503937008
20
-5.4761460236220474
11
2.3356295669291338
21
-5.4734940551181097
0
LINE
8
BLACK
6
CONTINUOUS
10
2.3356295669291338
20
-5.4734940551181097
11
2.3380774015748029
21
-5.4716374409448818
0
LINE
8
BLACK
6
CONTINUOUS
10
2.3380774015748029
20
-5.4716374409448818
11
2.3410494488188975
21
-5.4708589370078737
0
LINE
8
BLACK
6
CONTINUOUS
10
2.3410494488188975
20
-5.4708589370078737
11
2.3626642125984252
21
-5.4695639763779527
0
LINE
8
BLACK
6
CONTINUOUS
10
2.3626642125984252
20
-5.4695639763779527
11
2.3657079527559053
21
-5.4699820472440948
0
LINE
8
BLACK
6
CONTINUOUS
10
1.7892644881889763
20
-5.4554883464566926
11
1.8346070866141733
21
-5.4646545669291333
0
LINE
8
BLACK
6
CONTINUOUS
10
1.8346070866141733
20
-5.4646545669291333
11
1.8367331889763778
21
-5.4655429921259842
0
LINE
8
BLACK
6
CONTINUOUS
10
1.8367331889763778
20
-5.4655429921259842
11
1.8383574015748032
21
-5.4671774015748031
0
LINE
8
BLACK
6
CONTINUOUS
10
1.8383574015748032
20
-5.4671774015748031
11
1.8392325590551182
21
-5.4693089370078738
0
LINE
8
BLACK
6
CONTINUOUS
10
1.8392325590551182
20
-5.4693089370078738
11
1.8392253543307087
21
-5.4716131496062994
0
LINE
8
BLACK
6
CONTINUOUS
10
1.8392253543307087
20
-5.4716131496062994
11
1.8368850393700786
21
-5.4831899999999996
0
LINE
8
BLACK
6
CONTINUOUS
10
1.8368850393700786
20
-5.4831899999999996
11
1.8359966141732282
21
-5.4853160629921263
0
LINE
8
BLACK
6
CONTINUOUS
10
1.8359966141732282
20
-5.4853160629921263
11
1.8343622440944882
21
-5.486940275590551
0
LINE
8
BLACK
6
CONTINUOUS
10
1.8343622440944882
20
-5.486940275590551
11
1.8322307086614174
21
-5.4878154330708657
0
LINE
8
BLACK
6
CONTINUOUS
10
1.8322307086614174
20
-5.4878154330708657
11
1.8299264566929134
21
-5.4878082677165354
0
LINE
8
BLACK
6
CONTINUOUS
10
1.8299264566929134
20
-5.4878082677165354
11
1.7845838582677165
21
-5.4786420472440946
0
LINE
8
BLACK
6
CONTINUOUS
10
1.7845838582677165
20
-5.4786420472440946
11
1.7824577559055117
21
-5.4777536220472438
0
LINE
8
BLACK
6
CONTINUOUS
10
1.7824577559055117
20
-5.4777536220472438
11
1.7808335433070865
21
-5.4761192125984248
0
LINE
8
BLACK
6
CONTINUOUS
10
1.7808335433070865
20
-5.4761192125984248
11
1.7799583858267716
21
-5.4739876771653542
0
LINE
8
BLACK
6
CONTINUOUS
10
1.7799583858267716
20
-5.4739876771653542
11
1.7799655905511811
21
-5.4716834645669294
0
LINE
8
BLACK
6
CONTINUOUS
10
1.7799655905511811
20
-5.4716834645669294
11
1.7823059055118109
21
-5.4601066141732284
0
LINE
8
BLACK
6
CONTINUOUS
10
1.7823059055118109
20
-5.4601066141732284
11
1.7831943307086613
21
-5.4579805511811026
0
LINE
8
BLACK
6
CONTINUOUS
10
1.7831943307086613
20
-5.4579805511811026
11
1.7848287007874015
21
-5.456356338582677
0
LINE
8
BLACK
6
CONTINUOUS
10
1.7848287007874015
20
-5.456356338582677
11
1.7869602362204724
21
-5.4554811811023622
0
LINE
8
BLACK
6
CONTINUOUS
10
1.7869602362204724
20
-5.4554811811023622
11
1.7892644881889763
21
-5.4554883464566926
0
LINE
8
BLACK
6
CONTINUOUS
10
2.2427658267716537
20
-5.4296179527559056
11
2.2447129921259843
21
-5.4308499606299208
0
LINE
8
BLACK
6
CONTINUOUS
10
2.2447129921259843
20
-5.4308499606299208
11
2.2460405118110236
21
-5.4327333070866137
0
LINE
8
BLACK
6
CONTINUOUS
10
2.2460405118110236
20
-5.4327333070866137
11
2.2465462598425194
21
-5.4349813385826771
0
LINE
8
BLACK
6
CONTINUOUS
10
2.2465462598425194
20
-5.4349813385826771
11
2.2476995669291338
21
-5.481226811023622
0
LINE
8
BLACK
6
CONTINUOUS
10
2.2476995669291338
20
-5.481226811023622
11
2.247306496062992
21
-5.4834972834645672
0
LINE
8
BLACK
6
CONTINUOUS
10
2.247306496062992
20
-5.4834972834645672
11
2.2460744881889765
21
-5.4854444881889766
0
LINE
8
BLACK
6
CONTINUOUS
10
2.2460744881889765
20
-5.4854444881889766
11
2.2441911417322835
21
-5.4867720078740154
0
LINE
8
BLACK
6
CONTINUOUS
10
2.2441911417322835
20
-5.4867720078740154
11
2.2419431102362206
21
-5.4872777165354325
0
LINE
8
BLACK
6
CONTINUOUS
10
2.2419431102362206
20
-5.4872777165354325
11
2.2301357480314961
21
-5.4875721653543303
0
LINE
8
BLACK
6
CONTINUOUS
10
2.2301357480314961
20
-5.4875721653543303
11
2.2278652755905513
21
-5.4871791338582678
0
LINE
8
BLACK
6
CONTINUOUS
10
2.2278652755905513
20
-5.4871791338582678
11
2.2259181102362202
21
-5.4859471259842518
0
LINE
8
BLACK
6
CONTINUOUS
10
2.2259181102362202
20
-5.4859471259842518
11
2.2245905905511809
21
-5.4840637795275589
0
LINE
8
BLACK
6
CONTINUOUS
10
2.2245905905511809
20
-5.4840637795275589
11
2.2240848425196851
21
-5.4818157480314955
0
LINE
8
BLACK
6
CONTINUOUS
10
2.2240848425196851
20
-5.4818157480314955
11
2.2229315354330708
21
-5.4355702755905506
0
LINE
8
BLACK
6
CONTINUOUS
10
2.2229315354330708
20
-5.4355702755905506
11
2.2233246062992125
21
-5.4332998031496063
0
LINE
8
BLACK
6
CONTINUOUS
10
2.2233246062992125
20
-5.4332998031496063
11
2.2245566141732285
21
-5.4313525984251969
0
LINE
8
BLACK
6
CONTINUOUS
10
2.2245566141732285
20
-5.4313525984251969
11
2.226439960629921
21
-5.4300250787401572
0
LINE
8
BLACK
6
CONTINUOUS
10
2.226439960629921
20
-5.4300250787401572
11
2.2286879921259843
21
-5.4295193700787401
0
LINE
8
BLACK
6
CONTINUOUS
10
2.2286879921259843
20
-5.4295193700787401
11
2.2404953543307085
21
-5.4292249212598422
0
LINE
8
BLACK
6
CONTINUOUS
10
2.2404953543307085
20
-5.4292249212598422
11
2.2427658267716537
21
-5.4296179527559056
0
LINE
8
BLACK
6
CONTINUOUS
10
2.06482562992126
20
-5.3925412204724408
11
2.0682375984251968
21
-5.3943038582677163
0
LINE
8
BLACK
6
CONTINUOUS
10
2.0682375984251968
20
-5.3943038582677163
11
2.0882450787401576
21
-5.4102593307086613
0
LINE
8
BLACK
6
CONTINUOUS
10
2.0882450787401576
20
-5.4102593307086613
11
2.0907227952755907
21
-5.4131935039370074
0
LINE
8
BLACK
6
CONTINUOUS
10
2.0907227952755907
20
-5.4131935039370074
11
2.0918890157480314
21
-5.4168525196850394
0
LINE
8
BLACK
6
CONTINUOUS
10
2.0918890157480314
20
-5.4168525196850394
11
2.091566220472441
21
-5.4206792913385824
0
LINE
8
BLACK
6
CONTINUOUS
10
2.091566220472441
20
-5.4206792913385824
11
2.0898035433070867
21
-5.424091220472441
0
LINE
8
BLACK
6
CONTINUOUS
10
2.0898035433070867
20
-5.424091220472441
11
2.0578926771653543
21
-5.4641062204724404
0
LINE
8
BLACK
6
CONTINUOUS
10
2.0578926771653543
20
-5.4641062204724404
11
2.0549585039370077
21
-5.4665839370078739
0
LINE
8
BLACK
6
CONTINUOUS
10
2.0549585039370077
20
-5.4665839370078739
11
2.0512994881889761
21
-5.4677501574803147
0
LINE
8
BLACK
6
CONTINUOUS
10
2.0512994881889761
20
-5.4677501574803147
11
2.0474727165354332
21
-5.4674273622047247
0
LINE
8
BLACK
6
CONTINUOUS
10
2.0474727165354332
20
-5.4674273622047247
11
2.0440607480314958
21
-5.4656647244094483
0
LINE
8
BLACK
6
CONTINUOUS
10
2.0440607480314958
20
-5.4656647244094483
11
2.0240532677165355
21
-5.4497092519685042
0
LINE
8
BLACK
6
CONTINUOUS
10
2.0240532677165355
20
-5.4497092519685042
11
2.0215755511811024
21
-5.4467750787401572
0
LINE
8
BLACK
6
CONTINUOUS
10
2.0215755511811024
20
-5.4467750787401572
11
2.0204093307086612
21
-5.443116062992126
0
LINE
8
BLACK
6
CONTINUOUS
10
2.0204093307086612
20
-5.443116062992126
11
2.0207321259842521
21
-5.4392892913385822
0
LINE
8
BLACK
6
CONTINUOUS
10
2.0207321259842521
20
-5.4392892913385822
11
2.0224948031496064
21
-5.4358773622047245
0
LINE
8
BLACK
6
CONTINUOUS
10
2.0224948031496064
20
-5.4358773622047245
11
2.0544056692913384
21
-5.3958623622047241
0
LINE
8
BLACK
6
CONTINUOUS
10
2.0544056692913384
20
-5.3958623622047241
11
2.0573398425196849
21
-5.3933846456692915
0
LINE
8
BLACK
6
CONTINUOUS
10
2.0573398425196849
20
-5.3933846456692915
11
2.0609988582677166
21
-5.3922184251968499
0
LINE
8
BLACK
6
CONTINUOUS
10
2.0609988582677166
20
-5.3922184251968499
11
2.06482562992126
21
-5.3925412204724408
0
LINE
8
BLACK
6
CONTINUOUS
10
1.9309319291338582
20
-5.4180720472440944
11
1.9341250787401574
21
-5.4202056299212593
0
LINE
8
BLACK
6
CONTINUOUS
10
1.9341250787401574
20
-5.4202056299212593
11
1.9362586614173227
21
-5.4233987795275587
0
LINE
8
BLACK
6
CONTINUOUS
10
1.9362586614173227
20
-5.4233987795275587
11
1.9370078740157479
21
-5.4271653543307083
0
LINE
8
BLACK
6
CONTINUOUS
10
1.9370078740157479
20
-5.4271653543307083
11
1.9370078740157479
21
-5.4527559055118111
0
LINE
8
BLACK
6
CONTINUOUS
10
1.9370078740157479
20
-5.4527559055118111
11
1.9362586614173227
21
-5.4565224803149608
0
LINE
8
BLACK
6
CONTINUOUS
10
1.9362586614173227
20
-5.4565224803149608
11
1.9341250787401574
21
-5.4597156299212601
0
LINE
8
BLACK
6
CONTINUOUS
10
1.9341250787401574
20
-5.4597156299212601
11
1.9309319291338582
21
-5.461849212598425
0
LINE
8
BLACK
6
CONTINUOUS
10
1.9309319291338582
20
-5.461849212598425
11
1.9271653543307086
21
-5.46259842519685
0
LINE
8
BLACK
6
CONTINUOUS
10
1.9271653543307086
20
-5.46259842519685
11
1.8759842519685039
21
-5.46259842519685
0
LINE
8
BLACK
6
CONTINUOUS
10
1.8759842519685039
20
-5.46259842519685
11
1.8722176771653543
21
-5.461849212598425
0
LINE
8
BLACK
6
CONTINUOUS
10
1.8722176771653543
20
-5.461849212598425
11
1.8690245275590551
21
-5.4597156299212601
0
LINE
8
BLACK
6
CONTINUOUS
10
1.8690245275590551
20
-5.4597156299212601
11
1.8668909448818898
21
-5.4565224803149608
0
LINE
8
BLACK
6
CONTINUOUS
10
1.8668909448818898
20
-5.4565224803149608
11
1.8661417322834646
21
-5.4527559055118111
0
LINE
8
BLACK
6
CONTINUOUS
10
1.8661417322834646
20
-5.4527559055118111
11
1.8661417322834646
21
-5.4271653543307083
0
LINE
8
BLACK
6
CONTINUOUS
10
1.8661417322834646
20
-5.4271653543307083
11
1.8668909448818898
21
-5.4233987795275587
0
LINE
8
BLACK
6
CONTINUOUS
10
1.8668909448818898
20
-5.4233987795275587
11
1.8690245275590551
21
-5.4202056299212593
0
LINE
8
BLACK
6
CONTINUOUS
10
1.8690245275590551
20
-5.4202056299212593
11
1.8722176771653543
21
-5.4180720472440944
0
LINE
8
BLACK
6
CONTINUOUS
10
1.8722176771653543
20
-5.4180720472440944
11
1.8759842519685039
21
-5.4173228346456694
0
LINE
8
BLACK
6
CONTINUOUS
10
1.8759842519685039
20
-5.4173228346456694
11
1.9271653543307086
21
-5.4173228346456694
0
LINE
8
BLACK
6
CONTINUOUS
10
1.9271653543307086
20
-5.4173228346456694
11
1.9309319291338582
21
-5.4180720472440944
0
LINE
8
BLACK
6
CONTINUOUS
10
1.6131236614173228
20
-5.425511299212598
11
1.6153823228346456
21
-5.4275939370078738
0
LINE
8
BLACK
6
CONTINUOUS
10
1.6153823228346456
20
-5.4275939370078738
11
1.6166720472440945
21
-5.4303824015748035
0
LINE
8
BLACK
6
CONTINUOUS
10
1.6166720472440945
20
-5.4303824015748035
11
1.6203674409448818
21
-5.4456907086614175
0
LINE
8
BLACK
6
CONTINUOUS
10
1.6203674409448818
20
-5.4456907086614175
11
1.6204918897637794
21
-5.4487605118110238
0
LINE
8
BLACK
6
CONTINUOUS
10
1.6204918897637794
20
-5.4487605118110238
11
1.6194320866141731
21
-5.451644212598425
0
LINE
8
BLACK
6
CONTINUOUS
10
1.6194320866141731
20
-5.451644212598425
11
1.6173494488188975
21
-5.453902874015748
0
LINE
8
BLACK
6
CONTINUOUS
10
1.6173494488188975
20
-5.453902874015748
11
1.6145609448818898
21
-5.455192559055118
0
LINE
8
BLACK
6
CONTINUOUS
10
1.6145609448818898
20
-5.455192559055118
11
1.5935120078740157
21
-5.4602737401574801
0
LINE
8
BLACK
6
CONTINUOUS
10
1.5935120078740157
20
-5.4602737401574801
11
1.5904422440944881
21
-5.4603981889763782
0
LINE
8
BLACK
6
CONTINUOUS
10
1.5904422440944881
20
-5.4603981889763782
11
1.5875585433070867
21
-5.4593383858267712
0
LINE
8
BLACK
6
CONTINUOUS
10
1.5875585433070867
20
-5.4593383858267712
11
1.5852998818897637
21
-5.4572557480314963
0
LINE
8
BLACK
6
CONTINUOUS
10
1.5852998818897637
20
-5.4572557480314963
11
1.5840101574803149
21
-5.4544672834645667
0
LINE
8
BLACK
6
CONTINUOUS
10
1.5840101574803149
20
-5.4544672834645667
11
1.5803147637795276
21
-5.4391589763779526
0
LINE
8
BLACK
6
CONTINUOUS
10
1.5803147637795276
20
-5.4391589763779526
11
1.5801903149606298
21
-5.4360891732283463
0
LINE
8
BLACK
6
CONTINUOUS
10
1.5801903149606298
20
-5.4360891732283463
11
1.5812501181102361
21
-5.4332054724409451
0
LINE
8
BLACK
6
CONTINUOUS
10
1.5812501181102361
20
-5.4332054724409451
11
1.5833327559055117
21
-5.4309468110236221
0
LINE
8
BLACK
6
CONTINUOUS
10
1.5833327559055117
20
-5.4309468110236221
11
1.5861212598425196
21
-5.4296571259842521
0
LINE
8
BLACK
6
CONTINUOUS
10
1.5861212598425196
20
-5.4296571259842521
11
1.6071701968503938
21
-5.42457594488189
0
LINE
8
BLACK
6
CONTINUOUS
10
1.6071701968503938
20
-5.42457594488189
11
1.6102399606299211
21
-5.4244514960629919
0
LINE
8
BLACK
6
CONTINUOUS
10
1.6102399606299211
20
-5.4244514960629919
11
1.6131236614173228
21
-5.425511299212598
0
LINE
8
BLACK
6
CONTINUOUS
10
2.3618229921259841
20
-5.4051377165354326
11
2.3644749606299214
21
-5.4066887795275589
0
LINE
8
BLACK
6
CONTINUOUS
10
2.3644749606299214
20
-5.4066887795275589
11
2.3663315748031497
21
-5.409136614173228
0
LINE
8
BLACK
6
CONTINUOUS
10
2.3663315748031497
20
-5.409136614173228
11
2.3671100787401573
21
-5.4121086614173226
0
LINE
8
BLACK
6
CONTINUOUS
10
2.3671100787401573
20
-5.4121086614173226
11
2.3680518897637794
21
-5.4278285039370076
0
LINE
8
BLACK
6
CONTINUOUS
10
2.3680518897637794
20
-5.4278285039370076
11
2.367633779527559
21
-5.4308722440944877
0
LINE
8
BLACK
6
CONTINUOUS
10
2.367633779527559
20
-5.4308722440944877
11
2.3660827165354332
21
-5.4335242125984253
0
LINE
8
BLACK
6
CONTINUOUS
10
2.3660827165354332
20
-5.4335242125984253
11
2.3636348818897637
21
-5.4353808267716532
0
LINE
8
BLACK
6
CONTINUOUS
10
2.3636348818897637
20
-5.4353808267716532
11
2.3606628346456691
21
-5.4361593307086613
0
LINE
8
BLACK
6
CONTINUOUS
10
2.3606628346456691
20
-5.4361593307086613
11
2.3390480708661419
21
-5.4374542913385824
0
LINE
8
BLACK
6
CONTINUOUS
10
2.3390480708661419
20
-5.4374542913385824
11
2.3360043307086613
21
-5.4370362204724412
0
LINE
8
BLACK
6
CONTINUOUS
10
2.3360043307086613
20
-5.4370362204724412
11
2.3333523622047245
21
-5.4354851574803149
0
LINE
8
BLACK
6
CONTINUOUS
10
2.3333523622047245
20
-5.4354851574803149
11
2.3314957480314962
21
-5.4330373228346458
0
LINE
8
BLACK
6
CONTINUOUS
10
2.3314957480314962
20
-5.4330373228346458
11
2.3307172440944881
21
-5.4300652755905512
0
LINE
8
BLACK
6
CONTINUOUS
10
2.3307172440944881
20
-5.4300652755905512
11
2.329775433070866
21
-5.4143454330708662
0
LINE
8
BLACK
6
CONTINUOUS
10
2.329775433070866
20
-5.4143454330708662
11
2.3301935433070864
21
-5.4113016929133861
0
LINE
8
BLACK
6
CONTINUOUS
10
2.3301935433070864
20
-5.4113016929133861
11
2.3317446062992127
21
-5.4086497244094485
0
LINE
8
BLACK
6
CONTINUOUS
10
2.3317446062992127
20
-5.4086497244094485
11
2.3341924409448818
21
-5.4067931102362206
0
LINE
8
BLACK
6
CONTINUOUS
10
2.3341924409448818
20
-5.4067931102362206
11
2.3371644881889764
21
-5.4060146062992125
0
LINE
8
BLACK
6
CONTINUOUS
10
2.3371644881889764
20
-5.4060146062992125
11
2.358779251968504
21
-5.4047196456692914
0
LINE
8
BLACK
6
CONTINUOUS
10
2.358779251968504
20
-5.4047196456692914
11
2.3618229921259841
21
-5.4051377165354326
0
LINE
8
BLACK
6
CONTINUOUS
10
1.7054055118110236
20
-5.3611432283464566
11
1.7083396850393699
21
-5.3636209448818892
0
LINE
8
BLACK
6
CONTINUOUS
10
1.7083396850393699
20
-5.3636209448818892
11
1.7402505511811024
21
-5.4036359448818896
0
LINE
8
BLACK
6
CONTINUOUS
10
1.7402505511811024
20
-5.4036359448818896
11
1.7420132283464567
21
-5.4070478740157482
0
LINE
8
BLACK
6
CONTINUOUS
10
1.7420132283464567
20
-5.4070478740157482
11
1.7423360236220473
21
-5.4108746456692911
0
LINE
8
BLACK
6
CONTINUOUS
10
1.7423360236220473
20
-5.4108746456692911
11
1.7411698031496063
21
-5.4145336614173223
0
LINE
8
BLACK
6
CONTINUOUS
10
1.7411698031496063
20
-5.4145336614173223
11
1.7386920866141733
21
-5.4174678346456693
0
LINE
8
BLACK
6
CONTINUOUS
10
1.7386920866141733
20
-5.4174678346456693
11
1.7186846062992125
21
-5.4334233070866143
0
LINE
8
BLACK
6
CONTINUOUS
10
1.7186846062992125
20
-5.4334233070866143
11
1.7152726377952756
21
-5.4351859448818898
0
LINE
8
BLACK
6
CONTINUOUS
10
1.7152726377952756
20
-5.4351859448818898
11
1.7114458661417322
21
-5.4355087401574798
0
LINE
8
BLACK
6
CONTINUOUS
10
1.7114458661417322
20
-5.4355087401574798
11
1.7077868503937008
21
-5.434342519685039
0
LINE
8
BLACK
6
CONTINUOUS
10
1.7077868503937008
20
-5.434342519685039
11
1.7048526771653543
21
-5.4318648031496064
0
LINE
8
BLACK
6
CONTINUOUS
10
1.7048526771653543
20
-5.4318648031496064
11
1.672941811023622
21
-5.391849803149606
0
LINE
8
BLACK
6
CONTINUOUS
10
1.672941811023622
20
-5.391849803149606
11
1.6711791338582678
21
-5.3884378740157475
0
LINE
8
BLACK
6
CONTINUOUS
10
1.6711791338582678
20
-5.3884378740157475
11
1.6708563385826771
21
-5.3846111023622045
0
LINE
8
BLACK
6
CONTINUOUS
10
1.6708563385826771
20
-5.3846111023622045
11
1.6720225590551181
21
-5.3809520866141733
0
LINE
8
BLACK
6
CONTINUOUS
10
1.6720225590551181
20
-5.3809520866141733
11
1.6745002755905511
21
-5.3780179133858264
0
LINE
8
BLACK
6
CONTINUOUS
10
1.6745002755905511
20
-5.3780179133858264
11
1.6945077559055117
21
-5.3620624409448814
0
LINE
8
BLACK
6
CONTINUOUS
10
1.6945077559055117
20
-5.3620624409448814
11
1.6979197244094488
21
-5.3602998031496059
0
LINE
8
BLACK
6
CONTINUOUS
10
1.6979197244094488
20
-5.3602998031496059
11
1.701746496062992
21
-5.3599770078740159
0
LINE
8
BLACK
6
CONTINUOUS
10
1.701746496062992
20
-5.3599770078740159
11
1.7054055118110236
21
-5.3611432283464566
0
LINE
8
BLACK
6
CONTINUOUS
10
2.2035357086614171
20
-5.3567544488188972
11
2.2054828740157482
21
-5.3579864566929132
0
LINE
8
BLACK
6
CONTINUOUS
10
2.2054828740157482
20
-5.3579864566929132
11
2.2068103937007875
21
-5.3598698031496061
0
LINE
8
BLACK
6
CONTINUOUS
10
2.2068103937007875
20
-5.3598698031496061
11
2.2073161417322833
21
-5.3621178346456695
0
LINE
8
BLACK
6
CONTINUOUS
10
2.2073161417322833
20
-5.3621178346456695
11
2.2084694488188976
21
-5.4083633070866144
0
LINE
8
BLACK
6
CONTINUOUS
10
2.2084694488188976
20
-5.4083633070866144
11
2.2080763779527559
21
-5.4106337795275588
0
LINE
8
BLACK
6
CONTINUOUS
10
2.2080763779527559
20
-5.4106337795275588
11
2.2068443700787399
21
-5.4125809842519681
0
LINE
8
BLACK
6
CONTINUOUS
10
2.2068443700787399
20
-5.4125809842519681
11
2.2049610236220474
21
-5.4139085039370078
0
LINE
8
BLACK
6
CONTINUOUS
10
2.2049610236220474
20
-5.4139085039370078
11
2.202712992125984
21
-5.4144142125984249
0
LINE
8
BLACK
6
CONTINUOUS
10
2.202712992125984
20
-5.4144142125984249
11
2.1909056299212599
21
-5.4147086614173228
0
LINE
8
BLACK
6
CONTINUOUS
10
2.1909056299212599
20
-5.4147086614173228
11
2.1886351574803151
21
-5.4143156299212594
0
LINE
8
BLACK
6
CONTINUOUS
10
2.1886351574803151
20
-5.4143156299212594
11
2.1866879921259841
21
-5.4130836220472442
0
LINE
8
BLACK
6
CONTINUOUS
10
2.1866879921259841
20
-5.4130836220472442
11
2.1853604724409448
21
-5.4112002755905513
0
LINE
8
BLACK
6
CONTINUOUS
10
2.1853604724409448
20
-5.4112002755905513
11
2.1848547244094489
21
-5.4089522440944879
0
LINE
8
BLACK
6
CONTINUOUS
10
2.1848547244094489
20
-5.4089522440944879
11
2.1837014173228346
21
-5.362706771653543
0
LINE
8
BLACK
6
CONTINUOUS
10
2.1837014173228346
20
-5.362706771653543
11
2.1840944881889763
21
-5.3604362992125987
0
LINE
8
BLACK
6
CONTINUOUS
10
2.1840944881889763
20
-5.3604362992125987
11
2.1853264960629919
21
-5.3584890944881884
0
LINE
8
BLACK
6
CONTINUOUS
10
2.1853264960629919
20
-5.3584890944881884
11
2.1872098425196849
21
-5.3571615748031496
0
LINE
8
BLACK
6
CONTINUOUS
10
2.1872098425196849
20
-5.3571615748031496
11
2.1894578740157478
21
-5.3566558661417325
0
LINE
8
BLACK
6
CONTINUOUS
10
2.1894578740157478
20
-5.3566558661417325
11
2.2012652362204723
21
-5.3563614173228347
0
LINE
8
BLACK
6
CONTINUOUS
10
2.2012652362204723
20
-5.3563614173228347
11
2.2035357086614171
21
-5.3567544488188972
0
LINE
8
BLACK
6
CONTINUOUS
10
2.2783155905511809
20
-5.3548895669291339
11
2.280262755905512
21
-5.3561215748031499
0
LINE
8
BLACK
6
CONTINUOUS
10
2.280262755905512
20
-5.3561215748031499
11
2.2815902755905513
21
-5.358004921259842
0
LINE
8
BLACK
6
CONTINUOUS
10
2.2815902755905513
20
-5.358004921259842
11
2.2820960236220471
21
-5.3602529527559053
0
LINE
8
BLACK
6
CONTINUOUS
10
2.2820960236220471
20
-5.3602529527559053
11
2.2832493307086614
21
-5.4064984251968502
0
LINE
8
BLACK
6
CONTINUOUS
10
2.2832493307086614
20
-5.4064984251968502
11
2.2828562598425197
21
-5.4087688976377954
0
LINE
8
BLACK
6
CONTINUOUS
10
2.2828562598425197
20
-5.4087688976377954
11
2.2816242519685037
21
-5.4107161023622048
0
LINE
8
BLACK
6
CONTINUOUS
10
2.2816242519685037
20
-5.4107161023622048
11
2.2797409055118112
21
-5.4120436220472437
0
LINE
8
BLACK
6
CONTINUOUS
10
2.2797409055118112
20
-5.4120436220472437
11
2.2774928740157478
21
-5.4125493307086616
0
LINE
8
BLACK
6
CONTINUOUS
10
2.2774928740157478
20
-5.4125493307086616
11
2.2656855118110237
21
-5.4128437795275586
0
LINE
8
BLACK
6
CONTINUOUS
10
2.2656855118110237
20
-5.4128437795275586
11
2.2634150393700785
21
-5.4124507480314961
0
LINE
8
BLACK
6
CONTINUOUS
10
2.2634150393700785
20
-5.4124507480314961
11
2.2614678740157479
21
-5.4112187401574801
0
LINE
8
BLACK
6
CONTINUOUS
10
2.2614678740157479
20
-5.4112187401574801
11
2.2601403543307086
21
-5.4093353937007871
0
LINE
8
BLACK
6
CONTINUOUS
10
2.2601403543307086
20
-5.4093353937007871
11
2.2596346062992128
21
-5.4070873622047246
0
LINE
8
BLACK
6
CONTINUOUS
10
2.2596346062992128
20
-5.4070873622047246
11
2.2584812992125984
21
-5.3608418897637797
0
LINE
8
BLACK
6
CONTINUOUS
10
2.2584812992125984
20
-5.3608418897637797
11
2.2588743700787401
21
-5.3585714173228345
0
LINE
8
BLACK
6
CONTINUOUS
10
2.2588743700787401
20
-5.3585714173228345
11
2.2601063779527557
21
-5.3566242125984251
0
LINE
8
BLACK
6
CONTINUOUS
10
2.2601063779527557
20
-5.3566242125984251
11
2.2619897244094487
21
-5.3552966929133854
0
LINE
8
BLACK
6
CONTINUOUS
10
2.2619897244094487
20
-5.3552966929133854
11
2.2642377559055116
21
-5.3547909842519683
0
LINE
8
BLACK
6
CONTINUOUS
10
2.2642377559055116
20
-5.3547909842519683
11
2.2760451181102361
21
-5.3544965354330705
0
LINE
8
BLACK
6
CONTINUOUS
10
2.2760451181102361
20
-5.3544965354330705
11
2.2783155905511809
21
-5.3548895669291339
0
LINE
8
BLACK
6
CONTINUOUS
10
1.7962087401574802
20
-5.2887300787401577
11
1.7991429133858268
21
-5.2912077952755903
0
LINE
8
BLACK
6
CONTINUOUS
10
1.7991429133858268
20
-5.2912077952755903
11
1.831053779527559
21
-5.3312227952755906
0
LINE
8
BLACK
6
CONTINUOUS
10
1.831053779527559
20
-5.3312227952755906
11
1.8328164566929133
21
-5.3346347244094483
0
LINE
8
BLACK
6
CONTINUOUS
10
1.8328164566929133
20
-5.3346347244094483
11
1.8331392519685039
21
-5.3384614960629921
0
LINE
8
BLACK
6
CONTINUOUS
10
1.8331392519685039
20
-5.3384614960629921
11
1.8319730314960629
21
-5.3421205118110233
0
LINE
8
BLACK
6
CONTINUOUS
10
1.8319730314960629
20
-5.3421205118110233
11
1.8294953149606299
21
-5.3450546850393703
0
LINE
8
BLACK
6
CONTINUOUS
10
1.8294953149606299
20
-5.3450546850393703
11
1.8094878346456693
21
-5.3610101574803144
0
LINE
8
BLACK
6
CONTINUOUS
10
1.8094878346456693
20
-5.3610101574803144
11
1.8060758661417322
21
-5.3627727952755908
0
LINE
8
BLACK
6
CONTINUOUS
10
1.8060758661417322
20
-5.3627727952755908
11
1.802249094488189
21
-5.3630955905511808
0
LINE
8
BLACK
6
CONTINUOUS
10
1.802249094488189
20
-5.3630955905511808
11
1.7985900787401574
21
-5.36192937007874
0
LINE
8
BLACK
6
CONTINUOUS
10
1.7985900787401574
20
-5.36192937007874
11
1.7956559055118111
21
-5.3594516535433065
0
LINE
8
BLACK
6
CONTINUOUS
10
1.7956559055118111
20
-5.3594516535433065
11
1.7637450393700786
21
-5.3194366535433071
0
LINE
8
BLACK
6
CONTINUOUS
10
1.7637450393700786
20
-5.3194366535433071
11
1.7619823622047244
21
-5.3160247244094485
0
LINE
8
BLACK
6
CONTINUOUS
10
1.7619823622047244
20
-5.3160247244094485
11
1.7616595669291337
21
-5.3121979527559056
0
LINE
8
BLACK
6
CONTINUOUS
10
1.7616595669291337
20
-5.3121979527559056
11
1.7628257874015747
21
-5.3085389370078735
0
LINE
8
BLACK
6
CONTINUOUS
10
1.7628257874015747
20
-5.3085389370078735
11
1.7653035039370077
21
-5.3056047637795274
0
LINE
8
BLACK
6
CONTINUOUS
10
1.7653035039370077
20
-5.3056047637795274
11
1.7853109842519685
21
-5.2896492913385824
0
LINE
8
BLACK
6
CONTINUOUS
10
1.7853109842519685
20
-5.2896492913385824
11
1.7887229527559054
21
-5.2878866535433069
0
LINE
8
BLACK
6
CONTINUOUS
10
1.7887229527559054
20
-5.2878866535433069
11
1.7925497244094488
21
-5.287563858267716
0
LINE
8
BLACK
6
CONTINUOUS
10
1.7925497244094488
20
-5.287563858267716
11
1.7962087401574802
21
-5.2887300787401577
0
LINE
8
BLACK
6
CONTINUOUS
10
2.1567414566929135
20
-5.2667828740157479
11
2.1595320866141732
21
-5.2694212204724407
0
LINE
8
BLACK
6
CONTINUOUS
10
2.1595320866141732
20
-5.2694212204724407
11
2.1611006692913386
21
-5.2729266141732278
0
LINE
8
BLACK
6
CONTINUOUS
10
2.1611006692913386
20
-5.2729266141732278
11
2.1724895275590552
21
-5.3228245275590549
0
LINE
8
BLACK
6
CONTINUOUS
10
2.1724895275590552
20
-5.3228245275590549
11
2.1725972440944883
21
-5.3266633858267713
0
LINE
8
BLACK
6
CONTINUOUS
10
2.1725972440944883
20
-5.3266633858267713
11
2.1712277165354332
21
-5.3302512204724408
0
LINE
8
BLACK
6
CONTINUOUS
10
2.1712277165354332
20
-5.3302512204724408
11
2.16858937007874
21
-5.3330418503937009
0
LINE
8
BLACK
6
CONTINUOUS
10
2.16858937007874
20
-5.3330418503937009
11
2.165083937007874
21
-5.3346104330708659
0
LINE
8
BLACK
6
CONTINUOUS
10
2.165083937007874
20
-5.3346104330708659
11
2.1401349999999999
21
-5.3403048425196848
0
LINE
8
BLACK
6
CONTINUOUS
10
2.1401349999999999
20
-5.3403048425196848
11
2.1362961417322834
21
-5.3404125590551184
0
LINE
8
BLACK
6
CONTINUOUS
10
2.1362961417322834
20
-5.3404125590551184
11
2.132708307086614
21
-5.3390430314960629
0
LINE
8
BLACK
6
CONTINUOUS
10
2.132708307086614
20
-5.3390430314960629
11
2.1299176771653543
21
-5.33640468503937
0
LINE
8
BLACK
6
CONTINUOUS
10
2.1299176771653543
20
-5.33640468503937
11
2.1283490944881889
21
-5.3328992913385829
0
LINE
8
BLACK
6
CONTINUOUS
10
2.1283490944881889
20
-5.3328992913385829
11
2.1169602362204722
21
-5.2830013779527558
0
LINE
8
BLACK
6
CONTINUOUS
10
2.1169602362204722
20
-5.2830013779527558
11
2.1168525196850392
21
-5.2791625196850394
0
LINE
8
BLACK
6
CONTINUOUS
10
2.1168525196850392
20
-5.2791625196850394
11
2.1182220472440942
21
-5.2755746850393699
0
LINE
8
BLACK
6
CONTINUOUS
10
2.1182220472440942
20
-5.2755746850393699
11
2.1208603937007875
21
-5.2727840551181098
0
LINE
8
BLACK
6
CONTINUOUS
10
2.1208603937007875
20
-5.2727840551181098
11
2.1243658267716534
21
-5.2712154724409448
0
LINE
8
BLACK
6
CONTINUOUS
10
2.1243658267716534
20
-5.2712154724409448
11
2.1493147637795276
21
-5.2655210629921259
0
LINE
8
BLACK
6
CONTINUOUS
10
2.1493147637795276
20
-5.2655210629921259
11
2.153153622047244
21
-5.2654133464566932
0
LINE
8
BLACK
6
CONTINUOUS
10
2.153153622047244
20
-5.2654133464566932
11
2.1567414566929135
21
-5.2667828740157479
0
LINE
8
BLACK
6
CONTINUOUS
10
1.6452255511811023
20
-5.2784024015748034
11
1.6472387401574802
21
-5.2795232677165354
0
LINE
8
BLACK
6
CONTINUOUS
10
1.6472387401574802
20
-5.2795232677165354
11
1.6486698031496063
21
-5.2813292519685042
0
LINE
8
BLACK
6
CONTINUOUS
10
1.6486698031496063
20
-5.2813292519685042
11
1.6697740157480314
21
-5.3224945669291337
0
LINE
8
BLACK
6
CONTINUOUS
10
1.6697740157480314
20
-5.3224945669291337
11
1.6704050393700787
21
-5.3247107480314959
0
LINE
8
BLACK
6
CONTINUOUS
10
1.6704050393700787
20
-5.3247107480314959
11
1.6701398818897637
21
-5.3269996456692912
0
LINE
8
BLACK
6
CONTINUOUS
10
1.6701398818897637
20
-5.3269996456692912
11
1.6690190157480314
21
-5.3290128346456695
0
LINE
8
BLACK
6
CONTINUOUS
10
1.6690190157480314
20
-5.3290128346456695
11
1.6672130314960629
21
-5.330443897637795
0
LINE
8
BLACK
6
CONTINUOUS
10
1.6672130314960629
20
-5.330443897637795
11
1.6567027559055119
21
-5.3358322047244089
0
LINE
8
BLACK
6
CONTINUOUS
10
1.6567027559055119
20
-5.3358322047244089
11
1.6544865748031496
21
-5.3364631889763778
0
LINE
8
BLACK
6
CONTINUOUS
10
1.6544865748031496
20
-5.3364631889763778
11
1.6521976771653544
21
-5.3361980708661418
0
LINE
8
BLACK
6
CONTINUOUS
10
1.6521976771653544
20
-5.3361980708661418
11
1.6501844881889765
21
-5.3350772047244091
0
LINE
8
BLACK
6
CONTINUOUS
10
1.6501844881889765
20
-5.3350772047244091
11
1.6487534251968503
21
-5.3332712204724411
0
LINE
8
BLACK
6
CONTINUOUS
10
1.6487534251968503
20
-5.3332712204724411
11
1.6276492125984252
21
-5.2921059055118107
0
LINE
8
BLACK
6
CONTINUOUS
10
1.6276492125984252
20
-5.2921059055118107
11
1.627018188976378
21
-5.2898897244094485
0
LINE
8
BLACK
6
CONTINUOUS
10
1.627018188976378
20
-5.2898897244094485
11
1.6272833464566929
21
-5.2876008267716532
0
LINE
8
BLACK
6
CONTINUOUS
10
1.6272833464566929
20
-5.2876008267716532
11
1.628404212598425
21
-5.2855876377952757
0
LINE
8
BLACK
6
CONTINUOUS
10
1.628404212598425
20
-5.2855876377952757
11
1.6302101968503937
21
-5.2841565748031494
0
LINE
8
BLACK
6
CONTINUOUS
10
1.6302101968503937
20
-5.2841565748031494
11
1.6407204724409448
21
-5.2787682677165355
0
LINE
8
BLACK
6
CONTINUOUS
10
1.6407204724409448
20
-5.2787682677165355
11
1.642936653543307
21
-5.2781372834645666
0
LINE
8
BLACK
6
CONTINUOUS
10
1.642936653543307
20
-5.2781372834645666
11
1.6452255511811023
21
-5.2784024015748034
0
LINE
8
BLACK
6
CONTINUOUS
10
1.5699309842519684
20
-5.2877286220472444
11
1.5726658267716536
21
-5.2891285039370075
0
LINE
8
BLACK
6
CONTINUOUS
10
1.5726658267716536
20
-5.2891285039370075
11
1.5746567322834646
21
-5.2914684251968502
0
LINE
8
BLACK
6
CONTINUOUS
10
1.5746567322834646
20
-5.2914684251968502
11
1.5823258661417323
21
-5.3052228740157483
0
LINE
8
BLACK
6
CONTINUOUS
10
1.5823258661417323
20
-5.3052228740157483
11
1.5832698031496062
21
-5.3081465748031498
0
LINE
8
BLACK
6
CONTINUOUS
10
1.5832698031496062
20
-5.3081465748031498
11
1.5830229921259842
21
-5.3112089370078737
0
LINE
8
BLACK
6
CONTINUOUS
10
1.5830229921259842
20
-5.3112089370078737
11
1.5816231102362204
21
-5.3139437401574803
0
LINE
8
BLACK
6
CONTINUOUS
10
1.5816231102362204
20
-5.3139437401574803
11
1.5792831889763779
21
-5.3159346456692909
0
LINE
8
BLACK
6
CONTINUOUS
10
1.5792831889763779
20
-5.3159346456692909
11
1.5603707874015749
21
-5.3264796850393701
0
LINE
8
BLACK
6
CONTINUOUS
10
1.5603707874015749
20
-5.3264796850393701
11
1.5574470866141732
21
-5.3274236220472444
0
LINE
8
BLACK
6
CONTINUOUS
10
1.5574470866141732
20
-5.3274236220472444
11
1.5543847637795276
21
-5.3271768110236222
0
LINE
8
BLACK
6
CONTINUOUS
10
1.5543847637795276
20
-5.3271768110236222
11
1.5516499212598425
21
-5.3257769291338581
0
LINE
8
BLACK
6
CONTINUOUS
10
1.5516499212598425
20
-5.3257769291338581
11
1.5496590157480314
21
-5.3234370078740154
0
LINE
8
BLACK
6
CONTINUOUS
10
1.5496590157480314
20
-5.3234370078740154
11
1.5419898818897637
21
-5.3096825590551182
0
LINE
8
BLACK
6
CONTINUOUS
10
1.5419898818897637
20
-5.3096825590551182
11
1.5410459448818896
21
-5.3067588582677168
0
LINE
8
BLACK
6
CONTINUOUS
10
1.5410459448818896
20
-5.3067588582677168
11
1.5412927559055118
21
-5.303696496062992
0
LINE
8
BLACK
6
CONTINUOUS
10
1.5412927559055118
20
-5.303696496062992
11
1.5426926377952757
21
-5.3009616929133854
0
LINE
8
BLACK
6
CONTINUOUS
10
1.5426926377952757
20
-5.3009616929133854
11
1.5450325590551182
21
-5.2989707874015748
0
LINE
8
BLACK
6
CONTINUOUS
10
1.5450325590551182
20
-5.2989707874015748
11
1.5639449606299212
21
-5.2884257480314956
0
LINE
8
BLACK
6
CONTINUOUS
10
1.5639449606299212
20
-5.2884257480314956
11
1.5668686614173228
21
-5.2874818110236221
0
LINE
8
BLACK
6
CONTINUOUS
10
1.5668686614173228
20
-5.2874818110236221
11
1.5699309842519684
21
-5.2877286220472444
0
LINE
8
BLACK
6
CONTINUOUS
10
2.2699712992125982
20
-5.2409389370078738
11
2.2727619291338583
21
-5.2435772834645666
0
LINE
8
BLACK
6
CONTINUOUS
10
2.2727619291338583
20
-5.2435772834645666
11
2.2743305118110237
21
-5.2470826771653538
0
LINE
8
BLACK
6
CONTINUOUS
10
2.2743305118110237
20
-5.2470826771653538
11
2.2857193700787399
21
-5.2969805905511809
0
LINE
8
BLACK
6
CONTINUOUS
10
2.2857193700787399
20
-5.2969805905511809
11
2.285827086614173
21
-5.3008194488188973
0
LINE
8
BLACK
6
CONTINUOUS
10
2.285827086614173
20
-5.3008194488188973
11
2.2844575590551179
21
-5.3044072834645668
0
LINE
8
BLACK
6
CONTINUOUS
10
2.2844575590551179
20
-5.3044072834645668
11
2.2818192125984251
21
-5.3071979133858269
0
LINE
8
BLACK
6
CONTINUOUS
10
2.2818192125984251
20
-5.3071979133858269
11
2.2783137795275592
21
-5.3087664960629919
0
LINE
8
BLACK
6
CONTINUOUS
10
2.2783137795275592
20
-5.3087664960629919
11
2.2533648425196851
21
-5.3144609055118108
0
LINE
8
BLACK
6
CONTINUOUS
10
2.2533648425196851
20
-5.3144609055118108
11
2.2495259842519686
21
-5.3145686220472443
0
LINE
8
BLACK
6
CONTINUOUS
10
2.2495259842519686
20
-5.3145686220472443
11
2.2459381496062991
21
-5.3131990944881888
0
LINE
8
BLACK
6
CONTINUOUS
10
2.2459381496062991
20
-5.3131990944881888
11
2.2431475196850394
21
-5.310560748031496
0
LINE
8
BLACK
6
CONTINUOUS
10
2.2431475196850394
20
-5.310560748031496
11
2.241578937007874
21
-5.3070553543307089
0
LINE
8
BLACK
6
CONTINUOUS
10
2.241578937007874
20
-5.3070553543307089
11
2.2301900787401574
21
-5.2571574409448818
0
LINE
8
BLACK
6
CONTINUOUS
10
2.2301900787401574
20
-5.2571574409448818
11
2.2300823622047243
21
-5.2533185826771653
0
LINE
8
BLACK
6
CONTINUOUS
10
2.2300823622047243
20
-5.2533185826771653
11
2.2314518897637794
21
-5.2497307480314959
0
LINE
8
BLACK
6
CONTINUOUS
10
2.2314518897637794
20
-5.2497307480314959
11
2.2340902362204722
21
-5.2469401181102358
0
LINE
8
BLACK
6
CONTINUOUS
10
2.2340902362204722
20
-5.2469401181102358
11
2.2375956692913386
21
-5.2453715354330708
0
LINE
8
BLACK
6
CONTINUOUS
10
2.2375956692913386
20
-5.2453715354330708
11
2.2625446062992127
21
-5.2396771259842518
0
LINE
8
BLACK
6
CONTINUOUS
10
2.2625446062992127
20
-5.2396771259842518
11
2.2663834645669292
21
-5.2395694094488192
0
LINE
8
BLACK
6
CONTINUOUS
10
2.2663834645669292
20
-5.2395694094488192
11
2.2699712992125982
21
-5.2409389370078738
0
LINE
8
BLACK
6
CONTINUOUS
10
1.711790748031496
20
-5.2442764173228342
11
1.7138039370078739
21
-5.245397283464567
0
LINE
8
BLACK
6
CONTINUOUS
10
1.7138039370078739
20
-5.245397283464567
11
1.7152350000000001
21
-5.247203267716535
0
LINE
8
BLACK
6
CONTINUOUS
10
1.7152350000000001
20
-5.247203267716535
11
1.7363392125984252
21
-5.2883685826771654
0
LINE
8
BLACK
6
CONTINUOUS
10
1.7363392125984252
20
-5.2883685826771654
11
1.7369702362204724
21
-5.2905847637795276
0
LINE
8
BLACK
6
CONTINUOUS
10
1.7369702362204724
20
-5.2905847637795276
11
1.7367050787401574
21
-5.2928736614173229
0
LINE
8
BLACK
6
CONTINUOUS
10
1.7367050787401574
20
-5.2928736614173229
11
1.7355842125984251
21
-5.2948868503937003
0
LINE
8
BLACK
6
CONTINUOUS
10
1.7355842125984251
20
-5.2948868503937003
11
1.7337782283464567
21
-5.2963179133858267
0
LINE
8
BLACK
6
CONTINUOUS
10
1.7337782283464567
20
-5.2963179133858267
11
1.7232679527559054
21
-5.3017062204724406
0
LINE
8
BLACK
6
CONTINUOUS
10
1.7232679527559054
20
-5.3017062204724406
11
1.7210517716535432
21
-5.3023372047244095
0
LINE
8
BLACK
6
CONTINUOUS
10
1.7210517716535432
20
-5.3023372047244095
11
1.7187628740157479
21
-5.3020720866141735
0
LINE
8
BLACK
6
CONTINUOUS
10
1.7187628740157479
20
-5.3020720866141735
11
1.71674968503937
21
-5.3009512204724407
0
LINE
8
BLACK
6
CONTINUOUS
10
1.71674968503937
20
-5.3009512204724407
11
1.7153186220472441
21
-5.2991452362204727
0
LINE
8
BLACK
6
CONTINUOUS
10
1.7153186220472441
20
-5.2991452362204727
11
1.694214409448819
21
-5.2579799212598424
0
LINE
8
BLACK
6
CONTINUOUS
10
1.694214409448819
20
-5.2579799212598424
11
1.6935833858267717
21
-5.2557637401574802
0
LINE
8
BLACK
6
CONTINUOUS
10
1.6935833858267717
20
-5.2557637401574802
11
1.6938485433070867
21
-5.2534748425196849
0
LINE
8
BLACK
6
CONTINUOUS
10
1.6938485433070867
20
-5.2534748425196849
11
1.6949694094488188
21
-5.2514616535433074
0
LINE
8
BLACK
6
CONTINUOUS
10
1.6949694094488188
20
-5.2514616535433074
11
1.6967753937007874
21
-5.250030590551181
0
LINE
8
BLACK
6
CONTINUOUS
10
1.6967753937007874
20
-5.250030590551181
11
1.7072856692913385
21
-5.2446422834645672
0
LINE
8
BLACK
6
CONTINUOUS
10
1.7072856692913385
20
-5.2446422834645672
11
1.7095018503937007
21
-5.2440112992125982
0
LINE
8
BLACK
6
CONTINUOUS
10
1.7095018503937007
20
-5.2440112992125982
11
1.711790748031496
21
-5.2442764173228342
0
LINE
8
BLACK
6
CONTINUOUS
10
2.3658020472440944
20
-5.2652412598425196
11
2.3869711023622049
21
-5.2697961023622044
0
LINE
8
BLACK
6
CONTINUOUS
10
2.3869711023622049
20
-5.2697961023622044
11
2.3897908661417322
21
-5.2710159055118107
0
LINE
8
BLACK
6
CONTINUOUS
10
2.3897908661417322
20
-5.2710159055118107
11
2.3919291732283465
21
-5.2732219291338582
0
LINE
8
BLACK
6
CONTINUOUS
10
2.3919291732283465
20
-5.2732219291338582
11
2.3930605511811023
21
-5.276078307086614
0
LINE
8
BLACK
6
CONTINUOUS
10
2.3930605511811023
20
-5.276078307086614
11
2.3930126377952754
21
-5.2791502362204721
0
LINE
8
BLACK
6
CONTINUOUS
10
2.3930126377952754
20
-5.2791502362204721
11
2.3897000393700787
21
-5.2945459055118107
0
LINE
8
BLACK
6
CONTINUOUS
10
2.3897000393700787
20
-5.2945459055118107
11
2.3884802755905512
21
-5.2973657086614168
0
LINE
8
BLACK
6
CONTINUOUS
10
2.3884802755905512
20
-5.2973657086614168
11
2.3862742125984253
21
-5.2995039763779523
0
LINE
8
BLACK
6
CONTINUOUS
10
2.3862742125984253
20
-5.2995039763779523
11
2.3834178346456691
21
-5.3006353543307085
0
LINE
8
BLACK
6
CONTINUOUS
10
2.3834178346456691
20
-5.3006353543307085
11
2.380345905511811
21
-5.3005874803149604
0
LINE
8
BLACK
6
CONTINUOUS
10
2.380345905511811
20
-5.3005874803149604
11
2.359176850393701
21
-5.2960326377952756
0
LINE
8
BLACK
6
CONTINUOUS
10
2.359176850393701
20
-5.2960326377952756
11
2.3563570866141732
21
-5.2948128346456693
0
LINE
8
BLACK
6
CONTINUOUS
10
2.3563570866141732
20
-5.2948128346456693
11
2.3542187795275589
21
-5.2926068110236217
0
LINE
8
BLACK
6
CONTINUOUS
10
2.3542187795275589
20
-5.2926068110236217
11
2.3530874015748031
21
-5.289750433070866
0
LINE
8
BLACK
6
CONTINUOUS
10
2.3530874015748031
20
-5.289750433070866
11
2.35313531496063
21
-5.2866785039370079
0
LINE
8
BLACK
6
CONTINUOUS
10
2.35313531496063
20
-5.2866785039370079
11
2.3564479133858267
21
-5.2712828346456693
0
LINE
8
BLACK
6
CONTINUOUS
10
2.3564479133858267
20
-5.2712828346456693
11
2.3576676771653542
21
-5.2684630314960632
0
LINE
8
BLACK
6
CONTINUOUS
10
2.3576676771653542
20
-5.2684630314960632
11
2.3598737401574801
21
-5.2663247637795276
0
LINE
8
BLACK
6
CONTINUOUS
10
2.3598737401574801
20
-5.2663247637795276
11
2.3627301181102363
21
-5.2651933858267714
0
LINE
8
BLACK
6
CONTINUOUS
10
2.3627301181102363
20
-5.2651933858267714
11
2.3658020472440944
21
-5.2652412598425196
0
LINE
8
BLACK
6
CONTINUOUS
10
1.5382958661417323
20
-5.2309916141732282
11
1.5410307086614172
21
-5.2323914960629923
0
LINE
8
BLACK
6
CONTINUOUS
10
1.5410307086614172
20
-5.2323914960629923
11
1.5430216141732283
21
-5.2347314173228341
0
LINE
8
BLACK
6
CONTINUOUS
10
1.5430216141732283
20
-5.2347314173228341
11
1.550690748031496
21
-5.2484858661417322
0
LINE
8
BLACK
6
CONTINUOUS
10
1.550690748031496
20
-5.2484858661417322
11
1.5516346850393701
21
-5.2514095669291336
0
LINE
8
BLACK
6
CONTINUOUS
10
1.5516346850393701
20
-5.2514095669291336
11
1.5513878740157481
21
-5.2544719291338584
0
LINE
8
BLACK
6
CONTINUOUS
10
1.5513878740157481
20
-5.2544719291338584
11
1.5499879921259843
21
-5.2572067322834641
0
LINE
8
BLACK
6
CONTINUOUS
10
1.5499879921259843
20
-5.2572067322834641
11
1.5476480708661418
21
-5.2591976377952756
0
LINE
8
BLACK
6
CONTINUOUS
10
1.5476480708661418
20
-5.2591976377952756
11
1.5287356692913385
21
-5.2697426771653539
0
LINE
8
BLACK
6
CONTINUOUS
10
1.5287356692913385
20
-5.2697426771653539
11
1.5258119685039371
21
-5.2706866141732283
0
LINE
8
BLACK
6
CONTINUOUS
10
1.5258119685039371
20
-5.2706866141732283
11
1.5227496456692913
21
-5.270439803149606
0
LINE
8
BLACK
6
CONTINUOUS
10
1.5227496456692913
20
-5.270439803149606
11
1.5200148031496064
21
-5.269039921259842
0
LINE
8
BLACK
6
CONTINUOUS
10
1.5200148031496064
20
-5.269039921259842
11
1.5180238976377953
21
-5.2667000000000002
0
LINE
8
BLACK
6
CONTINUOUS
10
1.5180238976377953
20
-5.2667000000000002
11
1.5103547637795276
21
-5.2529455511811021
0
LINE
8
BLACK
6
CONTINUOUS
10
1.5103547637795276
20
-5.2529455511811021
11
1.5094108267716535
21
-5.2500218503937006
0
LINE
8
BLACK
6
CONTINUOUS
10
1.5094108267716535
20
-5.2500218503937006
11
1.5096576377952755
21
-5.2469594881889758
0
LINE
8
BLACK
6
CONTINUOUS
10
1.5096576377952755
20
-5.2469594881889758
11
1.5110575196850393
21
-5.2442246850393701
0
LINE
8
BLACK
6
CONTINUOUS
10
1.5110575196850393
20
-5.2442246850393701
11
1.5133974409448818
21
-5.2422337795275586
0
LINE
8
BLACK
6
CONTINUOUS
10
1.5133974409448818
20
-5.2422337795275586
11
1.5323098425196851
21
-5.2316887401574803
0
LINE
8
BLACK
6
CONTINUOUS
10
1.5323098425196851
20
-5.2316887401574803
11
1.5352335433070865
21
-5.230744803149606
0
LINE
8
BLACK
6
CONTINUOUS
10
1.5352335433070865
20
-5.230744803149606
11
1.5382958661417323
21
-5.2309916141732282
0
LINE
8
BLACK
6
CONTINUOUS
10
1.6448312598425197
20
-5.1956500787401572
11
1.6468444488188976
21
-5.19677094488189
0
LINE
8
BLACK
6
CONTINUOUS
10
1.6468444488188976
20
-5.19677094488189
11
1.6482755118110235
21
-5.1985769291338579
0
LINE
8
BLACK
6
CONTINUOUS
10
1.6482755118110235
20
-5.1985769291338579
11
1.6693797244094488
21
-5.2397422440944883
0
LINE
8
BLACK
6
CONTINUOUS
10
1.6693797244094488
20
-5.2397422440944883
11
1.6700107480314961
21
-5.2419584251968505
0
LINE
8
BLACK
6
CONTINUOUS
10
1.6700107480314961
20
-5.2419584251968505
11
1.6697455905511811
21
-5.2442473228346458
0
LINE
8
BLACK
6
CONTINUOUS
10
1.6697455905511811
20
-5.2442473228346458
11
1.6686247244094488
21
-5.2462605118110233
0
LINE
8
BLACK
6
CONTINUOUS
10
1.6686247244094488
20
-5.2462605118110233
11
1.6668187401574803
21
-5.2476915748031496
0
LINE
8
BLACK
6
CONTINUOUS
10
1.6668187401574803
20
-5.2476915748031496
11
1.656308464566929
21
-5.2530798818897635
0
LINE
8
BLACK
6
CONTINUOUS
10
1.656308464566929
20
-5.2530798818897635
11
1.6540922834645668
21
-5.2537108661417324
0
LINE
8
BLACK
6
CONTINUOUS
10
1.6540922834645668
20
-5.2537108661417324
11
1.6518033858267716
21
-5.2534457480314956
0
LINE
8
BLACK
6
CONTINUOUS
10
1.6518033858267716
20
-5.2534457480314956
11
1.6497901968503936
21
-5.2523248818897637
0
LINE
8
BLACK
6
CONTINUOUS
10
1.6497901968503936
20
-5.2523248818897637
11
1.6483591338582677
21
-5.2505188976377948
0
LINE
8
BLACK
6
CONTINUOUS
10
1.6483591338582677
20
-5.2505188976377948
11
1.6272549212598424
21
-5.2093535826771653
0
LINE
8
BLACK
6
CONTINUOUS
10
1.6272549212598424
20
-5.2093535826771653
11
1.6266238976377951
21
-5.2071374015748031
0
LINE
8
BLACK
6
CONTINUOUS
10
1.6266238976377951
20
-5.2071374015748031
11
1.6268890551181101
21
-5.2048485039370078
0
LINE
8
BLACK
6
CONTINUOUS
10
1.6268890551181101
20
-5.2048485039370078
11
1.6280099212598425
21
-5.2028353149606295
0
LINE
8
BLACK
6
CONTINUOUS
10
1.6280099212598425
20
-5.2028353149606295
11
1.6298159055118109
21
-5.201404251968504
0
LINE
8
BLACK
6
CONTINUOUS
10
1.6298159055118109
20
-5.201404251968504
11
1.6403261811023622
21
-5.1960159448818892
0
LINE
8
BLACK
6
CONTINUOUS
10
1.6403261811023622
20
-5.1960159448818892
11
1.6425423622047244
21
-5.1953849606299212
0
LINE
8
BLACK
6
CONTINUOUS
10
1.6425423622047244
20
-5.1953849606299212
11
1.6448312598425197
21
-5.1956500787401572
0
LINE
8
BLACK
6
CONTINUOUS
10
2.3794665354330706
20
-5.2017340157480314
11
2.4006355905511811
21
-5.2062888582677163
0
LINE
8
BLACK
6
CONTINUOUS
10
2.4006355905511811
20
-5.2062888582677163
11
2.4034553543307084
21
-5.2075086614173225
0
LINE
8
BLACK
6
CONTINUOUS
10
2.4034553543307084
20
-5.2075086614173225
11
2.4055936614173228
21
-5.2097146850393701
0
LINE
8
BLACK
6
CONTINUOUS
10
2.4055936614173228
20
-5.2097146850393701
11
2.4067250393700785
21
-5.2125710629921258
0
LINE
8
BLACK
6
CONTINUOUS
10
2.4067250393700785
20
-5.2125710629921258
11
2.4066771259842521
21
-5.2156429921259839
0
LINE
8
BLACK
6
CONTINUOUS
10
2.4066771259842521
20
-5.2156429921259839
11
2.4033645275590549
21
-5.2310386614173225
0
LINE
8
BLACK
6
CONTINUOUS
10
2.4033645275590549
20
-5.2310386614173225
11
2.4021447637795275
21
-5.2338584645669286
0
LINE
8
BLACK
6
CONTINUOUS
10
2.4021447637795275
20
-5.2338584645669286
11
2.3999387007874016
21
-5.2359967322834642
0
LINE
8
BLACK
6
CONTINUOUS
10
2.3999387007874016
20
-5.2359967322834642
11
2.3970823228346454
21
-5.2371281102362204
0
LINE
8
BLACK
6
CONTINUOUS
10
2.3970823228346454
20
-5.2371281102362204
11
2.3940103937007873
21
-5.2370802362204723
0
LINE
8
BLACK
6
CONTINUOUS
10
2.3940103937007873
20
-5.2370802362204723
11
2.3728413385826772
21
-5.2325253937007874
0
LINE
8
BLACK
6
CONTINUOUS
10
2.3728413385826772
20
-5.2325253937007874
11
2.3700215748031495
21
-5.2313055905511812
0
LINE
8
BLACK
6
CONTINUOUS
10
2.3700215748031495
20
-5.2313055905511812
11
2.3678832677165356
21
-5.2290995669291336
0
LINE
8
BLACK
6
CONTINUOUS
10
2.3678832677165356
20
-5.2290995669291336
11
2.3667518897637794
21
-5.2262431889763779
0
LINE
8
BLACK
6
CONTINUOUS
10
2.3667518897637794
20
-5.2262431889763779
11
2.3667998031496063
21
-5.2231712598425197
0
LINE
8
BLACK
6
CONTINUOUS
10
2.3667998031496063
20
-5.2231712598425197
11
2.370112401574803
21
-5.2077755905511811
0
LINE
8
BLACK
6
CONTINUOUS
10
2.370112401574803
20
-5.2077755905511811
11
2.3713321653543304
21
-5.2049557874015751
0
LINE
8
BLACK
6
CONTINUOUS
10
2.3713321653543304
20
-5.2049557874015751
11
2.3735382283464568
21
-5.2028175196850395
0
LINE
8
BLACK
6
CONTINUOUS
10
2.3735382283464568
20
-5.2028175196850395
11
2.3763946062992125
21
-5.2016861417322833
0
LINE
8
BLACK
6
CONTINUOUS
10
2.3763946062992125
20
-5.2016861417322833
11
2.3794665354330706
21
-5.2017340157480314
0
LINE
8
BLACK
6
CONTINUOUS
10
1.4824124803149605
20
-5.17767062992126
11
1.5020837401574803
21
-5.1821604724409447
0
LINE
8
BLACK
6
CONTINUOUS
10
1.5020837401574803
20
-5.1821604724409447
11
1.5051509842519684
21
-5.1835329527559058
0
LINE
8
BLACK
6
CONTINUOUS
10
1.5051509842519684
20
-5.1835329527559058
11
1.507459527559055
21
-5.1859747637795275
0
LINE
8
BLACK
6
CONTINUOUS
10
1.507459527559055
20
-5.1859747637795275
11
1.5086578740157479
21
-5.1891141732283463
0
LINE
8
BLACK
6
CONTINUOUS
10
1.5086578740157479
20
-5.1891141732283463
11
1.508563622047244
21
-5.1924731496062995
0
LINE
8
BLACK
6
CONTINUOUS
10
1.508563622047244
20
-5.1924731496062995
11
1.5047308267716535
21
-5.2092657086614169
0
LINE
8
BLACK
6
CONTINUOUS
10
1.5047308267716535
20
-5.2092657086614169
11
1.5033583464566929
21
-5.2123329527559052
0
LINE
8
BLACK
6
CONTINUOUS
10
1.5033583464566929
20
-5.2123329527559052
11
1.5009165354330709
21
-5.2146414960629919
0
LINE
8
BLACK
6
CONTINUOUS
10
1.5009165354330709
20
-5.2146414960629919
11
1.4977771653543306
21
-5.215839842519685
0
LINE
8
BLACK
6
CONTINUOUS
10
1.4977771653543306
20
-5.215839842519685
11
1.4944181496062992
21
-5.2157455905511814
0
LINE
8
BLACK
6
CONTINUOUS
10
1.4944181496062992
20
-5.2157455905511814
11
1.4747468897637794
21
-5.2112557480314958
0
LINE
8
BLACK
6
CONTINUOUS
10
1.4747468897637794
20
-5.2112557480314958
11
1.4716796456692913
21
-5.2098832677165356
0
LINE
8
BLACK
6
CONTINUOUS
10
1.4716796456692913
20
-5.2098832677165356
11
1.4693711023622047
21
-5.207441456692913
0
LINE
8
BLACK
6
CONTINUOUS
10
1.4693711023622047
20
-5.207441456692913
11
1.4681727559055118
21
-5.2043020472440942
0
LINE
8
BLACK
6
CONTINUOUS
10
1.4681727559055118
20
-5.2043020472440942
11
1.4682670078740157
21
-5.2009430708661419
0
LINE
8
BLACK
6
CONTINUOUS
10
1.4682670078740157
20
-5.2009430708661419
11
1.4720998031496062
21
-5.1841505118110236
0
LINE
8
BLACK
6
CONTINUOUS
10
1.4720998031496062
20
-5.1841505118110236
11
1.4734722834645668
21
-5.1810832677165353
0
LINE
8
BLACK
6
CONTINUOUS
10
1.4734722834645668
20
-5.1810832677165353
11
1.475914094488189
21
-5.1787747244094486
0
LINE
8
BLACK
6
CONTINUOUS
10
1.475914094488189
20
-5.1787747244094486
11
1.4790534645669291
21
-5.1775763779527555
0
LINE
8
BLACK
6
CONTINUOUS
10
1.4790534645669291
20
-5.1775763779527555
11
1.4824124803149605
21
-5.17767062992126
0
LINE
8
BLACK
6
CONTINUOUS
10
2.4610937795275589
20
-5.1787747244094486
11
2.4635355905511811
21
-5.1810832677165353
0
LINE
8
BLACK
6
CONTINUOUS
10
2.4635355905511811
20
-5.1810832677165353
11
2.4649080708661417
21
-5.1841505118110236
0
LINE
8
BLACK
6
CONTINUOUS
10
2.4649080708661417
20
-5.1841505118110236
11
2.468740866141732
21
-5.2009430708661419
0
LINE
8
BLACK
6
CONTINUOUS
10
2.468740866141732
20
-5.2009430708661419
11
2.4688351181102361
21
-5.2043020472440942
0
LINE
8
BLACK
6
CONTINUOUS
10
2.4688351181102361
20
-5.2043020472440942
11
2.4676367716535434
21
-5.207441456692913
0
LINE
8
BLACK
6
CONTINUOUS
10
2.4676367716535434
20
-5.207441456692913
11
2.4653282283464568
21
-5.2098832677165356
0
LINE
8
BLACK
6
CONTINUOUS
10
2.4653282283464568
20
-5.2098832677165356
11
2.4622609842519685
21
-5.2112557480314958
0
LINE
8
BLACK
6
CONTINUOUS
10
2.4622609842519685
20
-5.2112557480314958
11
2.4425897244094488
21
-5.2157455905511814
0
LINE
8
BLACK
6
CONTINUOUS
10
2.4425897244094488
20
-5.2157455905511814
11
2.4392307086614173
21
-5.215839842519685
0
LINE
8
BLACK
6
CONTINUOUS
10
2.4392307086614173
20
-5.215839842519685
11
2.4360913385826772
21
-5.2146414960629919
0
LINE
8
BLACK
6
CONTINUOUS
10
2.4360913385826772
20
-5.2146414960629919
11
2.4336495275590551
21
-5.2123329527559052
0
LINE
8
BLACK
6
CONTINUOUS
10
2.4336495275590551
20
-5.2123329527559052
11
2.4322770472440944
21
-5.2092657086614169
0
LINE
8
BLACK
6
CONTINUOUS
10
2.4322770472440944
20
-5.2092657086614169
11
2.4284442519685037
21
-5.1924731496062995
0
LINE
8
BLACK
6
CONTINUOUS
10
2.4284442519685037
20
-5.1924731496062995
11
2.42835
21
-5.1891141732283463
0
LINE
8
BLACK
6
CONTINUOUS
10
2.42835
20
-5.1891141732283463
11
2.4295483464566927
21
-5.1859747637795275
0
LINE
8
BLACK
6
CONTINUOUS
10
2.4295483464566927
20
-5.1859747637795275
11
2.4318568897637793
21
-5.1835329527559058
0
LINE
8
BLACK
6
CONTINUOUS
10
2.4318568897637793
20
-5.1835329527559058
11
2.4349241338582677
21
-5.1821604724409447
0
LINE
8
BLACK
6
CONTINUOUS
10
2.4349241338582677
20
-5.1821604724409447
11
2.4545953937007874
21
-5.17767062992126
0
LINE
8
BLACK
6
CONTINUOUS
10
2.4545953937007874
20
-5.17767062992126
11
2.4579544094488188
21
-5.1775763779527555
0
LINE
8
BLACK
6
CONTINUOUS
10
2.4579544094488188
20
-5.1775763779527555
11
2.4610937795275589
21
-5.1787747244094486
0
LINE
8
BLACK
6
CONTINUOUS
10
1.8174793700787402
20
-5.1350189370078736
11
1.8424283070866141
21
-5.1407133464566925
0
LINE
8
BLACK
6
CONTINUOUS
10
1.8424283070866141
20
-5.1407133464566925
11
1.8459337401574802
21
-5.1422819291338584
0
LINE
8
BLACK
6
CONTINUOUS
10
1.8459337401574802
20
-5.1422819291338584
11
1.8485720866141733
21
-5.1450725590551176
0
LINE
8
BLACK
6
CONTINUOUS
10
1.8485720866141733
20
-5.1450725590551176
11
1.8499416141732283
21
-5.1486603937007871
0
LINE
8
BLACK
6
CONTINUOUS
10
1.8499416141732283
20
-5.1486603937007871
11
1.8498338976377953
21
-5.1524992519685036
0
LINE
8
BLACK
6
CONTINUOUS
10
1.8498338976377953
20
-5.1524992519685036
11
1.8384450393700786
21
-5.2023971653543306
0
LINE
8
BLACK
6
CONTINUOUS
10
1.8384450393700786
20
-5.2023971653543306
11
1.8368764566929134
21
-5.2059025590551178
0
LINE
8
BLACK
6
CONTINUOUS
10
1.8368764566929134
20
-5.2059025590551178
11
1.8340858267716535
21
-5.2085409055118106
0
LINE
8
BLACK
6
CONTINUOUS
10
1.8340858267716535
20
-5.2085409055118106
11
1.8304979921259843
21
-5.2099104330708661
0
LINE
8
BLACK
6
CONTINUOUS
10
1.8304979921259843
20
-5.2099104330708661
11
1.8266591338582676
21
-5.2098027165354326
0
LINE
8
BLACK
6
CONTINUOUS
10
1.8266591338582676
20
-5.2098027165354326
11
1.8017101968503937
21
-5.2041083070866136
0
LINE
8
BLACK
6
CONTINUOUS
10
1.8017101968503937
20
-5.2041083070866136
11
1.7982047637795275
21
-5.2025397244094487
0
LINE
8
BLACK
6
CONTINUOUS
10
1.7982047637795275
20
-5.2025397244094487
11
1.7955664173228345
21
-5.1997490944881886
0
LINE
8
BLACK
6
CONTINUOUS
10
1.7955664173228345
20
-5.1997490944881886
11
1.7941968897637794
21
-5.19616125984252
0
LINE
8
BLACK
6
CONTINUOUS
10
1.7941968897637794
20
-5.19616125984252
11
1.7943046062992125
21
-5.1923224015748026
0
LINE
8
BLACK
6
CONTINUOUS
10
1.7943046062992125
20
-5.1923224015748026
11
1.8056934645669291
21
-5.1424244881889765
0
LINE
8
BLACK
6
CONTINUOUS
10
1.8056934645669291
20
-5.1424244881889765
11
1.8072620472440943
21
-5.1389190944881893
0
LINE
8
BLACK
6
CONTINUOUS
10
1.8072620472440943
20
-5.1389190944881893
11
1.8100526771653542
21
-5.1362807480314956
0
LINE
8
BLACK
6
CONTINUOUS
10
1.8100526771653542
20
-5.1362807480314956
11
1.8136405118110235
21
-5.134911220472441
0
LINE
8
BLACK
6
CONTINUOUS
10
1.8136405118110235
20
-5.134911220472441
11
1.8174793700787402
21
-5.1350189370078736
0
LINE
8
BLACK
6
CONTINUOUS
10
2.2652696456692913
20
-5.1561638976377955
11
2.2673425590551179
21
-5.1571701181102361
0
LINE
8
BLACK
6
CONTINUOUS
10
2.2673425590551179
20
-5.1571701181102361
11
2.3042177952755907
21
-5.1851020078740158
0
LINE
8
BLACK
6
CONTINUOUS
10
2.3042177952755907
20
-5.1851020078740158
11
2.3057478346456692
21
-5.1868249212598423
0
LINE
8
BLACK
6
CONTINUOUS
10
2.3057478346456692
20
-5.1868249212598423
11
2.3065020866141732
21
-5.1890022047244093
0
LINE
8
BLACK
6
CONTINUOUS
10
2.3065020866141732
20
-5.1890022047244093
11
2.3063657086614171
21
-5.1913023622047243
0
LINE
8
BLACK
6
CONTINUOUS
10
2.3063657086614171
20
-5.1913023622047243
11
2.3053594881889765
21
-5.1933752755905509
0
LINE
8
BLACK
6
CONTINUOUS
10
2.3053594881889765
20
-5.1933752755905509
11
2.2982279527559055
21
-5.2027902362204728
0
LINE
8
BLACK
6
CONTINUOUS
10
2.2982279527559055
20
-5.2027902362204728
11
2.2965050393700785
21
-5.2043202755905513
0
LINE
8
BLACK
6
CONTINUOUS
10
2.2965050393700785
20
-5.2043202755905513
11
2.294327755905512
21
-5.2050745275590549
0
LINE
8
BLACK
6
CONTINUOUS
10
2.294327755905512
20
-5.2050745275590549
11
2.292027598425197
21
-5.2049381496062992
0
LINE
8
BLACK
6
CONTINUOUS
10
2.292027598425197
20
-5.2049381496062992
11
2.2899546850393699
21
-5.2039319291338577
0
LINE
8
BLACK
6
CONTINUOUS
10
2.2899546850393699
20
-5.2039319291338577
11
2.2530794488188977
21
-5.1760000393700789
0
LINE
8
BLACK
6
CONTINUOUS
10
2.2530794488188977
20
-5.1760000393700789
11
2.2515494094488187
21
-5.1742771259842515
0
LINE
8
BLACK
6
CONTINUOUS
10
2.2515494094488187
20
-5.1742771259842515
11
2.2507951574803151
21
-5.1720998425196854
0
LINE
8
BLACK
6
CONTINUOUS
10
2.2507951574803151
20
-5.1720998425196854
11
2.2509315354330708
21
-5.1697996850393704
0
LINE
8
BLACK
6
CONTINUOUS
10
2.2509315354330708
20
-5.1697996850393704
11
2.2519377559055118
21
-5.1677267716535429
0
LINE
8
BLACK
6
CONTINUOUS
10
2.2519377559055118
20
-5.1677267716535429
11
2.2590692913385828
21
-5.1583118110236219
0
LINE
8
BLACK
6
CONTINUOUS
10
2.2590692913385828
20
-5.1583118110236219
11
2.2607922047244093
21
-5.1567817716535433
0
LINE
8
BLACK
6
CONTINUOUS
10
2.2607922047244093
20
-5.1567817716535433
11
2.2629694881889764
21
-5.1560275196850389
0
LINE
8
BLACK
6
CONTINUOUS
10
2.2629694881889764
20
-5.1560275196850389
11
2.2652696456692913
21
-5.1561638976377955
0
LINE
8
BLACK
6
CONTINUOUS
10
2.1838429527559056
20
-5.1414057086614173
11
2.1859158661417322
21
-5.1424119291338579
0
LINE
8
BLACK
6
CONTINUOUS
10
2.1859158661417322
20
-5.1424119291338579
11
2.2227911023622049
21
-5.1703438188976376
0
LINE
8
BLACK
6
CONTINUOUS
10
2.2227911023622049
20
-5.1703438188976376
11
2.2243211417322835
21
-5.1720667322834641
0
LINE
8
BLACK
6
CONTINUOUS
10
2.2243211417322835
20
-5.1720667322834641
11
2.2250753937007874
21
-5.1742440157480312
0
LINE
8
BLACK
6
CONTINUOUS
10
2.2250753937007874
20
-5.1742440157480312
11
2.2249390157480313
21
-5.1765441732283461
0
LINE
8
BLACK
6
CONTINUOUS
10
2.2249390157480313
20
-5.1765441732283461
11
2.2239327952755903
21
-5.1786170866141727
0
LINE
8
BLACK
6
CONTINUOUS
10
2.2239327952755903
20
-5.1786170866141727
11
2.2168012598425197
21
-5.1880320472440946
0
LINE
8
BLACK
6
CONTINUOUS
10
2.2168012598425197
20
-5.1880320472440946
11
2.2150783464566928
21
-5.1895620866141732
0
LINE
8
BLACK
6
CONTINUOUS
10
2.2150783464566928
20
-5.1895620866141732
11
2.2129010629921257
21
-5.1903163385826767
0
LINE
8
BLACK
6
CONTINUOUS
10
2.2129010629921257
20
-5.1903163385826767
11
2.2106009055118108
21
-5.190179960629921
0
LINE
8
BLACK
6
CONTINUOUS
10
2.2106009055118108
20
-5.190179960629921
11
2.2085279921259842
21
-5.1891737401574805
0
LINE
8
BLACK
6
CONTINUOUS
10
2.2085279921259842
20
-5.1891737401574805
11
2.1716527559055119
21
-5.1612418503937008
0
LINE
8
BLACK
6
CONTINUOUS
10
2.1716527559055119
20
-5.1612418503937008
11
2.1701227165354329
21
-5.1595189370078742
0
LINE
8
BLACK
6
CONTINUOUS
10
2.1701227165354329
20
-5.1595189370078742
11
2.1693684645669289
21
-5.1573416535433072
0
LINE
8
BLACK
6
CONTINUOUS
10
2.1693684645669289
20
-5.1573416535433072
11
2.169504842519685
21
-5.1550414960629922
0
LINE
8
BLACK
6
CONTINUOUS
10
2.169504842519685
20
-5.1550414960629922
11
2.170511062992126
21
-5.1529685826771656
0
LINE
8
BLACK
6
CONTINUOUS
10
2.170511062992126
20
-5.1529685826771656
11
2.1776425984251966
21
-5.1435536220472438
0
LINE
8
BLACK
6
CONTINUOUS
10
2.1776425984251966
20
-5.1435536220472438
11
2.1793655118110236
21
-5.1420235826771652
0
LINE
8
BLACK
6
CONTINUOUS
10
2.1793655118110236
20
-5.1420235826771652
11
2.1815427952755906
21
-5.1412693307086617
0
LINE
8
BLACK
6
CONTINUOUS
10
2.1815427952755906
20
-5.1412693307086617
11
2.1838429527559056
21
-5.1414057086614173
0
LINE
8
BLACK
6
CONTINUOUS
10
2.0873685039370078
20
-5.1229347637795275
11
2.1334811023622047
21
-5.1451414173228347
0
LINE
8
BLACK
6
CONTINUOUS
10
2.1334811023622047
20
-5.1451414173228347
11
2.1365496062992126
21
-5.1474507086614176
0
LINE
8
BLACK
6
CONTINUOUS
10
2.1365496062992126
20
-5.1474507086614176
11
2.1385007874015747
21
-5.1507584645669287
0
LINE
8
BLACK
6
CONTINUOUS
10
2.1385007874015747
20
-5.1507584645669287
11
2.1390376377952753
21
-5.1545611023622042
0
LINE
8
BLACK
6
CONTINUOUS
10
2.1390376377952753
20
-5.1545611023622042
11
2.1380783858267716
21
-5.1582797244094483
0
LINE
8
BLACK
6
CONTINUOUS
10
2.1380783858267716
20
-5.1582797244094483
11
2.1269750787401573
21
-5.1813360236220474
0
LINE
8
BLACK
6
CONTINUOUS
10
2.1269750787401573
20
-5.1813360236220474
11
2.1246657874015749
21
-5.1844045275590549
0
LINE
8
BLACK
6
CONTINUOUS
10
2.1246657874015749
20
-5.1844045275590549
11
2.1213580314960629
21
-5.1863557480314961
0
LINE
8
BLACK
6
CONTINUOUS
10
2.1213580314960629
20
-5.1863557480314961
11
2.1175553937007874
21
-5.186892559055118
0
LINE
8
BLACK
6
CONTINUOUS
10
2.1175553937007874
20
-5.186892559055118
11
2.1138367716535433
21
-5.185933346456693
0
LINE
8
BLACK
6
CONTINUOUS
10
2.1138367716535433
20
-5.185933346456693
11
2.0677241732283465
21
-5.1637266929133858
0
LINE
8
BLACK
6
CONTINUOUS
10
2.0677241732283465
20
-5.1637266929133858
11
2.0646556692913385
21
-5.1614174015748029
0
LINE
8
BLACK
6
CONTINUOUS
10
2.0646556692913385
20
-5.1614174015748029
11
2.0627044881889764
21
-5.158109645669291
0
LINE
8
BLACK
6
CONTINUOUS
10
2.0627044881889764
20
-5.158109645669291
11
2.0621676377952753
21
-5.1543070078740154
0
LINE
8
BLACK
6
CONTINUOUS
10
2.0621676377952753
20
-5.1543070078740154
11
2.0631268897637796
21
-5.1505883858267714
0
LINE
8
BLACK
6
CONTINUOUS
10
2.0631268897637796
20
-5.1505883858267714
11
2.0742301968503938
21
-5.1275320866141731
0
LINE
8
BLACK
6
CONTINUOUS
10
2.0742301968503938
20
-5.1275320866141731
11
2.0765394881889763
21
-5.1244635826771656
0
LINE
8
BLACK
6
CONTINUOUS
10
2.0765394881889763
20
-5.1244635826771656
11
2.0798472440944882
21
-5.1225123622047244
0
LINE
8
BLACK
6
CONTINUOUS
10
2.0798472440944882
20
-5.1225123622047244
11
2.0836498818897637
21
-5.1219755511811025
0
LINE
8
BLACK
6
CONTINUOUS
10
2.0836498818897637
20
-5.1219755511811025
11
2.0873685039370078
21
-5.1229347637795275
0
LINE
8
BLACK
6
CONTINUOUS
10
1.704249527559055
20
-5.1091749999999996
11
1.7291984645669292
21
-5.1148694094488185
0
LINE
8
BLACK
6
CONTINUOUS
10
1.7291984645669292
20
-5.1148694094488185
11
1.7327038976377953
21
-5.1164379921259844
0
LINE
8
BLACK
6
CONTINUOUS
10
1.7327038976377953
20
-5.1164379921259844
11
1.7353422440944881
21
-5.1192286220472436
0
LINE
8
BLACK
6
CONTINUOUS
10
1.7353422440944881
20
-5.1192286220472436
11
1.7367117716535432
21
-5.1228164566929131
0
LINE
8
BLACK
6
CONTINUOUS
10
1.7367117716535432
20
-5.1228164566929131
11
1.7366040551181101
21
-5.1266553149606295
0
LINE
8
BLACK
6
CONTINUOUS
10
1.7366040551181101
20
-5.1266553149606295
11
1.7252151968503937
21
-5.1765532283464566
0
LINE
8
BLACK
6
CONTINUOUS
10
1.7252151968503937
20
-5.1765532283464566
11
1.7236466141732283
21
-5.1800586220472438
0
LINE
8
BLACK
6
CONTINUOUS
10
1.7236466141732283
20
-5.1800586220472438
11
1.7208559842519684
21
-5.1826969685039366
0
LINE
8
BLACK
6
CONTINUOUS
10
1.7208559842519684
20
-5.1826969685039366
11
1.7172681496062991
21
-5.1840664960629921
0
LINE
8
BLACK
6
CONTINUOUS
10
1.7172681496062991
20
-5.1840664960629921
11
1.7134292913385827
21
-5.1839587795275586
0
LINE
8
BLACK
6
CONTINUOUS
10
1.7134292913385827
20
-5.1839587795275586
11
1.6884803543307085
21
-5.1782643700787396
0
LINE
8
BLACK
6
CONTINUOUS
10
1.6884803543307085
20
-5.1782643700787396
11
1.6849749212598424
21
-5.1766957874015747
0
LINE
8
BLACK
6
CONTINUOUS
10
1.6849749212598424
20
-5.1766957874015747
11
1.6823365748031496
21
-5.1739051574803145
0
LINE
8
BLACK
6
CONTINUOUS
10
1.6823365748031496
20
-5.1739051574803145
11
1.6809670472440945
21
-5.170317322834646
0
LINE
8
BLACK
6
CONTINUOUS
10
1.6809670472440945
20
-5.170317322834646
11
1.6810747637795276
21
-5.1664784645669286
0
LINE
8
BLACK
6
CONTINUOUS
10
1.6810747637795276
20
-5.1664784645669286
11
1.692463622047244
21
-5.1165805511811024
0
LINE
8
BLACK
6
CONTINUOUS
10
1.692463622047244
20
-5.1165805511811024
11
1.6940322047244094
21
-5.1130751574803153
0
LINE
8
BLACK
6
CONTINUOUS
10
1.6940322047244094
20
-5.1130751574803153
11
1.6968228346456693
21
-5.1104368110236216
0
LINE
8
BLACK
6
CONTINUOUS
10
1.6968228346456693
20
-5.1104368110236216
11
1.7004106692913386
21
-5.109067283464567
0
LINE
8
BLACK
6
CONTINUOUS
10
1.7004106692913386
20
-5.109067283464567
11
1.704249527559055
21
-5.1091749999999996
0
LINE
8
BLACK
6
CONTINUOUS
10
1.5661600787401575
20
-5.1221871653543305
11
1.5689070078740157
21
-5.1235631889763775
0
LINE
8
BLACK
6
CONTINUOUS
10
1.5689070078740157
20
-5.1235631889763775
11
1.5860034251968504
21
-5.1368518503937004
0
LINE
8
BLACK
6
CONTINUOUS
10
1.5860034251968504
20
-5.1368518503937004
11
1.5880147244094487
21
-5.1391742913385823
0
LINE
8
BLACK
6
CONTINUOUS
10
1.5880147244094487
20
-5.1391742913385823
11
1.588984094488189
21
-5.1420896456692908
0
LINE
8
BLACK
6
CONTINUOUS
10
1.588984094488189
20
-5.1420896456692908
11
1.5887640551181101
21
-5.1451540157480311
0
LINE
8
BLACK
6
CONTINUOUS
10
1.5887640551181101
20
-5.1451540157480311
11
1.5873880708661416
21
-5.14790094488189
0
LINE
8
BLACK
6
CONTINUOUS
10
1.5873880708661416
20
-5.14790094488189
11
1.5777235826771654
21
-5.1603347244094486
0
LINE
8
BLACK
6
CONTINUOUS
10
1.5777235826771654
20
-5.1603347244094486
11
1.5754011417322835
21
-5.1623459842519681
0
LINE
8
BLACK
6
CONTINUOUS
10
1.5754011417322835
20
-5.1623459842519681
11
1.5724857874015747
21
-5.1633153543307087
0
LINE
8
BLACK
6
CONTINUOUS
10
1.5724857874015747
20
-5.1633153543307087
11
1.5694214173228347
21
-5.163095354330709
0
LINE
8
BLACK
6
CONTINUOUS
10
1.5694214173228347
20
-5.163095354330709
11
1.5666744881889763
21
-5.1617193307086611
0
LINE
8
BLACK
6
CONTINUOUS
10
1.5666744881889763
20
-5.1617193307086611
11
1.5495780708661417
21
-5.1484306692913382
0
LINE
8
BLACK
6
CONTINUOUS
10
1.5495780708661417
20
-5.1484306692913382
11
1.5475667716535433
21
-5.1461082283464563
0
LINE
8
BLACK
6
CONTINUOUS
10
1.5475667716535433
20
-5.1461082283464563
11
1.5465974015748032
21
-5.1431928740157478
0
LINE
8
BLACK
6
CONTINUOUS
10
1.5465974015748032
20
-5.1431928740157478
11
1.5468174409448818
21
-5.1401285039370075
0
LINE
8
BLACK
6
CONTINUOUS
10
1.5468174409448818
20
-5.1401285039370075
11
1.5481934251968503
21
-5.1373815748031495
0
LINE
8
BLACK
6
CONTINUOUS
10
1.5481934251968503
20
-5.1373815748031495
11
1.5578579133858268
21
-5.1249477952755909
0
LINE
8
BLACK
6
CONTINUOUS
10
1.5578579133858268
20
-5.1249477952755909
11
1.5601803543307087
21
-5.1229365354330705
0
LINE
8
BLACK
6
CONTINUOUS
10
1.5601803543307087
20
-5.1229365354330705
11
1.5630957086614172
21
-5.1219671653543308
0
LINE
8
BLACK
6
CONTINUOUS
10
1.5630957086614172
20
-5.1219671653543308
11
1.5661600787401575
21
-5.1221871653543305
0
LINE
8
BLACK
6
CONTINUOUS
10
1.4962105118110236
20
-5.1172174015748029
11
1.5158817716535433
21
-5.1217072440944884
0
LINE
8
BLACK
6
CONTINUOUS
10
1.5158817716535433
20
-5.1217072440944884
11
1.5189490157480314
21
-5.1230797244094486
0
LINE
8
BLACK
6
CONTINUOUS
10
1.5189490157480314
20
-5.1230797244094486
11
1.5212575590551181
21
-5.1255215354330703
0
LINE
8
BLACK
6
CONTINUOUS
10
1.5212575590551181
20
-5.1255215354330703
11
1.522455905511811
21
-5.1286609448818901
0
LINE
8
BLACK
6
CONTINUOUS
10
1.522455905511811
20
-5.1286609448818901
11
1.5223616535433071
21
-5.1320199212598423
0
LINE
8
BLACK
6
CONTINUOUS
10
1.5223616535433071
20
-5.1320199212598423
11
1.5185288582677166
21
-5.1488124803149606
0
LINE
8
BLACK
6
CONTINUOUS
10
1.5185288582677166
20
-5.1488124803149606
11
1.5171563779527559
21
-5.151879724409449
0
LINE
8
BLACK
6
CONTINUOUS
10
1.5171563779527559
20
-5.151879724409449
11
1.5147145669291338
21
-5.1541882677165356
0
LINE
8
BLACK
6
CONTINUOUS
10
1.5147145669291338
20
-5.1541882677165356
11
1.5115751968503937
21
-5.1553866141732279
0
LINE
8
BLACK
6
CONTINUOUS
10
1.5115751968503937
20
-5.1553866141732279
11
1.5082161811023622
21
-5.1552923622047242
0
LINE
8
BLACK
6
CONTINUOUS
10
1.5082161811023622
20
-5.1552923622047242
11
1.4885449212598425
21
-5.1508025196850395
0
LINE
8
BLACK
6
CONTINUOUS
10
1.4885449212598425
20
-5.1508025196850395
11
1.4854776771653544
21
-5.1494300393700785
0
LINE
8
BLACK
6
CONTINUOUS
10
1.4854776771653544
20
-5.1494300393700785
11
1.4831691338582678
21
-5.1469882283464568
0
LINE
8
BLACK
6
CONTINUOUS
10
1.4831691338582678
20
-5.1469882283464568
11
1.4819707874015748
21
-5.1438488188976379
0
LINE
8
BLACK
6
CONTINUOUS
10
1.4819707874015748
20
-5.1438488188976379
11
1.4820650393700787
21
-5.1404898425196848
0
LINE
8
BLACK
6
CONTINUOUS
10
1.4820650393700787
20
-5.1404898425196848
11
1.4858978346456693
21
-5.1236972834645664
0
LINE
8
BLACK
6
CONTINUOUS
10
1.4858978346456693
20
-5.1236972834645664
11
1.4872703149606299
21
-5.120630039370079
0
LINE
8
BLACK
6
CONTINUOUS
10
1.4872703149606299
20
-5.120630039370079
11
1.4897121259842518
21
-5.1183214960629924
0
LINE
8
BLACK
6
CONTINUOUS
10
1.4897121259842518
20
-5.1183214960629924
11
1.4928514960629922
21
-5.1171231496062992
0
LINE
8
BLACK
6
CONTINUOUS
10
1.4928514960629922
20
-5.1171231496062992
11
1.4962105118110236
21
-5.1172174015748029
0
LINE
8
BLACK
6
CONTINUOUS
10
2.4472957480314959
20
-5.1183214960629924
11
2.449737559055118
21
-5.120630039370079
0
LINE
8
BLACK
6
CONTINUOUS
10
2.449737559055118
20
-5.120630039370079
11
2.4511100393700787
21
-5.1236972834645664
0
LINE
8
BLACK
6
CONTINUOUS
10
2.4511100393700787
20
-5.1236972834645664
11
2.4549428346456694
21
-5.1404898425196848
0
LINE
8
BLACK
6
CONTINUOUS
10
2.4549428346456694
20
-5.1404898425196848
11
2.4550370866141731
21
-5.1438488188976379
0
LINE
8
BLACK
6
CONTINUOUS
10
2.4550370866141731
20
-5.1438488188976379
11
2.4538387401574804
21
-5.1469882283464568
0
LINE
8
BLACK
6
CONTINUOUS
10
2.4538387401574804
20
-5.1469882283464568
11
2.4515301968503938
21
-5.1494300393700785
0
LINE
8
BLACK
6
CONTINUOUS
10
2.4515301968503938
20
-5.1494300393700785
11
2.4484629527559054
21
-5.1508025196850395
0
LINE
8
BLACK
6
CONTINUOUS
10
2.4484629527559054
20
-5.1508025196850395
11
2.4287916929133857
21
-5.1552923622047242
0
LINE
8
BLACK
6
CONTINUOUS
10
2.4287916929133857
20
-5.1552923622047242
11
2.4254326771653543
21
-5.1553866141732279
0
LINE
8
BLACK
6
CONTINUOUS
10
2.4254326771653543
20
-5.1553866141732279
11
2.4222933070866142
21
-5.1541882677165356
0
LINE
8
BLACK
6
CONTINUOUS
10
2.4222933070866142
20
-5.1541882677165356
11
2.419851496062992
21
-5.151879724409449
0
LINE
8
BLACK
6
CONTINUOUS
10
2.419851496062992
20
-5.151879724409449
11
2.4184790157480314
21
-5.1488124803149606
0
LINE
8
BLACK
6
CONTINUOUS
10
2.4184790157480314
20
-5.1488124803149606
11
2.414646220472441
21
-5.1320199212598423
0
LINE
8
BLACK
6
CONTINUOUS
10
2.414646220472441
20
-5.1320199212598423
11
2.4145519685039369
21
-5.1286609448818901
0
LINE
8
BLACK
6
CONTINUOUS
10
2.4145519685039369
20
-5.1286609448818901
11
2.4157503149606301
21
-5.1255215354330703
0
LINE
8
BLACK
6
CONTINUOUS
10
2.4157503149606301
20
-5.1255215354330703
11
2.4180588582677163
21
-5.1230797244094486
0
LINE
8
BLACK
6
CONTINUOUS
10
2.4180588582677163
20
-5.1230797244094486
11
2.4211261023622046
21
-5.1217072440944884
0
LINE
8
BLACK
6
CONTINUOUS
10
2.4211261023622046
20
-5.1217072440944884
11
2.4407973622047243
21
-5.1172174015748029
0
LINE
8
BLACK
6
CONTINUOUS
10
2.4407973622047243
20
-5.1172174015748029
11
2.4441563779527558
21
-5.1171231496062992
0
LINE
8
BLACK
6
CONTINUOUS
10
2.4441563779527558
20
-5.1171231496062992
11
2.4472957480314959
21
-5.1183214960629924
0
LINE
8
BLACK
6
CONTINUOUS
10
2.2290094094488189
20
-5.0817776771653538
11
2.2310823228346455
21
-5.0827838976377953
0
LINE
8
BLACK
6
CONTINUOUS
10
2.2310823228346455
20
-5.0827838976377953
11
2.2679575590551182
21
-5.1107157874015749
0
LINE
8
BLACK
6
CONTINUOUS
10
2.2679575590551182
20
-5.1107157874015749
11
2.2694875984251968
21
-5.1124387007874015
0
LINE
8
BLACK
6
CONTINUOUS
10
2.2694875984251968
20
-5.1124387007874015
11
2.2702418503937007
21
-5.1146159842519685
0
LINE
8
BLACK
6
CONTINUOUS
10
2.2702418503937007
20
-5.1146159842519685
11
2.2701054724409446
21
-5.1169161417322835
0
LINE
8
BLACK
6
CONTINUOUS
10
2.2701054724409446
20
-5.1169161417322835
11
2.269099251968504
21
-5.1189890551181101
0
LINE
8
BLACK
6
CONTINUOUS
10
2.269099251968504
20
-5.1189890551181101
11
2.261967716535433
21
-5.1284040157480311
0
LINE
8
BLACK
6
CONTINUOUS
10
2.261967716535433
20
-5.1284040157480311
11
2.2602448031496061
21
-5.1299340551181105
0
LINE
8
BLACK
6
CONTINUOUS
10
2.2602448031496061
20
-5.1299340551181105
11
2.2580675196850395
21
-5.1306883070866141
0
LINE
8
BLACK
6
CONTINUOUS
10
2.2580675196850395
20
-5.1306883070866141
11
2.2557673622047245
21
-5.1305519291338584
0
LINE
8
BLACK
6
CONTINUOUS
10
2.2557673622047245
20
-5.1305519291338584
11
2.2536944488188975
21
-5.1295457086614169
0
LINE
8
BLACK
6
CONTINUOUS
10
2.2536944488188975
20
-5.1295457086614169
11
2.2168192125984252
21
-5.1016138188976381
0
LINE
8
BLACK
6
CONTINUOUS
10
2.2168192125984252
20
-5.1016138188976381
11
2.2152891732283466
21
-5.0998909055118107
0
LINE
8
BLACK
6
CONTINUOUS
10
2.2152891732283466
20
-5.0998909055118107
11
2.2145349212598426
21
-5.0977136220472437
0
LINE
8
BLACK
6
CONTINUOUS
10
2.2145349212598426
20
-5.0977136220472437
11
2.2146712992125983
21
-5.0954134645669287
0
LINE
8
BLACK
6
CONTINUOUS
10
2.2146712992125983
20
-5.0954134645669287
11
2.2156775196850393
21
-5.0933405511811021
0
LINE
8
BLACK
6
CONTINUOUS
10
2.2156775196850393
20
-5.0933405511811021
11
2.2228090551181103
21
-5.0839255905511811
0
LINE
8
BLACK
6
CONTINUOUS
10
2.2228090551181103
20
-5.0839255905511811
11
2.2245319685039369
21
-5.0823955511811025
0
LINE
8
BLACK
6
CONTINUOUS
10
2.2245319685039369
20
-5.0823955511811025
11
2.2267092519685039
21
-5.0816412992125981
0
LINE
8
BLACK
6
CONTINUOUS
10
2.2267092519685039
20
-5.0816412992125981
11
2.2290094094488189
21
-5.0817776771653538
0
LINE
8
BLACK
6
CONTINUOUS
10
1.9777627559055118
20
-5.0644334251968504
11
1.9810705118110237
21
-5.0663846456692916
0
LINE
8
BLACK
6
CONTINUOUS
10
1.9810705118110237
20
-5.0663846456692916
11
1.9833798031496062
21
-5.0694531496062991
0
LINE
8
BLACK
6
CONTINUOUS
10
1.9833798031496062
20
-5.0694531496062991
11
1.9944831102362204
21
-5.0925094488188973
0
LINE
8
BLACK
6
CONTINUOUS
10
1.9944831102362204
20
-5.0925094488188973
11
1.9954423622047244
21
-5.0962280708661414
0
LINE
8
BLACK
6
CONTINUOUS
10
1.9954423622047244
20
-5.0962280708661414
11
1.9949055118110235
21
-5.1000307086614169
0
LINE
8
BLACK
6
CONTINUOUS
10
1.9949055118110235
20
-5.1000307086614169
11
1.9929543307086615
21
-5.1033384645669289
0
LINE
8
BLACK
6
CONTINUOUS
10
1.9929543307086615
20
-5.1033384645669289
11
1.9898858267716535
21
-5.1056477559055118
0
LINE
8
BLACK
6
CONTINUOUS
10
1.9898858267716535
20
-5.1056477559055118
11
1.9437732283464566
21
-5.127854409448819
0
LINE
8
BLACK
6
CONTINUOUS
10
1.9437732283464566
20
-5.127854409448819
11
1.9400546062992126
21
-5.128813622047244
0
LINE
8
BLACK
6
CONTINUOUS
10
1.9400546062992126
20
-5.128813622047244
11
1.936251968503937
21
-5.1282768110236221
0
LINE
8
BLACK
6
CONTINUOUS
10
1.936251968503937
20
-5.1282768110236221
11
1.9329442125984251
21
-5.1263255905511809
0
LINE
8
BLACK
6
CONTINUOUS
10
1.9329442125984251
20
-5.1263255905511809
11
1.9306349212598424
21
-5.1232570866141733
0
LINE
8
BLACK
6
CONTINUOUS
10
1.9306349212598424
20
-5.1232570866141733
11
1.9195316141732284
21
-5.1002007874015751
0
LINE
8
BLACK
6
CONTINUOUS
10
1.9195316141732284
20
-5.1002007874015751
11
1.9185723622047244
21
-5.0964821653543302
0
LINE
8
BLACK
6
CONTINUOUS
10
1.9185723622047244
20
-5.0964821653543302
11
1.9191092125984253
21
-5.0926795275590546
0
LINE
8
BLACK
6
CONTINUOUS
10
1.9191092125984253
20
-5.0926795275590546
11
1.9210603937007873
21
-5.0893717716535436
0
LINE
8
BLACK
6
CONTINUOUS
10
1.9210603937007873
20
-5.0893717716535436
11
1.9241288976377953
21
-5.0870624803149607
0
LINE
8
BLACK
6
CONTINUOUS
10
1.9241288976377953
20
-5.0870624803149607
11
1.9702414960629921
21
-5.0648558267716535
0
LINE
8
BLACK
6
CONTINUOUS
10
1.9702414960629921
20
-5.0648558267716535
11
1.9739601181102362
21
-5.0638966141732284
0
LINE
8
BLACK
6
CONTINUOUS
10
1.9739601181102362
20
-5.0638966141732284
11
1.9777627559055118
21
-5.0644334251968504
0
LINE
8
BLACK
6
CONTINUOUS
10
2.3749407086614172
20
-5.0847967322834648
11
2.377749724409449
21
-5.0860411023622047
0
LINE
8
BLACK
6
CONTINUOUS
10
2.377749724409449
20
-5.0860411023622047
11
2.3906272047244093
21
-5.0951059448818894
0
LINE
8
BLACK
6
CONTINUOUS
10
2.3906272047244093
20
-5.0951059448818894
11
2.392746220472441
21
-5.097330551181102
0
LINE
8
BLACK
6
CONTINUOUS
10
2.392746220472441
20
-5.097330551181102
11
2.3938525590551181
21
-5.1001966929133857
0
LINE
8
BLACK
6
CONTINUOUS
10
2.3938525590551181
20
-5.1001966929133857
11
2.3937778740157478
21
-5.1032680708661413
0
LINE
8
BLACK
6
CONTINUOUS
10
2.3937778740157478
20
-5.1032680708661413
11
2.3925335039370079
21
-5.1060770866141727
0
LINE
8
BLACK
6
CONTINUOUS
10
2.3925335039370079
20
-5.1060770866141727
11
2.3800693700787403
21
-5.1237836220472444
0
LINE
8
BLACK
6
CONTINUOUS
10
2.3800693700787403
20
-5.1237836220472444
11
2.3778447637795277
21
-5.1259025984251965
0
LINE
8
BLACK
6
CONTINUOUS
10
2.3778447637795277
20
-5.1259025984251965
11
2.374978622047244
21
-5.127008937007874
0
LINE
8
BLACK
6
CONTINUOUS
10
2.374978622047244
20
-5.127008937007874
11
2.3719072440944879
21
-5.1269342913385829
0
LINE
8
BLACK
6
CONTINUOUS
10
2.3719072440944879
20
-5.1269342913385829
11
2.3690982283464566
21
-5.1256899212598421
0
LINE
8
BLACK
6
CONTINUOUS
10
2.3690982283464566
20
-5.1256899212598421
11
2.3562207480314958
21
-5.1166250787401575
0
LINE
8
BLACK
6
CONTINUOUS
10
2.3562207480314958
20
-5.1166250787401575
11
2.3541017322834645
21
-5.1144004724409449
0
LINE
8
BLACK
6
CONTINUOUS
10
2.3541017322834645
20
-5.1144004724409449
11
2.3529953937007875
21
-5.1115343307086611
0
LINE
8
BLACK
6
CONTINUOUS
10
2.3529953937007875
20
-5.1115343307086611
11
2.3530700787401573
21
-5.1084629527559056
0
LINE
8
BLACK
6
CONTINUOUS
10
2.3530700787401573
20
-5.1084629527559056
11
2.3543144488188976
21
-5.1056539370078742
0
LINE
8
BLACK
6
CONTINUOUS
10
2.3543144488188976
20
-5.1056539370078742
11
2.3667785826771652
21
-5.0879474015748034
0
LINE
8
BLACK
6
CONTINUOUS
10
2.3667785826771652
20
-5.0879474015748034
11
2.3690031889763778
21
-5.0858284251968504
0
LINE
8
BLACK
6
CONTINUOUS
10
2.3690031889763778
20
-5.0858284251968504
11
2.3718693307086616
21
-5.0847220866141729
0
LINE
8
BLACK
6
CONTINUOUS
10
2.3718693307086616
20
-5.0847220866141729
11
2.3749407086614172
21
-5.0847967322834648
0
LINE
8
BLACK
6
CONTINUOUS
10
1.6060260629921259
20
-5.0708979527559057
11
1.6087729921259841
21
-5.0722739763779527
0
LINE
8
BLACK
6
CONTINUOUS
10
1.6087729921259841
20
-5.0722739763779527
11
1.6258694094488189
21
-5.0855626377952756
0
LINE
8
BLACK
6
CONTINUOUS
10
1.6258694094488189
20
-5.0855626377952756
11
1.6278807086614173
21
-5.0878850787401575
0
LINE
8
BLACK
6
CONTINUOUS
10
1.6278807086614173
20
-5.0878850787401575
11
1.6288500787401574
21
-5.090800433070866
0
LINE
8
BLACK
6
CONTINUOUS
10
1.6288500787401574
20
-5.090800433070866
11
1.6286300393700788
21
-5.0938648031496063
0
LINE
8
BLACK
6
CONTINUOUS
10
1.6286300393700788
20
-5.0938648031496063
11
1.6272540551181103
21
-5.0966117322834643
0
LINE
8
BLACK
6
CONTINUOUS
10
1.6272540551181103
20
-5.0966117322834643
11
1.6175895669291338
21
-5.1090455118110238
0
LINE
8
BLACK
6
CONTINUOUS
10
1.6175895669291338
20
-5.1090455118110238
11
1.6152671259842519
21
-5.1110567716535433
0
LINE
8
BLACK
6
CONTINUOUS
10
1.6152671259842519
20
-5.1110567716535433
11
1.6123517716535434
21
-5.112026141732283
0
LINE
8
BLACK
6
CONTINUOUS
10
1.6123517716535434
20
-5.112026141732283
11
1.6092874015748031
21
-5.1118061417322833
0
LINE
8
BLACK
6
CONTINUOUS
10
1.6092874015748031
20
-5.1118061417322833
11
1.6065404724409449
21
-5.1104301181102363
0
LINE
8
BLACK
6
CONTINUOUS
10
1.6065404724409449
20
-5.1104301181102363
11
1.5894440551181102
21
-5.0971414566929134
0
LINE
8
BLACK
6
CONTINUOUS
10
1.5894440551181102
20
-5.0971414566929134
11
1.5874327559055117
21
-5.0948190157480315
0
LINE
8
BLACK
6
CONTINUOUS
10
1.5874327559055117
20
-5.0948190157480315
11
1.5864633858267716
21
-5.091903661417323
0
LINE
8
BLACK
6
CONTINUOUS
10
1.5864633858267716
20
-5.091903661417323
11
1.5866834251968505
21
-5.0888392913385827
0
LINE
8
BLACK
6
CONTINUOUS
10
1.5866834251968505
20
-5.0888392913385827
11
1.588059409448819
21
-5.0860923622047247
0
LINE
8
BLACK
6
CONTINUOUS
10
1.588059409448819
20
-5.0860923622047247
11
1.5977238976377952
21
-5.0736585826771652
0
LINE
8
BLACK
6
CONTINUOUS
10
1.5977238976377952
20
-5.0736585826771652
11
1.6000463385826771
21
-5.0716473228346457
0
LINE
8
BLACK
6
CONTINUOUS
10
1.6000463385826771
20
-5.0716473228346457
11
1.6029616929133859
21
-5.0706779527559052
0
LINE
8
BLACK
6
CONTINUOUS
10
1.6029616929133859
20
-5.0706779527559052
11
1.6060260629921259
21
-5.0708979527559057
0
LINE
8
BLACK
6
CONTINUOUS
10
1.8182023228346456
20
-5.0467915748031498
11
1.8289681496062993
21
-5.0516492913385829
0
LINE
8
BLACK
6
CONTINUOUS
10
1.8289681496062993
20
-5.0516492913385829
11
1.8308432283464566
21
-5.0529885433070865
0
LINE
8
BLACK
6
CONTINUOUS
10
1.8308432283464566
20
-5.0529885433070865
11
1.8320630314960629
21
-5.0549433858267712
0
LINE
8
BLACK
6
CONTINUOUS
10
1.8320630314960629
20
-5.0549433858267712
11
1.8324419291338583
21
-5.0572162204724407
0
LINE
8
BLACK
6
CONTINUOUS
10
1.8324419291338583
20
-5.0572162204724407
11
1.8319222047244095
21
-5.0594610629921259
0
LINE
8
BLACK
6
CONTINUOUS
10
1.8319222047244095
20
-5.0594610629921259
11
1.8128961417322835
21
-5.1016272047244096
0
LINE
8
BLACK
6
CONTINUOUS
10
1.8128961417322835
20
-5.1016272047244096
11
1.8115568897637795
21
-5.1035022834645671
0
LINE
8
BLACK
6
CONTINUOUS
10
1.8115568897637795
20
-5.1035022834645671
11
1.8096020472440943
21
-5.1047220866141734
0
LINE
8
BLACK
6
CONTINUOUS
10
1.8096020472440943
20
-5.1047220866141734
11
1.8073292125984251
21
-5.1051009842519681
0
LINE
8
BLACK
6
CONTINUOUS
10
1.8073292125984251
20
-5.1051009842519681
11
1.80508437007874
21
-5.1045812598425195
0
LINE
8
BLACK
6
CONTINUOUS
10
1.80508437007874
20
-5.1045812598425195
11
1.7943185433070865
21
-5.0997235433070864
0
LINE
8
BLACK
6
CONTINUOUS
10
1.7943185433070865
20
-5.0997235433070864
11
1.7924434645669292
21
-5.0983842913385828
0
LINE
8
BLACK
6
CONTINUOUS
10
1.7924434645669292
20
-5.0983842913385828
11
1.7912236614173227
21
-5.0964294488188973
0
LINE
8
BLACK
6
CONTINUOUS
10
1.7912236614173227
20
-5.0964294488188973
11
1.7908447637795275
21
-5.0941566141732286
0
LINE
8
BLACK
6
CONTINUOUS
10
1.7908447637795275
20
-5.0941566141732286
11
1.7913644881889763
21
-5.0919117716535434
0
LINE
8
BLACK
6
CONTINUOUS
10
1.7913644881889763
20
-5.0919117716535434
11
1.8103905511811023
21
-5.0497456299212597
0
LINE
8
BLACK
6
CONTINUOUS
10
1.8103905511811023
20
-5.0497456299212597
11
1.8117298031496063
21
-5.0478705511811022
0
LINE
8
BLACK
6
CONTINUOUS
10
1.8117298031496063
20
-5.0478705511811022
11
1.8136846456692912
21
-5.0466507480314959
0
LINE
8
BLACK
6
CONTINUOUS
10
1.8136846456692912
20
-5.0466507480314959
11
1.8159574803149605
21
-5.0462718503937003
0
LINE
8
BLACK
6
CONTINUOUS
10
1.8159574803149605
20
-5.0462718503937003
11
1.8182023228346456
21
-5.0467915748031498
0
LINE
8
BLACK
6
CONTINUOUS
10
2.3218211811023624
20
-5.0474042913385828
11
2.3246301968503937
21
-5.0486486614173227
0
LINE
8
BLACK
6
CONTINUOUS
10
2.3246301968503937
20
-5.0486486614173227
11
2.3375076771653545
21
-5.0577135039370074
0
LINE
8
BLACK
6
CONTINUOUS
10
2.3375076771653545
20
-5.0577135039370074
11
2.3396266929133858
21
-5.05993811023622
0
LINE
8
BLACK
6
CONTINUOUS
10
2.3396266929133858
20
-5.05993811023622
11
2.3407330314960628
21
-5.0628042519685037
0
LINE
8
BLACK
6
CONTINUOUS
10
2.3407330314960628
20
-5.0628042519685037
11
2.340658346456693
21
-5.0658756299212602
0
LINE
8
BLACK
6
CONTINUOUS
10
2.340658346456693
20
-5.0658756299212602
11
2.3394139763779527
21
-5.0686846456692916
0
LINE
8
BLACK
6
CONTINUOUS
10
2.3394139763779527
20
-5.0686846456692916
11
2.3269498425196851
21
-5.0863911811023623
0
LINE
8
BLACK
6
CONTINUOUS
10
2.3269498425196851
20
-5.0863911811023623
11
2.3247252362204724
21
-5.0885101574803144
0
LINE
8
BLACK
6
CONTINUOUS
10
2.3247252362204724
20
-5.0885101574803144
11
2.3218590944881887
21
-5.0896164960629919
0
LINE
8
BLACK
6
CONTINUOUS
10
2.3218590944881887
20
-5.0896164960629919
11
2.3187877165354331
21
-5.0895418503937009
0
LINE
8
BLACK
6
CONTINUOUS
10
2.3187877165354331
20
-5.0895418503937009
11
2.3159787007874013
21
-5.0882974803149601
0
LINE
8
BLACK
6
CONTINUOUS
10
2.3159787007874013
20
-5.0882974803149601
11
2.303101220472441
21
-5.0792326377952755
0
LINE
8
BLACK
6
CONTINUOUS
10
2.303101220472441
20
-5.0792326377952755
11
2.3009822047244093
21
-5.0770080314960628
0
LINE
8
BLACK
6
CONTINUOUS
10
2.3009822047244093
20
-5.0770080314960628
11
2.2998758661417322
21
-5.0741418897637791
0
LINE
8
BLACK
6
CONTINUOUS
10
2.2998758661417322
20
-5.0741418897637791
11
2.2999505511811025
21
-5.0710705118110235
0
LINE
8
BLACK
6
CONTINUOUS
10
2.2999505511811025
20
-5.0710705118110235
11
2.3011949212598424
21
-5.0682614960629921
0
LINE
8
BLACK
6
CONTINUOUS
10
2.3011949212598424
20
-5.0682614960629921
11
2.31365905511811
21
-5.0505549606299214
0
LINE
8
BLACK
6
CONTINUOUS
10
2.31365905511811
20
-5.0505549606299214
11
2.3158836614173226
21
-5.0484359842519684
0
LINE
8
BLACK
6
CONTINUOUS
10
2.3158836614173226
20
-5.0484359842519684
11
2.3187498031496063
21
-5.0473296456692909
0
LINE
8
BLACK
6
CONTINUOUS
10
2.3187498031496063
20
-5.0473296456692909
11
2.3218211811023624
21
-5.0474042913385828
0
LINE
8
BLACK
6
CONTINUOUS
10
2.1377605511811022
20
-5.0182946850393702
11
2.1838731496062991
21
-5.0405013385826773
0
LINE
8
BLACK
6
CONTINUOUS
10
2.1838731496062991
20
-5.0405013385826773
11
2.1869416535433071
21
-5.0428106299212594
0
LINE
8
BLACK
6
CONTINUOUS
10
2.1869416535433071
20
-5.0428106299212594
11
2.1888928346456691
21
-5.0461183858267713
0
LINE
8
BLACK
6
CONTINUOUS
10
2.1888928346456691
20
-5.0461183858267713
11
2.1894296850393702
21
-5.0499210236220469
0
LINE
8
BLACK
6
CONTINUOUS
10
2.1894296850393702
20
-5.0499210236220469
11
2.188470433070866
21
-5.0536396456692909
0
LINE
8
BLACK
6
CONTINUOUS
10
2.188470433070866
20
-5.0536396456692909
11
2.1773671259842518
21
-5.07669594488189
0
LINE
8
BLACK
6
CONTINUOUS
10
2.1773671259842518
20
-5.07669594488189
11
2.1750578346456693
21
-5.0797644488188975
0
LINE
8
BLACK
6
CONTINUOUS
10
2.1750578346456693
20
-5.0797644488188975
11
2.1717500787401574
21
-5.0817156692913388
0
LINE
8
BLACK
6
CONTINUOUS
10
2.1717500787401574
20
-5.0817156692913388
11
2.1679474409448818
21
-5.0822524803149607
0
LINE
8
BLACK
6
CONTINUOUS
10
2.1679474409448818
20
-5.0822524803149607
11
2.1642288188976377
21
-5.0812932677165357
0
LINE
8
BLACK
6
CONTINUOUS
10
2.1642288188976377
20
-5.0812932677165357
11
2.1181162204724409
21
-5.0590866141732285
0
LINE
8
BLACK
6
CONTINUOUS
10
2.1181162204724409
20
-5.0590866141732285
11
2.1150477165354329
21
-5.0567773228346455
0
LINE
8
BLACK
6
CONTINUOUS
10
2.1150477165354329
20
-5.0567773228346455
11
2.1130965354330709
21
-5.0534695669291336
0
LINE
8
BLACK
6
CONTINUOUS
10
2.1130965354330709
20
-5.0534695669291336
11
2.1125596850393702
21
-5.0496669291338581
0
LINE
8
BLACK
6
CONTINUOUS
10
2.1125596850393702
20
-5.0496669291338581
11
2.113518937007874
21
-5.045948307086614
0
LINE
8
BLACK
6
CONTINUOUS
10
2.113518937007874
20
-5.045948307086614
11
2.1246222440944882
21
-5.0228920078740158
0
LINE
8
BLACK
6
CONTINUOUS
10
2.1246222440944882
20
-5.0228920078740158
11
2.1269315354330707
21
-5.0198235039370074
0
LINE
8
BLACK
6
CONTINUOUS
10
2.1269315354330707
20
-5.0198235039370074
11
2.1302392913385826
21
-5.017872283464567
0
LINE
8
BLACK
6
CONTINUOUS
10
2.1302392913385826
20
-5.017872283464567
11
2.1340419291338582
21
-5.0173354724409451
0
LINE
8
BLACK
6
CONTINUOUS
10
2.1340419291338582
20
-5.0173354724409451
11
2.1377605511811022
21
-5.0182946850393702
0
LINE
8
BLACK
6
CONTINUOUS
10
1.7500188582677165
20
-5.0160260236220475
11
1.76078468503937
21
-5.0208837401574806
0
LINE
8
BLACK
6
CONTINUOUS
10
1.76078468503937
20
-5.0208837401574806
11
1.7626597637795276
21
-5.0222229921259842
0
LINE
8
BLACK
6
CONTINUOUS
10
1.7626597637795276
20
-5.0222229921259842
11
1.7638795669291338
21
-5.0241778346456689
0
LINE
8
BLACK
6
CONTINUOUS
10
1.7638795669291338
20
-5.0241778346456689
11
1.764258464566929
21
-5.0264506692913384
0
LINE
8
BLACK
6
CONTINUOUS
10
1.764258464566929
20
-5.0264506692913384
11
1.7637387401574802
21
-5.0286955118110237
0
LINE
8
BLACK
6
CONTINUOUS
10
1.7637387401574802
20
-5.0286955118110237
11
1.7447126771653543
21
-5.0708616535433073
0
LINE
8
BLACK
6
CONTINUOUS
10
1.7447126771653543
20
-5.0708616535433073
11
1.7433734251968505
21
-5.0727367322834649
0
LINE
8
BLACK
6
CONTINUOUS
10
1.7433734251968505
20
-5.0727367322834649
11
1.7414185826771653
21
-5.0739565354330711
0
LINE
8
BLACK
6
CONTINUOUS
10
1.7414185826771653
20
-5.0739565354330711
11
1.739145748031496
21
-5.0743354330708659
0
LINE
8
BLACK
6
CONTINUOUS
10
1.739145748031496
20
-5.0743354330708659
11
1.736900905511811
21
-5.0738157086614173
0
LINE
8
BLACK
6
CONTINUOUS
10
1.736900905511811
20
-5.0738157086614173
11
1.7261350787401575
21
-5.0689579921259842
0
LINE
8
BLACK
6
CONTINUOUS
10
1.7261350787401575
20
-5.0689579921259842
11
1.7242599999999999
21
-5.0676187401574806
0
LINE
8
BLACK
6
CONTINUOUS
10
1.7242599999999999
20
-5.0676187401574806
11
1.7230401968503937
21
-5.065663897637795
0
LINE
8
BLACK
6
CONTINUOUS
10
1.7230401968503937
20
-5.065663897637795
11
1.7226612992125985
21
-5.0633910629921255
0
LINE
8
BLACK
6
CONTINUOUS
10
1.7226612992125985
20
-5.0633910629921255
11
1.7231810236220473
21
-5.0611462204724411
0
LINE
8
BLACK
6
CONTINUOUS
10
1.7231810236220473
20
-5.0611462204724411
11
1.7422070866141732
21
-5.0189800787401575
0
LINE
8
BLACK
6
CONTINUOUS
10
1.7422070866141732
20
-5.0189800787401575
11
1.743546338582677
21
-5.0171049999999999
0
LINE
8
BLACK
6
CONTINUOUS
10
1.743546338582677
20
-5.0171049999999999
11
1.7455011811023622
21
-5.0158851968503937
0
LINE
8
BLACK
6
CONTINUOUS
10
1.7455011811023622
20
-5.0158851968503937
11
1.7477740157480315
21
-5.0155062992125981
0
LINE
8
BLACK
6
CONTINUOUS
10
1.7477740157480315
20
-5.0155062992125981
11
1.7500188582677165
21
-5.0160260236220475
0
LINE
8
BLACK
6
CONTINUOUS
10
2.0501028346456693
20
-5.0113897244094483
11
2.0518161417322833
21
-5.0129304330708662
0
LINE
8
BLACK
6
CONTINUOUS
10
2.0518161417322833
20
-5.0129304330708662
11
2.0528094488188975
21
-5.0150096062992127
0
LINE
8
BLACK
6
CONTINUOUS
10
2.0528094488188975
20
-5.0150096062992127
11
2.0557238976377952
21
-5.026455393700787
0
LINE
8
BLACK
6
CONTINUOUS
10
2.0557238976377952
20
-5.026455393700787
11
2.0558459448818898
21
-5.0287563779527558
0
LINE
8
BLACK
6
CONTINUOUS
10
2.0558459448818898
20
-5.0287563779527558
11
2.0550781102362206
21
-5.0309288976377955
0
LINE
8
BLACK
6
CONTINUOUS
10
2.0550781102362206
20
-5.0309288976377955
11
2.0535374015748031
21
-5.0326422440944878
0
LINE
8
BLACK
6
CONTINUOUS
10
2.0535374015748031
20
-5.0326422440944878
11
2.0514582283464566
21
-5.0336355118110232
0
LINE
8
BLACK
6
CONTINUOUS
10
2.0514582283464566
20
-5.0336355118110232
11
2.0066288582677165
21
-5.0450504724409448
0
LINE
8
BLACK
6
CONTINUOUS
10
2.0066288582677165
20
-5.0450504724409448
11
2.0043278740157482
21
-5.045172519685039
0
LINE
8
BLACK
6
CONTINUOUS
10
2.0043278740157482
20
-5.045172519685039
11
2.0021553543307085
21
-5.0444046850393702
0
LINE
8
BLACK
6
CONTINUOUS
10
2.0021553543307085
20
-5.0444046850393702
11
2.0004420472440945
21
-5.0428639763779524
0
LINE
8
BLACK
6
CONTINUOUS
10
2.0004420472440945
20
-5.0428639763779524
11
1.9994487401574803
21
-5.0407848031496059
0
LINE
8
BLACK
6
CONTINUOUS
10
1.9994487401574803
20
-5.0407848031496059
11
1.9965342913385826
21
-5.0293390157480315
0
LINE
8
BLACK
6
CONTINUOUS
10
1.9965342913385826
20
-5.0293390157480315
11
1.9964122440944883
21
-5.0270380314960628
0
LINE
8
BLACK
6
CONTINUOUS
10
1.9964122440944883
20
-5.0270380314960628
11
1.9971800787401575
21
-5.0248655118110239
0
LINE
8
BLACK
6
CONTINUOUS
10
1.9971800787401575
20
-5.0248655118110239
11
1.9987207874015747
21
-5.0231521653543307
0
LINE
8
BLACK
6
CONTINUOUS
10
1.9987207874015747
20
-5.0231521653543307
11
2.0007999606299212
21
-5.0221588976377953
0
LINE
8
BLACK
6
CONTINUOUS
10
2.0007999606299212
20
-5.0221588976377953
11
2.0456293307086613
21
-5.0107439370078737
0
LINE
8
BLACK
6
CONTINUOUS
10
2.0456293307086613
20
-5.0107439370078737
11
2.04793031496063
21
-5.0106218897637795
0
LINE
8
BLACK
6
CONTINUOUS
10
2.04793031496063
20
-5.0106218897637795
11
2.0501028346456693
21
-5.0113897244094483
0
LINE
8
BLACK
6
CONTINUOUS
10
1.9273707086614174
20
-4.959793346456693
11
1.930678464566929
21
-4.9617445669291333
0
LINE
8
BLACK
6
CONTINUOUS
10
1.930678464566929
20
-4.9617445669291333
11
1.9329877559055118
21
-4.9648130708661418
0
LINE
8
BLACK
6
CONTINUOUS
10
1.9329877559055118
20
-4.9648130708661418
11
1.944091062992126
21
-4.98786937007874
0
LINE
8
BLACK
6
CONTINUOUS
10
1.944091062992126
20
-4.98786937007874
11
1.94505031496063
21
-4.991587992125984
0
LINE
8
BLACK
6
CONTINUOUS
10
1.94505031496063
20
-4.991587992125984
11
1.9445134645669291
21
-4.9953906299212596
0
LINE
8
BLACK
6
CONTINUOUS
10
1.9445134645669291
20
-4.9953906299212596
11
1.9425622834645668
21
-4.9986983858267715
0
LINE
8
BLACK
6
CONTINUOUS
10
1.9425622834645668
20
-4.9986983858267715
11
1.9394937795275591
21
-5.0010076771653544
0
LINE
8
BLACK
6
CONTINUOUS
10
1.9394937795275591
20
-5.0010076771653544
11
1.8933811811023622
21
-5.0232143307086616
0
LINE
8
BLACK
6
CONTINUOUS
10
1.8933811811023622
20
-5.0232143307086616
11
1.8896625590551182
21
-5.0241735433070867
0
LINE
8
BLACK
6
CONTINUOUS
10
1.8896625590551182
20
-5.0241735433070867
11
1.8858599212598426
21
-5.0236367322834647
0
LINE
8
BLACK
6
CONTINUOUS
10
1.8858599212598426
20
-5.0236367322834647
11
1.8825521653543307
21
-5.0216855118110235
0
LINE
8
BLACK
6
CONTINUOUS
10
1.8825521653543307
20
-5.0216855118110235
11
1.880242874015748
21
-5.018617007874016
0
LINE
8
BLACK
6
CONTINUOUS
10
1.880242874015748
20
-5.018617007874016
11
1.8691395669291337
21
-4.9955607086614169
0
LINE
8
BLACK
6
CONTINUOUS
10
1.8691395669291337
20
-4.9955607086614169
11
1.86818031496063
21
-4.9918420866141728
0
LINE
8
BLACK
6
CONTINUOUS
10
1.86818031496063
20
-4.9918420866141728
11
1.8687171653543306
21
-4.9880394488188973
0
LINE
8
BLACK
6
CONTINUOUS
10
1.8687171653543306
20
-4.9880394488188973
11
1.8706683464566929
21
-4.9847316929133854
0
LINE
8
BLACK
6
CONTINUOUS
10
1.8706683464566929
20
-4.9847316929133854
11
1.8737368503937006
21
-4.9824224015748033
0
LINE
8
BLACK
6
CONTINUOUS
10
1.8737368503937006
20
-4.9824224015748033
11
1.9198494488188975
21
-4.9602157480314961
0
LINE
8
BLACK
6
CONTINUOUS
10
1.9198494488188975
20
-4.9602157480314961
11
1.9235680708661418
21
-4.9592565354330711
0
LINE
8
BLACK
6
CONTINUOUS
10
1.9235680708661418
20
-4.9592565354330711
11
1.9273707086614174
21
-4.959793346456693
0
LINE
8
BLACK
6
CONTINUOUS
10
1.8144713779527559
20
-4.9641224409448821
11
1.8252372047244094
21
-4.9689801574803152
0
LINE
8
BLACK
6
CONTINUOUS
10
1.8252372047244094
20
-4.9689801574803152
11
1.8271122834645668
21
-4.9703194094488188
0
LINE
8
BLACK
6
CONTINUOUS
10
1.8271122834645668
20
-4.9703194094488188
11
1.8283320866141732
21
-4.9722742519685035
0
LINE
8
BLACK
6
CONTINUOUS
10
1.8283320866141732
20
-4.9722742519685035
11
1.8287109842519684
21
-4.974547086614173
0
LINE
8
BLACK
6
CONTINUOUS
10
1.8287109842519684
20
-4.974547086614173
11
1.8281912598425196
21
-4.9767919291338583
0
LINE
8
BLACK
6
CONTINUOUS
10
1.8281912598425196
20
-4.9767919291338583
11
1.8091651968503937
21
-5.0189580708661419
0
LINE
8
BLACK
6
CONTINUOUS
10
1.8091651968503937
20
-5.0189580708661419
11
1.8078259448818896
21
-5.0208331496062995
0
LINE
8
BLACK
6
CONTINUOUS
10
1.8078259448818896
20
-5.0208331496062995
11
1.8058711023622047
21
-5.0220529527559057
0
LINE
8
BLACK
6
CONTINUOUS
10
1.8058711023622047
20
-5.0220529527559057
11
1.8035982677165354
21
-5.0224318503937004
0
LINE
8
BLACK
6
CONTINUOUS
10
1.8035982677165354
20
-5.0224318503937004
11
1.8013534251968504
21
-5.0219121259842519
0
LINE
8
BLACK
6
CONTINUOUS
10
1.8013534251968504
20
-5.0219121259842519
11
1.7905875984251969
21
-5.0170544094488188
0
LINE
8
BLACK
6
CONTINUOUS
10
1.7905875984251969
20
-5.0170544094488188
11
1.7887125196850393
21
-5.0157151574803152
0
LINE
8
BLACK
6
CONTINUOUS
10
1.7887125196850393
20
-5.0157151574803152
11
1.7874927165354331
21
-5.0137603149606296
0
LINE
8
BLACK
6
CONTINUOUS
10
1.7874927165354331
20
-5.0137603149606296
11
1.7871138188976377
21
-5.0114874803149609
0
LINE
8
BLACK
6
CONTINUOUS
10
1.7871138188976377
20
-5.0114874803149609
11
1.7876335433070867
21
-5.0092426377952757
0
LINE
8
BLACK
6
CONTINUOUS
10
1.7876335433070867
20
-5.0092426377952757
11
1.8066596062992126
21
-4.9670764960629921
0
LINE
8
BLACK
6
CONTINUOUS
10
1.8066596062992126
20
-4.9670764960629921
11
1.8079988582677164
21
-4.9652014173228345
0
LINE
8
BLACK
6
CONTINUOUS
10
1.8079988582677164
20
-4.9652014173228345
11
1.8099537007874016
21
-4.9639816141732283
0
LINE
8
BLACK
6
CONTINUOUS
10
1.8099537007874016
20
-4.9639816141732283
11
1.8122265354330709
21
-4.9636027165354326
0
LINE
8
BLACK
6
CONTINUOUS
10
1.8122265354330709
20
-4.9636027165354326
11
1.8144713779527559
21
-4.9641224409448821
0
LINE
8
BLACK
6
CONTINUOUS
10
1.6853292913385827
20
-4.9586680314960629
11
1.7053653937007873
21
-4.9668796062992122
0
LINE
8
BLACK
6
CONTINUOUS
10
1.7053653937007873
20
-4.9668796062992122
11
1.7079262992125983
21
-4.9685769291338584
0
LINE
8
BLACK
6
CONTINUOUS
10
1.7079262992125983
20
-4.9685769291338584
11
1.7096426771653543
21
-4.9711250393700785
0
LINE
8
BLACK
6
CONTINUOUS
10
1.7096426771653543
20
-4.9711250393700785
11
1.7102533464566929
21
-4.9741360236220471
0
LINE
8
BLACK
6
CONTINUOUS
10
1.7102533464566929
20
-4.9741360236220471
11
1.7096652362204725
21
-4.9771514960629917
0
LINE
8
BLACK
6
CONTINUOUS
10
1.7096652362204725
20
-4.9771514960629917
11
1.7036931496062993
21
-4.9917232283464568
0
LINE
8
BLACK
6
CONTINUOUS
10
1.7036931496062993
20
-4.9917232283464568
11
1.7019958661417323
21
-4.994284133858268
0
LINE
8
BLACK
6
CONTINUOUS
10
1.7019958661417323
20
-4.994284133858268
11
1.6994477559055117
21
-4.9960005118110233
0
LINE
8
BLACK
6
CONTINUOUS
10
1.6994477559055117
20
-4.9960005118110233
11
1.6964367716535433
21
-4.9966111811023621
0
LINE
8
BLACK
6
CONTINUOUS
10
1.6964367716535433
20
-4.9966111811023621
11
1.6934212598425196
21
-4.9960230708661415
0
LINE
8
BLACK
6
CONTINUOUS
10
1.6934212598425196
20
-4.9960230708661415
11
1.6733851574803149
21
-4.9878114960629922
0
LINE
8
BLACK
6
CONTINUOUS
10
1.6733851574803149
20
-4.9878114960629922
11
1.6708242519685039
21
-4.986114173228346
0
LINE
8
BLACK
6
CONTINUOUS
10
1.6708242519685039
20
-4.986114173228346
11
1.6691078740157479
21
-4.9835660629921259
0
LINE
8
BLACK
6
CONTINUOUS
10
1.6691078740157479
20
-4.9835660629921259
11
1.6684972047244093
21
-4.9805550787401573
0
LINE
8
BLACK
6
CONTINUOUS
10
1.6684972047244093
20
-4.9805550787401573
11
1.66908531496063
21
-4.9775396062992128
0
LINE
8
BLACK
6
CONTINUOUS
10
1.66908531496063
20
-4.9775396062992128
11
1.6750574015748032
21
-4.9629678740157477
0
LINE
8
BLACK
6
CONTINUOUS
10
1.6750574015748032
20
-4.9629678740157477
11
1.67675468503937
21
-4.9604069685039365
0
LINE
8
BLACK
6
CONTINUOUS
10
1.67675468503937
20
-4.9604069685039365
11
1.6793027952755906
21
-4.9586905905511811
0
LINE
8
BLACK
6
CONTINUOUS
10
1.6793027952755906
20
-4.9586905905511811
11
1.6823137795275591
21
-4.9580799212598423
0
LINE
8
BLACK
6
CONTINUOUS
10
1.6823137795275591
20
-4.9580799212598423
11
1.6853292913385827
21
-4.9586680314960629
0
LINE
8
BLACK
6
CONTINUOUS
10
2.1124099606299214
20
-4.956929330708661
11
2.1141232677165354
21
-4.9584700393700789
0
LINE
8
BLACK
6
CONTINUOUS
10
2.1141232677165354
20
-4.9584700393700789
11
2.1151165748031495
21
-4.9605492125984254
0
LINE
8
BLACK
6
CONTINUOUS
10
2.1151165748031495
20
-4.9605492125984254
11
2.1180310236220472
21
-4.9719949999999997
0
LINE
8
BLACK
6
CONTINUOUS
10
2.1180310236220472
20
-4.9719949999999997
11
2.1181530708661418
21
-4.9742959842519685
0
LINE
8
BLACK
6
CONTINUOUS
10
2.1181530708661418
20
-4.9742959842519685
11
2.1173852362204726
21
-4.9764685039370073
0
LINE
8
BLACK
6
CONTINUOUS
10
2.1173852362204726
20
-4.9764685039370073
11
2.1158445275590552
21
-4.9781818503937005
0
LINE
8
BLACK
6
CONTINUOUS
10
2.1158445275590552
20
-4.9781818503937005
11
2.1137653543307087
21
-4.9791751181102359
0
LINE
8
BLACK
6
CONTINUOUS
10
2.1137653543307087
20
-4.9791751181102359
11
2.0689359842519686
21
-4.9905900787401576
0
LINE
8
BLACK
6
CONTINUOUS
10
2.0689359842519686
20
-4.9905900787401576
11
2.0666349999999998
21
-4.9907121259842517
0
LINE
8
BLACK
6
CONTINUOUS
10
2.0666349999999998
20
-4.9907121259842517
11
2.0644624803149605
21
-4.989944291338583
0
LINE
8
BLACK
6
CONTINUOUS
10
2.0644624803149605
20
-4.989944291338583
11
2.0627491732283465
21
-4.9884035826771651
0
LINE
8
BLACK
6
CONTINUOUS
10
2.0627491732283465
20
-4.9884035826771651
11
2.0617558661417323
21
-4.9863244094488186
0
LINE
8
BLACK
6
CONTINUOUS
10
2.0617558661417323
20
-4.9863244094488186
11
2.0588414173228347
21
-4.9748786220472443
0
LINE
8
BLACK
6
CONTINUOUS
10
2.0588414173228347
20
-4.9748786220472443
11
2.0587193700787401
21
-4.9725776377952755
0
LINE
8
BLACK
6
CONTINUOUS
10
2.0587193700787401
20
-4.9725776377952755
11
2.0594872047244093
21
-4.9704051181102358
0
LINE
8
BLACK
6
CONTINUOUS
10
2.0594872047244093
20
-4.9704051181102358
11
2.0610279133858267
21
-4.9686917716535435
0
LINE
8
BLACK
6
CONTINUOUS
10
2.0610279133858267
20
-4.9686917716535435
11
2.0631070866141732
21
-4.9676985039370081
0
LINE
8
BLACK
6
CONTINUOUS
10
2.0631070866141732
20
-4.9676985039370081
11
2.1079364566929133
21
-4.9562835433070864
0
LINE
8
BLACK
6
CONTINUOUS
10
2.1079364566929133
20
-4.9562835433070864
11
2.1102374409448816
21
-4.9561614960629923
0
LINE
8
BLACK
6
CONTINUOUS
10
2.1102374409448816
20
-4.9561614960629923
11
2.1124099606299214
21
-4.956929330708661
0
LINE
8
BLACK
6
CONTINUOUS
10
2.2344571653543306
20
-4.9435462598425195
11
2.2368290551181103
21
-4.9454990157480312
0
LINE
8
BLACK
6
CONTINUOUS
10
2.2368290551181103
20
-4.9454990157480312
11
2.2468005118110237
21
-4.9576879527559052
0
LINE
8
BLACK
6
CONTINUOUS
10
2.2468005118110237
20
-4.9576879527559052
11
2.248244566929134
21
-4.9603997637795274
0
LINE
8
BLACK
6
CONTINUOUS
10
2.248244566929134
20
-4.9603997637795274
11
2.2485409055118111
21
-4.963457677165354
0
LINE
8
BLACK
6
CONTINUOUS
10
2.2485409055118111
20
-4.963457677165354
11
2.2476444881889761
21
-4.9663962992125983
0
LINE
8
BLACK
6
CONTINUOUS
10
2.2476444881889761
20
-4.9663962992125983
11
2.2456917716535432
21
-4.9687681889763775
0
LINE
8
BLACK
6
CONTINUOUS
10
2.2456917716535432
20
-4.9687681889763775
11
2.2289319685039368
21
-4.9824789370078735
0
LINE
8
BLACK
6
CONTINUOUS
10
2.2289319685039368
20
-4.9824789370078735
11
2.2262201968503939
21
-4.9839229921259838
0
LINE
8
BLACK
6
CONTINUOUS
10
2.2262201968503939
20
-4.9839229921259838
11
2.223162244094488
21
-4.9842193307086617
0
LINE
8
BLACK
6
CONTINUOUS
10
2.223162244094488
20
-4.9842193307086617
11
2.2202236220472442
21
-4.9833229527559055
0
LINE
8
BLACK
6
CONTINUOUS
10
2.2202236220472442
20
-4.9833229527559055
11
2.2178517322834645
21
-4.9813701968503938
0
LINE
8
BLACK
6
CONTINUOUS
10
2.2178517322834645
20
-4.9813701968503938
11
2.2078802755905511
21
-4.9691812598425198
0
LINE
8
BLACK
6
CONTINUOUS
10
2.2078802755905511
20
-4.9691812598425198
11
2.2064362204724408
21
-4.9664694488188976
0
LINE
8
BLACK
6
CONTINUOUS
10
2.2064362204724408
20
-4.9664694488188976
11
2.2061398818897637
21
-4.963411535433071
0
LINE
8
BLACK
6
CONTINUOUS
10
2.2061398818897637
20
-4.963411535433071
11
2.2070362992125983
21
-4.9604729133858267
0
LINE
8
BLACK
6
CONTINUOUS
10
2.2070362992125983
20
-4.9604729133858267
11
2.2089890157480316
21
-4.9581010236220475
0
LINE
8
BLACK
6
CONTINUOUS
10
2.2089890157480316
20
-4.9581010236220475
11
2.2257488188976375
21
-4.9443902755905507
0
LINE
8
BLACK
6
CONTINUOUS
10
2.2257488188976375
20
-4.9443902755905507
11
2.228460590551181
21
-4.9429462204724413
0
LINE
8
BLACK
6
CONTINUOUS
10
2.228460590551181
20
-4.9429462204724413
11
2.2315185433070868
21
-4.9426498818897633
0
LINE
8
BLACK
6
CONTINUOUS
10
2.2315185433070868
20
-4.9426498818897633
11
2.2344571653543306
21
-4.9435462598425195
0
LINE
8
BLACK
6
CONTINUOUS
10
2.0316446456692914
20
-4.9388996456692915
11
2.0333579527559054
21
-4.9404403543307085
0
LINE
8
BLACK
6
CONTINUOUS
10
2.0333579527559054
20
-4.9404403543307085
11
2.0343512598425195
21
-4.942519527559055
0
LINE
8
BLACK
6
CONTINUOUS
10
2.0343512598425195
20
-4.942519527559055
11
2.0372657086614172
21
-4.9539653149606302
0
LINE
8
BLACK
6
CONTINUOUS
10
2.0372657086614172
20
-4.9539653149606302
11
2.0373877559055118
21
-4.9562662992125981
0
LINE
8
BLACK
6
CONTINUOUS
10
2.0373877559055118
20
-4.9562662992125981
11
2.0366199212598426
21
-4.9584388188976378
0
LINE
8
BLACK
6
CONTINUOUS
10
2.0366199212598426
20
-4.9584388188976378
11
2.0350792125984252
21
-4.960152165354331
0
LINE
8
BLACK
6
CONTINUOUS
10
2.0350792125984252
20
-4.960152165354331
11
2.0330000393700787
21
-4.9611454330708664
0
LINE
8
BLACK
6
CONTINUOUS
10
2.0330000393700787
20
-4.9611454330708664
11
1.9881706692913386
21
-4.9725603937007872
0
LINE
8
BLACK
6
CONTINUOUS
10
1.9881706692913386
20
-4.9725603937007872
11
1.98586968503937
21
-4.9726824409448822
0
LINE
8
BLACK
6
CONTINUOUS
10
1.98586968503937
20
-4.9726824409448822
11
1.9836971653543307
21
-4.9719146062992126
0
LINE
8
BLACK
6
CONTINUOUS
10
1.9836971653543307
20
-4.9719146062992126
11
1.9819838582677165
21
-4.9703738976377956
0
LINE
8
BLACK
6
CONTINUOUS
10
1.9819838582677165
20
-4.9703738976377956
11
1.9809905511811023
21
-4.9682947244094491
0
LINE
8
BLACK
6
CONTINUOUS
10
1.9809905511811023
20
-4.9682947244094491
11
1.9780761023622047
21
-4.9568489370078739
0
LINE
8
BLACK
6
CONTINUOUS
10
1.9780761023622047
20
-4.9568489370078739
11
1.9779540551181103
21
-4.9545479527559051
0
LINE
8
BLACK
6
CONTINUOUS
10
1.9779540551181103
20
-4.9545479527559051
11
1.9787218897637795
21
-4.9523754330708663
0
LINE
8
BLACK
6
CONTINUOUS
10
1.9787218897637795
20
-4.9523754330708663
11
1.9802625984251967
21
-4.9506620866141731
0
LINE
8
BLACK
6
CONTINUOUS
10
1.9802625984251967
20
-4.9506620866141731
11
1.9823417716535432
21
-4.9496688188976377
0
LINE
8
BLACK
6
CONTINUOUS
10
1.9823417716535432
20
-4.9496688188976377
11
2.0271711417322833
21
-4.938253858267716
0
LINE
8
BLACK
6
CONTINUOUS
10
2.0271711417322833
20
-4.938253858267716
11
2.0294721259842521
21
-4.9381318110236219
0
LINE
8
BLACK
6
CONTINUOUS
10
2.0294721259842521
20
-4.9381318110236219
11
2.0316446456692914
21
-4.9388996456692915
0
LINE
8
BLACK
6
CONTINUOUS
10
1.7099639370078741
20
-4.8985596850393698
11
1.7300000393700787
21
-4.9067712598425199
0
LINE
8
BLACK
6
CONTINUOUS
10
1.7300000393700787
20
-4.9067712598425199
11
1.7325609448818897
21
-4.9084685826771652
0
LINE
8
BLACK
6
CONTINUOUS
10
1.7325609448818897
20
-4.9084685826771652
11
1.7342773228346455
21
-4.9110166929133854
0
LINE
8
BLACK
6
CONTINUOUS
10
1.7342773228346455
20
-4.9110166929133854
11
1.7348879921259841
21
-4.9140276771653539
0
LINE
8
BLACK
6
CONTINUOUS
10
1.7348879921259841
20
-4.9140276771653539
11
1.7342998818897637
21
-4.9170431496062994
0
LINE
8
BLACK
6
CONTINUOUS
10
1.7342998818897637
20
-4.9170431496062994
11
1.7283277952755904
21
-4.9316148818897636
0
LINE
8
BLACK
6
CONTINUOUS
10
1.7283277952755904
20
-4.9316148818897636
11
1.7266305118110237
21
-4.9341757874015748
0
LINE
8
BLACK
6
CONTINUOUS
10
1.7266305118110237
20
-4.9341757874015748
11
1.7240824015748031
21
-4.9358921653543302
0
LINE
8
BLACK
6
CONTINUOUS
10
1.7240824015748031
20
-4.9358921653543302
11
1.7210714173228345
21
-4.936502834645669
0
LINE
8
BLACK
6
CONTINUOUS
10
1.7210714173228345
20
-4.936502834645669
11
1.718055905511811
21
-4.9359147244094483
0
LINE
8
BLACK
6
CONTINUOUS
10
1.718055905511811
20
-4.9359147244094483
11
1.6980198031496063
21
-4.9277031496062991
0
LINE
8
BLACK
6
CONTINUOUS
10
1.6980198031496063
20
-4.9277031496062991
11
1.6954588976377953
21
-4.9260058267716538
0
LINE
8
BLACK
6
CONTINUOUS
10
1.6954588976377953
20
-4.9260058267716538
11
1.6937425196850393
21
-4.9234577165354327
0
LINE
8
BLACK
6
CONTINUOUS
10
1.6937425196850393
20
-4.9234577165354327
11
1.6931318503937007
21
-4.9204467322834642
0
LINE
8
BLACK
6
CONTINUOUS
10
1.6931318503937007
20
-4.9204467322834642
11
1.6937199606299211
21
-4.9174312598425196
0
LINE
8
BLACK
6
CONTINUOUS
10
1.6937199606299211
20
-4.9174312598425196
11
1.6996920472440944
21
-4.9028595275590554
0
LINE
8
BLACK
6
CONTINUOUS
10
1.6996920472440944
20
-4.9028595275590554
11
1.7013893307086614
21
-4.9002986220472442
0
LINE
8
BLACK
6
CONTINUOUS
10
1.7013893307086614
20
-4.9002986220472442
11
1.7039374409448818
21
-4.8985822440944879
0
LINE
8
BLACK
6
CONTINUOUS
10
1.7039374409448818
20
-4.8985822440944879
11
1.7069484251968503
21
-4.8979715748031492
0
LINE
8
BLACK
6
CONTINUOUS
10
1.7069484251968503
20
-4.8979715748031492
11
1.7099639370078741
21
-4.8985596850393698
0
LINE
8
BLACK
6
CONTINUOUS
10
2.1933248818897639
20
-4.8932668897637797
11
2.1956967716535432
21
-4.8952196456692914
0
LINE
8
BLACK
6
CONTINUOUS
10
2.1956967716535432
20
-4.8952196456692914
11
2.2056682283464566
21
-4.9074085826771654
0
LINE
8
BLACK
6
CONTINUOUS
10
2.2056682283464566
20
-4.9074085826771654
11
2.2071122834645669
21
-4.9101203937007876
0
LINE
8
BLACK
6
CONTINUOUS
10
2.2071122834645669
20
-4.9101203937007876
11
2.207408622047244
21
-4.9131783070866142
0
LINE
8
BLACK
6
CONTINUOUS
10
2.207408622047244
20
-4.9131783070866142
11
2.2065122047244095
21
-4.9161169291338584
0
LINE
8
BLACK
6
CONTINUOUS
10
2.2065122047244095
20
-4.9161169291338584
11
2.2045594881889765
21
-4.9184888188976377
0
LINE
8
BLACK
6
CONTINUOUS
10
2.2045594881889765
20
-4.9184888188976377
11
2.1877996850393702
21
-4.9321995669291336
0
LINE
8
BLACK
6
CONTINUOUS
10
2.1877996850393702
20
-4.9321995669291336
11
2.1850879133858268
21
-4.9336436220472439
0
LINE
8
BLACK
6
CONTINUOUS
10
2.1850879133858268
20
-4.9336436220472439
11
2.1820299606299214
21
-4.933939960629921
0
LINE
8
BLACK
6
CONTINUOUS
10
2.1820299606299214
20
-4.933939960629921
11
2.1790913385826771
21
-4.9330435826771648
0
LINE
8
BLACK
6
CONTINUOUS
10
2.1790913385826771
20
-4.9330435826771648
11
2.1767194488188975
21
-4.9310908267716531
0
LINE
8
BLACK
6
CONTINUOUS
10
2.1767194488188975
20
-4.9310908267716531
11
2.166747992125984
21
-4.9189018897637791
0
LINE
8
BLACK
6
CONTINUOUS
10
2.166747992125984
20
-4.9189018897637791
11
2.1653039370078742
21
-4.9161900787401578
0
LINE
8
BLACK
6
CONTINUOUS
10
2.1653039370078742
20
-4.9161900787401578
11
2.1650075984251966
21
-4.9131321653543303
0
LINE
8
BLACK
6
CONTINUOUS
10
2.1650075984251966
20
-4.9131321653543303
11
2.1659040157480316
21
-4.9101935433070869
0
LINE
8
BLACK
6
CONTINUOUS
10
2.1659040157480316
20
-4.9101935433070869
11
2.1678567322834645
21
-4.9078216535433068
0
LINE
8
BLACK
6
CONTINUOUS
10
2.1678567322834645
20
-4.9078216535433068
11
2.1846165354330709
21
-4.8941109055118108
0
LINE
8
BLACK
6
CONTINUOUS
10
2.1846165354330709
20
-4.8941109055118108
11
2.1873283070866143
21
-4.8926668503937005
0
LINE
8
BLACK
6
CONTINUOUS
10
2.1873283070866143
20
-4.8926668503937005
11
2.1903862598425197
21
-4.8923705118110234
0
LINE
8
BLACK
6
CONTINUOUS
10
2.1903862598425197
20
-4.8923705118110234
11
2.1933248818897639
21
-4.8932668897637797
0
LINE
8
BLACK
6
CONTINUOUS
10
1.8324028740157481
20
-4.8607554330708664
11
1.8349784251968504
21
-4.8624303543307086
0
LINE
8
BLACK
6
CONTINUOUS
10
1.8349784251968504
20
-4.8624303543307086
11
1.8367170472440943
21
-4.8649633858267718
0
LINE
8
BLACK
6
CONTINUOUS
10
1.8367170472440943
20
-4.8649633858267718
11
1.837353937007874
21
-4.8679689370078743
0
LINE
8
BLACK
6
CONTINUOUS
10
1.837353937007874
20
-4.8679689370078743
11
1.8376238582677165
21
-4.8896207874015749
0
LINE
8
BLACK
6
CONTINUOUS
10
1.8376238582677165
20
-4.8896207874015749
11
1.8370620866141731
21
-4.892641299212598
0
LINE
8
BLACK
6
CONTINUOUS
10
1.8370620866141731
20
-4.892641299212598
11
1.8353872047244093
21
-4.8952168503937008
0
LINE
8
BLACK
6
CONTINUOUS
10
1.8353872047244093
20
-4.8952168503937008
11
1.8328541732283463
21
-4.8969554724409452
0
LINE
8
BLACK
6
CONTINUOUS
10
1.8328541732283463
20
-4.8969554724409452
11
1.8298486220472441
21
-4.8975923622047244
0
LINE
8
BLACK
6
CONTINUOUS
10
1.8298486220472441
20
-4.8975923622047244
11
1.814101811023622
21
-4.8977886614173229
0
LINE
8
BLACK
6
CONTINUOUS
10
1.814101811023622
20
-4.8977886614173229
11
1.8110812992125984
21
-4.8972269291338586
0
LINE
8
BLACK
6
CONTINUOUS
10
1.8110812992125984
20
-4.8972269291338586
11
1.8085057480314961
21
-4.8955520078740156
0
LINE
8
BLACK
6
CONTINUOUS
10
1.8085057480314961
20
-4.8955520078740156
11
1.8067671259842519
21
-4.8930189763779524
0
LINE
8
BLACK
6
CONTINUOUS
10
1.8067671259842519
20
-4.8930189763779524
11
1.8061302362204723
21
-4.8900134251968499
0
LINE
8
BLACK
6
CONTINUOUS
10
1.8061302362204723
20
-4.8900134251968499
11
1.8058603149606298
21
-4.8683615748031492
0
LINE
8
BLACK
6
CONTINUOUS
10
1.8058603149606298
20
-4.8683615748031492
11
1.8064220866141731
21
-4.8653410629921261
0
LINE
8
BLACK
6
CONTINUOUS
10
1.8064220866141731
20
-4.8653410629921261
11
1.808096968503937
21
-4.8627655118110233
0
LINE
8
BLACK
6
CONTINUOUS
10
1.808096968503937
20
-4.8627655118110233
11
1.81063
21
-4.8610268897637798
0
LINE
8
BLACK
6
CONTINUOUS
10
1.81063
20
-4.8610268897637798
11
1.8136355511811024
21
-4.8603899999999998
0
LINE
8
BLACK
6
CONTINUOUS
10
1.8136355511811024
20
-4.8603899999999998
11
1.8293823622047243
21
-4.8601937007874012
0
LINE
8
BLACK
6
CONTINUOUS
10
1.8293823622047243
20
-4.8601937007874012
11
1.8324028740157481
21
-4.8607554330708664
0
LINE
8
BLACK
6
CONTINUOUS
10
1.897358464566929
20
-4.859945590551181
11
1.8999340157480316
21
-4.8616205118110232
0
LINE
8
BLACK
6
CONTINUOUS
10
1.8999340157480316
20
-4.8616205118110232
11
1.9016726377952755
21
-4.8641535433070864
0
LINE
8
BLACK
6
CONTINUOUS
10
1.9016726377952755
20
-4.8641535433070864
11
1.9023095275590551
21
-4.8671590944881888
0
LINE
8
BLACK
6
CONTINUOUS
10
1.9023095275590551
20
-4.8671590944881888
11
1.9025794488188976
21
-4.8888109448818895
0
LINE
8
BLACK
6
CONTINUOUS
10
1.9025794488188976
20
-4.8888109448818895
11
1.9020176771653543
21
-4.8918314566929135
0
LINE
8
BLACK
6
CONTINUOUS
10
1.9020176771653543
20
-4.8918314566929135
11
1.9003427952755905
21
-4.8944070078740154
0
LINE
8
BLACK
6
CONTINUOUS
10
1.9003427952755905
20
-4.8944070078740154
11
1.8978097637795275
21
-4.8961456299212598
0
LINE
8
BLACK
6
CONTINUOUS
10
1.8978097637795275
20
-4.8961456299212598
11
1.8948042125984252
21
-4.896782519685039
0
LINE
8
BLACK
6
CONTINUOUS
10
1.8948042125984252
20
-4.896782519685039
11
1.8790574015748032
21
-4.8969788188976375
0
LINE
8
BLACK
6
CONTINUOUS
10
1.8790574015748032
20
-4.8969788188976375
11
1.8760368897637796
21
-4.8964170866141732
0
LINE
8
BLACK
6
CONTINUOUS
10
1.8760368897637796
20
-4.8964170866141732
11
1.873461338582677
21
-4.8947421653543302
0
LINE
8
BLACK
6
CONTINUOUS
10
1.873461338582677
20
-4.8947421653543302
11
1.8717227165354331
21
-4.8922091338582678
0
LINE
8
BLACK
6
CONTINUOUS
10
1.8717227165354331
20
-4.8922091338582678
11
1.8710858267716535
21
-4.8892035826771654
0
LINE
8
BLACK
6
CONTINUOUS
10
1.8710858267716535
20
-4.8892035826771654
11
1.870815905511811
21
-4.8675517322834647
0
LINE
8
BLACK
6
CONTINUOUS
10
1.870815905511811
20
-4.8675517322834647
11
1.8713776771653543
21
-4.8645312204724407
0
LINE
8
BLACK
6
CONTINUOUS
10
1.8713776771653543
20
-4.8645312204724407
11
1.8730525590551181
21
-4.8619556692913388
0
LINE
8
BLACK
6
CONTINUOUS
10
1.8730525590551181
20
-4.8619556692913388
11
1.8755855905511811
21
-4.8602170472440944
0
LINE
8
BLACK
6
CONTINUOUS
10
1.8755855905511811
20
-4.8602170472440944
11
1.8785911417322834
21
-4.8595801574803152
0
LINE
8
BLACK
6
CONTINUOUS
10
1.8785911417322834
20
-4.8595801574803152
11
1.8943379527559054
21
-4.8593838582677167
0
LINE
8
BLACK
6
CONTINUOUS
10
1.8943379527559054
20
-4.8593838582677167
11
1.897358464566929
21
-4.859945590551181
0
LINE
8
BLACK
6
CONTINUOUS
10
2.0350871259842518
20
-4.8514834251968502
11
2.0374418503937006
21
-4.8534567716535433
0
LINE
8
BLACK
6
CONTINUOUS
10
2.0374418503937006
20
-4.8534567716535433
11
2.0388622047244094
21
-4.8561810236220468
0
LINE
8
BLACK
6
CONTINUOUS
10
2.0388622047244094
20
-4.8561810236220468
11
2.0449344488188976
21
-4.8769657480314956
0
LINE
8
BLACK
6
CONTINUOUS
10
2.0449344488188976
20
-4.8769657480314956
11
2.0452041338582676
21
-4.8800261811023624
0
LINE
8
BLACK
6
CONTINUOUS
10
2.0452041338582676
20
-4.8800261811023624
11
2.0442820472440943
21
-4.8829568110236217
0
LINE
8
BLACK
6
CONTINUOUS
10
2.0442820472440943
20
-4.8829568110236217
11
2.0423087401574804
21
-4.8853115748031497
0
LINE
8
BLACK
6
CONTINUOUS
10
2.0423087401574804
20
-4.8853115748031497
11
2.0395844488188977
21
-4.8867318897637793
0
LINE
8
BLACK
6
CONTINUOUS
10
2.0395844488188977
20
-4.8867318897637793
11
2.0244683070866141
21
-4.8911480708661417
0
LINE
8
BLACK
6
CONTINUOUS
10
2.0244683070866141
20
-4.8911480708661417
11
2.0214078740157482
21
-4.8914177559055121
0
LINE
8
BLACK
6
CONTINUOUS
10
2.0214078740157482
20
-4.8914177559055121
11
2.0184772047244093
21
-4.8904957086614171
0
LINE
8
BLACK
6
CONTINUOUS
10
2.0184772047244093
20
-4.8904957086614171
11
2.0161224803149604
21
-4.888522362204724
0
LINE
8
BLACK
6
CONTINUOUS
10
2.0161224803149604
20
-4.888522362204724
11
2.0147021259842521
21
-4.8857981102362205
0
LINE
8
BLACK
6
CONTINUOUS
10
2.0147021259842521
20
-4.8857981102362205
11
2.0086298818897639
21
-4.8650133858267717
0
LINE
8
BLACK
6
CONTINUOUS
10
2.0086298818897639
20
-4.8650133858267717
11
2.0083601968503935
21
-4.8619529527559058
0
LINE
8
BLACK
6
CONTINUOUS
10
2.0083601968503935
20
-4.8619529527559058
11
2.0092822834645667
21
-4.8590223228346456
0
LINE
8
BLACK
6
CONTINUOUS
10
2.0092822834645667
20
-4.8590223228346456
11
2.0112555905511811
21
-4.8566675590551176
0
LINE
8
BLACK
6
CONTINUOUS
10
2.0112555905511811
20
-4.8566675590551176
11
2.0139798818897638
21
-4.855247244094488
0
LINE
8
BLACK
6
CONTINUOUS
10
2.0139798818897638
20
-4.855247244094488
11
2.029096023622047
21
-4.8508310629921256
0
LINE
8
BLACK
6
CONTINUOUS
10
2.029096023622047
20
-4.8508310629921256
11
2.0321564566929133
21
-4.8505613779527561
0
LINE
8
BLACK
6
CONTINUOUS
10
2.0321564566929133
20
-4.8505613779527561
11
2.0350871259842518
21
-4.8514834251968502
0
LINE
8
BLACK
6
CONTINUOUS
10
2.0974412204724411
20
-4.8332666535433066
11
2.0997959448818899
21
-4.8352399999999998
0
LINE
8
BLACK
6
CONTINUOUS
10
2.0997959448818899
20
-4.8352399999999998
11
2.1012162992125982
21
-4.8379642519685042
0
LINE
8
BLACK
6
CONTINUOUS
10
2.1012162992125982
20
-4.8379642519685042
11
2.1072885433070865
21
-4.858748976377953
0
LINE
8
BLACK
6
CONTINUOUS
10
2.1072885433070865
20
-4.858748976377953
11
2.1075582283464565
21
-4.8618094094488189
0
LINE
8
BLACK
6
CONTINUOUS
10
2.1075582283464565
20
-4.8618094094488189
11
2.1066361417322832
21
-4.864740039370079
0
LINE
8
BLACK
6
CONTINUOUS
10
2.1066361417322832
20
-4.864740039370079
11
2.1046628346456693
21
-4.8670948031496062
0
LINE
8
BLACK
6
CONTINUOUS
10
2.1046628346456693
20
-4.8670948031496062
11
2.1019385433070865
21
-4.8685151181102357
0
LINE
8
BLACK
6
CONTINUOUS
10
2.1019385433070865
20
-4.8685151181102357
11
2.0868224015748029
21
-4.8729312992125982
0
LINE
8
BLACK
6
CONTINUOUS
10
2.0868224015748029
20
-4.8729312992125982
11
2.083761968503937
21
-4.8732009842519686
0
LINE
8
BLACK
6
CONTINUOUS
10
2.083761968503937
20
-4.8732009842519686
11
2.0808312992125986
21
-4.8722789370078736
0
LINE
8
BLACK
6
CONTINUOUS
10
2.0808312992125986
20
-4.8722789370078736
11
2.0784765748031497
21
-4.8703055905511814
0
LINE
8
BLACK
6
CONTINUOUS
10
2.0784765748031497
20
-4.8703055905511814
11
2.077056220472441
21
-4.8675813385826769
0
LINE
8
BLACK
6
CONTINUOUS
10
2.077056220472441
20
-4.8675813385826769
11
2.0709839763779527
21
-4.8467966141732282
0
LINE
8
BLACK
6
CONTINUOUS
10
2.0709839763779527
20
-4.8467966141732282
11
2.0707142913385828
21
-4.8437361811023623
0
LINE
8
BLACK
6
CONTINUOUS
10
2.0707142913385828
20
-4.8437361811023623
11
2.071636377952756
21
-4.8408055511811021
0
LINE
8
BLACK
6
CONTINUOUS
10
2.071636377952756
20
-4.8408055511811021
11
2.0736096850393699
21
-4.838450787401575
0
LINE
8
BLACK
6
CONTINUOUS
10
2.0736096850393699
20
-4.838450787401575
11
2.0763339763779527
21
-4.8370304724409445
0
LINE
8
BLACK
6
CONTINUOUS
10
2.0763339763779527
20
-4.8370304724409445
11
2.0914501181102363
21
-4.832614291338583
0
LINE
8
BLACK
6
CONTINUOUS
10
2.0914501181102363
20
-4.832614291338583
11
2.0945105511811022
21
-4.8323446062992126
0
LINE
8
BLACK
6
CONTINUOUS
10
2.0945105511811022
20
-4.8323446062992126
11
2.0974412204724411
21
-4.8332666535433066
0
LINE
8
BLACK
6
CONTINUOUS
10
1.7362076771653543
20
-4.8296879527559051
11
1.7391019685039371
21
-4.8313952362204722
0
LINE
8
BLACK
6
CONTINUOUS
10
1.7391019685039371
20
-4.8313952362204722
11
1.741122559055118
21
-4.8340801968503939
0
LINE
8
BLACK
6
CONTINUOUS
10
1.741122559055118
20
-4.8340801968503939
11
1.7498771259842518
21
-4.8522591732283464
0
LINE
8
BLACK
6
CONTINUOUS
10
1.7498771259842518
20
-4.8522591732283464
11
1.7507164566929134
21
-4.8555129921259841
0
LINE
8
BLACK
6
CONTINUOUS
10
1.7507164566929134
20
-4.8555129921259841
11
1.7502467322834645
21
-4.8588403149606298
0
LINE
8
BLACK
6
CONTINUOUS
10
1.7502467322834645
20
-4.8588403149606298
11
1.7485394094488189
21
-4.8617346062992128
0
LINE
8
BLACK
6
CONTINUOUS
10
1.7485394094488189
20
-4.8617346062992128
11
1.7458544881889764
21
-4.8637551968503931
0
LINE
8
BLACK
6
CONTINUOUS
10
1.7458544881889764
20
-4.8637551968503931
11
1.7303358267716535
21
-4.8712285826771655
0
LINE
8
BLACK
6
CONTINUOUS
10
1.7303358267716535
20
-4.8712285826771655
11
1.7270820078740157
21
-4.8720679527559057
0
LINE
8
BLACK
6
CONTINUOUS
10
1.7270820078740157
20
-4.8720679527559057
11
1.7237546850393701
21
-4.8715981889763782
0
LINE
8
BLACK
6
CONTINUOUS
10
1.7237546850393701
20
-4.8715981889763782
11
1.7208603937007874
21
-4.8698909055118111
0
LINE
8
BLACK
6
CONTINUOUS
10
1.7208603937007874
20
-4.8698909055118111
11
1.7188398031496062
21
-4.8672059448818894
0
LINE
8
BLACK
6
CONTINUOUS
10
1.7188398031496062
20
-4.8672059448818894
11
1.7100852362204724
21
-4.8490269685039369
0
LINE
8
BLACK
6
CONTINUOUS
10
1.7100852362204724
20
-4.8490269685039369
11
1.709245905511811
21
-4.8457731496062992
0
LINE
8
BLACK
6
CONTINUOUS
10
1.709245905511811
20
-4.8457731496062992
11
1.7097156299212597
21
-4.8424458267716535
0
LINE
8
BLACK
6
CONTINUOUS
10
1.7097156299212597
20
-4.8424458267716535
11
1.7114229527559055
21
-4.8395515354330705
0
LINE
8
BLACK
6
CONTINUOUS
10
1.7114229527559055
20
-4.8395515354330705
11
1.714107874015748
21
-4.8375309448818893
0
LINE
8
BLACK
6
CONTINUOUS
10
1.714107874015748
20
-4.8375309448818893
11
1.7296265354330709
21
-4.8300575590551178
0
LINE
8
BLACK
6
CONTINUOUS
10
1.7296265354330709
20
-4.8300575590551178
11
1.7328803543307085
21
-4.8292181889763777
0
LINE
8
BLACK
6
CONTINUOUS
10
1.7328803543307085
20
-4.8292181889763777
11
1.7362076771653543
21
-4.8296879527559051
0
LINE
8
BLACK
6
CONTINUOUS
10
2.2073813385826773
20
-4.8300575590551178
11
2.2229000000000001
21
-4.8375309448818893
0
LINE
8
BLACK
6
CONTINUOUS
10
2.2229000000000001
20
-4.8375309448818893
11
2.2255849212598426
21
-4.8395515354330705
0
LINE
8
BLACK
6
CONTINUOUS
10
2.2255849212598426
20
-4.8395515354330705
11
2.227292244094488
21
-4.8424458267716535
0
LINE
8
BLACK
6
CONTINUOUS
10
2.227292244094488
20
-4.8424458267716535
11
2.2277619685039372
21
-4.8457731496062992
0
LINE
8
BLACK
6
CONTINUOUS
10
2.2277619685039372
20
-4.8457731496062992
11
2.2269226377952753
21
-4.8490269685039369
0
LINE
8
BLACK
6
CONTINUOUS
10
2.2269226377952753
20
-4.8490269685039369
11
2.2181680708661418
21
-4.8672059448818894
0
LINE
8
BLACK
6
CONTINUOUS
10
2.2181680708661418
20
-4.8672059448818894
11
2.2161474803149606
21
-4.8698909055118111
0
LINE
8
BLACK
6
CONTINUOUS
10
2.2161474803149606
20
-4.8698909055118111
11
2.213253188976378
21
-4.8715981889763782
0
LINE
8
BLACK
6
CONTINUOUS
10
2.213253188976378
20
-4.8715981889763782
11
2.2099258661417323
21
-4.8720679527559057
0
LINE
8
BLACK
6
CONTINUOUS
10
2.2099258661417323
20
-4.8720679527559057
11
2.2066720472440946
21
-4.8712285826771655
0
LINE
8
BLACK
6
CONTINUOUS
10
2.2066720472440946
20
-4.8712285826771655
11
2.1911533858267718
21
-4.8637551968503931
0
LINE
8
BLACK
6
CONTINUOUS
10
2.1911533858267718
20
-4.8637551968503931
11
2.1884684645669292
21
-4.8617346062992128
0
LINE
8
BLACK
6
CONTINUOUS
10
2.1884684645669292
20
-4.8617346062992128
11
2.1867611417322834
21
-4.8588403149606298
0
LINE
8
BLACK
6
CONTINUOUS
10
2.1867611417322834
20
-4.8588403149606298
11
2.1862914173228347
21
-4.8555129921259841
0
LINE
8
BLACK
6
CONTINUOUS
10
2.1862914173228347
20
-4.8555129921259841
11
2.1871307480314961
21
-4.8522591732283464
0
LINE
8
BLACK
6
CONTINUOUS
10
2.1871307480314961
20
-4.8522591732283464
11
2.1958853149606297
21
-4.8340801968503939
0
LINE
8
BLACK
6
CONTINUOUS
10
2.1958853149606297
20
-4.8340801968503939
11
2.1979059055118109
21
-4.8313952362204722
0
LINE
8
BLACK
6
CONTINUOUS
10
2.1979059055118109
20
-4.8313952362204722
11
2.2008001968503939
21
-4.8296879527559051
0
LINE
8
BLACK
6
CONTINUOUS
10
2.2008001968503939
20
-4.8296879527559051
11
2.2041275196850392
21
-4.8292181889763777
0
LINE
8
BLACK
6
CONTINUOUS
10
2.2041275196850392
20
-4.8292181889763777
11
2.2073813385826773
21
-4.8300575590551178
0
LINE
8
BLACK
6
CONTINUOUS
10
1.7920748425196851
20
-4.8027837795275587
11
1.7949691338582676
21
-4.8044910629921258
0
LINE
8
BLACK
6
CONTINUOUS
10
1.7949691338582676
20
-4.8044910629921258
11
1.7969897244094488
21
-4.8071760236220475
0
LINE
8
BLACK
6
CONTINUOUS
10
1.7969897244094488
20
-4.8071760236220475
11
1.8057442913385826
21
-4.8253550000000001
0
LINE
8
BLACK
6
CONTINUOUS
10
1.8057442913385826
20
-4.8253550000000001
11
1.806583622047244
21
-4.8286088188976377
0
LINE
8
BLACK
6
CONTINUOUS
10
1.806583622047244
20
-4.8286088188976377
11
1.8061138976377953
21
-4.8319361417322835
0
LINE
8
BLACK
6
CONTINUOUS
10
1.8061138976377953
20
-4.8319361417322835
11
1.8044065748031495
21
-4.8348304330708665
0
LINE
8
BLACK
6
CONTINUOUS
10
1.8044065748031495
20
-4.8348304330708665
11
1.8017216535433072
21
-4.8368510236220468
0
LINE
8
BLACK
6
CONTINUOUS
10
1.8017216535433072
20
-4.8368510236220468
11
1.7862029921259841
21
-4.8443244094488191
0
LINE
8
BLACK
6
CONTINUOUS
10
1.7862029921259841
20
-4.8443244094488191
11
1.7829491732283465
21
-4.8451637795275593
0
LINE
8
BLACK
6
CONTINUOUS
10
1.7829491732283465
20
-4.8451637795275593
11
1.7796218503937007
21
-4.8446940157480318
0
LINE
8
BLACK
6
CONTINUOUS
10
1.7796218503937007
20
-4.8446940157480318
11
1.7767275590551181
21
-4.8429867322834648
0
LINE
8
BLACK
6
CONTINUOUS
10
1.7767275590551181
20
-4.8429867322834648
11
1.7747069685039369
21
-4.840301771653543
0
LINE
8
BLACK
6
CONTINUOUS
10
1.7747069685039369
20
-4.840301771653543
11
1.7659524015748032
21
-4.8221227952755905
0
LINE
8
BLACK
6
CONTINUOUS
10
1.7659524015748032
20
-4.8221227952755905
11
1.7651130708661418
21
-4.8188689763779529
0
LINE
8
BLACK
6
CONTINUOUS
10
1.7651130708661418
20
-4.8188689763779529
11
1.7655827952755905
21
-4.8155416535433071
0
LINE
8
BLACK
6
CONTINUOUS
10
1.7655827952755905
20
-4.8155416535433071
11
1.7672901181102363
21
-4.8126473622047241
0
LINE
8
BLACK
6
CONTINUOUS
10
1.7672901181102363
20
-4.8126473622047241
11
1.7699750393700786
21
-4.8106267716535429
0
LINE
8
BLACK
6
CONTINUOUS
10
1.7699750393700786
20
-4.8106267716535429
11
1.7854937007874014
21
-4.8031533858267714
0
LINE
8
BLACK
6
CONTINUOUS
10
1.7854937007874014
20
-4.8031533858267714
11
1.7887475196850393
21
-4.8023140157480313
0
LINE
8
BLACK
6
CONTINUOUS
10
1.7887475196850393
20
-4.8023140157480313
11
1.7920748425196851
21
-4.8027837795275587
0
LINE
8
BLACK
6
CONTINUOUS
10
2.1515141732283465
20
-4.8031533858267714
11
2.1670328346456693
21
-4.8106267716535429
0
LINE
8
BLACK
6
CONTINUOUS
10
2.1670328346456693
20
-4.8106267716535429
11
2.1697177559055119
21
-4.8126473622047241
0
LINE
8
BLACK
6
CONTINUOUS
10
2.1697177559055119
20
-4.8126473622047241
11
2.1714250787401572
21
-4.8155416535433071
0
LINE
8
BLACK
6
CONTINUOUS
10
2.1714250787401572
20
-4.8155416535433071
11
2.1718948031496064
21
-4.8188689763779529
0
LINE
8
BLACK
6
CONTINUOUS
10
2.1718948031496064
20
-4.8188689763779529
11
2.171055472440945
21
-4.8221227952755905
0
LINE
8
BLACK
6
CONTINUOUS
10
2.171055472440945
20
-4.8221227952755905
11
2.162300905511811
21
-4.840301771653543
0
LINE
8
BLACK
6
CONTINUOUS
10
2.162300905511811
20
-4.840301771653543
11
2.1602803149606298
21
-4.8429867322834648
0
LINE
8
BLACK
6
CONTINUOUS
10
2.1602803149606298
20
-4.8429867322834648
11
2.1573860236220472
21
-4.8446940157480318
0
LINE
8
BLACK
6
CONTINUOUS
10
2.1573860236220472
20
-4.8446940157480318
11
2.1540587007874015
21
-4.8451637795275593
0
LINE
8
BLACK
6
CONTINUOUS
10
2.1540587007874015
20
-4.8451637795275593
11
2.1508048818897638
21
-4.8443244094488191
0
LINE
8
BLACK
6
CONTINUOUS
10
2.1508048818897638
20
-4.8443244094488191
11
2.135286220472441
21
-4.8368510236220468
0
LINE
8
BLACK
6
CONTINUOUS
10
2.135286220472441
20
-4.8368510236220468
11
2.1326012992125984
21
-4.8348304330708665
0
LINE
8
BLACK
6
CONTINUOUS
10
2.1326012992125984
20
-4.8348304330708665
11
2.1308939763779526
21
-4.8319361417322835
0
LINE
8
BLACK
6
CONTINUOUS
10
2.1308939763779526
20
-4.8319361417322835
11
2.1304242519685039
21
-4.8286088188976377
0
LINE
8
BLACK
6
CONTINUOUS
10
2.1304242519685039
20
-4.8286088188976377
11
2.1312635826771653
21
-4.8253550000000001
0
LINE
8
BLACK
6
CONTINUOUS
10
2.1312635826771653
20
-4.8253550000000001
11
2.1400181496062993
21
-4.8071760236220475
0
LINE
8
BLACK
6
CONTINUOUS
10
2.1400181496062993
20
-4.8071760236220475
11
2.1420387401574801
21
-4.8044910629921258
0
LINE
8
BLACK
6
CONTINUOUS
10
2.1420387401574801
20
-4.8044910629921258
11
2.1449330314960631
21
-4.8027837795275587
0
LINE
8
BLACK
6
CONTINUOUS
10
2.1449330314960631
20
-4.8027837795275587
11
2.1482603543307088
21
-4.8023140157480313
0
LINE
8
BLACK
6
CONTINUOUS
10
2.1482603543307088
20
-4.8023140157480313
11
2.1515141732283465
21
-4.8031533858267714
  0
ENDSEC
  0
EOF
