<?xml version="1.0" standalone="no"?>
 <!DOCTYPE svg PUBLIC "-//W3C//DTD SVG 1.1//EN" 
 "http://www.w3.org/Graphics/SVG/1.1/DTD/svg11.dtd"> 
<svg
  xmlns:svg="http://www.w3.org/2000/svg"
  xmlns="http://www.w3.org/2000/svg"
  xmlns:xlink="http://www.w3.org/1999/xlink"
  version="1.1"
  width="297.0022mm" height="210.0072mm" viewBox="0.0000 0.0000 297.0022 210.0072">
<title>SVG Image created as flwr_v02-B_Paste.svg date 2026/01/10 12:26:17 </title>
  <desc>Image generated by PCBNEW </desc>
<g style="fill:#000000; fill-opacity:1.0000;stroke:#000000; stroke-opacity:1.0000;
stroke-linecap:round; stroke-linejoin:round;"
 transform="translate(0 0) scale(1 1)">
<path style="fill:#000000; fill-opacity:1.0000; stroke:none;fill-rule:evenodd;"
d="M 58.3500,131.9000
58.3500,136.0000
55.1200,136.0000
55.1200,131.9000
Z" /> 
<path style="fill:#000000; fill-opacity:1.0000; stroke:none;fill-rule:evenodd;"
d="M 44.8800,131.9000
44.8800,136.0000
41.6500,136.0000
41.6500,131.9000
Z" /> 
<path style="fill:#000000; fill-opacity:1.0000; stroke:none;fill-rule:evenodd;"
d="M 52.5500,140.7000
52.5386,140.7574
52.5061,140.8061
52.4574,140.8386
52.4000,140.8500
52.1000,140.8500
52.0426,140.8386
51.9939,140.8061
51.9614,140.7574
51.9500,140.7000
51.9500,139.7000
51.9614,139.6426
51.9939,139.5939
52.0426,139.5614
52.1000,139.5500
52.4000,139.5500
52.4574,139.5614
52.5061,139.5939
52.5386,139.6426
52.5500,139.7000
Z" /> 
<path style="fill:#000000; fill-opacity:1.0000; stroke:none;fill-rule:evenodd;"
d="M 49.5500,140.7000
49.5386,140.7574
49.5061,140.8061
49.4574,140.8386
49.4000,140.8500
49.1000,140.8500
49.0426,140.8386
48.9939,140.8061
48.9614,140.7574
48.9500,140.7000
48.9500,139.7000
48.9614,139.6426
48.9939,139.5939
49.0426,139.5614
49.1000,139.5500
49.4000,139.5500
49.4574,139.5614
49.5061,139.5939
49.5386,139.6426
49.5500,139.7000
Z" /> 
<path style="fill:#000000; fill-opacity:1.0000; stroke:none;fill-rule:evenodd;"
d="M 48.0500,140.7000
48.0386,140.7574
48.0061,140.8061
47.9574,140.8386
47.9000,140.8500
47.6000,140.8500
47.5426,140.8386
47.4939,140.8061
47.4614,140.7574
47.4500,140.7000
47.4500,139.7000
47.4614,139.6426
47.4939,139.5939
47.5426,139.5614
47.6000,139.5500
47.9000,139.5500
47.9574,139.5614
48.0061,139.5939
48.0386,139.6426
48.0500,139.7000
Z" /> 
<path style="fill:#000000; fill-opacity:1.0000; stroke:none;fill-rule:evenodd;"
d="M 54.2000,143.7250
54.1867,143.7920
54.1487,143.8487
54.0920,143.8867
54.0250,143.9000
53.3750,143.9000
53.3080,143.8867
53.2513,143.8487
53.2133,143.7920
53.2000,143.7250
53.2000,143.3750
53.2133,143.3080
53.2513,143.2513
53.3080,143.2133
53.3750,143.2000
54.0250,143.2000
54.0920,143.2133
54.1487,143.2513
54.1867,143.3080
54.2000,143.3750
Z" /> 
<path style="fill:#000000; fill-opacity:1.0000; stroke:none;fill-rule:evenodd;"
d="M 54.2000,141.4250
54.1867,141.4920
54.1487,141.5487
54.0920,141.5867
54.0250,141.6000
53.3750,141.6000
53.3080,141.5867
53.2513,141.5487
53.2133,141.4920
53.2000,141.4250
53.2000,141.0750
53.2133,141.0080
53.2513,140.9513
53.3080,140.9133
53.3750,140.9000
54.0250,140.9000
54.0920,140.9133
54.1487,140.9513
54.1867,141.0080
54.2000,141.0750
Z" /> 
<path style="fill:#000000; fill-opacity:1.0000; stroke:none;fill-rule:evenodd;"
d="M 46.8000,143.7250
46.7867,143.7920
46.7487,143.8487
46.6920,143.8867
46.6250,143.9000
45.9750,143.9000
45.9080,143.8867
45.8513,143.8487
45.8133,143.7920
45.8000,143.7250
45.8000,143.3750
45.8133,143.3080
45.8513,143.2513
45.9080,143.2133
45.9750,143.2000
46.6250,143.2000
46.6920,143.2133
46.7487,143.2513
46.7867,143.3080
46.8000,143.3750
Z" /> 
<path style="fill:#000000; fill-opacity:1.0000; stroke:none;fill-rule:evenodd;"
d="M 46.8000,141.4250
46.7867,141.4920
46.7487,141.5487
46.6920,141.5867
46.6250,141.6000
45.9750,141.6000
45.9080,141.5867
45.8513,141.5487
45.8133,141.4920
45.8000,141.4250
45.8000,141.0750
45.8133,141.0080
45.8513,140.9513
45.9080,140.9133
45.9750,140.9000
46.6250,140.9000
46.6920,140.9133
46.7487,140.9513
46.7867,141.0080
46.8000,141.0750
Z" /> 
</g> 
</svg>
