999
"DXF R12 Output" (www.mydxf.blogspot.com)
 0 
SECTION
 2 
HEADER
 9 
$ACADVER
 1 
AC1009
 9 
$EXTMIN
 10 
 0 
 20 
 0 
 9 
$EXTMAX
 10 
 8.5 
 20 
 11 
 0 
ENDSEC
 0 
SECTION
 2 
ENTITIES
0
POLYLINE
8
Layer 1
62
7
70
1
10
0.000000
20
0.000000
66
1
0
VERTEX
8
Layer 1
10
58.350000
20
78.107000
70
0
0
VERTEX
8
Layer 1
10
58.350000
20
74.007000
70
0
0
VERTEX
8
Layer 1
10
55.120000
20
74.007000
70
0
0
VERTEX
8
Layer 1
10
55.120000
20
78.107000
70
0
0
VERTEX
8
Layer 1
10
58.350000
20
78.107000
70
0
0
SEQEND
8
Layer 1
0
POLYLINE
8
Layer 1
62
7
70
1
10
0.000000
20
0.000000
66
1
0
VERTEX
8
Layer 1
10
44.880000
20
78.107000
70
0
0
VERTEX
8
Layer 1
10
44.880000
20
74.007000
70
0
0
VERTEX
8
Layer 1
10
41.650000
20
74.007000
70
0
0
VERTEX
8
Layer 1
10
41.650000
20
78.107000
70
0
0
VERTEX
8
Layer 1
10
44.880000
20
78.107000
70
0
0
SEQEND
8
Layer 1
0
POLYLINE
8
Layer 1
62
7
70
1
10
0.000000
20
0.000000
66
1
0
VERTEX
8
Layer 1
10
52.550000
20
69.307000
70
0
0
VERTEX
8
Layer 1
10
52.538600
20
69.249600
70
0
0
VERTEX
8
Layer 1
10
52.506100
20
69.200900
70
0
0
VERTEX
8
Layer 1
10
52.457400
20
69.168400
70
0
0
VERTEX
8
Layer 1
10
52.400000
20
69.157000
70
0
0
VERTEX
8
Layer 1
10
52.100000
20
69.157000
70
0
0
VERTEX
8
Layer 1
10
52.042600
20
69.168400
70
0
0
VERTEX
8
Layer 1
10
51.993900
20
69.200900
70
0
0
VERTEX
8
Layer 1
10
51.961400
20
69.249600
70
0
0
VERTEX
8
Layer 1
10
51.950000
20
69.307000
70
0
0
VERTEX
8
Layer 1
10
51.950000
20
70.307000
70
0
0
VERTEX
8
Layer 1
10
51.961400
20
70.364400
70
0
0
VERTEX
8
Layer 1
10
51.993900
20
70.413100
70
0
0
VERTEX
8
Layer 1
10
52.042600
20
70.445600
70
0
0
VERTEX
8
Layer 1
10
52.100000
20
70.457000
70
0
0
VERTEX
8
Layer 1
10
52.400000
20
70.457000
70
0
0
VERTEX
8
Layer 1
10
52.457400
20
70.445600
70
0
0
VERTEX
8
Layer 1
10
52.506100
20
70.413100
70
0
0
VERTEX
8
Layer 1
10
52.538600
20
70.364400
70
0
0
VERTEX
8
Layer 1
10
52.550000
20
70.307000
70
0
0
VERTEX
8
Layer 1
10
52.550000
20
69.307000
70
0
0
SEQEND
8
Layer 1
0
POLYLINE
8
Layer 1
62
7
70
1
10
0.000000
20
0.000000
66
1
0
VERTEX
8
Layer 1
10
49.550000
20
69.307000
70
0
0
VERTEX
8
Layer 1
10
49.538600
20
69.249600
70
0
0
VERTEX
8
Layer 1
10
49.506100
20
69.200900
70
0
0
VERTEX
8
Layer 1
10
49.457400
20
69.168400
70
0
0
VERTEX
8
Layer 1
10
49.400000
20
69.157000
70
0
0
VERTEX
8
Layer 1
10
49.100000
20
69.157000
70
0
0
VERTEX
8
Layer 1
10
49.042600
20
69.168400
70
0
0
VERTEX
8
Layer 1
10
48.993900
20
69.200900
70
0
0
VERTEX
8
Layer 1
10
48.961400
20
69.249600
70
0
0
VERTEX
8
Layer 1
10
48.950000
20
69.307000
70
0
0
VERTEX
8
Layer 1
10
48.950000
20
70.307000
70
0
0
VERTEX
8
Layer 1
10
48.961400
20
70.364400
70
0
0
VERTEX
8
Layer 1
10
48.993900
20
70.413100
70
0
0
VERTEX
8
Layer 1
10
49.042600
20
70.445600
70
0
0
VERTEX
8
Layer 1
10
49.100000
20
70.457000
70
0
0
VERTEX
8
Layer 1
10
49.400000
20
70.457000
70
0
0
VERTEX
8
Layer 1
10
49.457400
20
70.445600
70
0
0
VERTEX
8
Layer 1
10
49.506100
20
70.413100
70
0
0
VERTEX
8
Layer 1
10
49.538600
20
70.364400
70
0
0
VERTEX
8
Layer 1
10
49.550000
20
70.307000
70
0
0
VERTEX
8
Layer 1
10
49.550000
20
69.307000
70
0
0
SEQEND
8
Layer 1
0
POLYLINE
8
Layer 1
62
7
70
1
10
0.000000
20
0.000000
66
1
0
VERTEX
8
Layer 1
10
48.050000
20
69.307000
70
0
0
VERTEX
8
Layer 1
10
48.038600
20
69.249600
70
0
0
VERTEX
8
Layer 1
10
48.006100
20
69.200900
70
0
0
VERTEX
8
Layer 1
10
47.957400
20
69.168400
70
0
0
VERTEX
8
Layer 1
10
47.900000
20
69.157000
70
0
0
VERTEX
8
Layer 1
10
47.600000
20
69.157000
70
0
0
VERTEX
8
Layer 1
10
47.542600
20
69.168400
70
0
0
VERTEX
8
Layer 1
10
47.493900
20
69.200900
70
0
0
VERTEX
8
Layer 1
10
47.461400
20
69.249600
70
0
0
VERTEX
8
Layer 1
10
47.450000
20
69.307000
70
0
0
VERTEX
8
Layer 1
10
47.450000
20
70.307000
70
0
0
VERTEX
8
Layer 1
10
47.461400
20
70.364400
70
0
0
VERTEX
8
Layer 1
10
47.493900
20
70.413100
70
0
0
VERTEX
8
Layer 1
10
47.542600
20
70.445600
70
0
0
VERTEX
8
Layer 1
10
47.600000
20
70.457000
70
0
0
VERTEX
8
Layer 1
10
47.900000
20
70.457000
70
0
0
VERTEX
8
Layer 1
10
47.957400
20
70.445600
70
0
0
VERTEX
8
Layer 1
10
48.006100
20
70.413100
70
0
0
VERTEX
8
Layer 1
10
48.038600
20
70.364400
70
0
0
VERTEX
8
Layer 1
10
48.050000
20
70.307000
70
0
0
VERTEX
8
Layer 1
10
48.050000
20
69.307000
70
0
0
SEQEND
8
Layer 1
0
POLYLINE
8
Layer 1
62
7
70
1
10
0.000000
20
0.000000
66
1
0
VERTEX
8
Layer 1
10
54.200000
20
66.282000
70
0
0
VERTEX
8
Layer 1
10
54.186700
20
66.215000
70
0
0
VERTEX
8
Layer 1
10
54.148700
20
66.158300
70
0
0
VERTEX
8
Layer 1
10
54.092000
20
66.120300
70
0
0
VERTEX
8
Layer 1
10
54.025000
20
66.107000
70
0
0
VERTEX
8
Layer 1
10
53.375000
20
66.107000
70
0
0
VERTEX
8
Layer 1
10
53.308000
20
66.120300
70
0
0
VERTEX
8
Layer 1
10
53.251300
20
66.158300
70
0
0
VERTEX
8
Layer 1
10
53.213300
20
66.215000
70
0
0
VERTEX
8
Layer 1
10
53.200000
20
66.282000
70
0
0
VERTEX
8
Layer 1
10
53.200000
20
66.632000
70
0
0
VERTEX
8
Layer 1
10
53.213300
20
66.699000
70
0
0
VERTEX
8
Layer 1
10
53.251300
20
66.755700
70
0
0
VERTEX
8
Layer 1
10
53.308000
20
66.793700
70
0
0
VERTEX
8
Layer 1
10
53.375000
20
66.807000
70
0
0
VERTEX
8
Layer 1
10
54.025000
20
66.807000
70
0
0
VERTEX
8
Layer 1
10
54.092000
20
66.793700
70
0
0
VERTEX
8
Layer 1
10
54.148700
20
66.755700
70
0
0
VERTEX
8
Layer 1
10
54.186700
20
66.699000
70
0
0
VERTEX
8
Layer 1
10
54.200000
20
66.632000
70
0
0
VERTEX
8
Layer 1
10
54.200000
20
66.282000
70
0
0
SEQEND
8
Layer 1
0
POLYLINE
8
Layer 1
62
7
70
1
10
0.000000
20
0.000000
66
1
0
VERTEX
8
Layer 1
10
54.200000
20
68.582000
70
0
0
VERTEX
8
Layer 1
10
54.186700
20
68.515000
70
0
0
VERTEX
8
Layer 1
10
54.148700
20
68.458300
70
0
0
VERTEX
8
Layer 1
10
54.092000
20
68.420300
70
0
0
VERTEX
8
Layer 1
10
54.025000
20
68.407000
70
0
0
VERTEX
8
Layer 1
10
53.375000
20
68.407000
70
0
0
VERTEX
8
Layer 1
10
53.308000
20
68.420300
70
0
0
VERTEX
8
Layer 1
10
53.251300
20
68.458300
70
0
0
VERTEX
8
Layer 1
10
53.213300
20
68.515000
70
0
0
VERTEX
8
Layer 1
10
53.200000
20
68.582000
70
0
0
VERTEX
8
Layer 1
10
53.200000
20
68.932000
70
0
0
VERTEX
8
Layer 1
10
53.213300
20
68.999000
70
0
0
VERTEX
8
Layer 1
10
53.251300
20
69.055700
70
0
0
VERTEX
8
Layer 1
10
53.308000
20
69.093700
70
0
0
VERTEX
8
Layer 1
10
53.375000
20
69.107000
70
0
0
VERTEX
8
Layer 1
10
54.025000
20
69.107000
70
0
0
VERTEX
8
Layer 1
10
54.092000
20
69.093700
70
0
0
VERTEX
8
Layer 1
10
54.148700
20
69.055700
70
0
0
VERTEX
8
Layer 1
10
54.186700
20
68.999000
70
0
0
VERTEX
8
Layer 1
10
54.200000
20
68.932000
70
0
0
VERTEX
8
Layer 1
10
54.200000
20
68.582000
70
0
0
SEQEND
8
Layer 1
0
POLYLINE
8
Layer 1
62
7
70
1
10
0.000000
20
0.000000
66
1
0
VERTEX
8
Layer 1
10
46.800000
20
66.282000
70
0
0
VERTEX
8
Layer 1
10
46.786700
20
66.215000
70
0
0
VERTEX
8
Layer 1
10
46.748700
20
66.158300
70
0
0
VERTEX
8
Layer 1
10
46.692000
20
66.120300
70
0
0
VERTEX
8
Layer 1
10
46.625000
20
66.107000
70
0
0
VERTEX
8
Layer 1
10
45.975000
20
66.107000
70
0
0
VERTEX
8
Layer 1
10
45.908000
20
66.120300
70
0
0
VERTEX
8
Layer 1
10
45.851300
20
66.158300
70
0
0
VERTEX
8
Layer 1
10
45.813300
20
66.215000
70
0
0
VERTEX
8
Layer 1
10
45.800000
20
66.282000
70
0
0
VERTEX
8
Layer 1
10
45.800000
20
66.632000
70
0
0
VERTEX
8
Layer 1
10
45.813300
20
66.699000
70
0
0
VERTEX
8
Layer 1
10
45.851300
20
66.755700
70
0
0
VERTEX
8
Layer 1
10
45.908000
20
66.793700
70
0
0
VERTEX
8
Layer 1
10
45.975000
20
66.807000
70
0
0
VERTEX
8
Layer 1
10
46.625000
20
66.807000
70
0
0
VERTEX
8
Layer 1
10
46.692000
20
66.793700
70
0
0
VERTEX
8
Layer 1
10
46.748700
20
66.755700
70
0
0
VERTEX
8
Layer 1
10
46.786700
20
66.699000
70
0
0
VERTEX
8
Layer 1
10
46.800000
20
66.632000
70
0
0
VERTEX
8
Layer 1
10
46.800000
20
66.282000
70
0
0
SEQEND
8
Layer 1
0
POLYLINE
8
Layer 1
62
7
70
1
10
0.000000
20
0.000000
66
1
0
VERTEX
8
Layer 1
10
46.800000
20
68.582000
70
0
0
VERTEX
8
Layer 1
10
46.786700
20
68.515000
70
0
0
VERTEX
8
Layer 1
10
46.748700
20
68.458300
70
0
0
VERTEX
8
Layer 1
10
46.692000
20
68.420300
70
0
0
VERTEX
8
Layer 1
10
46.625000
20
68.407000
70
0
0
VERTEX
8
Layer 1
10
45.975000
20
68.407000
70
0
0
VERTEX
8
Layer 1
10
45.908000
20
68.420300
70
0
0
VERTEX
8
Layer 1
10
45.851300
20
68.458300
70
0
0
VERTEX
8
Layer 1
10
45.813300
20
68.515000
70
0
0
VERTEX
8
Layer 1
10
45.800000
20
68.582000
70
0
0
VERTEX
8
Layer 1
10
45.800000
20
68.932000
70
0
0
VERTEX
8
Layer 1
10
45.813300
20
68.999000
70
0
0
VERTEX
8
Layer 1
10
45.851300
20
69.055700
70
0
0
VERTEX
8
Layer 1
10
45.908000
20
69.093700
70
0
0
VERTEX
8
Layer 1
10
45.975000
20
69.107000
70
0
0
VERTEX
8
Layer 1
10
46.625000
20
69.107000
70
0
0
VERTEX
8
Layer 1
10
46.692000
20
69.093700
70
0
0
VERTEX
8
Layer 1
10
46.748700
20
69.055700
70
0
0
VERTEX
8
Layer 1
10
46.786700
20
68.999000
70
0
0
VERTEX
8
Layer 1
10
46.800000
20
68.932000
70
0
0
VERTEX
8
Layer 1
10
46.800000
20
68.582000
70
0
0
SEQEND
8
Layer 1
 0 
ENDSEC
 0 
EOF