  0
SECTION
  2
HEADER
  9
$ANGBASE
  50
0.0
  9
$ANGDIR
  70
1
  9
$MEASUREMENT
  70
0
  0
ENDSEC
  0
SECTION
  2
TABLES
  0
TABLE
  2
LTYPE
  70
4
  0
LTYPE
  5
40F
  2
CONTINUOUS
  70
0
  3
Solid line
  72
65
  73
0
  40
0.0
  0
LTYPE
  5
410
  2
DASHDOT
 70
0
  3
Dash Dot ____ _ ____ _
 72
65
 73
4
 40
2.0
 49
1.25
 49
-0.25
 49
0.25
 49
-0.25
  0
LTYPE
  5
411
  2
DASHED
 70
0
  3
Dashed __ __ __ __ __
 72
65
 73
2
 40
0.75
 49
0.5
 49
-0.25
  0
LTYPE
  5
43B
  2
DOTTED
 70
0
  3
Dotted .  .  .  .
 72
65
 73
2
 40
0.2
 49
0.0
 49
-0.2
  0
ENDTAB
  0
TABLE
  2
STYLE
  70
4
  0
STYLE
  2
KICAD
  70
0
  40
0
  41
1
  42
1
  50
0
  71
0
  3
isocp.shx
  0
STYLE
  2
KICADB
  70
0
  40
0
  41
1
  42
1
  50
0
  71
0
  3
isocp.shx
  0
STYLE
  2
KICADI
  70
0
  40
0
  41
1
  42
1
  50
15
  71
0
  3
isocp.shx
  0
STYLE
  2
KICADBI
  70
0
  40
0
  41
1
  42
1
  50
15
  71
0
  3
isocp.shx
  0
ENDTAB
  0
TABLE
  2
LAYER
  70
1
  0
LAYER
  2
BLACK
  70
0
  62
7
  6
CONTINUOUS
  0
ENDTAB
  0
ENDSEC
  0
SECTION
  2
ENTITIES
0
LINE
8
BLACK
6
CONTINUOUS
10
1.8382665354330707
20
-5.638319724409449
11
1.8405017322834645
21
-5.6398132283464566
0
LINE
8
BLACK
6
CONTINUOUS
10
1.8405017322834645
20
-5.6398132283464566
11
1.8419952362204723
21
-5.6420484251968501
0
LINE
8
BLACK
6
CONTINUOUS
10
1.8419952362204723
20
-5.6420484251968501
11
1.8425196850393701
21
-5.6446850393700787
0
LINE
8
BLACK
6
CONTINUOUS
10
1.8425196850393701
20
-5.6446850393700787
11
1.8425196850393701
21
-5.6584645669291334
0
LINE
8
BLACK
6
CONTINUOUS
10
1.8425196850393701
20
-5.6584645669291334
11
1.8419952362204723
21
-5.6611011811023619
0
LINE
8
BLACK
6
CONTINUOUS
10
1.8419952362204723
20
-5.6611011811023619
11
1.8405017322834645
21
-5.6633363779527555
0
LINE
8
BLACK
6
CONTINUOUS
10
1.8405017322834645
20
-5.6633363779527555
11
1.8382665354330707
21
-5.664829881889764
0
LINE
8
BLACK
6
CONTINUOUS
10
1.8382665354330707
20
-5.664829881889764
11
1.8356299212598424
21
-5.6653543307086611
0
LINE
8
BLACK
6
CONTINUOUS
10
1.8356299212598424
20
-5.6653543307086611
11
1.8100393700787401
21
-5.6653543307086611
0
LINE
8
BLACK
6
CONTINUOUS
10
1.8100393700787401
20
-5.6653543307086611
11
1.8074027559055117
21
-5.664829881889764
0
LINE
8
BLACK
6
CONTINUOUS
10
1.8074027559055117
20
-5.664829881889764
11
1.8051675590551182
21
-5.6633363779527555
0
LINE
8
BLACK
6
CONTINUOUS
10
1.8051675590551182
20
-5.6633363779527555
11
1.8036740551181103
21
-5.6611011811023619
0
LINE
8
BLACK
6
CONTINUOUS
10
1.8036740551181103
20
-5.6611011811023619
11
1.8031496062992125
21
-5.6584645669291334
0
LINE
8
BLACK
6
CONTINUOUS
10
1.8031496062992125
20
-5.6584645669291334
11
1.8031496062992125
21
-5.6446850393700787
0
LINE
8
BLACK
6
CONTINUOUS
10
1.8031496062992125
20
-5.6446850393700787
11
1.8036740551181103
21
-5.6420484251968501
0
LINE
8
BLACK
6
CONTINUOUS
10
1.8036740551181103
20
-5.6420484251968501
11
1.8051675590551182
21
-5.6398132283464566
0
LINE
8
BLACK
6
CONTINUOUS
10
1.8051675590551182
20
-5.6398132283464566
11
1.8074027559055117
21
-5.638319724409449
0
LINE
8
BLACK
6
CONTINUOUS
10
1.8074027559055117
20
-5.638319724409449
11
1.8100393700787401
21
-5.6377952755905509
0
LINE
8
BLACK
6
CONTINUOUS
10
1.8100393700787401
20
-5.6377952755905509
11
1.8356299212598424
21
-5.6377952755905509
0
LINE
8
BLACK
6
CONTINUOUS
10
1.8356299212598424
20
-5.6377952755905509
11
1.8382665354330707
21
-5.638319724409449
0
LINE
8
BLACK
6
CONTINUOUS
10
2.129605118110236
20
-5.638319724409449
11
2.13184031496063
21
-5.6398132283464566
0
LINE
8
BLACK
6
CONTINUOUS
10
2.13184031496063
20
-5.6398132283464566
11
2.1333338188976376
21
-5.6420484251968501
0
LINE
8
BLACK
6
CONTINUOUS
10
2.1333338188976376
20
-5.6420484251968501
11
2.1338582677165352
21
-5.6446850393700787
0
LINE
8
BLACK
6
CONTINUOUS
10
2.1338582677165352
20
-5.6446850393700787
11
2.1338582677165352
21
-5.6584645669291334
0
LINE
8
BLACK
6
CONTINUOUS
10
2.1338582677165352
20
-5.6584645669291334
11
2.1333338188976376
21
-5.6611011811023619
0
LINE
8
BLACK
6
CONTINUOUS
10
2.1333338188976376
20
-5.6611011811023619
11
2.13184031496063
21
-5.6633363779527555
0
LINE
8
BLACK
6
CONTINUOUS
10
2.13184031496063
20
-5.6633363779527555
11
2.129605118110236
21
-5.664829881889764
0
LINE
8
BLACK
6
CONTINUOUS
10
2.129605118110236
20
-5.664829881889764
11
2.1269685039370079
21
-5.6653543307086611
0
LINE
8
BLACK
6
CONTINUOUS
10
2.1269685039370079
20
-5.6653543307086611
11
2.1013779527559056
21
-5.6653543307086611
0
LINE
8
BLACK
6
CONTINUOUS
10
2.1013779527559056
20
-5.6653543307086611
11
2.098741338582677
21
-5.664829881889764
0
LINE
8
BLACK
6
CONTINUOUS
10
2.098741338582677
20
-5.664829881889764
11
2.0965061417322834
21
-5.6633363779527555
0
LINE
8
BLACK
6
CONTINUOUS
10
2.0965061417322834
20
-5.6633363779527555
11
2.0950126377952754
21
-5.6611011811023619
0
LINE
8
BLACK
6
CONTINUOUS
10
2.0950126377952754
20
-5.6611011811023619
11
2.0944881889763778
21
-5.6584645669291334
0
LINE
8
BLACK
6
CONTINUOUS
10
2.0944881889763778
20
-5.6584645669291334
11
2.0944881889763778
21
-5.6446850393700787
0
LINE
8
BLACK
6
CONTINUOUS
10
2.0944881889763778
20
-5.6446850393700787
11
2.0950126377952754
21
-5.6420484251968501
0
LINE
8
BLACK
6
CONTINUOUS
10
2.0950126377952754
20
-5.6420484251968501
11
2.0965061417322834
21
-5.6398132283464566
0
LINE
8
BLACK
6
CONTINUOUS
10
2.0965061417322834
20
-5.6398132283464566
11
2.098741338582677
21
-5.638319724409449
0
LINE
8
BLACK
6
CONTINUOUS
10
2.098741338582677
20
-5.638319724409449
11
2.1013779527559056
21
-5.6377952755905509
0
LINE
8
BLACK
6
CONTINUOUS
10
2.1013779527559056
20
-5.6377952755905509
11
2.1269685039370079
21
-5.6377952755905509
0
LINE
8
BLACK
6
CONTINUOUS
10
2.1269685039370079
20
-5.6377952755905509
11
2.129605118110236
21
-5.638319724409449
0
LINE
8
BLACK
6
CONTINUOUS
10
1.8382665354330707
20
-5.5477685433070869
11
1.8405017322834645
21
-5.5492620472440946
0
LINE
8
BLACK
6
CONTINUOUS
10
1.8405017322834645
20
-5.5492620472440946
11
1.8419952362204723
21
-5.5514972440944881
0
LINE
8
BLACK
6
CONTINUOUS
10
1.8419952362204723
20
-5.5514972440944881
11
1.8425196850393701
21
-5.5541338582677167
0
LINE
8
BLACK
6
CONTINUOUS
10
1.8425196850393701
20
-5.5541338582677167
11
1.8425196850393701
21
-5.5679133858267713
0
LINE
8
BLACK
6
CONTINUOUS
10
1.8425196850393701
20
-5.5679133858267713
11
1.8419952362204723
21
-5.5705499999999999
0
LINE
8
BLACK
6
CONTINUOUS
10
1.8419952362204723
20
-5.5705499999999999
11
1.8405017322834645
21
-5.5727851968503934
0
LINE
8
BLACK
6
CONTINUOUS
10
1.8405017322834645
20
-5.5727851968503934
11
1.8382665354330707
21
-5.5742787007874011
0
LINE
8
BLACK
6
CONTINUOUS
10
1.8382665354330707
20
-5.5742787007874011
11
1.8356299212598424
21
-5.5748031496062991
0
LINE
8
BLACK
6
CONTINUOUS
10
1.8356299212598424
20
-5.5748031496062991
11
1.8100393700787401
21
-5.5748031496062991
0
LINE
8
BLACK
6
CONTINUOUS
10
1.8100393700787401
20
-5.5748031496062991
11
1.8074027559055117
21
-5.5742787007874011
0
LINE
8
BLACK
6
CONTINUOUS
10
1.8074027559055117
20
-5.5742787007874011
11
1.8051675590551182
21
-5.5727851968503934
0
LINE
8
BLACK
6
CONTINUOUS
10
1.8051675590551182
20
-5.5727851968503934
11
1.8036740551181103
21
-5.5705499999999999
0
LINE
8
BLACK
6
CONTINUOUS
10
1.8036740551181103
20
-5.5705499999999999
11
1.8031496062992125
21
-5.5679133858267713
0
LINE
8
BLACK
6
CONTINUOUS
10
1.8031496062992125
20
-5.5679133858267713
11
1.8031496062992125
21
-5.5541338582677167
0
LINE
8
BLACK
6
CONTINUOUS
10
1.8031496062992125
20
-5.5541338582677167
11
1.8036740551181103
21
-5.5514972440944881
0
LINE
8
BLACK
6
CONTINUOUS
10
1.8036740551181103
20
-5.5514972440944881
11
1.8051675590551182
21
-5.5492620472440946
0
LINE
8
BLACK
6
CONTINUOUS
10
1.8051675590551182
20
-5.5492620472440946
11
1.8074027559055117
21
-5.5477685433070869
0
LINE
8
BLACK
6
CONTINUOUS
10
1.8074027559055117
20
-5.5477685433070869
11
1.8100393700787401
21
-5.5472440944881889
0
LINE
8
BLACK
6
CONTINUOUS
10
1.8100393700787401
20
-5.5472440944881889
11
1.8356299212598424
21
-5.5472440944881889
0
LINE
8
BLACK
6
CONTINUOUS
10
1.8356299212598424
20
-5.5472440944881889
11
1.8382665354330707
21
-5.5477685433070869
0
LINE
8
BLACK
6
CONTINUOUS
10
2.129605118110236
20
-5.5477685433070869
11
2.13184031496063
21
-5.5492620472440946
0
LINE
8
BLACK
6
CONTINUOUS
10
2.13184031496063
20
-5.5492620472440946
11
2.1333338188976376
21
-5.5514972440944881
0
LINE
8
BLACK
6
CONTINUOUS
10
2.1333338188976376
20
-5.5514972440944881
11
2.1338582677165352
21
-5.5541338582677167
0
LINE
8
BLACK
6
CONTINUOUS
10
2.1338582677165352
20
-5.5541338582677167
11
2.1338582677165352
21
-5.5679133858267713
0
LINE
8
BLACK
6
CONTINUOUS
10
2.1338582677165352
20
-5.5679133858267713
11
2.1333338188976376
21
-5.5705499999999999
0
LINE
8
BLACK
6
CONTINUOUS
10
2.1333338188976376
20
-5.5705499999999999
11
2.13184031496063
21
-5.5727851968503934
0
LINE
8
BLACK
6
CONTINUOUS
10
2.13184031496063
20
-5.5727851968503934
11
2.129605118110236
21
-5.5742787007874011
0
LINE
8
BLACK
6
CONTINUOUS
10
2.129605118110236
20
-5.5742787007874011
11
2.1269685039370079
21
-5.5748031496062991
0
LINE
8
BLACK
6
CONTINUOUS
10
2.1269685039370079
20
-5.5748031496062991
11
2.1013779527559056
21
-5.5748031496062991
0
LINE
8
BLACK
6
CONTINUOUS
10
2.1013779527559056
20
-5.5748031496062991
11
2.098741338582677
21
-5.5742787007874011
0
LINE
8
BLACK
6
CONTINUOUS
10
2.098741338582677
20
-5.5742787007874011
11
2.0965061417322834
21
-5.5727851968503934
0
LINE
8
BLACK
6
CONTINUOUS
10
2.0965061417322834
20
-5.5727851968503934
11
2.0950126377952754
21
-5.5705499999999999
0
LINE
8
BLACK
6
CONTINUOUS
10
2.0950126377952754
20
-5.5705499999999999
11
2.0944881889763778
21
-5.5679133858267713
0
LINE
8
BLACK
6
CONTINUOUS
10
2.0944881889763778
20
-5.5679133858267713
11
2.0944881889763778
21
-5.5541338582677167
0
LINE
8
BLACK
6
CONTINUOUS
10
2.0944881889763778
20
-5.5541338582677167
11
2.0950126377952754
21
-5.5514972440944881
0
LINE
8
BLACK
6
CONTINUOUS
10
2.0950126377952754
20
-5.5514972440944881
11
2.0965061417322834
21
-5.5492620472440946
0
LINE
8
BLACK
6
CONTINUOUS
10
2.0965061417322834
20
-5.5492620472440946
11
2.098741338582677
21
-5.5477685433070869
0
LINE
8
BLACK
6
CONTINUOUS
10
2.098741338582677
20
-5.5477685433070869
11
2.1013779527559056
21
-5.5472440944881889
0
LINE
8
BLACK
6
CONTINUOUS
10
2.1013779527559056
20
-5.5472440944881889
11
2.1269685039370079
21
-5.5472440944881889
0
LINE
8
BLACK
6
CONTINUOUS
10
2.1269685039370079
20
-5.5472440944881889
11
2.129605118110236
21
-5.5477685433070869
0
LINE
8
BLACK
6
CONTINUOUS
10
1.8880867322834645
20
-5.4945440157480316
11
1.8900025984251969
21
-5.4958241732283462
0
LINE
8
BLACK
6
CONTINUOUS
10
1.8900025984251969
20
-5.4958241732283462
11
1.8912827559055119
21
-5.497740039370079
0
LINE
8
BLACK
6
CONTINUOUS
10
1.8912827559055119
20
-5.497740039370079
11
1.8917322834645669
21
-5.5
0
LINE
8
BLACK
6
CONTINUOUS
10
1.8917322834645669
20
-5.5
11
1.8917322834645669
21
-5.5393700787401574
0
LINE
8
BLACK
6
CONTINUOUS
10
1.8917322834645669
20
-5.5393700787401574
11
1.8912827559055119
21
-5.5416300393700784
0
LINE
8
BLACK
6
CONTINUOUS
10
1.8912827559055119
20
-5.5416300393700784
11
1.8900025984251969
21
-5.5435459055118113
0
LINE
8
BLACK
6
CONTINUOUS
10
1.8900025984251969
20
-5.5435459055118113
11
1.8880867322834645
21
-5.5448260629921258
0
LINE
8
BLACK
6
CONTINUOUS
10
1.8880867322834645
20
-5.5448260629921258
11
1.8858267716535433
21
-5.5452755905511806
0
LINE
8
BLACK
6
CONTINUOUS
10
1.8858267716535433
20
-5.5452755905511806
11
1.8740157480314961
21
-5.5452755905511806
0
LINE
8
BLACK
6
CONTINUOUS
10
1.8740157480314961
20
-5.5452755905511806
11
1.8717557874015747
21
-5.5448260629921258
0
LINE
8
BLACK
6
CONTINUOUS
10
1.8717557874015747
20
-5.5448260629921258
11
1.8698399212598424
21
-5.5435459055118113
0
LINE
8
BLACK
6
CONTINUOUS
10
1.8698399212598424
20
-5.5435459055118113
11
1.8685597637795275
21
-5.5416300393700784
0
LINE
8
BLACK
6
CONTINUOUS
10
1.8685597637795275
20
-5.5416300393700784
11
1.8681102362204725
21
-5.5393700787401574
0
LINE
8
BLACK
6
CONTINUOUS
10
1.8681102362204725
20
-5.5393700787401574
11
1.8681102362204725
21
-5.5
0
LINE
8
BLACK
6
CONTINUOUS
10
1.8681102362204725
20
-5.5
11
1.8685597637795275
21
-5.497740039370079
0
LINE
8
BLACK
6
CONTINUOUS
10
1.8685597637795275
20
-5.497740039370079
11
1.8698399212598424
21
-5.4958241732283462
0
LINE
8
BLACK
6
CONTINUOUS
10
1.8698399212598424
20
-5.4958241732283462
11
1.8717557874015747
21
-5.4945440157480316
0
LINE
8
BLACK
6
CONTINUOUS
10
1.8717557874015747
20
-5.4945440157480316
11
1.8740157480314961
21
-5.4940944881889759
0
LINE
8
BLACK
6
CONTINUOUS
10
1.8740157480314961
20
-5.4940944881889759
11
1.8858267716535433
21
-5.4940944881889759
0
LINE
8
BLACK
6
CONTINUOUS
10
1.8858267716535433
20
-5.4940944881889759
11
1.8880867322834645
21
-5.4945440157480316
0
LINE
8
BLACK
6
CONTINUOUS
10
1.9471418503937008
20
-5.4945440157480316
11
1.949057716535433
21
-5.4958241732283462
0
LINE
8
BLACK
6
CONTINUOUS
10
1.949057716535433
20
-5.4958241732283462
11
1.950337874015748
21
-5.497740039370079
0
LINE
8
BLACK
6
CONTINUOUS
10
1.950337874015748
20
-5.497740039370079
11
1.950787401574803
21
-5.5
0
LINE
8
BLACK
6
CONTINUOUS
10
1.950787401574803
20
-5.5
11
1.950787401574803
21
-5.5393700787401574
0
LINE
8
BLACK
6
CONTINUOUS
10
1.950787401574803
20
-5.5393700787401574
11
1.950337874015748
21
-5.5416300393700784
0
LINE
8
BLACK
6
CONTINUOUS
10
1.950337874015748
20
-5.5416300393700784
11
1.949057716535433
21
-5.5435459055118113
0
LINE
8
BLACK
6
CONTINUOUS
10
1.949057716535433
20
-5.5435459055118113
11
1.9471418503937008
21
-5.5448260629921258
0
LINE
8
BLACK
6
CONTINUOUS
10
1.9471418503937008
20
-5.5448260629921258
11
1.9448818897637794
21
-5.5452755905511806
0
LINE
8
BLACK
6
CONTINUOUS
10
1.9448818897637794
20
-5.5452755905511806
11
1.9330708661417322
21
-5.5452755905511806
0
LINE
8
BLACK
6
CONTINUOUS
10
1.9330708661417322
20
-5.5452755905511806
11
1.930810905511811
21
-5.5448260629921258
0
LINE
8
BLACK
6
CONTINUOUS
10
1.930810905511811
20
-5.5448260629921258
11
1.9288950393700788
21
-5.5435459055118113
0
LINE
8
BLACK
6
CONTINUOUS
10
1.9288950393700788
20
-5.5435459055118113
11
1.9276148818897638
21
-5.5416300393700784
0
LINE
8
BLACK
6
CONTINUOUS
10
1.9276148818897638
20
-5.5416300393700784
11
1.9271653543307086
21
-5.5393700787401574
0
LINE
8
BLACK
6
CONTINUOUS
10
1.9271653543307086
20
-5.5393700787401574
11
1.9271653543307086
21
-5.5
0
LINE
8
BLACK
6
CONTINUOUS
10
1.9271653543307086
20
-5.5
11
1.9276148818897638
21
-5.497740039370079
0
LINE
8
BLACK
6
CONTINUOUS
10
1.9276148818897638
20
-5.497740039370079
11
1.9288950393700788
21
-5.4958241732283462
0
LINE
8
BLACK
6
CONTINUOUS
10
1.9288950393700788
20
-5.4958241732283462
11
1.930810905511811
21
-5.4945440157480316
0
LINE
8
BLACK
6
CONTINUOUS
10
1.930810905511811
20
-5.4945440157480316
11
1.9330708661417322
21
-5.4940944881889759
0
LINE
8
BLACK
6
CONTINUOUS
10
1.9330708661417322
20
-5.4940944881889759
11
1.9448818897637794
21
-5.4940944881889759
0
LINE
8
BLACK
6
CONTINUOUS
10
1.9448818897637794
20
-5.4940944881889759
11
1.9471418503937008
21
-5.4945440157480316
0
LINE
8
BLACK
6
CONTINUOUS
10
2.0652520866141733
20
-5.4945440157480316
11
2.0671679527559053
21
-5.4958241732283462
0
LINE
8
BLACK
6
CONTINUOUS
10
2.0671679527559053
20
-5.4958241732283462
11
2.0684481102362202
21
-5.497740039370079
0
LINE
8
BLACK
6
CONTINUOUS
10
2.0684481102362202
20
-5.497740039370079
11
2.0688976377952755
21
-5.5
0
LINE
8
BLACK
6
CONTINUOUS
10
2.0688976377952755
20
-5.5
11
2.0688976377952755
21
-5.5393700787401574
0
LINE
8
BLACK
6
CONTINUOUS
10
2.0688976377952755
20
-5.5393700787401574
11
2.0684481102362202
21
-5.5416300393700784
0
LINE
8
BLACK
6
CONTINUOUS
10
2.0684481102362202
20
-5.5416300393700784
11
2.0671679527559053
21
-5.5435459055118113
0
LINE
8
BLACK
6
CONTINUOUS
10
2.0671679527559053
20
-5.5435459055118113
11
2.0652520866141733
21
-5.5448260629921258
0
LINE
8
BLACK
6
CONTINUOUS
10
2.0652520866141733
20
-5.5448260629921258
11
2.0629921259842519
21
-5.5452755905511806
0
LINE
8
BLACK
6
CONTINUOUS
10
2.0629921259842519
20
-5.5452755905511806
11
2.0511811023622046
21
-5.5452755905511806
0
LINE
8
BLACK
6
CONTINUOUS
10
2.0511811023622046
20
-5.5452755905511806
11
2.0489211417322832
21
-5.5448260629921258
0
LINE
8
BLACK
6
CONTINUOUS
10
2.0489211417322832
20
-5.5448260629921258
11
2.0470052755905512
21
-5.5435459055118113
0
LINE
8
BLACK
6
CONTINUOUS
10
2.0470052755905512
20
-5.5435459055118113
11
2.0457251181102363
21
-5.5416300393700784
0
LINE
8
BLACK
6
CONTINUOUS
10
2.0457251181102363
20
-5.5416300393700784
11
2.045275590551181
21
-5.5393700787401574
0
LINE
8
BLACK
6
CONTINUOUS
10
2.045275590551181
20
-5.5393700787401574
11
2.045275590551181
21
-5.5
0
LINE
8
BLACK
6
CONTINUOUS
10
2.045275590551181
20
-5.5
11
2.0457251181102363
21
-5.497740039370079
0
LINE
8
BLACK
6
CONTINUOUS
10
2.0457251181102363
20
-5.497740039370079
11
2.0470052755905512
21
-5.4958241732283462
0
LINE
8
BLACK
6
CONTINUOUS
10
2.0470052755905512
20
-5.4958241732283462
11
2.0489211417322832
21
-5.4945440157480316
0
LINE
8
BLACK
6
CONTINUOUS
10
2.0489211417322832
20
-5.4945440157480316
11
2.0511811023622046
21
-5.4940944881889759
0
LINE
8
BLACK
6
CONTINUOUS
10
2.0511811023622046
20
-5.4940944881889759
11
2.0629921259842519
21
-5.4940944881889759
0
LINE
8
BLACK
6
CONTINUOUS
10
2.0629921259842519
20
-5.4940944881889759
11
2.0652520866141733
21
-5.4945440157480316
0
LINE
8
BLACK
6
CONTINUOUS
10
1.7669291338582678
20
-5.3543307086614176
11
1.639763779527559
21
-5.3543307086614176
0
LINE
8
BLACK
6
CONTINUOUS
10
1.639763779527559
20
-5.3543307086614176
11
1.639763779527559
21
-5.1929133858267713
0
LINE
8
BLACK
6
CONTINUOUS
10
1.639763779527559
20
-5.1929133858267713
11
1.7669291338582678
21
-5.1929133858267713
0
LINE
8
BLACK
6
CONTINUOUS
10
1.7669291338582678
20
-5.1929133858267713
11
1.7669291338582678
21
-5.3543307086614176
0
LINE
8
BLACK
6
CONTINUOUS
10
2.2972440944881889
20
-5.3543307086614176
11
2.1700787401574804
21
-5.3543307086614176
0
LINE
8
BLACK
6
CONTINUOUS
10
2.1700787401574804
20
-5.3543307086614176
11
2.1700787401574804
21
-5.1929133858267713
0
LINE
8
BLACK
6
CONTINUOUS
10
2.1700787401574804
20
-5.1929133858267713
11
2.2972440944881889
21
-5.1929133858267713
0
LINE
8
BLACK
6
CONTINUOUS
10
2.2972440944881889
20
-5.1929133858267713
11
2.2972440944881889
21
-5.3543307086614176
  0
ENDSEC
  0
EOF
